<?xml version="1.0" encoding="UTF-8" standalone="no"?>
<!DOCTYPE svg PUBLIC "-//W3C//DTD SVG 1.1//EN"
 "http://www.w3.org/Graphics/SVG/1.1/DTD/svg11.dtd">
<!-- Generated by graphviz version 2.40.1 (20161225.0304)
 -->
<!-- Title: G Pages: 1 -->
<svg width="1324pt" height="1156pt"
 viewBox="0.00 0.00 1324.00 1156.00" xmlns="http://www.w3.org/2000/svg" xmlns:xlink="http://www.w3.org/1999/xlink">
<g id="graph0" class="graph" transform="scale(1 1) rotate(0) translate(4 1152)">
<title>G</title>
<polygon fill="#ffffff" stroke="transparent" points="-4,4 -4,-1152 1320,-1152 1320,4 -4,4"/>
<!-- ca -->
<g id="node1" class="node">
<title>ca</title>
<path fill="none" stroke="#000000" d="M1303,-907C1303,-907 1156,-907 1156,-907 1150,-907 1144,-901 1144,-895 1144,-895 1144,-883 1144,-883 1144,-877 1150,-871 1156,-871 1156,-871 1303,-871 1303,-871 1309,-871 1315,-877 1315,-883 1315,-883 1315,-895 1315,-895 1315,-901 1309,-907 1303,-907"/>
<text text-anchor="middle" x="1229.5" y="-885.3" font-family="Times,serif" font-size="14.00" fill="#000000">Common Annotations</text>
</g>
<!-- ejb -->
<g id="node2" class="node">
<title>ejb</title>
<path fill="none" stroke="#000000" d="M344,-696C344,-696 314,-696 314,-696 308,-696 302,-690 302,-684 302,-684 302,-672 302,-672 302,-666 308,-660 314,-660 314,-660 344,-660 344,-660 350,-660 356,-666 356,-672 356,-672 356,-684 356,-684 356,-690 350,-696 344,-696"/>
<text text-anchor="middle" x="329" y="-674.3" font-family="Times,serif" font-size="14.00" fill="#000000">EJB</text>
</g>
<!-- interceptors -->
<g id="node5" class="node">
<title>interceptors</title>
<path fill="none" stroke="#000000" d="M1271,-738C1271,-738 1188,-738 1188,-738 1182,-738 1176,-732 1176,-726 1176,-726 1176,-714 1176,-714 1176,-708 1182,-702 1188,-702 1188,-702 1271,-702 1271,-702 1277,-702 1283,-708 1283,-714 1283,-714 1283,-726 1283,-726 1283,-732 1277,-738 1271,-738"/>
<text text-anchor="middle" x="1229.5" y="-716.3" font-family="Times,serif" font-size="14.00" fill="#000000">Interceptors</text>
</g>
<!-- ejb&#45;&gt;interceptors -->
<g id="edge1" class="edge">
<title>ejb&#45;&gt;interceptors</title>
<path fill="none" stroke="#000000" d="M329.7709,-696.2599C332.4333,-751.5833 342.855,-916.123 374,-958 402.5886,-996.4396 427.9094,-984.0689 471,-1005 522.1355,-1029.8388 530.6041,-1048.2291 586,-1061 780.7822,-1105.9047 871.658,-1122.3607 1032,-1003 1080.784,-966.6845 1176.4007,-809.9899 1213.8905,-746.6833"/>
<polygon fill="#000000" stroke="#000000" points="1216.9195,-748.4371 1218.9876,-738.0461 1210.891,-744.8795 1216.9195,-748.4371"/>
<text text-anchor="middle" x="765" y="-1097" font-family="Times,serif" font-size="10.00" fill="#000000">requires</text>
</g>
<!-- jacc -->
<g id="node6" class="node">
<title>jacc</title>
<path fill="none" stroke="#000000" d="M1013,-211C1013,-211 981,-211 981,-211 975,-211 969,-205 969,-199 969,-199 969,-187 969,-187 969,-181 975,-175 981,-175 981,-175 1013,-175 1013,-175 1019,-175 1025,-181 1025,-187 1025,-187 1025,-199 1025,-199 1025,-205 1019,-211 1013,-211"/>
<text text-anchor="middle" x="997" y="-189.3" font-family="Times,serif" font-size="14.00" fill="#000000">JACC</text>
</g>
<!-- ejb&#45;&gt;jacc -->
<g id="edge32" class="edge">
<title>ejb&#45;&gt;jacc</title>
<path fill="none" stroke="#000000" stroke-dasharray="5,2" d="M330.0518,-659.7738C334.2231,-590.3521 350.5248,-345.1105 374,-320 385.016,-308.2166 928.3422,-212.8775 944,-209 948.9462,-207.7751 954.1168,-206.3714 959.2067,-204.9154"/>
<polygon fill="#000000" stroke="#000000" points="960.2121,-208.268 968.8151,-202.0843 958.2336,-201.5534 960.2121,-208.268"/>
<text text-anchor="middle" x="623.5" y="-278" font-family="Times,serif" font-size="10.00" fill="#000000">integrates with</text>
</g>
<!-- jaxrs -->
<g id="node13" class="node">
<title>jaxrs</title>
<path fill="none" stroke="#000000" d="M550.5,-671C550.5,-671 506.5,-671 506.5,-671 500.5,-671 494.5,-665 494.5,-659 494.5,-659 494.5,-647 494.5,-647 494.5,-641 500.5,-635 506.5,-635 506.5,-635 550.5,-635 550.5,-635 556.5,-635 562.5,-641 562.5,-647 562.5,-647 562.5,-659 562.5,-659 562.5,-665 556.5,-671 550.5,-671"/>
<text text-anchor="middle" x="528.5" y="-649.3" font-family="Times,serif" font-size="14.00" fill="#000000">JAX&#45;RS</text>
</g>
<!-- ejb&#45;&gt;jaxrs -->
<g id="edge30" class="edge">
<title>ejb&#45;&gt;jaxrs</title>
<path fill="none" stroke="#000000" stroke-dasharray="5,2" d="M366.0023,-665.7538C368.6915,-665.0904 371.3769,-664.4946 374,-664 410.7992,-657.062 453.2807,-654.4172 484.3732,-653.4478"/>
<polygon fill="#000000" stroke="#000000" points="365.0756,-662.3786 356.3518,-668.3908 366.9208,-669.1311 365.0756,-662.3786"/>
<polygon fill="#000000" stroke="#000000" points="484.553,-656.9444 494.4563,-653.1796 484.3668,-649.9469 484.553,-656.9444"/>
<text text-anchor="middle" x="422.5" y="-667" font-family="Times,serif" font-size="10.00" fill="#000000">integrates with</text>
</g>
<!-- jms -->
<g id="node15" class="node">
<title>jms</title>
<path fill="none" stroke="#000000" d="M543.5,-725C543.5,-725 513.5,-725 513.5,-725 507.5,-725 501.5,-719 501.5,-713 501.5,-713 501.5,-701 501.5,-701 501.5,-695 507.5,-689 513.5,-689 513.5,-689 543.5,-689 543.5,-689 549.5,-689 555.5,-695 555.5,-701 555.5,-701 555.5,-713 555.5,-713 555.5,-719 549.5,-725 543.5,-725"/>
<text text-anchor="middle" x="528.5" y="-703.3" font-family="Times,serif" font-size="14.00" fill="#000000">JMS</text>
</g>
<!-- ejb&#45;&gt;jms -->
<g id="edge3" class="edge">
<title>ejb&#45;&gt;jms</title>
<path fill="none" stroke="#000000" d="M356.3213,-681.9715C391.2934,-687.0552 452.0358,-695.8849 491.2315,-701.5825"/>
<polygon fill="#000000" stroke="#000000" points="490.7898,-705.055 501.1893,-703.03 491.7968,-698.1278 490.7898,-705.055"/>
<text text-anchor="middle" x="422.5" y="-702" font-family="Times,serif" font-size="10.00" fill="#000000">requires</text>
</g>
<!-- jta -->
<g id="node22" class="node">
<title>jta</title>
<path fill="none" stroke="#000000" d="M780,-426C780,-426 750,-426 750,-426 744,-426 738,-420 738,-414 738,-414 738,-402 738,-402 738,-396 744,-390 750,-390 750,-390 780,-390 780,-390 786,-390 792,-396 792,-402 792,-402 792,-414 792,-414 792,-420 786,-426 780,-426"/>
<text text-anchor="middle" x="765" y="-404.3" font-family="Times,serif" font-size="14.00" fill="#000000">JTA</text>
</g>
<!-- ejb&#45;&gt;jta -->
<g id="edge2" class="edge">
<title>ejb&#45;&gt;jta</title>
<path fill="none" stroke="#000000" d="M333.72,-659.8605C347.6573,-610.457 393.7529,-473.5103 489,-418 564.2677,-374.1338 671.7222,-387.4969 727.7617,-398.9506"/>
<polygon fill="#000000" stroke="#000000" points="727.0974,-402.3876 737.6078,-401.0528 728.5591,-395.5419 727.0974,-402.3876"/>
<text text-anchor="middle" x="528.5" y="-421" font-family="Times,serif" font-size="10.00" fill="#000000">requires</text>
</g>
<!-- jaxrpc -->
<g id="node28" class="node">
<title>jaxrpc</title>
<path fill="none" stroke="#000000" d="M556,-365C556,-365 501,-365 501,-365 495,-365 489,-359 489,-353 489,-353 489,-341 489,-341 489,-335 495,-329 501,-329 501,-329 556,-329 556,-329 562,-329 568,-335 568,-341 568,-341 568,-353 568,-353 568,-359 562,-365 556,-365"/>
<text text-anchor="middle" x="528.5" y="-343.3" font-family="Times,serif" font-size="14.00" fill="#000000">JAX&#45;RPC</text>
</g>
<!-- ejb&#45;&gt;jaxrpc -->
<g id="edge31" class="edge">
<title>ejb&#45;&gt;jaxrpc</title>
<path fill="none" stroke="#000000" stroke-dasharray="5,2" d="M331.3888,-649.8227C337.6502,-578.9634 355.3476,-397.592 374,-378 381.3129,-370.3187 436.4549,-360.5687 478.7992,-354.0745"/>
<polygon fill="#000000" stroke="#000000" points="327.8986,-649.5584 330.5163,-659.8248 334.8721,-650.1668 327.8986,-649.5584"/>
<polygon fill="#000000" stroke="#000000" points="479.3403,-357.5326 488.7053,-352.5782 478.2947,-350.6111 479.3403,-357.5326"/>
<text text-anchor="middle" x="422.5" y="-381" font-family="Times,serif" font-size="10.00" fill="#000000">integrates with</text>
</g>
<!-- el -->
<g id="node3" class="node">
<title>el</title>
<path fill="none" stroke="#000000" d="M1303,-384C1303,-384 1156,-384 1156,-384 1150,-384 1144,-378 1144,-372 1144,-372 1144,-360 1144,-360 1144,-354 1150,-348 1156,-348 1156,-348 1303,-348 1303,-348 1309,-348 1315,-354 1315,-360 1315,-360 1315,-372 1315,-372 1315,-378 1309,-384 1303,-384"/>
<text text-anchor="middle" x="1229.5" y="-362.3" font-family="Times,serif" font-size="14.00" fill="#000000">Expression Language</text>
</g>
<!-- es -->
<g id="node4" class="node">
<title>es</title>
<path fill="none" stroke="#000000" d="M832,-372C832,-372 698,-372 698,-372 692,-372 686,-366 686,-360 686,-360 686,-348 686,-348 686,-342 692,-336 698,-336 698,-336 832,-336 832,-336 838,-336 844,-342 844,-348 844,-348 844,-360 844,-360 844,-366 838,-372 832,-372"/>
<text text-anchor="middle" x="765" y="-350.3" font-family="Times,serif" font-size="14.00" fill="#000000">Enterprise Security</text>
</g>
<!-- es&#45;&gt;el -->
<g id="edge16" class="edge">
<title>es&#45;&gt;el</title>
<path fill="none" stroke="#000000" d="M844.0592,-356.0424C924.0675,-358.1094 1047.8579,-361.3074 1133.4636,-363.519"/>
<polygon fill="#000000" stroke="#000000" points="1133.6214,-367.0241 1143.7085,-363.7836 1133.8023,-360.0265 1133.6214,-367.0241"/>
<text text-anchor="middle" x="997" y="-364" font-family="Times,serif" font-size="10.00" fill="#000000">requires</text>
</g>
<!-- jaspic -->
<g id="node9" class="node">
<title>jaspic</title>
<path fill="none" stroke="#000000" d="M1020,-302C1020,-302 974,-302 974,-302 968,-302 962,-296 962,-290 962,-290 962,-278 962,-278 962,-272 968,-266 974,-266 974,-266 1020,-266 1020,-266 1026,-266 1032,-272 1032,-278 1032,-278 1032,-290 1032,-290 1032,-296 1026,-302 1020,-302"/>
<text text-anchor="middle" x="997" y="-280.3" font-family="Times,serif" font-size="14.00" fill="#000000">JASPIC</text>
</g>
<!-- es&#45;&gt;jaspic -->
<g id="edge14" class="edge">
<title>es&#45;&gt;jaspic</title>
<path fill="none" stroke="#000000" d="M844.3738,-344.5372C876.1286,-339.096 912.558,-330.72 944,-318 950.8975,-315.2096 957.8737,-311.4996 964.3993,-307.5563"/>
<polygon fill="#000000" stroke="#000000" points="966.414,-310.4227 972.9686,-302.0988 962.6538,-304.5184 966.414,-310.4227"/>
<text text-anchor="middle" x="906.5" y="-343" font-family="Times,serif" font-size="10.00" fill="#000000">requires</text>
</g>
<!-- cdi -->
<g id="node30" class="node">
<title>cdi</title>
<path fill="none" stroke="#000000" d="M1012,-564C1012,-564 982,-564 982,-564 976,-564 970,-558 970,-552 970,-552 970,-540 970,-540 970,-534 976,-528 982,-528 982,-528 1012,-528 1012,-528 1018,-528 1024,-534 1024,-540 1024,-540 1024,-552 1024,-552 1024,-558 1018,-564 1012,-564"/>
<text text-anchor="middle" x="997" y="-542.3" font-family="Times,serif" font-size="14.00" fill="#000000">CDI</text>
</g>
<!-- es&#45;&gt;cdi -->
<g id="edge15" class="edge">
<title>es&#45;&gt;cdi</title>
<path fill="none" stroke="#000000" d="M843.7872,-372.054C888.094,-382.8211 936.0998,-395.7642 944,-403 976.8033,-433.0445 989.3776,-485.2445 994.1462,-517.5792"/>
<polygon fill="#000000" stroke="#000000" points="990.7062,-518.2652 995.482,-527.7226 997.6463,-517.3512 990.7062,-518.2652"/>
<text text-anchor="middle" x="906.5" y="-406" font-family="Times,serif" font-size="10.00" fill="#000000">requires</text>
</g>
<!-- jaf -->
<g id="node7" class="node">
<title>jaf</title>
<path fill="none" stroke="#000000" d="M1012,-994C1012,-994 982,-994 982,-994 976,-994 970,-988 970,-982 970,-982 970,-970 970,-970 970,-964 976,-958 982,-958 982,-958 1012,-958 1012,-958 1018,-958 1024,-964 1024,-970 1024,-970 1024,-982 1024,-982 1024,-988 1018,-994 1012,-994"/>
<text text-anchor="middle" x="997" y="-972.3" font-family="Times,serif" font-size="14.00" fill="#000000">JAF</text>
</g>
<!-- javamail -->
<g id="node8" class="node">
<title>javamail</title>
<path fill="none" stroke="#000000" d="M556,-919C556,-919 501,-919 501,-919 495,-919 489,-913 489,-907 489,-907 489,-895 489,-895 489,-889 495,-883 501,-883 501,-883 556,-883 556,-883 562,-883 568,-889 568,-895 568,-895 568,-907 568,-907 568,-913 562,-919 556,-919"/>
<text text-anchor="middle" x="528.5" y="-897.3" font-family="Times,serif" font-size="14.00" fill="#000000">JavaMail</text>
</g>
<!-- javamail&#45;&gt;jaf -->
<g id="edge12" class="edge">
<title>javamail&#45;&gt;jaf</title>
<path fill="none" stroke="#000000" d="M567.9142,-919.093C573.8842,-921.3511 580.0405,-923.4183 586,-925 720.4625,-960.6882 886.4479,-971.563 959.4972,-974.7461"/>
<polygon fill="#000000" stroke="#000000" points="959.4501,-978.247 969.5858,-975.1619 959.7384,-971.253 959.4501,-978.247"/>
<text text-anchor="middle" x="765" y="-970" font-family="Times,serif" font-size="10.00" fill="#000000">requires</text>
</g>
<!-- jca -->
<g id="node14" class="node">
<title>jca</title>
<path fill="none" stroke="#000000" d="M780,-828C780,-828 750,-828 750,-828 744,-828 738,-822 738,-816 738,-816 738,-804 738,-804 738,-798 744,-792 750,-792 750,-792 780,-792 780,-792 786,-792 792,-798 792,-804 792,-804 792,-816 792,-816 792,-822 786,-828 780,-828"/>
<text text-anchor="middle" x="765" y="-806.3" font-family="Times,serif" font-size="14.00" fill="#000000">JCA</text>
</g>
<!-- javamail&#45;&gt;jca -->
<g id="edge56" class="edge">
<title>javamail&#45;&gt;jca</title>
<path fill="none" stroke="#000000" stroke-dasharray="5,2" d="M568.2793,-890.4953C600.826,-881.7333 644.1342,-869.6447 661,-863 684.2757,-853.8299 709.2873,-841.1793 728.9481,-830.5374"/>
<polygon fill="#000000" stroke="#000000" points="730.7712,-833.5295 737.8585,-825.6542 727.4069,-827.3909 730.7712,-833.5295"/>
<text text-anchor="middle" x="623.5" y="-888" font-family="Times,serif" font-size="10.00" fill="#000000">integrates with</text>
</g>
<!-- jaxws -->
<g id="node10" class="node">
<title>jaxws</title>
<path fill="none" stroke="#000000" d="M119,-986C119,-986 72,-986 72,-986 66,-986 60,-980 60,-974 60,-974 60,-962 60,-962 60,-956 66,-950 72,-950 72,-950 119,-950 119,-950 125,-950 131,-956 131,-962 131,-962 131,-974 131,-974 131,-980 125,-986 119,-986"/>
<text text-anchor="middle" x="95.5" y="-964.3" font-family="Times,serif" font-size="14.00" fill="#000000">JAX&#45;WS</text>
</g>
<!-- jaxws&#45;&gt;ca -->
<g id="edge23" class="edge">
<title>jaxws&#45;&gt;ca</title>
<path fill="none" stroke="#000000" d="M131.1039,-969.2093C151.437,-971.8183 175.8269,-978.5234 191,-995 219.2238,-1025.6483 180.7849,-1056.3437 209,-1087 246.5393,-1127.7872 273.5672,-1121 329,-1121 329,-1121 329,-1121 997,-1121 1111.5134,-1121 1189.4389,-978.2345 1217.7117,-916.6895"/>
<polygon fill="#000000" stroke="#000000" points="1221.0671,-917.761 1221.9696,-907.2047 1214.6811,-914.8941 1221.0671,-917.761"/>
<text text-anchor="middle" x="623.5" y="-1124" font-family="Times,serif" font-size="10.00" fill="#000000">requires</text>
</g>
<!-- jaxws&#45;&gt;ejb -->
<g id="edge39" class="edge">
<title>jaxws&#45;&gt;ejb</title>
<path fill="none" stroke="#000000" stroke-dasharray="5,2" d="M110.1065,-949.8592C150.0743,-900.2204 261.3544,-762.0138 308.0018,-704.0791"/>
<polygon fill="#000000" stroke="#000000" points="310.8537,-706.118 314.399,-696.1339 305.4014,-701.7279 310.8537,-706.118"/>
<text text-anchor="middle" x="246.5" y="-826" font-family="Times,serif" font-size="10.00" fill="#000000">integrates with</text>
</g>
<!-- jaxws&#45;&gt;jaf -->
<g id="edge13" class="edge">
<title>jaxws&#45;&gt;jaf</title>
<path fill="none" stroke="#000000" d="M131.2527,-971.0694C153.5845,-972.8502 182.9464,-974.9442 209,-976 417.7294,-984.4588 470.1022,-979.8889 679,-981 796.7761,-981.6265 826.3525,-986.5371 944,-981 949.1194,-980.7591 954.5078,-980.3879 959.8085,-979.9542"/>
<polygon fill="#000000" stroke="#000000" points="960.1512,-983.4376 969.7998,-979.061 959.5279,-976.4654 960.1512,-983.4376"/>
<text text-anchor="middle" x="528.5" y="-984" font-family="Times,serif" font-size="10.00" fill="#000000">requires</text>
</g>
<!-- jaxws&#45;&gt;jaspic -->
<g id="edge41" class="edge">
<title>jaxws&#45;&gt;jaspic</title>
<path fill="none" stroke="#000000" stroke-dasharray="5,2" d="M97.3954,-949.813C109.4159,-839.1513 179.3768,-261 329,-261 329,-261 329,-261 765,-261 830.0987,-261 904.9733,-270.0785 951.6445,-276.8281"/>
<polygon fill="#000000" stroke="#000000" points="951.33,-280.3194 961.7334,-278.3146 952.3504,-273.3942 951.33,-280.3194"/>
<text text-anchor="middle" x="528.5" y="-264" font-family="Times,serif" font-size="10.00" fill="#000000">integrates with</text>
</g>
<!-- jws -->
<g id="node11" class="node">
<title>jws</title>
<path fill="none" stroke="#000000" d="M344,-1093C344,-1093 314,-1093 314,-1093 308,-1093 302,-1087 302,-1081 302,-1081 302,-1069 302,-1069 302,-1063 308,-1057 314,-1057 314,-1057 344,-1057 344,-1057 350,-1057 356,-1063 356,-1069 356,-1069 356,-1081 356,-1081 356,-1087 350,-1093 344,-1093"/>
<text text-anchor="middle" x="329" y="-1071.3" font-family="Times,serif" font-size="14.00" fill="#000000">JWS</text>
</g>
<!-- jaxws&#45;&gt;jws -->
<g id="edge45" class="edge">
<title>jaxws&#45;&gt;jws</title>
<path fill="none" stroke="#000000" stroke-dasharray="5,2" d="M131.1153,-970.2599C150.9454,-973.2633 174.8204,-980.0133 191,-995 208.0208,-1010.7659 191.8011,-1028.4285 209,-1044 231.431,-1064.3086 265.4284,-1071.6597 291.5164,-1074.1607"/>
<polygon fill="#000000" stroke="#000000" points="291.5623,-1077.6742 301.7981,-1074.9395 292.0911,-1070.6941 291.5623,-1077.6742"/>
<text text-anchor="middle" x="246.5" y="-1075" font-family="Times,serif" font-size="10.00" fill="#000000">integrates with</text>
</g>
<!-- jaxb -->
<g id="node12" class="node">
<title>jaxb</title>
<path fill="none" stroke="#000000" d="M780,-920C780,-920 750,-920 750,-920 744,-920 738,-914 738,-908 738,-908 738,-896 738,-896 738,-890 744,-884 750,-884 750,-884 780,-884 780,-884 786,-884 792,-890 792,-896 792,-896 792,-908 792,-908 792,-914 786,-920 780,-920"/>
<text text-anchor="middle" x="765" y="-898.3" font-family="Times,serif" font-size="14.00" fill="#000000">JAXB</text>
</g>
<!-- jaxws&#45;&gt;jaxb -->
<g id="edge25" class="edge">
<title>jaxws&#45;&gt;jaxb</title>
<path fill="none" stroke="#000000" d="M131.0942,-967.0445C220.5891,-964.2631 462.0566,-954.4108 661,-925 683.4318,-921.6838 708.236,-916.2673 727.993,-911.5235"/>
<polygon fill="#000000" stroke="#000000" points="728.9431,-914.8944 737.8252,-909.1188 727.28,-908.0948 728.9431,-914.8944"/>
<text text-anchor="middle" x="422.5" y="-957" font-family="Times,serif" font-size="10.00" fill="#000000">requires</text>
</g>
<!-- servlet -->
<g id="node26" class="node">
<title>servlet</title>
<path fill="none" stroke="#000000" d="M791,-195C791,-195 739,-195 739,-195 733,-195 727,-189 727,-183 727,-183 727,-171 727,-171 727,-165 733,-159 739,-159 739,-159 791,-159 791,-159 797,-159 803,-165 803,-171 803,-171 803,-183 803,-183 803,-189 797,-195 791,-195"/>
<text text-anchor="middle" x="765" y="-173.3" font-family="Times,serif" font-size="14.00" fill="#000000">Servlets</text>
</g>
<!-- jaxws&#45;&gt;servlet -->
<g id="edge40" class="edge">
<title>jaxws&#45;&gt;servlet</title>
<path fill="none" stroke="#000000" stroke-dasharray="5,2" d="M97.06,-949.8229C106.4119,-842.8018 156.4134,-297.7748 209,-247 281.7918,-176.7161 560.6971,-205.3342 661,-192 679.291,-189.5684 699.3637,-186.7166 716.9548,-184.1563"/>
<polygon fill="#000000" stroke="#000000" points="717.6051,-187.5985 726.9932,-182.6879 716.5919,-180.6722 717.6051,-187.5985"/>
<text text-anchor="middle" x="422.5" y="-204" font-family="Times,serif" font-size="10.00" fill="#000000">integrates with</text>
</g>
<!-- saaj -->
<g id="node29" class="node">
<title>saaj</title>
<path fill="none" stroke="#000000" d="M437.5,-1050C437.5,-1050 407.5,-1050 407.5,-1050 401.5,-1050 395.5,-1044 395.5,-1038 395.5,-1038 395.5,-1026 395.5,-1026 395.5,-1020 401.5,-1014 407.5,-1014 407.5,-1014 437.5,-1014 437.5,-1014 443.5,-1014 449.5,-1020 449.5,-1026 449.5,-1026 449.5,-1038 449.5,-1038 449.5,-1044 443.5,-1050 437.5,-1050"/>
<text text-anchor="middle" x="422.5" y="-1028.3" font-family="Times,serif" font-size="14.00" fill="#000000">SAAJ</text>
</g>
<!-- jaxws&#45;&gt;saaj -->
<g id="edge24" class="edge">
<title>jaxws&#45;&gt;saaj</title>
<path fill="none" stroke="#000000" d="M131.0849,-975.9726C149.3389,-980.5817 171.7279,-987.0485 191,-995 199.4599,-998.4905 200.3027,-1002.1521 209,-1005 268.6988,-1024.5484 342.0756,-1030.0655 385.4115,-1031.5499"/>
<polygon fill="#000000" stroke="#000000" points="385.3971,-1035.0508 395.4938,-1031.8404 385.5987,-1028.0537 385.3971,-1035.0508"/>
<text text-anchor="middle" x="246.5" y="-1025" font-family="Times,serif" font-size="10.00" fill="#000000">requires</text>
</g>
<!-- jaxb&#45;&gt;jaf -->
<g id="edge26" class="edge">
<title>jaxb&#45;&gt;jaf</title>
<path fill="none" stroke="#000000" d="M792.0856,-901.9329C828.3237,-902.8136 893.8321,-907.8533 944,-931 954.5733,-935.8783 964.704,-943.4701 973.2242,-951.0376"/>
<polygon fill="#000000" stroke="#000000" points="970.8686,-953.6268 980.5626,-957.902 975.6505,-948.5147 970.8686,-953.6268"/>
<text text-anchor="middle" x="906.5" y="-934" font-family="Times,serif" font-size="10.00" fill="#000000">requires</text>
</g>
<!-- jaxrs&#45;&gt;ca -->
<g id="edge21" class="edge">
<title>jaxrs&#45;&gt;ca</title>
<path fill="none" stroke="#000000" d="M558.0371,-671.2104C561.5717,-673.9499 564.9892,-676.9028 568,-680 578.3121,-690.6077 574.4815,-698.7162 586,-708 613.7026,-730.3281 628.3751,-721.8017 661,-736 669.2013,-739.5692 670.5694,-742.0126 679,-745 752.7921,-771.148 775.0547,-763.992 851,-783 959.1764,-810.075 1083.4745,-845.7759 1159.2339,-868.0582"/>
<polygon fill="#000000" stroke="#000000" points="1158.5573,-871.5075 1169.1388,-870.9763 1160.5356,-864.7929 1158.5573,-871.5075"/>
<text text-anchor="middle" x="906.5" y="-810" font-family="Times,serif" font-size="10.00" fill="#000000">requires</text>
</g>
<!-- jaxrs&#45;&gt;jaxb -->
<g id="edge22" class="edge">
<title>jaxrs&#45;&gt;jaxb</title>
<path fill="none" stroke="#000000" d="M560.7528,-671.0308C563.5719,-673.7098 566.0783,-676.6974 568,-680 592.3355,-721.8231 550.8595,-863.7355 586,-897 605.6779,-915.6275 681.5521,-911.2055 727.968,-906.4871"/>
<polygon fill="#000000" stroke="#000000" points="728.3846,-909.9626 737.9568,-905.4213 727.6419,-903.0021 728.3846,-909.9626"/>
<text text-anchor="middle" x="623.5" y="-913" font-family="Times,serif" font-size="10.00" fill="#000000">requires</text>
</g>
<!-- jsonb -->
<g id="node17" class="node">
<title>jsonb</title>
<path fill="none" stroke="#000000" d="M789,-527C789,-527 741,-527 741,-527 735,-527 729,-521 729,-515 729,-515 729,-503 729,-503 729,-497 735,-491 741,-491 741,-491 789,-491 789,-491 795,-491 801,-497 801,-503 801,-503 801,-515 801,-515 801,-521 795,-527 789,-527"/>
<text text-anchor="middle" x="765" y="-505.3" font-family="Times,serif" font-size="14.00" fill="#000000">JSON&#45;B</text>
</g>
<!-- jaxrs&#45;&gt;jsonb -->
<g id="edge37" class="edge">
<title>jaxrs&#45;&gt;jsonb</title>
<path fill="none" stroke="#000000" stroke-dasharray="5,2" d="M534.1887,-634.6607C542.1216,-612.1863 558.6904,-574.5655 586,-554 624.6532,-524.8922 679.9877,-514.4664 718.8749,-510.8107"/>
<polygon fill="#000000" stroke="#000000" points="719.2043,-514.2955 728.8823,-509.9843 718.6281,-507.3192 719.2043,-514.2955"/>
<text text-anchor="middle" x="623.5" y="-557" font-family="Times,serif" font-size="10.00" fill="#000000">integrates with</text>
</g>
<!-- jsonp -->
<g id="node18" class="node">
<title>jsonp</title>
<path fill="none" stroke="#000000" d="M788.5,-682C788.5,-682 741.5,-682 741.5,-682 735.5,-682 729.5,-676 729.5,-670 729.5,-670 729.5,-658 729.5,-658 729.5,-652 735.5,-646 741.5,-646 741.5,-646 788.5,-646 788.5,-646 794.5,-646 800.5,-652 800.5,-658 800.5,-658 800.5,-670 800.5,-670 800.5,-676 794.5,-682 788.5,-682"/>
<text text-anchor="middle" x="765" y="-660.3" font-family="Times,serif" font-size="14.00" fill="#000000">JSON&#45;P</text>
</g>
<!-- jaxrs&#45;&gt;jsonp -->
<g id="edge36" class="edge">
<title>jaxrs&#45;&gt;jsonp</title>
<path fill="none" stroke="#000000" stroke-dasharray="5,2" d="M562.6366,-654.5877C603.8165,-656.5031 673.2136,-659.7309 719.0644,-661.8635"/>
<polygon fill="#000000" stroke="#000000" points="719.1741,-665.3723 729.326,-662.3407 719.4994,-658.3798 719.1741,-665.3723"/>
<text text-anchor="middle" x="623.5" y="-663" font-family="Times,serif" font-size="10.00" fill="#000000">integrates with</text>
</g>
<!-- jaxrs&#45;&gt;servlet -->
<g id="edge33" class="edge">
<title>jaxrs&#45;&gt;servlet</title>
<path fill="none" stroke="#000000" stroke-dasharray="5,2" d="M532.216,-634.75C538.9068,-605.3881 555.2351,-546.9184 586,-507 611.2329,-474.2595 640.364,-487.8162 661,-452 698.2685,-387.3162 650.6234,-354.0486 679,-285 692.1683,-252.9576 717.8808,-222.6705 737.7752,-202.3706"/>
<polygon fill="#000000" stroke="#000000" points="740.4625,-204.6339 745.0768,-195.0966 735.5222,-199.6748 740.4625,-204.6339"/>
<text text-anchor="middle" x="623.5" y="-510" font-family="Times,serif" font-size="10.00" fill="#000000">integrates with</text>
</g>
<!-- jaxrs&#45;&gt;cdi -->
<g id="edge34" class="edge">
<title>jaxrs&#45;&gt;cdi</title>
<path fill="none" stroke="#000000" stroke-dasharray="5,2" d="M562.6832,-646.7668C655.4952,-629.7705 907.6771,-583.083 944,-571 949.3698,-569.2137 954.9083,-567.0234 960.2887,-564.6889"/>
<polygon fill="#000000" stroke="#000000" points="962.0826,-567.7178 969.7321,-560.3874 959.1808,-561.3476 962.0826,-567.7178"/>
<text text-anchor="middle" x="765" y="-628" font-family="Times,serif" font-size="10.00" fill="#000000">integrates with</text>
</g>
<!-- bv -->
<g id="node32" class="node">
<title>bv</title>
<path fill="none" stroke="#000000" d="M817,-581C817,-581 713,-581 713,-581 707,-581 701,-575 701,-569 701,-569 701,-557 701,-557 701,-551 707,-545 713,-545 713,-545 817,-545 817,-545 823,-545 829,-551 829,-557 829,-557 829,-569 829,-569 829,-575 823,-581 817,-581"/>
<text text-anchor="middle" x="765" y="-559.3" font-family="Times,serif" font-size="14.00" fill="#000000">Bean Validation</text>
</g>
<!-- jaxrs&#45;&gt;bv -->
<g id="edge35" class="edge">
<title>jaxrs&#45;&gt;bv</title>
<path fill="none" stroke="#000000" stroke-dasharray="5,2" d="M540.4071,-634.9801C550.7275,-620.9052 566.9726,-602.0946 586,-592 617.8818,-575.0858 657.1056,-567.5049 690.7023,-564.29"/>
<polygon fill="#000000" stroke="#000000" points="691.2634,-567.7552 700.9338,-563.4269 690.6749,-560.7799 691.2634,-567.7552"/>
<text text-anchor="middle" x="623.5" y="-595" font-family="Times,serif" font-size="10.00" fill="#000000">integrates with</text>
</g>
<!-- cu -->
<g id="node34" class="node">
<title>cu</title>
<path fill="none" stroke="#000000" d="M839,-736C839,-736 691,-736 691,-736 685,-736 679,-730 679,-724 679,-724 679,-712 679,-712 679,-706 685,-700 691,-700 691,-700 839,-700 839,-700 845,-700 851,-706 851,-712 851,-712 851,-724 851,-724 851,-730 845,-736 839,-736"/>
<text text-anchor="middle" x="765" y="-714.3" font-family="Times,serif" font-size="14.00" fill="#000000">Concurrency Utilities</text>
</g>
<!-- jaxrs&#45;&gt;cu -->
<g id="edge38" class="edge">
<title>jaxrs&#45;&gt;cu</title>
<path fill="none" stroke="#000000" stroke-dasharray="5,2" d="M562.651,-666.1666C570.2826,-668.9142 578.375,-671.678 586,-674 614.2063,-682.5894 645.2958,-690.6955 673.5396,-697.5536"/>
<polygon fill="#000000" stroke="#000000" points="672.8604,-700.99 683.4016,-699.9261 674.4977,-694.1841 672.8604,-700.99"/>
<text text-anchor="middle" x="623.5" y="-698" font-family="Times,serif" font-size="10.00" fill="#000000">integrates with</text>
</g>
<!-- jca&#45;&gt;ejb -->
<g id="edge46" class="edge">
<title>jca&#45;&gt;ejb</title>
<path fill="none" stroke="#000000" stroke-dasharray="5,2" d="M727.513,-813.259C673.126,-816.6193 569.9919,-817.7942 489,-788 437.0161,-768.8769 385.8474,-728.9841 355.864,-702.8626"/>
<polygon fill="#000000" stroke="#000000" points="727.9794,-816.7355 737.7195,-812.5663 727.5054,-809.7516 727.9794,-816.7355"/>
<polygon fill="#000000" stroke="#000000" points="358.1572,-700.2182 348.348,-696.2144 353.5193,-705.4614 358.1572,-700.2182"/>
<text text-anchor="middle" x="528.5" y="-810" font-family="Times,serif" font-size="10.00" fill="#000000">integrates with</text>
</g>
<!-- jca&#45;&gt;cdi -->
<g id="edge47" class="edge">
<title>jca&#45;&gt;cdi</title>
<path fill="none" stroke="#000000" stroke-dasharray="5,2" d="M792.2825,-791.913C809.8853,-779.6485 832.8062,-762.5313 851,-745 907.1069,-690.936 957.1688,-613.2752 981.4661,-572.8155"/>
<polygon fill="#000000" stroke="#000000" points="984.5654,-574.4512 986.6657,-564.0666 978.5479,-570.8749 984.5654,-574.4512"/>
<text text-anchor="middle" x="906.5" y="-729" font-family="Times,serif" font-size="10.00" fill="#000000">integrates with</text>
</g>
<!-- jms&#45;&gt;jca -->
<g id="edge55" class="edge">
<title>jms&#45;&gt;jca</title>
<path fill="none" stroke="#000000" stroke-dasharray="5,2" d="M555.7745,-719.945C565.262,-724.2841 576.026,-729.0257 586,-733 618.7735,-746.0591 631.3566,-739.8712 661,-759 670.7739,-765.3071 669.2977,-771.5833 679,-778 693.9651,-787.8973 712.4079,-795.2797 728.3718,-800.4444"/>
<polygon fill="#000000" stroke="#000000" points="727.3514,-803.7923 737.9381,-803.3762 729.4026,-797.0996 727.3514,-803.7923"/>
<text text-anchor="middle" x="623.5" y="-762" font-family="Times,serif" font-size="10.00" fill="#000000">integrates with</text>
</g>
<!-- jpa -->
<g id="node16" class="node">
<title>jpa</title>
<path fill="none" stroke="#000000" d="M543.5,-474C543.5,-474 513.5,-474 513.5,-474 507.5,-474 501.5,-468 501.5,-462 501.5,-462 501.5,-450 501.5,-450 501.5,-444 507.5,-438 513.5,-438 513.5,-438 543.5,-438 543.5,-438 549.5,-438 555.5,-444 555.5,-450 555.5,-450 555.5,-462 555.5,-462 555.5,-468 549.5,-474 543.5,-474"/>
<text text-anchor="middle" x="528.5" y="-452.3" font-family="Times,serif" font-size="14.00" fill="#000000">JPA</text>
</g>
<!-- jpa&#45;&gt;jta -->
<g id="edge58" class="edge">
<title>jpa&#45;&gt;jta</title>
<path fill="none" stroke="#000000" stroke-dasharray="5,2" d="M555.7353,-446.0187C565.2197,-442.806 575.9918,-439.4479 586,-437 634.2898,-425.1889 691.114,-416.9146 727.5696,-412.3079"/>
<polygon fill="#000000" stroke="#000000" points="728.247,-415.7509 737.7423,-411.051 727.3885,-408.8038 728.247,-415.7509"/>
<text text-anchor="middle" x="623.5" y="-440" font-family="Times,serif" font-size="10.00" fill="#000000">integrates with</text>
</g>
<!-- jpa&#45;&gt;cdi -->
<g id="edge48" class="edge">
<title>jpa&#45;&gt;cdi</title>
<path fill="none" stroke="#000000" stroke-dasharray="5,2" d="M555.849,-453.4225C612.198,-448.9432 744.8486,-442.7032 851,-471 891.2499,-481.7294 933.1376,-504.6598 961.669,-522.359"/>
<polygon fill="#000000" stroke="#000000" points="960.1199,-525.5201 970.4441,-527.8995 963.8571,-519.6012 960.1199,-525.5201"/>
<text text-anchor="middle" x="765" y="-474" font-family="Times,serif" font-size="10.00" fill="#000000">integrates with</text>
</g>
<!-- jsonb&#45;&gt;cdi -->
<g id="edge50" class="edge">
<title>jsonb&#45;&gt;cdi</title>
<path fill="none" stroke="#000000" stroke-dasharray="5,2" d="M801.0616,-514.0421C837.2557,-519.1961 894.579,-527.6133 944,-536 949.1193,-536.8687 954.5076,-537.8303 959.8082,-538.8038"/>
<polygon fill="#000000" stroke="#000000" points="959.327,-542.2744 969.7995,-540.6691 960.6117,-535.3932 959.327,-542.2744"/>
<text text-anchor="middle" x="906.5" y="-539" font-family="Times,serif" font-size="10.00" fill="#000000">integrates with</text>
</g>
<!-- jsf -->
<g id="node19" class="node">
<title>jsf</title>
<path fill="none" stroke="#000000" d="M110.5,-111C110.5,-111 80.5,-111 80.5,-111 74.5,-111 68.5,-105 68.5,-99 68.5,-99 68.5,-87 68.5,-87 68.5,-81 74.5,-75 80.5,-75 80.5,-75 110.5,-75 110.5,-75 116.5,-75 122.5,-81 122.5,-87 122.5,-87 122.5,-99 122.5,-99 122.5,-105 116.5,-111 110.5,-111"/>
<text text-anchor="middle" x="95.5" y="-89.3" font-family="Times,serif" font-size="14.00" fill="#000000">JSF</text>
</g>
<!-- jsf&#45;&gt;el -->
<g id="edge5" class="edge">
<title>jsf&#45;&gt;el</title>
<path fill="none" stroke="#000000" d="M121.8095,-74.8479C163.6757,-47.7832 248.9294,0 329,0 329,0 329,0 997,0 1156.9027,0 1211.5194,-251.9833 1225.4818,-337.7854"/>
<polygon fill="#000000" stroke="#000000" points="1222.0526,-338.5107 1227.0553,-347.85 1228.9686,-337.4294 1222.0526,-338.5107"/>
<text text-anchor="middle" x="623.5" y="-3" font-family="Times,serif" font-size="10.00" fill="#000000">requires</text>
</g>
<!-- jsp -->
<g id="node20" class="node">
<title>jsp</title>
<path fill="none" stroke="#000000" d="M543.5,-100C543.5,-100 513.5,-100 513.5,-100 507.5,-100 501.5,-94 501.5,-88 501.5,-88 501.5,-76 501.5,-76 501.5,-70 507.5,-64 513.5,-64 513.5,-64 543.5,-64 543.5,-64 549.5,-64 555.5,-70 555.5,-76 555.5,-76 555.5,-88 555.5,-88 555.5,-94 549.5,-100 543.5,-100"/>
<text text-anchor="middle" x="528.5" y="-78.3" font-family="Times,serif" font-size="14.00" fill="#000000">JSP</text>
</g>
<!-- jsf&#45;&gt;jsp -->
<g id="edge4" class="edge">
<title>jsf&#45;&gt;jsp</title>
<path fill="none" stroke="#000000" d="M122.7429,-84.9704C170.0009,-71.9536 270.3346,-48.3363 356,-55 402.9704,-58.6537 456.4897,-67.8229 491.2931,-74.4638"/>
<polygon fill="#000000" stroke="#000000" points="490.9821,-77.9685 501.4653,-76.4347 492.3137,-71.0964 490.9821,-77.9685"/>
<text text-anchor="middle" x="329" y="-58" font-family="Times,serif" font-size="10.00" fill="#000000">requires</text>
</g>
<!-- jstl -->
<g id="node21" class="node">
<title>jstl</title>
<path fill="none" stroke="#000000" d="M344,-111C344,-111 314,-111 314,-111 308,-111 302,-105 302,-99 302,-99 302,-87 302,-87 302,-81 308,-75 314,-75 314,-75 344,-75 344,-75 350,-75 356,-81 356,-87 356,-87 356,-99 356,-99 356,-105 350,-111 344,-111"/>
<text text-anchor="middle" x="329" y="-89.3" font-family="Times,serif" font-size="14.00" fill="#000000">JSTL</text>
</g>
<!-- jsf&#45;&gt;jstl -->
<g id="edge6" class="edge">
<title>jsf&#45;&gt;jstl</title>
<path fill="none" stroke="#000000" d="M122.7424,-93C164.5719,-93 244.7113,-93 291.8363,-93"/>
<polygon fill="#000000" stroke="#000000" points="291.9311,-96.5001 301.9311,-93 291.9311,-89.5001 291.9311,-96.5001"/>
<text text-anchor="middle" x="246.5" y="-96" font-family="Times,serif" font-size="10.00" fill="#000000">requires</text>
</g>
<!-- jsf&#45;&gt;servlet -->
<g id="edge8" class="edge">
<title>jsf&#45;&gt;servlet</title>
<path fill="none" stroke="#000000" d="M122.5454,-104.3124C145.2473,-113.3728 178.7305,-125.7306 209,-133 392.7289,-177.1234 619.4199,-179.5455 716.8209,-178.2033"/>
<polygon fill="#000000" stroke="#000000" points="717.0012,-181.701 726.9447,-178.0435 716.8907,-174.7019 717.0012,-181.701"/>
<text text-anchor="middle" x="422.5" y="-174" font-family="Times,serif" font-size="10.00" fill="#000000">requires</text>
</g>
<!-- websocket -->
<g id="node27" class="node">
<title>websocket</title>
<path fill="none" stroke="#000000" d="M459,-154C459,-154 386,-154 386,-154 380,-154 374,-148 374,-142 374,-142 374,-130 374,-130 374,-124 380,-118 386,-118 386,-118 459,-118 459,-118 465,-118 471,-124 471,-130 471,-130 471,-142 471,-142 471,-148 465,-154 459,-154"/>
<text text-anchor="middle" x="422.5" y="-132.3" font-family="Times,serif" font-size="14.00" fill="#000000">WebSocket</text>
</g>
<!-- jsf&#45;&gt;websocket -->
<g id="edge7" class="edge">
<title>jsf&#45;&gt;websocket</title>
<path fill="none" stroke="#000000" d="M122.5596,-96.5838C145.5541,-99.6275 179.4408,-104.1084 209,-108 261.3269,-114.889 320.8726,-122.6955 363.76,-128.3124"/>
<polygon fill="#000000" stroke="#000000" points="363.3713,-131.7913 373.7412,-129.6194 364.2803,-124.8505 363.3713,-131.7913"/>
<text text-anchor="middle" x="246.5" y="-121" font-family="Times,serif" font-size="10.00" fill="#000000">requires</text>
</g>
<!-- jsp&#45;&gt;el -->
<g id="edge11" class="edge">
<title>jsp&#45;&gt;el</title>
<path fill="none" stroke="#000000" d="M555.5341,-80.1621C634.7088,-76.0382 870.6429,-72.826 1032,-166 1110.6757,-211.4305 1179.3728,-296.5592 1210.9949,-339.6184"/>
<polygon fill="#000000" stroke="#000000" points="1208.2903,-341.8507 1216.9939,-347.8921 1213.9574,-337.7417 1208.2903,-341.8507"/>
<text text-anchor="middle" x="906.5" y="-128" font-family="Times,serif" font-size="10.00" fill="#000000">requires</text>
</g>
<!-- jsp&#45;&gt;servlet -->
<g id="edge10" class="edge">
<title>jsp&#45;&gt;servlet</title>
<path fill="none" stroke="#000000" d="M555.6791,-85.7349C583.0294,-90.093 626.0496,-98.6032 661,-113 686.2719,-123.4101 712.4658,-139.5664 732.2437,-153.0412"/>
<polygon fill="#000000" stroke="#000000" points="730.3664,-155.9986 740.5787,-158.8198 734.3547,-150.2458 730.3664,-155.9986"/>
<text text-anchor="middle" x="623.5" y="-116" font-family="Times,serif" font-size="10.00" fill="#000000">requires</text>
</g>
<!-- jstl&#45;&gt;jsp -->
<g id="edge9" class="edge">
<title>jstl&#45;&gt;jsp</title>
<path fill="none" stroke="#000000" d="M356.3213,-91.4936C391.219,-89.5694 451.7775,-86.2303 490.981,-84.0687"/>
<polygon fill="#000000" stroke="#000000" points="491.3972,-87.5512 501.1893,-83.5059 491.0117,-80.5618 491.3972,-87.5512"/>
<text text-anchor="middle" x="422.5" y="-94" font-family="Times,serif" font-size="10.00" fill="#000000">requires</text>
</g>
<!-- jta&#45;&gt;cdi -->
<g id="edge51" class="edge">
<title>jta&#45;&gt;cdi</title>
<path fill="none" stroke="#000000" stroke-dasharray="5,2" d="M792.2068,-409.3783C836.2077,-412.097 920.443,-419.4821 944,-437 970.2675,-456.5335 984.1821,-492.5779 991.0571,-517.8531"/>
<polygon fill="#000000" stroke="#000000" points="987.6789,-518.771 993.5118,-527.6156 994.4676,-517.064 987.6789,-518.771"/>
<text text-anchor="middle" x="906.5" y="-440" font-family="Times,serif" font-size="10.00" fill="#000000">integrates with</text>
</g>
<!-- deployment -->
<g id="node23" class="node">
<title>deployment</title>
<path fill="none" stroke="#000000" d="M175.5,-1040C175.5,-1040 15.5,-1040 15.5,-1040 9.5,-1040 3.5,-1034 3.5,-1028 3.5,-1028 3.5,-1016 3.5,-1016 3.5,-1010 9.5,-1004 15.5,-1004 15.5,-1004 175.5,-1004 175.5,-1004 181.5,-1004 187.5,-1010 187.5,-1016 187.5,-1016 187.5,-1028 187.5,-1028 187.5,-1034 181.5,-1040 175.5,-1040"/>
<text text-anchor="middle" x="95.5" y="-1018.3" font-family="Times,serif" font-size="14.00" fill="#000000">Enterprise Deployment</text>
</g>
<!-- management -->
<g id="node24" class="node">
<title>management</title>
<path fill="none" stroke="#000000" d="M179,-1094C179,-1094 12,-1094 12,-1094 6,-1094 0,-1088 0,-1082 0,-1082 0,-1070 0,-1070 0,-1064 6,-1058 12,-1058 12,-1058 179,-1058 179,-1058 185,-1058 191,-1064 191,-1070 191,-1070 191,-1082 191,-1082 191,-1088 185,-1094 179,-1094"/>
<text text-anchor="middle" x="95.5" y="-1072.3" font-family="Times,serif" font-size="14.00" fill="#000000">Enterprise Management</text>
</g>
<!-- jaxr -->
<g id="node25" class="node">
<title>jaxr</title>
<path fill="none" stroke="#000000" d="M543.5,-779C543.5,-779 513.5,-779 513.5,-779 507.5,-779 501.5,-773 501.5,-767 501.5,-767 501.5,-755 501.5,-755 501.5,-749 507.5,-743 513.5,-743 513.5,-743 543.5,-743 543.5,-743 549.5,-743 555.5,-749 555.5,-755 555.5,-755 555.5,-767 555.5,-767 555.5,-773 549.5,-779 543.5,-779"/>
<text text-anchor="middle" x="528.5" y="-757.3" font-family="Times,serif" font-size="14.00" fill="#000000">JAXR</text>
</g>
<!-- jaxr&#45;&gt;jca -->
<g id="edge57" class="edge">
<title>jaxr&#45;&gt;jca</title>
<path fill="none" stroke="#000000" stroke-dasharray="5,2" d="M555.6296,-766.6209C598.018,-775.4033 680.0429,-792.3979 727.8758,-802.3083"/>
<polygon fill="#000000" stroke="#000000" points="727.3214,-805.7677 737.8236,-804.3694 728.7416,-798.9133 727.3214,-805.7677"/>
<text text-anchor="middle" x="623.5" y="-791" font-family="Times,serif" font-size="10.00" fill="#000000">integrates with</text>
</g>
<!-- servlet&#45;&gt;jacc -->
<g id="edge53" class="edge">
<title>servlet&#45;&gt;jacc</title>
<path fill="none" stroke="#000000" stroke-dasharray="5,2" d="M803.3411,-167.2342C840.0196,-159.5166 896.6064,-151.8816 944,-164 949.7287,-165.4648 955.5046,-167.6908 961.0289,-170.2718"/>
<polygon fill="#000000" stroke="#000000" points="959.5391,-173.441 970.036,-174.8786 962.7267,-167.2088 959.5391,-173.441"/>
<text text-anchor="middle" x="906.5" y="-167" font-family="Times,serif" font-size="10.00" fill="#000000">integrates with</text>
</g>
<!-- servlet&#45;&gt;jaspic -->
<g id="edge52" class="edge">
<title>servlet&#45;&gt;jaspic</title>
<path fill="none" stroke="#000000" stroke-dasharray="5,2" d="M803.256,-184.7195C840.8758,-193.4056 899.0369,-209.8263 944,-236 954.6214,-242.1829 964.9541,-250.7622 973.6329,-258.9597"/>
<polygon fill="#000000" stroke="#000000" points="971.2116,-261.4875 980.7996,-265.9955 976.1156,-256.4923 971.2116,-261.4875"/>
<text text-anchor="middle" x="906.5" y="-239" font-family="Times,serif" font-size="10.00" fill="#000000">integrates with</text>
</g>
<!-- websocket&#45;&gt;servlet -->
<g id="edge54" class="edge">
<title>websocket&#45;&gt;servlet</title>
<path fill="none" stroke="#000000" stroke-dasharray="5,2" d="M471.4195,-141.1608C519.6619,-146.339 595.4736,-154.7149 661,-163 679.2821,-165.3116 699.353,-167.9821 716.9451,-170.367"/>
<polygon fill="#000000" stroke="#000000" points="716.6037,-173.8527 726.9843,-171.7333 717.5477,-166.9167 716.6037,-173.8527"/>
<text text-anchor="middle" x="528.5" y="-155" font-family="Times,serif" font-size="10.00" fill="#000000">integrates with</text>
</g>
<!-- jaxrpc&#45;&gt;ejb -->
<g id="edge44" class="edge">
<title>jaxrpc&#45;&gt;ejb</title>
<path fill="none" stroke="#000000" stroke-dasharray="5,2" d="M488.9392,-332.1908C454.3736,-322.0749 405.0022,-314.8731 374,-342 350.9395,-362.178 335.618,-571.8888 330.7054,-649.4062"/>
<polygon fill="#000000" stroke="#000000" points="327.1837,-649.6478 330.0564,-659.8457 334.1702,-650.0822 327.1837,-649.6478"/>
<text text-anchor="middle" x="422.5" y="-345" font-family="Times,serif" font-size="10.00" fill="#000000">integrates with</text>
</g>
<!-- jaxrpc&#45;&gt;jaspic -->
<g id="edge42" class="edge">
<title>jaxrpc&#45;&gt;jaspic</title>
<path fill="none" stroke="#000000" stroke-dasharray="5,2" d="M568.2305,-353.3671C595.85,-355.8442 632.6472,-355.1245 661,-340 672.7642,-333.7245 667.3882,-322.5531 679,-316 724.5177,-290.3121 875.2531,-285.1021 951.6981,-284.1419"/>
<polygon fill="#000000" stroke="#000000" points="952.0108,-287.6388 961.9731,-284.0329 951.9365,-280.6392 952.0108,-287.6388"/>
<text text-anchor="middle" x="765" y="-319" font-family="Times,serif" font-size="10.00" fill="#000000">integrates with</text>
</g>
<!-- jaxrpc&#45;&gt;servlet -->
<g id="edge43" class="edge">
<title>jaxrpc&#45;&gt;servlet</title>
<path fill="none" stroke="#000000" stroke-dasharray="5,2" d="M568.0828,-334.5757C574.0841,-332.7016 580.2048,-330.7956 586,-329 619.3035,-318.6809 632.1247,-325.5402 661,-306 663.6995,-304.1732 714.7307,-240.2414 744.2867,-203.0813"/>
<polygon fill="#000000" stroke="#000000" points="747.1104,-205.1537 750.5939,-195.1479 741.631,-200.7974 747.1104,-205.1537"/>
<text text-anchor="middle" x="623.5" y="-332" font-family="Times,serif" font-size="10.00" fill="#000000">integrates with</text>
</g>
<!-- saaj&#45;&gt;jaf -->
<g id="edge27" class="edge">
<title>saaj&#45;&gt;jaf</title>
<path fill="none" stroke="#000000" d="M449.635,-1035.5284C528.3044,-1044.7698 762.429,-1065.2636 944,-1009 951.1892,-1006.7723 958.3777,-1003.3252 965.037,-999.4841"/>
<polygon fill="#000000" stroke="#000000" points="967.0912,-1002.3285 973.7401,-994.0796 963.3983,-996.3818 967.0912,-1002.3285"/>
<text text-anchor="middle" x="623.5" y="-1049" font-family="Times,serif" font-size="10.00" fill="#000000">requires</text>
</g>
<!-- cdi&#45;&gt;ca -->
<g id="edge20" class="edge">
<title>cdi&#45;&gt;ca</title>
<path fill="none" stroke="#000000" d="M1004.5983,-564.1543C1014.0726,-586.0898 1031.3127,-623.8092 1050,-654 1099.776,-734.4171 1170.8645,-820.7874 1206.8169,-862.9005"/>
<polygon fill="#000000" stroke="#000000" points="1204.355,-865.4064 1213.5221,-870.7182 1209.6684,-860.8491 1204.355,-865.4064"/>
<text text-anchor="middle" x="1087.5" y="-763" font-family="Times,serif" font-size="10.00" fill="#000000">requires</text>
</g>
<!-- cdi&#45;&gt;ejb -->
<g id="edge28" class="edge">
<title>cdi&#45;&gt;ejb</title>
<path fill="none" stroke="#000000" stroke-dasharray="5,2" d="M994.15,-574.5048C985.9196,-638.7539 955.5515,-792.7181 851,-837 776.8621,-868.4005 566.5328,-843.7044 489,-822 433.8755,-806.5685 414.779,-804.1735 374,-764 357.4904,-747.7355 345.732,-724.1255 338.3847,-705.7567"/>
<polygon fill="#000000" stroke="#000000" points="997.6589,-574.6373 995.3663,-564.2935 990.708,-573.8093 997.6589,-574.6373"/>
<polygon fill="#000000" stroke="#000000" points="341.5693,-704.2832 334.7545,-696.1709 335.023,-706.7624 341.5693,-704.2832"/>
<text text-anchor="middle" x="623.5" y="-851" font-family="Times,serif" font-size="10.00" fill="#000000">integrates with</text>
</g>
<!-- cdi&#45;&gt;el -->
<g id="edge19" class="edge">
<title>cdi&#45;&gt;el</title>
<path fill="none" stroke="#000000" d="M1006.4201,-527.7837C1015.7726,-510.9944 1031.3805,-486.1538 1050,-469 1087.5145,-434.4384 1138.6245,-406.5332 1176.7134,-388.5308"/>
<polygon fill="#000000" stroke="#000000" points="1178.5063,-391.5572 1186.1003,-384.1693 1175.5566,-385.209 1178.5063,-391.5572"/>
<text text-anchor="middle" x="1087.5" y="-472" font-family="Times,serif" font-size="10.00" fill="#000000">requires</text>
</g>
<!-- cdi&#45;&gt;el -->
<g id="edge29" class="edge">
<title>cdi&#45;&gt;el</title>
<path fill="none" stroke="#000000" stroke-dasharray="5,2" d="M1024.0899,-535.3637C1051.1599,-523.9973 1093.2132,-504.288 1125,-480 1158.5875,-454.3361 1190.3863,-417.122 1209.8932,-392.2707"/>
<polygon fill="#000000" stroke="#000000" points="1212.9134,-394.0866 1216.2632,-384.0352 1207.3764,-389.8038 1212.9134,-394.0866"/>
<text text-anchor="middle" x="1087.5" y="-527" font-family="Times,serif" font-size="10.00" fill="#000000">integrates with</text>
</g>
<!-- cdi&#45;&gt;interceptors -->
<g id="edge18" class="edge">
<title>cdi&#45;&gt;interceptors</title>
<path fill="none" stroke="#000000" d="M1021.4421,-564.2922C1063.6764,-595.8998 1150.298,-660.7262 1197.3553,-695.9433"/>
<polygon fill="#000000" stroke="#000000" points="1195.282,-698.7633 1205.3854,-701.9529 1199.4763,-693.159 1195.282,-698.7633"/>
<text text-anchor="middle" x="1087.5" y="-642" font-family="Times,serif" font-size="10.00" fill="#000000">requires</text>
</g>
<!-- di -->
<g id="node31" class="node">
<title>di</title>
<path fill="none" stroke="#000000" d="M1304,-564C1304,-564 1155,-564 1155,-564 1149,-564 1143,-558 1143,-552 1143,-552 1143,-540 1143,-540 1143,-534 1149,-528 1155,-528 1155,-528 1304,-528 1304,-528 1310,-528 1316,-534 1316,-540 1316,-540 1316,-552 1316,-552 1316,-558 1310,-564 1304,-564"/>
<text text-anchor="middle" x="1229.5" y="-542.3" font-family="Times,serif" font-size="14.00" fill="#000000">Dependency Injection</text>
</g>
<!-- cdi&#45;&gt;di -->
<g id="edge17" class="edge">
<title>cdi&#45;&gt;di</title>
<path fill="none" stroke="#000000" d="M1024.1257,-546C1050.8479,-546 1093.2722,-546 1132.6426,-546"/>
<polygon fill="#000000" stroke="#000000" points="1132.8423,-549.5001 1142.8423,-546 1132.8423,-542.5001 1132.8423,-549.5001"/>
<text text-anchor="middle" x="1087.5" y="-549" font-family="Times,serif" font-size="10.00" fill="#000000">requires</text>
</g>
<!-- bv&#45;&gt;cdi -->
<g id="edge49" class="edge">
<title>bv&#45;&gt;cdi</title>
<path fill="none" stroke="#000000" stroke-dasharray="5,2" d="M829.0092,-558.3097C870.9433,-555.2369 924.3068,-551.3267 959.5035,-548.7476"/>
<polygon fill="#000000" stroke="#000000" points="960.0931,-552.2139 969.8106,-547.9923 959.5815,-545.2326 960.0931,-552.2139"/>
<text text-anchor="middle" x="906.5" y="-559" font-family="Times,serif" font-size="10.00" fill="#000000">integrates with</text>
</g>
<!-- batch -->
<g id="node33" class="node">
<title>batch</title>
<path fill="none" stroke="#000000" d="M113,-1148C113,-1148 78,-1148 78,-1148 72,-1148 66,-1142 66,-1136 66,-1136 66,-1124 66,-1124 66,-1118 72,-1112 78,-1112 78,-1112 113,-1112 113,-1112 119,-1112 125,-1118 125,-1124 125,-1124 125,-1136 125,-1136 125,-1142 119,-1148 113,-1148"/>
<text text-anchor="middle" x="95.5" y="-1126.3" font-family="Times,serif" font-size="14.00" fill="#000000">Batch</text>
</g>
</g>
</svg>
