<?xml version="1.0" encoding="UTF-8" standalone="no"?>
<!DOCTYPE svg PUBLIC "-//W3C//DTD SVG 1.1//EN"
 "http://www.w3.org/Graphics/SVG/1.1/DTD/svg11.dtd">
<!-- Generated by graphviz version 2.40.1 (20161225.0304)
 -->
<!-- Title: G Pages: 1 -->
<svg width="1567pt" height="1619pt"
 viewBox="0.00 0.00 1567.00 1619.00" xmlns="http://www.w3.org/2000/svg" xmlns:xlink="http://www.w3.org/1999/xlink">
<g id="graph0" class="graph" transform="scale(1 1) rotate(0) translate(4 1615)">
<title>G</title>
<polygon fill="#ffffff" stroke="transparent" points="-4,4 -4,-1615 1563,-1615 1563,4 -4,4"/>
<!-- jakartaee -->
<g id="node1" class="node">
<title>jakartaee</title>
<path fill="none" stroke="#000000" d="M149,-882C149,-882 12,-882 12,-882 6,-882 0,-876 0,-870 0,-870 0,-858 0,-858 0,-852 6,-846 12,-846 12,-846 149,-846 149,-846 155,-846 161,-852 161,-858 161,-858 161,-870 161,-870 161,-876 155,-882 149,-882"/>
<text text-anchor="middle" x="80.5" y="-860.3" font-family="Times,serif" font-size="14.00" fill="#000000">Jakarta EE Platform</text>
</g>
<!-- ca -->
<g id="node2" class="node">
<title>ca</title>
<path fill="none" stroke="#000000" d="M1546,-1333C1546,-1333 1399,-1333 1399,-1333 1393,-1333 1387,-1327 1387,-1321 1387,-1321 1387,-1309 1387,-1309 1387,-1303 1393,-1297 1399,-1297 1399,-1297 1546,-1297 1546,-1297 1552,-1297 1558,-1303 1558,-1309 1558,-1309 1558,-1321 1558,-1321 1558,-1327 1552,-1333 1546,-1333"/>
<text text-anchor="middle" x="1472.5" y="-1311.3" font-family="Times,serif" font-size="14.00" fill="#000000">Common Annotations</text>
</g>
<!-- jakartaee&#45;&gt;ca -->
<g id="edge1" class="edge">
<title>jakartaee&#45;&gt;ca</title>
<path fill="none" stroke="#000000" d="M81.3434,-882.0328C85.9949,-975.5922 110.832,-1405.651 179,-1517 219.9034,-1583.8136 256.1601,-1600 334.5,-1600 334.5,-1600 334.5,-1600 1240,-1600 1371.7662,-1600 1442.1724,-1414.8258 1464.5254,-1343.0007"/>
<polygon fill="#000000" stroke="#000000" points="1467.9261,-1343.8469 1467.4763,-1333.2616 1461.2269,-1341.817 1467.9261,-1343.8469"/>
<text text-anchor="middle" x="771.5" y="-1603" font-family="Times,serif" font-size="10.00" fill="#000000">requires</text>
</g>
<!-- ejb -->
<g id="node3" class="node">
<title>ejb</title>
<path fill="none" stroke="#000000" d="M587,-1200C587,-1200 557,-1200 557,-1200 551,-1200 545,-1194 545,-1188 545,-1188 545,-1176 545,-1176 545,-1170 551,-1164 557,-1164 557,-1164 587,-1164 587,-1164 593,-1164 599,-1170 599,-1176 599,-1176 599,-1188 599,-1188 599,-1194 593,-1200 587,-1200"/>
<text text-anchor="middle" x="572" y="-1178.3" font-family="Times,serif" font-size="14.00" fill="#000000">EJB</text>
</g>
<!-- jakartaee&#45;&gt;ejb -->
<g id="edge2" class="edge">
<title>jakartaee&#45;&gt;ejb</title>
<path fill="none" stroke="#000000" d="M81.7098,-882.1012C85.8821,-928.9897 103.8973,-1054.983 179,-1116 284.2612,-1201.5192 458.7561,-1194.767 534.7336,-1186.9104"/>
<polygon fill="#000000" stroke="#000000" points="535.2261,-1190.3774 544.783,-1185.8039 534.46,-1183.4194 535.2261,-1190.3774"/>
<text text-anchor="middle" x="334.5" y="-1193" font-family="Times,serif" font-size="10.00" fill="#000000">requires</text>
</g>
<!-- el -->
<g id="node4" class="node">
<title>el</title>
<path fill="none" stroke="#000000" d="M1546,-905C1546,-905 1399,-905 1399,-905 1393,-905 1387,-899 1387,-893 1387,-893 1387,-881 1387,-881 1387,-875 1393,-869 1399,-869 1399,-869 1546,-869 1546,-869 1552,-869 1558,-875 1558,-881 1558,-881 1558,-893 1558,-893 1558,-899 1552,-905 1546,-905"/>
<text text-anchor="middle" x="1472.5" y="-883.3" font-family="Times,serif" font-size="14.00" fill="#000000">Expression Language</text>
</g>
<!-- jakartaee&#45;&gt;el -->
<g id="edge3" class="edge">
<title>jakartaee&#45;&gt;el</title>
<path fill="none" stroke="#000000" d="M161.0245,-856.0005C303.2483,-842.5839 608.304,-817 866.5,-817 866.5,-817 866.5,-817 1240,-817 1307.2971,-817 1381.0769,-844.2224 1427.0828,-864.7148"/>
<polygon fill="#000000" stroke="#000000" points="1425.9135,-868.0276 1436.4661,-868.9733 1428.8065,-861.6534 1425.9135,-868.0276"/>
<text text-anchor="middle" x="771.5" y="-821" font-family="Times,serif" font-size="10.00" fill="#000000">requires</text>
</g>
<!-- es -->
<g id="node5" class="node">
<title>es</title>
<path fill="none" stroke="#000000" d="M1075,-975C1075,-975 941,-975 941,-975 935,-975 929,-969 929,-963 929,-963 929,-951 929,-951 929,-945 935,-939 941,-939 941,-939 1075,-939 1075,-939 1081,-939 1087,-945 1087,-951 1087,-951 1087,-963 1087,-963 1087,-969 1081,-975 1075,-975"/>
<text text-anchor="middle" x="1008" y="-953.3" font-family="Times,serif" font-size="14.00" fill="#000000">Enterprise Security</text>
</g>
<!-- jakartaee&#45;&gt;es -->
<g id="edge4" class="edge">
<title>jakartaee&#45;&gt;es</title>
<path fill="none" stroke="#000000" d="M93.3162,-882.2362C110.0743,-904.3172 141.7257,-940.3654 179,-955 432.3317,-1054.4627 763.7326,-1008.0775 919.6445,-977.0404"/>
<polygon fill="#000000" stroke="#000000" points="920.5475,-980.4288 929.6577,-975.0199 919.1629,-973.5671 920.5475,-980.4288"/>
<text text-anchor="middle" x="572" y="-1018" font-family="Times,serif" font-size="10.00" fill="#000000">requires</text>
</g>
<!-- jacc -->
<g id="node7" class="node">
<title>jacc</title>
<path fill="none" stroke="#000000" d="M350.5,-306C350.5,-306 318.5,-306 318.5,-306 312.5,-306 306.5,-300 306.5,-294 306.5,-294 306.5,-282 306.5,-282 306.5,-276 312.5,-270 318.5,-270 318.5,-270 350.5,-270 350.5,-270 356.5,-270 362.5,-276 362.5,-282 362.5,-282 362.5,-294 362.5,-294 362.5,-300 356.5,-306 350.5,-306"/>
<text text-anchor="middle" x="334.5" y="-284.3" font-family="Times,serif" font-size="14.00" fill="#000000">JACC</text>
</g>
<!-- jakartaee&#45;&gt;jacc -->
<g id="edge5" class="edge">
<title>jakartaee&#45;&gt;jacc</title>
<path fill="none" stroke="#000000" d="M80.9622,-845.7867C83.566,-758.6599 99.293,-385.4726 179,-309 209.7301,-279.5169 260.9153,-278.211 296.1142,-281.6634"/>
<polygon fill="#000000" stroke="#000000" points="296.1488,-285.1905 306.4845,-282.8616 296.9523,-278.2368 296.1488,-285.1905"/>
<text text-anchor="middle" x="200" y="-312" font-family="Times,serif" font-size="10.00" fill="#000000">requires</text>
</g>
<!-- jaf -->
<g id="node8" class="node">
<title>jaf</title>
<path fill="none" stroke="#000000" d="M1255,-415C1255,-415 1225,-415 1225,-415 1219,-415 1213,-409 1213,-403 1213,-403 1213,-391 1213,-391 1213,-385 1219,-379 1225,-379 1225,-379 1255,-379 1255,-379 1261,-379 1267,-385 1267,-391 1267,-391 1267,-403 1267,-403 1267,-409 1261,-415 1255,-415"/>
<text text-anchor="middle" x="1240" y="-393.3" font-family="Times,serif" font-size="14.00" fill="#000000">JAF</text>
</g>
<!-- jakartaee&#45;&gt;jaf -->
<g id="edge6" class="edge">
<title>jakartaee&#45;&gt;jaf</title>
<path fill="none" stroke="#000000" d="M81.5879,-845.8643C86.7782,-765.4182 111.6224,-441.6762 179,-371 206.3361,-342.3256 234.879,-312 665.5,-312 665.5,-312 665.5,-312 1008,-312 1081.2395,-312 1159.9824,-349.8091 1204.3099,-374.9942"/>
<polygon fill="#000000" stroke="#000000" points="1202.5599,-378.0253 1212.9685,-380.0033 1206.0652,-371.9661 1202.5599,-378.0253"/>
<text text-anchor="middle" x="665.5" y="-315" font-family="Times,serif" font-size="10.00" fill="#000000">requires</text>
</g>
<!-- javamail -->
<g id="node9" class="node">
<title>javamail</title>
<path fill="none" stroke="#000000" d="M515,-382C515,-382 460,-382 460,-382 454,-382 448,-376 448,-370 448,-370 448,-358 448,-358 448,-352 454,-346 460,-346 460,-346 515,-346 515,-346 521,-346 527,-352 527,-358 527,-358 527,-370 527,-370 527,-376 521,-382 515,-382"/>
<text text-anchor="middle" x="487.5" y="-360.3" font-family="Times,serif" font-size="14.00" fill="#000000">JavaMail</text>
</g>
<!-- jakartaee&#45;&gt;javamail -->
<g id="edge7" class="edge">
<title>jakartaee&#45;&gt;javamail</title>
<path fill="none" stroke="#000000" d="M81.5095,-845.8975C86.2978,-767.0951 109.4607,-455.1297 179,-393 216.0966,-359.8562 360.6076,-359.4657 437.969,-361.8022"/>
<polygon fill="#000000" stroke="#000000" points="437.8576,-365.3003 447.9672,-362.1307 438.0875,-358.3041 437.8576,-365.3003"/>
<text text-anchor="middle" x="200" y="-396" font-family="Times,serif" font-size="10.00" fill="#000000">requires</text>
</g>
<!-- jaspic -->
<g id="node10" class="node">
<title>jaspic</title>
<path fill="none" stroke="#000000" d="M1263,-916C1263,-916 1217,-916 1217,-916 1211,-916 1205,-910 1205,-904 1205,-904 1205,-892 1205,-892 1205,-886 1211,-880 1217,-880 1217,-880 1263,-880 1263,-880 1269,-880 1275,-886 1275,-892 1275,-892 1275,-904 1275,-904 1275,-910 1269,-916 1263,-916"/>
<text text-anchor="middle" x="1240" y="-894.3" font-family="Times,serif" font-size="14.00" fill="#000000">JASPIC</text>
</g>
<!-- jakartaee&#45;&gt;jaspic -->
<g id="edge8" class="edge">
<title>jakartaee&#45;&gt;jaspic</title>
<path fill="none" stroke="#000000" d="M116.0627,-882.0531C164.2677,-904.812 253.6314,-941 334.5,-941 334.5,-941 334.5,-941 665.5,-941 768.535,-941 1077.8385,-913.148 1194.658,-902.2752"/>
<polygon fill="#000000" stroke="#000000" points="1195.0667,-905.7523 1204.6983,-901.3384 1194.4163,-898.7826 1195.0667,-905.7523"/>
<text text-anchor="middle" x="665.5" y="-944" font-family="Times,serif" font-size="10.00" fill="#000000">requires</text>
</g>
<!-- jaxws -->
<g id="node11" class="node">
<title>jaxws</title>
<path fill="none" stroke="#000000" d="M358,-583C358,-583 311,-583 311,-583 305,-583 299,-577 299,-571 299,-571 299,-559 299,-559 299,-553 305,-547 311,-547 311,-547 358,-547 358,-547 364,-547 370,-553 370,-559 370,-559 370,-571 370,-571 370,-577 364,-583 358,-583"/>
<text text-anchor="middle" x="334.5" y="-561.3" font-family="Times,serif" font-size="14.00" fill="#000000">JAX&#45;WS</text>
</g>
<!-- jakartaee&#45;&gt;jaxws -->
<g id="edge11" class="edge">
<title>jakartaee&#45;&gt;jaxws</title>
<path fill="none" stroke="#000000" d="M87.2393,-845.9047C100.7453,-811.3058 133.7533,-734.5443 179,-682 212.2898,-643.341 260.4116,-609.58 294.2847,-588.3898"/>
<polygon fill="#000000" stroke="#000000" points="296.3272,-591.2424 303.0034,-583.0157 292.6541,-585.2834 296.3272,-591.2424"/>
<text text-anchor="middle" x="200" y="-685" font-family="Times,serif" font-size="10.00" fill="#000000">requires</text>
</g>
<!-- jws -->
<g id="node12" class="node">
<title>jws</title>
<path fill="none" stroke="#000000" d="M349.5,-252C349.5,-252 319.5,-252 319.5,-252 313.5,-252 307.5,-246 307.5,-240 307.5,-240 307.5,-228 307.5,-228 307.5,-222 313.5,-216 319.5,-216 319.5,-216 349.5,-216 349.5,-216 355.5,-216 361.5,-222 361.5,-228 361.5,-228 361.5,-240 361.5,-240 361.5,-246 355.5,-252 349.5,-252"/>
<text text-anchor="middle" x="334.5" y="-230.3" font-family="Times,serif" font-size="14.00" fill="#000000">JWS</text>
</g>
<!-- jakartaee&#45;&gt;jws -->
<g id="edge12" class="edge">
<title>jakartaee&#45;&gt;jws</title>
<path fill="none" stroke="#000000" d="M80.9171,-845.972C83.3625,-756.235 98.6538,-358.5927 179,-272 209.0216,-239.6444 261.6437,-232.8096 297.2684,-232.2829"/>
<polygon fill="#000000" stroke="#000000" points="297.2797,-235.7828 307.2833,-232.2928 297.2868,-228.7828 297.2797,-235.7828"/>
<text text-anchor="middle" x="200" y="-275" font-family="Times,serif" font-size="10.00" fill="#000000">requires</text>
</g>
<!-- jaxb -->
<g id="node13" class="node">
<title>jaxb</title>
<path fill="none" stroke="#000000" d="M1023,-627C1023,-627 993,-627 993,-627 987,-627 981,-621 981,-615 981,-615 981,-603 981,-603 981,-597 987,-591 993,-591 993,-591 1023,-591 1023,-591 1029,-591 1035,-597 1035,-603 1035,-603 1035,-615 1035,-615 1035,-621 1029,-627 1023,-627"/>
<text text-anchor="middle" x="1008" y="-605.3" font-family="Times,serif" font-size="14.00" fill="#000000">JAXB</text>
</g>
<!-- jakartaee&#45;&gt;jaxb -->
<g id="edge9" class="edge">
<title>jakartaee&#45;&gt;jaxb</title>
<path fill="none" stroke="#000000" d="M83.7666,-845.8826C94.7312,-790.5163 135.5209,-622.2136 239,-538 315.4283,-475.8009 350.8835,-480.6854 448,-464 526.9218,-450.4406 856.6999,-441.718 904,-466 951.3504,-490.3078 982.2677,-547.2851 997.2913,-581.5285"/>
<polygon fill="#000000" stroke="#000000" points="994.1576,-583.1045 1001.2763,-590.9514 1000.6048,-580.3779 994.1576,-583.1045"/>
<text text-anchor="middle" x="572" y="-458" font-family="Times,serif" font-size="10.00" fill="#000000">requires</text>
</g>
<!-- jaxrs -->
<g id="node14" class="node">
<title>jaxrs</title>
<path fill="none" stroke="#000000" d="M793.5,-1278C793.5,-1278 749.5,-1278 749.5,-1278 743.5,-1278 737.5,-1272 737.5,-1266 737.5,-1266 737.5,-1254 737.5,-1254 737.5,-1248 743.5,-1242 749.5,-1242 749.5,-1242 793.5,-1242 793.5,-1242 799.5,-1242 805.5,-1248 805.5,-1254 805.5,-1254 805.5,-1266 805.5,-1266 805.5,-1272 799.5,-1278 793.5,-1278"/>
<text text-anchor="middle" x="771.5" y="-1256.3" font-family="Times,serif" font-size="14.00" fill="#000000">JAX&#45;RS</text>
</g>
<!-- jakartaee&#45;&gt;jaxrs -->
<g id="edge10" class="edge">
<title>jakartaee&#45;&gt;jaxrs</title>
<path fill="none" stroke="#000000" d="M81.5939,-882.2329C86.8849,-964.6482 112.3488,-1301.6989 179,-1379 248.7849,-1459.9354 345.6232,-1448.2527 527,-1400 570.6356,-1388.3914 678.4985,-1320.7118 735.2543,-1283.8739"/>
<polygon fill="#000000" stroke="#000000" points="737.4366,-1286.6295 743.9067,-1278.2398 733.6169,-1280.7635 737.4366,-1286.6295"/>
<text text-anchor="middle" x="487.5" y="-1422" font-family="Times,serif" font-size="10.00" fill="#000000">requires</text>
</g>
<!-- jca -->
<g id="node15" class="node">
<title>jca</title>
<path fill="none" stroke="#000000" d="M349.5,-1391C349.5,-1391 319.5,-1391 319.5,-1391 313.5,-1391 307.5,-1385 307.5,-1379 307.5,-1379 307.5,-1367 307.5,-1367 307.5,-1361 313.5,-1355 319.5,-1355 319.5,-1355 349.5,-1355 349.5,-1355 355.5,-1355 361.5,-1361 361.5,-1367 361.5,-1367 361.5,-1379 361.5,-1379 361.5,-1385 355.5,-1391 349.5,-1391"/>
<text text-anchor="middle" x="334.5" y="-1369.3" font-family="Times,serif" font-size="14.00" fill="#000000">JCA</text>
</g>
<!-- jakartaee&#45;&gt;jca -->
<g id="edge13" class="edge">
<title>jakartaee&#45;&gt;jca</title>
<path fill="none" stroke="#000000" d="M81.6456,-882.1465C87.0073,-961.1672 112.2336,-1274.2791 179,-1341 209.7429,-1371.7219 261.6116,-1376.7378 296.9163,-1376.0593"/>
<polygon fill="#000000" stroke="#000000" points="297.4308,-1379.5433 307.2994,-1375.6881 297.1807,-1372.5477 297.4308,-1379.5433"/>
<text text-anchor="middle" x="200" y="-1367" font-family="Times,serif" font-size="10.00" fill="#000000">requires</text>
</g>
<!-- jms -->
<g id="node16" class="node">
<title>jms</title>
<path fill="none" stroke="#000000" d="M786.5,-1332C786.5,-1332 756.5,-1332 756.5,-1332 750.5,-1332 744.5,-1326 744.5,-1320 744.5,-1320 744.5,-1308 744.5,-1308 744.5,-1302 750.5,-1296 756.5,-1296 756.5,-1296 786.5,-1296 786.5,-1296 792.5,-1296 798.5,-1302 798.5,-1308 798.5,-1308 798.5,-1320 798.5,-1320 798.5,-1326 792.5,-1332 786.5,-1332"/>
<text text-anchor="middle" x="771.5" y="-1310.3" font-family="Times,serif" font-size="14.00" fill="#000000">JMS</text>
</g>
<!-- jakartaee&#45;&gt;jms -->
<g id="edge14" class="edge">
<title>jakartaee&#45;&gt;jms</title>
<path fill="none" stroke="#000000" d="M81.9493,-882.1992C87.8882,-942.6716 116.2579,-1136.9154 239,-1205 406.6838,-1298.0136 643.674,-1312.0421 734.2925,-1313.8724"/>
<polygon fill="#000000" stroke="#000000" points="734.2987,-1317.3729 744.3545,-1314.0366 734.413,-1310.3738 734.2987,-1317.3729"/>
<text text-anchor="middle" x="487.5" y="-1297" font-family="Times,serif" font-size="10.00" fill="#000000">requires</text>
</g>
<!-- jpa -->
<g id="node17" class="node">
<title>jpa</title>
<path fill="none" stroke="#000000" d="M881.5,-1039C881.5,-1039 851.5,-1039 851.5,-1039 845.5,-1039 839.5,-1033 839.5,-1027 839.5,-1027 839.5,-1015 839.5,-1015 839.5,-1009 845.5,-1003 851.5,-1003 851.5,-1003 881.5,-1003 881.5,-1003 887.5,-1003 893.5,-1009 893.5,-1015 893.5,-1015 893.5,-1027 893.5,-1027 893.5,-1033 887.5,-1039 881.5,-1039"/>
<text text-anchor="middle" x="866.5" y="-1017.3" font-family="Times,serif" font-size="14.00" fill="#000000">JPA</text>
</g>
<!-- jakartaee&#45;&gt;jpa -->
<g id="edge15" class="edge">
<title>jakartaee&#45;&gt;jpa</title>
<path fill="none" stroke="#000000" d="M87.3623,-882.3952C100.0396,-913.3905 130.3624,-975.1656 179,-1001 292.7262,-1061.4069 702.8393,-1034.2221 829.1838,-1024.1623"/>
<polygon fill="#000000" stroke="#000000" points="829.468,-1027.6508 839.1537,-1023.3568 828.9042,-1020.6735 829.468,-1027.6508"/>
<text text-anchor="middle" x="487.5" y="-1042" font-family="Times,serif" font-size="10.00" fill="#000000">requires</text>
</g>
<!-- jsonb -->
<g id="node18" class="node">
<title>jsonb</title>
<path fill="none" stroke="#000000" d="M1032,-1455C1032,-1455 984,-1455 984,-1455 978,-1455 972,-1449 972,-1443 972,-1443 972,-1431 972,-1431 972,-1425 978,-1419 984,-1419 984,-1419 1032,-1419 1032,-1419 1038,-1419 1044,-1425 1044,-1431 1044,-1431 1044,-1443 1044,-1443 1044,-1449 1038,-1455 1032,-1455"/>
<text text-anchor="middle" x="1008" y="-1433.3" font-family="Times,serif" font-size="14.00" fill="#000000">JSON&#45;B</text>
</g>
<!-- jakartaee&#45;&gt;jsonb -->
<g id="edge16" class="edge">
<title>jakartaee&#45;&gt;jsonb</title>
<path fill="none" stroke="#000000" d="M81.4857,-882.1533C86.5583,-969.9269 112.1202,-1349.939 179,-1444 223.0254,-1505.9182 258.5257,-1515 334.5,-1515 334.5,-1515 334.5,-1515 771.5,-1515 842.6883,-1515 920.1396,-1482.7321 966.3474,-1459.7049"/>
<polygon fill="#000000" stroke="#000000" points="968.1067,-1462.7371 975.4405,-1455.0908 964.9391,-1456.4948 968.1067,-1462.7371"/>
<text text-anchor="middle" x="572" y="-1518" font-family="Times,serif" font-size="10.00" fill="#000000">requires</text>
</g>
<!-- jsonp -->
<g id="node19" class="node">
<title>jsonp</title>
<path fill="none" stroke="#000000" d="M1031.5,-1309C1031.5,-1309 984.5,-1309 984.5,-1309 978.5,-1309 972.5,-1303 972.5,-1297 972.5,-1297 972.5,-1285 972.5,-1285 972.5,-1279 978.5,-1273 984.5,-1273 984.5,-1273 1031.5,-1273 1031.5,-1273 1037.5,-1273 1043.5,-1279 1043.5,-1285 1043.5,-1285 1043.5,-1297 1043.5,-1297 1043.5,-1303 1037.5,-1309 1031.5,-1309"/>
<text text-anchor="middle" x="1008" y="-1287.3" font-family="Times,serif" font-size="14.00" fill="#000000">JSON&#45;P</text>
</g>
<!-- jakartaee&#45;&gt;jsonp -->
<g id="edge17" class="edge">
<title>jakartaee&#45;&gt;jsonp</title>
<path fill="none" stroke="#000000" d="M83.1211,-882.339C91.048,-933.6097 118.0624,-1081.6385 179,-1188 198.5443,-1222.113 205.3518,-1232.6659 239,-1253 286.734,-1281.8463 705.3017,-1388.8108 829,-1404 862.0848,-1408.0626 876.6025,-1422.9865 904,-1404 922.7268,-1391.0223 908.372,-1374.2589 922,-1356 934.09,-1339.8018 951.2852,-1325.7022 967.1263,-1314.8135"/>
<polygon fill="#000000" stroke="#000000" points="969.3438,-1317.5428 975.7466,-1309.1016 965.4773,-1311.7075 969.3438,-1317.5428"/>
<text text-anchor="middle" x="572" y="-1358" font-family="Times,serif" font-size="10.00" fill="#000000">requires</text>
</g>
<!-- jsf -->
<g id="node20" class="node">
<title>jsf</title>
<path fill="none" stroke="#000000" d="M349.5,-703C349.5,-703 319.5,-703 319.5,-703 313.5,-703 307.5,-697 307.5,-691 307.5,-691 307.5,-679 307.5,-679 307.5,-673 313.5,-667 319.5,-667 319.5,-667 349.5,-667 349.5,-667 355.5,-667 361.5,-673 361.5,-679 361.5,-679 361.5,-691 361.5,-691 361.5,-697 355.5,-703 349.5,-703"/>
<text text-anchor="middle" x="334.5" y="-681.3" font-family="Times,serif" font-size="14.00" fill="#000000">JSF</text>
</g>
<!-- jakartaee&#45;&gt;jsf -->
<g id="edge18" class="edge">
<title>jakartaee&#45;&gt;jsf</title>
<path fill="none" stroke="#000000" d="M87.1494,-845.8173C99.7806,-814.0066 130.4049,-748.5495 179,-716 214.2905,-692.3621 263.5312,-685.957 297.0846,-684.5985"/>
<polygon fill="#000000" stroke="#000000" points="297.4883,-688.0889 307.3899,-684.3193 297.2987,-681.0915 297.4883,-688.0889"/>
<text text-anchor="middle" x="200" y="-719" font-family="Times,serif" font-size="10.00" fill="#000000">requires</text>
</g>
<!-- jsp -->
<g id="node21" class="node">
<title>jsp</title>
<path fill="none" stroke="#000000" d="M786.5,-776C786.5,-776 756.5,-776 756.5,-776 750.5,-776 744.5,-770 744.5,-764 744.5,-764 744.5,-752 744.5,-752 744.5,-746 750.5,-740 756.5,-740 756.5,-740 786.5,-740 786.5,-740 792.5,-740 798.5,-746 798.5,-752 798.5,-752 798.5,-764 798.5,-764 798.5,-770 792.5,-776 786.5,-776"/>
<text text-anchor="middle" x="771.5" y="-754.3" font-family="Times,serif" font-size="14.00" fill="#000000">JSP</text>
</g>
<!-- jakartaee&#45;&gt;jsp -->
<g id="edge19" class="edge">
<title>jakartaee&#45;&gt;jsp</title>
<path fill="none" stroke="#000000" d="M103.2318,-845.8001C122.2655,-831.6801 150.7773,-813.0386 179,-804 406.049,-731.2851 476.711,-788.0789 714,-765 720.5028,-764.3675 727.4083,-763.6052 734.0934,-762.8198"/>
<polygon fill="#000000" stroke="#000000" points="734.8202,-766.2574 744.3274,-761.5817 733.9794,-759.3081 734.8202,-766.2574"/>
<text text-anchor="middle" x="487.5" y="-772" font-family="Times,serif" font-size="10.00" fill="#000000">requires</text>
</g>
<!-- jstl -->
<g id="node22" class="node">
<title>jstl</title>
<path fill="none" stroke="#000000" d="M587,-752C587,-752 557,-752 557,-752 551,-752 545,-746 545,-740 545,-740 545,-728 545,-728 545,-722 551,-716 557,-716 557,-716 587,-716 587,-716 593,-716 599,-722 599,-728 599,-728 599,-740 599,-740 599,-746 593,-752 587,-752"/>
<text text-anchor="middle" x="572" y="-730.3" font-family="Times,serif" font-size="14.00" fill="#000000">JSTL</text>
</g>
<!-- jakartaee&#45;&gt;jstl -->
<g id="edge20" class="edge">
<title>jakartaee&#45;&gt;jstl</title>
<path fill="none" stroke="#000000" d="M93.1878,-845.8768C110.0403,-823.3008 142.0239,-785.3483 179,-766 240.2086,-733.9716 449.185,-732.5553 534.8811,-733.3899"/>
<polygon fill="#000000" stroke="#000000" points="534.9018,-736.8902 544.9409,-733.504 534.9813,-729.8907 534.9018,-736.8902"/>
<text text-anchor="middle" x="334.5" y="-751" font-family="Times,serif" font-size="10.00" fill="#000000">requires</text>
</g>
<!-- jta -->
<g id="node23" class="node">
<title>jta</title>
<path fill="none" stroke="#000000" d="M786.5,-1087C786.5,-1087 756.5,-1087 756.5,-1087 750.5,-1087 744.5,-1081 744.5,-1075 744.5,-1075 744.5,-1063 744.5,-1063 744.5,-1057 750.5,-1051 756.5,-1051 756.5,-1051 786.5,-1051 786.5,-1051 792.5,-1051 798.5,-1057 798.5,-1063 798.5,-1063 798.5,-1075 798.5,-1075 798.5,-1081 792.5,-1087 786.5,-1087"/>
<text text-anchor="middle" x="771.5" y="-1065.3" font-family="Times,serif" font-size="14.00" fill="#000000">JTA</text>
</g>
<!-- jakartaee&#45;&gt;jta -->
<g id="edge21" class="edge">
<title>jakartaee&#45;&gt;jta</title>
<path fill="none" stroke="#000000" d="M84.5111,-882.2298C93.7788,-919.4586 120.5129,-1003.759 179,-1040 226.0512,-1069.1549 611.9277,-1069.7941 734.3688,-1069.2505"/>
<polygon fill="#000000" stroke="#000000" points="734.4061,-1072.7504 744.3885,-1069.2006 734.3711,-1065.7505 734.4061,-1072.7504"/>
<text text-anchor="middle" x="487.5" y="-1071" font-family="Times,serif" font-size="10.00" fill="#000000">requires</text>
</g>
<!-- deployment -->
<g id="node24" class="node">
<title>deployment</title>
<path fill="none" stroke="#000000" d="M414.5,-198C414.5,-198 254.5,-198 254.5,-198 248.5,-198 242.5,-192 242.5,-186 242.5,-186 242.5,-174 242.5,-174 242.5,-168 248.5,-162 254.5,-162 254.5,-162 414.5,-162 414.5,-162 420.5,-162 426.5,-168 426.5,-174 426.5,-174 426.5,-186 426.5,-186 426.5,-192 420.5,-198 414.5,-198"/>
<text text-anchor="middle" x="334.5" y="-176.3" font-family="Times,serif" font-size="14.00" fill="#000000">Enterprise Deployment</text>
</g>
<!-- jakartaee&#45;&gt;deployment -->
<g id="edge22" class="edge">
<title>jakartaee&#45;&gt;deployment</title>
<path fill="none" stroke="#000000" d="M80.9609,-845.8909C83.6672,-752.9422 100.2077,-329.9787 179,-231 192.6569,-213.8443 212.2129,-202.3973 232.8697,-194.7764"/>
<polygon fill="#000000" stroke="#000000" points="234.0747,-198.0636 242.4208,-191.5373 231.8265,-191.4344 234.0747,-198.0636"/>
<text text-anchor="middle" x="200" y="-234" font-family="Times,serif" font-size="10.00" fill="#000000">requires</text>
</g>
<!-- management -->
<g id="node25" class="node">
<title>management</title>
<path fill="none" stroke="#000000" d="M418,-144C418,-144 251,-144 251,-144 245,-144 239,-138 239,-132 239,-132 239,-120 239,-120 239,-114 245,-108 251,-108 251,-108 418,-108 418,-108 424,-108 430,-114 430,-120 430,-120 430,-132 430,-132 430,-138 424,-144 418,-144"/>
<text text-anchor="middle" x="334.5" y="-122.3" font-family="Times,serif" font-size="14.00" fill="#000000">Enterprise Management</text>
</g>
<!-- jakartaee&#45;&gt;management -->
<g id="edge23" class="edge">
<title>jakartaee&#45;&gt;management</title>
<path fill="none" stroke="#000000" d="M80.9665,-845.7155C83.7547,-748.8882 100.8511,-296.2326 179,-185 191.3236,-167.4593 209.5776,-155.1304 229.2858,-146.4655"/>
<polygon fill="#000000" stroke="#000000" points="230.7976,-149.6291 238.7411,-142.6182 228.1594,-143.1452 230.7976,-149.6291"/>
<text text-anchor="middle" x="200" y="-188" font-family="Times,serif" font-size="10.00" fill="#000000">requires</text>
</g>
<!-- jaxr -->
<g id="node26" class="node">
<title>jaxr</title>
<path fill="none" stroke="#000000" d="M349.5,-90C349.5,-90 319.5,-90 319.5,-90 313.5,-90 307.5,-84 307.5,-78 307.5,-78 307.5,-66 307.5,-66 307.5,-60 313.5,-54 319.5,-54 319.5,-54 349.5,-54 349.5,-54 355.5,-54 361.5,-60 361.5,-66 361.5,-66 361.5,-78 361.5,-78 361.5,-84 355.5,-90 349.5,-90"/>
<text text-anchor="middle" x="334.5" y="-68.3" font-family="Times,serif" font-size="14.00" fill="#000000">JAXR</text>
</g>
<!-- jakartaee&#45;&gt;jaxr -->
<g id="edge25" class="edge">
<title>jakartaee&#45;&gt;jaxr</title>
<path fill="none" stroke="#000000" d="M80.9192,-845.8704C83.5333,-745.686 100.1608,-259.879 179,-137 204.5639,-97.1561 259.9238,-81.7123 297.2078,-75.7415"/>
<polygon fill="#000000" stroke="#000000" points="297.8084,-79.1912 307.2046,-74.2963 296.8067,-72.2632 297.8084,-79.1912"/>
<text text-anchor="middle" x="200" y="-140" font-family="Times,serif" font-size="10.00" fill="#000000">requires</text>
</g>
<!-- servlet -->
<g id="node27" class="node">
<title>servlet</title>
<path fill="none" stroke="#000000" d="M1034,-882C1034,-882 982,-882 982,-882 976,-882 970,-876 970,-870 970,-870 970,-858 970,-858 970,-852 976,-846 982,-846 982,-846 1034,-846 1034,-846 1040,-846 1046,-852 1046,-858 1046,-858 1046,-870 1046,-870 1046,-876 1040,-882 1034,-882"/>
<text text-anchor="middle" x="1008" y="-860.3" font-family="Times,serif" font-size="14.00" fill="#000000">Servlets</text>
</g>
<!-- jakartaee&#45;&gt;servlet -->
<g id="edge26" class="edge">
<title>jakartaee&#45;&gt;servlet</title>
<path fill="none" stroke="#000000" d="M161.0575,-875.3549C167.1212,-875.988 173.1527,-876.5487 179,-877 416.1142,-895.2997 476.2801,-893.8756 714,-887 798.5505,-884.5545 819.7293,-883.2952 904,-876 922.1642,-874.4275 942.0618,-872.2449 959.5453,-870.1717"/>
<polygon fill="#000000" stroke="#000000" points="960.0193,-873.64 969.529,-868.9691 959.1821,-866.6902 960.0193,-873.64"/>
<text text-anchor="middle" x="572" y="-894" font-family="Times,serif" font-size="10.00" fill="#000000">requires</text>
</g>
<!-- websocket -->
<g id="node28" class="node">
<title>websocket</title>
<path fill="none" stroke="#000000" d="M702,-878C702,-878 629,-878 629,-878 623,-878 617,-872 617,-866 617,-866 617,-854 617,-854 617,-848 623,-842 629,-842 629,-842 702,-842 702,-842 708,-842 714,-848 714,-854 714,-854 714,-866 714,-866 714,-872 708,-878 702,-878"/>
<text text-anchor="middle" x="665.5" y="-856.3" font-family="Times,serif" font-size="14.00" fill="#000000">WebSocket</text>
</g>
<!-- jakartaee&#45;&gt;websocket -->
<g id="edge27" class="edge">
<title>jakartaee&#45;&gt;websocket</title>
<path fill="none" stroke="#000000" d="M161.2275,-863.448C280.5911,-862.6319 501.3656,-861.1223 606.6606,-860.4023"/>
<polygon fill="#000000" stroke="#000000" points="606.8115,-863.9015 616.7873,-860.3331 606.7636,-856.9016 606.8115,-863.9015"/>
<text text-anchor="middle" x="334.5" y="-865" font-family="Times,serif" font-size="10.00" fill="#000000">requires</text>
</g>
<!-- jaxrpc -->
<g id="node29" class="node">
<title>jaxrpc</title>
<path fill="none" stroke="#000000" d="M799,-1141C799,-1141 744,-1141 744,-1141 738,-1141 732,-1135 732,-1129 732,-1129 732,-1117 732,-1117 732,-1111 738,-1105 744,-1105 744,-1105 799,-1105 799,-1105 805,-1105 811,-1111 811,-1117 811,-1117 811,-1129 811,-1129 811,-1135 805,-1141 799,-1141"/>
<text text-anchor="middle" x="771.5" y="-1119.3" font-family="Times,serif" font-size="14.00" fill="#000000">JAX&#45;RPC</text>
</g>
<!-- jakartaee&#45;&gt;jaxrpc -->
<g id="edge28" class="edge">
<title>jakartaee&#45;&gt;jaxrpc</title>
<path fill="none" stroke="#000000" d="M84.217,-882.0523C93.1888,-920.8604 119.8084,-1012.4756 179,-1059 200.5288,-1075.9215 211.909,-1069.0121 239,-1073 448.2765,-1103.8061 506.6389,-1061.2021 714,-1103 716.676,-1103.5394 719.3974,-1104.1736 722.1276,-1104.8778"/>
<polygon fill="#000000" stroke="#000000" points="721.4117,-1108.3132 731.9882,-1107.691 723.3321,-1101.5817 721.4117,-1108.3132"/>
<text text-anchor="middle" x="487.5" y="-1087" font-family="Times,serif" font-size="10.00" fill="#000000">requires</text>
</g>
<!-- saaj -->
<g id="node30" class="node">
<title>saaj</title>
<path fill="none" stroke="#000000" d="M587,-414C587,-414 557,-414 557,-414 551,-414 545,-408 545,-402 545,-402 545,-390 545,-390 545,-384 551,-378 557,-378 557,-378 587,-378 587,-378 593,-378 599,-384 599,-390 599,-390 599,-402 599,-402 599,-408 593,-414 587,-414"/>
<text text-anchor="middle" x="572" y="-392.3" font-family="Times,serif" font-size="14.00" fill="#000000">SAAJ</text>
</g>
<!-- jakartaee&#45;&gt;saaj -->
<g id="edge24" class="edge">
<title>jakartaee&#45;&gt;saaj</title>
<path fill="none" stroke="#000000" d="M82.1523,-845.752C89.1706,-772.396 118.9431,-500.2118 179,-443 229.4991,-394.8932 447.024,-393.527 534.9315,-395.0234"/>
<polygon fill="#000000" stroke="#000000" points="534.9239,-398.5238 544.9895,-395.2172 535.0588,-391.5251 534.9239,-398.5238"/>
<text text-anchor="middle" x="334.5" y="-418" font-family="Times,serif" font-size="10.00" fill="#000000">requires</text>
</g>
<!-- cdi -->
<g id="node31" class="node">
<title>cdi</title>
<path fill="none" stroke="#000000" d="M1255,-1216C1255,-1216 1225,-1216 1225,-1216 1219,-1216 1213,-1210 1213,-1204 1213,-1204 1213,-1192 1213,-1192 1213,-1186 1219,-1180 1225,-1180 1225,-1180 1255,-1180 1255,-1180 1261,-1180 1267,-1186 1267,-1192 1267,-1192 1267,-1204 1267,-1204 1267,-1210 1261,-1216 1255,-1216"/>
<text text-anchor="middle" x="1240" y="-1194.3" font-family="Times,serif" font-size="14.00" fill="#000000">CDI</text>
</g>
<!-- jakartaee&#45;&gt;cdi -->
<g id="edge29" class="edge">
<title>jakartaee&#45;&gt;cdi</title>
<path fill="none" stroke="#000000" d="M81.4893,-882.226C86.7007,-973.0247 113.262,-1376.291 179,-1480 219.9764,-1544.6449 257.9623,-1554 334.5,-1554 334.5,-1554 334.5,-1554 1008,-1554 1092.6384,-1554 1136.9297,-1557.2395 1187,-1489 1217.584,-1447.3179 1232.8449,-1291.1832 1237.9667,-1226.4224"/>
<polygon fill="#000000" stroke="#000000" points="1241.4802,-1226.3785 1238.7548,-1216.1402 1234.5007,-1225.8434 1241.4802,-1226.3785"/>
<text text-anchor="middle" x="665.5" y="-1557" font-family="Times,serif" font-size="10.00" fill="#000000">requires</text>
</g>
<!-- bv -->
<g id="node33" class="node">
<title>bv</title>
<path fill="none" stroke="#000000" d="M1060,-1401C1060,-1401 956,-1401 956,-1401 950,-1401 944,-1395 944,-1389 944,-1389 944,-1377 944,-1377 944,-1371 950,-1365 956,-1365 956,-1365 1060,-1365 1060,-1365 1066,-1365 1072,-1371 1072,-1377 1072,-1377 1072,-1389 1072,-1389 1072,-1395 1066,-1401 1060,-1401"/>
<text text-anchor="middle" x="1008" y="-1379.3" font-family="Times,serif" font-size="14.00" fill="#000000">Bean Validation</text>
</g>
<!-- jakartaee&#45;&gt;bv -->
<g id="edge30" class="edge">
<title>jakartaee&#45;&gt;bv</title>
<path fill="none" stroke="#000000" d="M81.7501,-882.1745C87.8638,-966.7263 116.8694,-1321.2187 179,-1410 221.2923,-1470.4334 260.738,-1468 334.5,-1468 334.5,-1468 334.5,-1468 771.5,-1468 833.8368,-1468 848.1728,-1449.7344 904,-1422 912.6108,-1417.7223 913.3262,-1414.1484 922,-1410 925.9992,-1408.0873 930.1665,-1406.2673 934.4155,-1404.5429"/>
<polygon fill="#000000" stroke="#000000" points="935.7416,-1407.7829 943.8147,-1400.9217 933.225,-1401.2509 935.7416,-1407.7829"/>
<text text-anchor="middle" x="572" y="-1471" font-family="Times,serif" font-size="10.00" fill="#000000">requires</text>
</g>
<!-- batch -->
<g id="node34" class="node">
<title>batch</title>
<path fill="none" stroke="#000000" d="M352,-36C352,-36 317,-36 317,-36 311,-36 305,-30 305,-24 305,-24 305,-12 305,-12 305,-6 311,0 317,0 317,0 352,0 352,0 358,0 364,-6 364,-12 364,-12 364,-24 364,-24 364,-30 358,-36 352,-36"/>
<text text-anchor="middle" x="334.5" y="-14.3" font-family="Times,serif" font-size="14.00" fill="#000000">Batch</text>
</g>
<!-- jakartaee&#45;&gt;batch -->
<g id="edge31" class="edge">
<title>jakartaee&#45;&gt;batch</title>
<path fill="none" stroke="#000000" d="M80.841,-845.7265C83.0774,-741.3795 98.1904,-220.8729 179,-87 203.2056,-46.8999 257.0971,-30.003 294.6047,-22.9502"/>
<polygon fill="#000000" stroke="#000000" points="295.4496,-26.3563 304.7111,-21.2109 294.2623,-19.4577 295.4496,-26.3563"/>
<text text-anchor="middle" x="200" y="-90" font-family="Times,serif" font-size="10.00" fill="#000000">requires</text>
</g>
<!-- interceptors -->
<g id="node6" class="node">
<title>interceptors</title>
<path fill="none" stroke="#000000" d="M1514,-1164C1514,-1164 1431,-1164 1431,-1164 1425,-1164 1419,-1158 1419,-1152 1419,-1152 1419,-1140 1419,-1140 1419,-1134 1425,-1128 1431,-1128 1431,-1128 1514,-1128 1514,-1128 1520,-1128 1526,-1134 1526,-1140 1526,-1140 1526,-1152 1526,-1152 1526,-1158 1520,-1164 1514,-1164"/>
<text text-anchor="middle" x="1472.5" y="-1142.3" font-family="Times,serif" font-size="14.00" fill="#000000">Interceptors</text>
</g>
<!-- ejb&#45;&gt;interceptors -->
<g id="edge32" class="edge">
<title>ejb&#45;&gt;interceptors</title>
<path fill="none" stroke="#000000" d="M599.04,-1180.0235C627.6706,-1177.7698 674.1438,-1173.6523 714,-1168 757.4127,-1161.8434 774.1887,-1173.8222 811,-1150 822.7993,-1142.3641 816.5861,-1130.5898 829,-1124 920.0798,-1075.6513 1189.8844,-1119.5556 1293,-1119 1326.3328,-1118.8204 1334.9327,-1114.7972 1368,-1119 1381.3315,-1120.6944 1395.395,-1123.5586 1408.734,-1126.804"/>
<polygon fill="#000000" stroke="#000000" points="1408.2157,-1130.2832 1418.7691,-1129.3471 1409.9353,-1123.4977 1408.2157,-1130.2832"/>
<text text-anchor="middle" x="1008" y="-1108" font-family="Times,serif" font-size="10.00" fill="#000000">requires</text>
</g>
<!-- ejb&#45;&gt;jaxrs -->
<g id="edge59" class="edge">
<title>ejb&#45;&gt;jaxrs</title>
<path fill="none" stroke="#000000" stroke-dasharray="5,2" d="M598.8082,-1206.5582C604.5107,-1210.8618 610.7166,-1214.9354 617,-1218 656.8225,-1237.4223 671.3701,-1228.9271 714,-1241 718.3861,-1242.2422 722.9359,-1243.6086 727.4682,-1245.0216"/>
<polygon fill="#000000" stroke="#000000" points="600.852,-1203.7107 590.8631,-1200.1792 596.4696,-1209.1691 600.852,-1203.7107"/>
<polygon fill="#000000" stroke="#000000" points="726.7009,-1248.4506 737.2917,-1248.159 728.8306,-1241.7825 726.7009,-1248.4506"/>
<text text-anchor="middle" x="665.5" y="-1244" font-family="Times,serif" font-size="10.00" fill="#000000">integrates with</text>
</g>
<!-- ejb&#45;&gt;jms -->
<g id="edge34" class="edge">
<title>ejb&#45;&gt;jms</title>
<path fill="none" stroke="#000000" d="M578.9524,-1200.0471C586.0827,-1216.1274 598.7244,-1239.0592 617,-1252 653.1593,-1277.6041 673.4437,-1257.1604 714,-1275 714.7385,-1275.3249 724.9091,-1282.1943 736.4963,-1290.0795"/>
<polygon fill="#000000" stroke="#000000" points="734.8347,-1293.1826 745.0693,-1295.9216 738.7766,-1287.398 734.8347,-1293.1826"/>
<text text-anchor="middle" x="665.5" y="-1278" font-family="Times,serif" font-size="10.00" fill="#000000">requires</text>
</g>
<!-- ejb&#45;&gt;jta -->
<g id="edge33" class="edge">
<title>ejb&#45;&gt;jta</title>
<path fill="none" stroke="#000000" d="M581.3471,-1163.8806C589.1915,-1150.318 601.5803,-1132.2412 617,-1121 652.1845,-1095.35 700.8799,-1081.7491 734.1391,-1074.979"/>
<polygon fill="#000000" stroke="#000000" points="735.1992,-1078.3393 744.3585,-1073.0143 733.8775,-1071.4652 735.1992,-1078.3393"/>
<text text-anchor="middle" x="665.5" y="-1124" font-family="Times,serif" font-size="10.00" fill="#000000">requires</text>
</g>
<!-- ejb&#45;&gt;jaxrpc -->
<g id="edge60" class="edge">
<title>ejb&#45;&gt;jaxrpc</title>
<path fill="none" stroke="#000000" stroke-dasharray="5,2" d="M608.4418,-1160.6217C611.2933,-1159.2999 614.166,-1158.0727 617,-1157 626.8774,-1153.2612 680.6627,-1141.7406 722.0259,-1133.1394"/>
<polygon fill="#000000" stroke="#000000" points="606.8659,-1157.4964 599.4804,-1165.0928 609.9911,-1163.7601 606.8659,-1157.4964"/>
<polygon fill="#000000" stroke="#000000" points="722.8912,-1136.5345 731.9725,-1131.0774 721.4702,-1129.6803 722.8912,-1136.5345"/>
<text text-anchor="middle" x="665.5" y="-1160" font-family="Times,serif" font-size="10.00" fill="#000000">integrates with</text>
</g>
<!-- es&#45;&gt;el -->
<g id="edge45" class="edge">
<title>es&#45;&gt;el</title>
<path fill="none" stroke="#000000" d="M1087.0724,-952.7919C1118.2896,-950.6152 1154.4174,-947.4545 1187,-943 1253.3306,-933.9317 1327.5071,-919.2423 1383.6249,-907.1832"/>
<polygon fill="#000000" stroke="#000000" points="1384.4976,-910.5755 1393.5322,-905.0413 1383.0184,-903.7335 1384.4976,-910.5755"/>
<text text-anchor="middle" x="1240" y="-942" font-family="Times,serif" font-size="10.00" fill="#000000">requires</text>
</g>
<!-- es&#45;&gt;jaspic -->
<g id="edge43" class="edge">
<title>es&#45;&gt;jaspic</title>
<path fill="none" stroke="#000000" d="M1078.8683,-938.9775C1116.6671,-929.3648 1162.0404,-917.8259 1194.9937,-909.4456"/>
<polygon fill="#000000" stroke="#000000" points="1195.9708,-912.8086 1204.7997,-906.9518 1194.2455,-906.0245 1195.9708,-912.8086"/>
<text text-anchor="middle" x="1149.5" y="-932" font-family="Times,serif" font-size="10.00" fill="#000000">requires</text>
</g>
<!-- es&#45;&gt;cdi -->
<g id="edge44" class="edge">
<title>es&#45;&gt;cdi</title>
<path fill="none" stroke="#000000" d="M1087.1987,-968.0573C1131.4981,-974.9382 1179.347,-983.8141 1187,-991 1212.8791,-1015.2994 1229.6859,-1118.9609 1236.5212,-1169.7405"/>
<polygon fill="#000000" stroke="#000000" points="1233.0599,-1170.2648 1237.8281,-1179.726 1240.0007,-1169.3563 1233.0599,-1170.2648"/>
<text text-anchor="middle" x="1149.5" y="-994" font-family="Times,serif" font-size="10.00" fill="#000000">requires</text>
</g>
<!-- javamail&#45;&gt;jaf -->
<g id="edge41" class="edge">
<title>javamail&#45;&gt;jaf</title>
<path fill="none" stroke="#000000" d="M527.3687,-364.8413C634.2874,-367.2608 936.2841,-375.1682 1187,-392 1192.1136,-392.3433 1197.4987,-392.7725 1202.7977,-393.2342"/>
<polygon fill="#000000" stroke="#000000" points="1202.5105,-396.7225 1212.7879,-394.1483 1203.1484,-389.7516 1202.5105,-396.7225"/>
<text text-anchor="middle" x="771.5" y="-376" font-family="Times,serif" font-size="10.00" fill="#000000">requires</text>
</g>
<!-- jaxws&#45;&gt;ca -->
<g id="edge52" class="edge">
<title>jaxws&#45;&gt;ca</title>
<path fill="none" stroke="#000000" d="M370.0919,-549.2473C392.1149,-540.1544 421.2077,-529.3042 448,-523 588.7723,-489.8764 626.8832,-488 771.5,-488 771.5,-488 771.5,-488 1240,-488 1487.0827,-488 1330.1223,-784.8378 1368,-1029 1376.131,-1081.413 1357.3852,-1222.341 1386,-1267 1392.4425,-1277.0548 1401.7664,-1285.1886 1411.9313,-1291.7033"/>
<polygon fill="#000000" stroke="#000000" points="1410.2264,-1294.7608 1420.6229,-1296.8014 1413.768,-1288.7229 1410.2264,-1294.7608"/>
<text text-anchor="middle" x="866.5" y="-491" font-family="Times,serif" font-size="10.00" fill="#000000">requires</text>
</g>
<!-- jaxws&#45;&gt;ejb -->
<g id="edge67" class="edge">
<title>jaxws&#45;&gt;ejb</title>
<path fill="none" stroke="#000000" stroke-dasharray="5,2" d="M370.3446,-575.9045C415.6869,-591.7995 492.0608,-626.052 527,-685 544.988,-715.3486 541.3795,-966.9073 545,-1002 550.5692,-1055.9809 560.8169,-1118.5411 566.9599,-1153.8773"/>
<polygon fill="#000000" stroke="#000000" points="563.5483,-1154.686 568.7248,-1163.9301 570.4428,-1153.4755 563.5483,-1154.686"/>
<text text-anchor="middle" x="487.5" y="-688" font-family="Times,serif" font-size="10.00" fill="#000000">integrates with</text>
</g>
<!-- jaxws&#45;&gt;jaf -->
<g id="edge42" class="edge">
<title>jaxws&#45;&gt;jaf</title>
<path fill="none" stroke="#000000" d="M370.2165,-563.9683C437.6503,-561.7071 588.238,-555.1642 714,-539 799.2456,-528.0434 820.6495,-523.9657 904,-503 1014.416,-475.2264 1141.8997,-431.8016 1203.2571,-410.1689"/>
<polygon fill="#000000" stroke="#000000" points="1204.6159,-413.4008 1212.8753,-406.765 1202.2805,-406.8018 1204.6159,-413.4008"/>
<text text-anchor="middle" x="771.5" y="-539" font-family="Times,serif" font-size="10.00" fill="#000000">requires</text>
</g>
<!-- jaxws&#45;&gt;jaxb -->
<g id="edge54" class="edge">
<title>jaxws&#45;&gt;jaxb</title>
<path fill="none" stroke="#000000" d="M370.2159,-570.0485C392.5338,-573.0434 421.8942,-576.6935 448,-579 644.4093,-596.3534 880.522,-605.0252 970.6049,-607.8912"/>
<polygon fill="#000000" stroke="#000000" points="970.7495,-611.3973 980.8542,-608.2121 970.9687,-604.4008 970.7495,-611.3973"/>
<text text-anchor="middle" x="665.5" y="-600" font-family="Times,serif" font-size="10.00" fill="#000000">requires</text>
</g>
<!-- jaxws&#45;&gt;servlet -->
<g id="edge68" class="edge">
<title>jaxws&#45;&gt;servlet</title>
<path fill="none" stroke="#000000" stroke-dasharray="5,2" d="M370.2732,-554.4468C451.9705,-532.3131 657.0748,-487.9879 811,-550 932.538,-598.9642 985.3635,-768.6683 1001.8952,-836.0802"/>
<polygon fill="#000000" stroke="#000000" points="998.5311,-837.0629 1004.2418,-845.9869 1005.3426,-835.4494 998.5311,-837.0629"/>
<text text-anchor="middle" x="665.5" y="-527" font-family="Times,serif" font-size="10.00" fill="#000000">integrates with</text>
</g>
<!-- jaxws&#45;&gt;saaj -->
<g id="edge53" class="edge">
<title>jaxws&#45;&gt;saaj</title>
<path fill="none" stroke="#000000" d="M359.5527,-546.7099C382.4244,-530.1106 417.2518,-505.0805 448,-484 482.6693,-460.2313 492.9962,-456.7115 527,-432 531.8737,-428.4581 536.9446,-424.5906 541.8501,-420.7465"/>
<polygon fill="#000000" stroke="#000000" points="544.234,-423.3227 549.8857,-414.3612 539.8791,-417.8423 544.234,-423.3227"/>
<text text-anchor="middle" x="487.5" y="-487" font-family="Times,serif" font-size="10.00" fill="#000000">requires</text>
</g>
<!-- jaxb&#45;&gt;jaf -->
<g id="edge55" class="edge">
<title>jaxb&#45;&gt;jaf</title>
<path fill="none" stroke="#000000" d="M1035.0946,-612.2663C1073.7744,-615.3345 1144.799,-614.8176 1187,-577 1209.6284,-556.722 1227.4211,-470.4185 1235.4101,-425.0813"/>
<polygon fill="#000000" stroke="#000000" points="1238.8944,-425.4709 1237.1399,-415.0224 1231.9956,-424.2845 1238.8944,-425.4709"/>
<text text-anchor="middle" x="1149.5" y="-612" font-family="Times,serif" font-size="10.00" fill="#000000">requires</text>
</g>
<!-- jaxrs&#45;&gt;ca -->
<g id="edge50" class="edge">
<title>jaxrs&#45;&gt;ca</title>
<path fill="none" stroke="#000000" d="M800.9782,-1278.1484C809.7818,-1283.0861 819.5966,-1288.1322 829,-1292 868.6918,-1308.3259 879.4798,-1312.1681 922,-1318 1080.1623,-1339.6928 1266.2944,-1331.8001 1376.5618,-1323.6945"/>
<polygon fill="#000000" stroke="#000000" points="1376.9543,-1327.175 1386.664,-1322.9357 1376.4299,-1320.1947 1376.9543,-1327.175"/>
<text text-anchor="middle" x="1149.5" y="-1335" font-family="Times,serif" font-size="10.00" fill="#000000">requires</text>
</g>
<!-- jaxrs&#45;&gt;jaxb -->
<g id="edge51" class="edge">
<title>jaxrs&#45;&gt;jaxb</title>
<path fill="none" stroke="#000000" d="M778.5498,-1241.8169C787.3353,-1221.5464 804.2695,-1189.2253 829,-1171 856.8658,-1150.4642 882.2983,-1176.9678 904,-1150 925.8395,-1122.8609 914.77,-871.0767 922,-837 937.9731,-761.7152 974.672,-678.2944 994.5749,-636.3169"/>
<polygon fill="#000000" stroke="#000000" points="997.8526,-637.5761 999.0185,-627.0456 991.5401,-634.5506 997.8526,-637.5761"/>
<text text-anchor="middle" x="866.5" y="-1174" font-family="Times,serif" font-size="10.00" fill="#000000">requires</text>
</g>
<!-- jaxrs&#45;&gt;jsonb -->
<g id="edge65" class="edge">
<title>jaxrs&#45;&gt;jsonb</title>
<path fill="none" stroke="#000000" stroke-dasharray="5,2" d="M803.3254,-1278.2986C806.2245,-1280.9275 808.8666,-1283.83 811,-1287 832.0752,-1318.3149 804.9997,-1340.8662 829,-1370 846.3334,-1391.0409 915.158,-1412.6735 962.2342,-1425.4701"/>
<polygon fill="#000000" stroke="#000000" points="961.3583,-1428.8588 971.9232,-1428.0632 963.1681,-1422.0968 961.3583,-1428.8588"/>
<text text-anchor="middle" x="866.5" y="-1410" font-family="Times,serif" font-size="10.00" fill="#000000">integrates with</text>
</g>
<!-- jaxrs&#45;&gt;jsonp -->
<g id="edge64" class="edge">
<title>jaxrs&#45;&gt;jsonp</title>
<path fill="none" stroke="#000000" stroke-dasharray="5,2" d="M805.5453,-1264.7967C813.2557,-1265.8663 821.4078,-1266.9841 829,-1268 874.224,-1274.0513 925.919,-1280.6606 962.0891,-1285.2349"/>
<polygon fill="#000000" stroke="#000000" points="961.9657,-1288.747 972.3255,-1286.5276 962.8428,-1281.8022 961.9657,-1288.747"/>
<text text-anchor="middle" x="866.5" y="-1280" font-family="Times,serif" font-size="10.00" fill="#000000">integrates with</text>
</g>
<!-- jaxrs&#45;&gt;servlet -->
<g id="edge61" class="edge">
<title>jaxrs&#45;&gt;servlet</title>
<path fill="none" stroke="#000000" stroke-dasharray="5,2" d="M787.2408,-1241.7872C797.9838,-1230.3647 813.1048,-1216.1248 829,-1207 859.2374,-1189.6419 882.2946,-1211.2852 904,-1184 939.2274,-1139.7167 895.1952,-979.8345 922,-930 931.3276,-912.6584 947.3955,-898.4676 963.1362,-887.7488"/>
<polygon fill="#000000" stroke="#000000" points="965.3001,-890.5178 971.8026,-882.1531 961.503,-884.6371 965.3001,-890.5178"/>
<text text-anchor="middle" x="866.5" y="-1210" font-family="Times,serif" font-size="10.00" fill="#000000">integrates with</text>
</g>
<!-- jaxrs&#45;&gt;cdi -->
<g id="edge62" class="edge">
<title>jaxrs&#45;&gt;cdi</title>
<path fill="none" stroke="#000000" stroke-dasharray="5,2" d="M805.5851,-1251.2852C839.076,-1242.3533 887.487,-1228.3457 904,-1218 913.8574,-1211.8242 911.3216,-1203.613 922,-1199 1016.1432,-1158.3305 1141.0916,-1176.1542 1202.5746,-1188.998"/>
<polygon fill="#000000" stroke="#000000" points="1202.0757,-1192.4709 1212.5897,-1191.1648 1203.5559,-1185.6292 1202.0757,-1192.4709"/>
<text text-anchor="middle" x="1008" y="-1202" font-family="Times,serif" font-size="10.00" fill="#000000">integrates with</text>
</g>
<!-- jaxrs&#45;&gt;bv -->
<g id="edge63" class="edge">
<title>jaxrs&#45;&gt;bv</title>
<path fill="none" stroke="#000000" stroke-dasharray="5,2" d="M802.5032,-1278.278C805.6305,-1280.9387 808.5503,-1283.8541 811,-1287 825.2544,-1305.3053 811.8321,-1320.3944 829,-1336 833.1618,-1339.7831 886.3342,-1353.4915 933.6515,-1365.1344"/>
<polygon fill="#000000" stroke="#000000" points="933.0941,-1368.6013 943.6399,-1367.5831 934.7609,-1361.8026 933.0941,-1368.6013"/>
<text text-anchor="middle" x="866.5" y="-1359" font-family="Times,serif" font-size="10.00" fill="#000000">integrates with</text>
</g>
<!-- cu -->
<g id="node35" class="node">
<title>cu</title>
<path fill="none" stroke="#000000" d="M1082,-1255C1082,-1255 934,-1255 934,-1255 928,-1255 922,-1249 922,-1243 922,-1243 922,-1231 922,-1231 922,-1225 928,-1219 934,-1219 934,-1219 1082,-1219 1082,-1219 1088,-1219 1094,-1225 1094,-1231 1094,-1231 1094,-1243 1094,-1243 1094,-1249 1088,-1255 1082,-1255"/>
<text text-anchor="middle" x="1008" y="-1233.3" font-family="Times,serif" font-size="14.00" fill="#000000">Concurrency Utilities</text>
</g>
<!-- jaxrs&#45;&gt;cu -->
<g id="edge66" class="edge">
<title>jaxrs&#45;&gt;cu</title>
<path fill="none" stroke="#000000" stroke-dasharray="5,2" d="M805.6366,-1256.6802C833.4663,-1253.9737 874.1832,-1250.0139 911.8105,-1246.3546"/>
<polygon fill="#000000" stroke="#000000" points="912.1982,-1249.8335 921.8124,-1245.3819 911.5205,-1242.8664 912.1982,-1249.8335"/>
<text text-anchor="middle" x="866.5" y="-1256" font-family="Times,serif" font-size="10.00" fill="#000000">integrates with</text>
</g>
<!-- jca&#45;&gt;ejb -->
<g id="edge69" class="edge">
<title>jca&#45;&gt;ejb</title>
<path fill="none" stroke="#000000" stroke-dasharray="5,2" d="M371.6749,-1370.4831C414.5699,-1365.6374 484.6239,-1351.463 527,-1310 554.1715,-1283.414 564.9683,-1239.4797 569.2377,-1210.6354"/>
<polygon fill="#000000" stroke="#000000" points="371.2442,-1367.0087 361.6491,-1371.5015 371.9517,-1373.9729 371.2442,-1367.0087"/>
<polygon fill="#000000" stroke="#000000" points="572.7515,-1210.7558 570.5748,-1200.387 565.8104,-1209.85 572.7515,-1210.7558"/>
<text text-anchor="middle" x="487.5" y="-1356" font-family="Times,serif" font-size="10.00" fill="#000000">integrates with</text>
</g>
<!-- jca&#45;&gt;cdi -->
<g id="edge70" class="edge">
<title>jca&#45;&gt;cdi</title>
<path fill="none" stroke="#000000" stroke-dasharray="5,2" d="M361.6239,-1376.6193C398.9165,-1381.6376 468.1048,-1391.0995 527,-1400 817.7744,-1443.9433 976.0715,-1651.9145 1187,-1447 1218.3358,-1416.5577 1232.881,-1284.6382 1237.881,-1226.1273"/>
<polygon fill="#000000" stroke="#000000" points="1241.3744,-1226.3505 1238.7054,-1216.0973 1234.3979,-1225.777 1241.3744,-1226.3505"/>
<text text-anchor="middle" x="771.5" y="-1491" font-family="Times,serif" font-size="10.00" fill="#000000">integrates with</text>
</g>
<!-- jpa&#45;&gt;cdi -->
<g id="edge71" class="edge">
<title>jpa&#45;&gt;cdi</title>
<path fill="none" stroke="#000000" stroke-dasharray="5,2" d="M893.7628,-1013.254C954.6989,-997.76 1103.1522,-970.3956 1187,-1044 1206.1649,-1060.8236 1224.6355,-1130.3967 1233.8753,-1170.0308"/>
<polygon fill="#000000" stroke="#000000" points="1230.486,-1170.9105 1236.1251,-1179.8799 1237.3102,-1169.3516 1230.486,-1170.9105"/>
<text text-anchor="middle" x="1008" y="-1009" font-family="Times,serif" font-size="10.00" fill="#000000">integrates with</text>
</g>
<!-- jsonb&#45;&gt;cdi -->
<g id="edge73" class="edge">
<title>jsonb&#45;&gt;cdi</title>
<path fill="none" stroke="#000000" stroke-dasharray="5,2" d="M1044.316,-1439.2173C1084.5435,-1439.5984 1148.7601,-1433.724 1187,-1397 1211.5048,-1373.4666 1228.8363,-1275.1949 1236.1393,-1226.1272"/>
<polygon fill="#000000" stroke="#000000" points="1239.6118,-1226.5687 1237.5838,-1216.1698 1232.6843,-1225.5637 1239.6118,-1226.5687"/>
<text text-anchor="middle" x="1149.5" y="-1435" font-family="Times,serif" font-size="10.00" fill="#000000">integrates with</text>
</g>
<!-- jsf&#45;&gt;el -->
<g id="edge36" class="edge">
<title>jsf&#45;&gt;el</title>
<path fill="none" stroke="#000000" d="M361.539,-682.8625C384.5209,-681.1584 418.4006,-678.9119 448,-678 483.0945,-676.9188 491.9192,-676.5408 527,-678 559.0832,-679.3345 567.0286,-681.0098 599,-684 899.8309,-712.136 976.8583,-706.9858 1275,-756 1316.6283,-762.8437 1331.1974,-754.3766 1368,-775 1405.1011,-795.7907 1436.6289,-834.313 1455.0682,-860.2998"/>
<polygon fill="#000000" stroke="#000000" points="1452.2379,-862.3604 1460.8089,-868.5884 1457.9924,-858.3748 1452.2379,-862.3604"/>
<text text-anchor="middle" x="866.5" y="-712" font-family="Times,serif" font-size="10.00" fill="#000000">requires</text>
</g>
<!-- jsf&#45;&gt;jsp -->
<g id="edge35" class="edge">
<title>jsf&#45;&gt;jsp</title>
<path fill="none" stroke="#000000" d="M361.8213,-683.5956C410.1336,-681.6737 513.6064,-680.0847 599,-696 652.0567,-705.8885 663.3712,-716.3046 714,-735 720.7087,-737.4773 727.8131,-740.22 734.6545,-742.9229"/>
<polygon fill="#000000" stroke="#000000" points="733.8283,-746.3616 744.4133,-746.819 736.4238,-739.8606 733.8283,-746.3616"/>
<text text-anchor="middle" x="572" y="-699" font-family="Times,serif" font-size="10.00" fill="#000000">requires</text>
</g>
<!-- jsf&#45;&gt;jstl -->
<g id="edge37" class="edge">
<title>jsf&#45;&gt;jstl</title>
<path fill="none" stroke="#000000" d="M361.6386,-687.808C399.2392,-692.0821 469.096,-701.4123 527,-717 529.631,-717.7083 532.3222,-718.5121 535.0156,-719.3756"/>
<polygon fill="#000000" stroke="#000000" points="534.0804,-722.7552 544.6751,-722.7002 536.3585,-716.1363 534.0804,-722.7552"/>
<text text-anchor="middle" x="487.5" y="-720" font-family="Times,serif" font-size="10.00" fill="#000000">requires</text>
</g>
<!-- jsp&#45;&gt;el -->
<g id="edge40" class="edge">
<title>jsp&#45;&gt;el</title>
<path fill="none" stroke="#000000" d="M798.6149,-754.5389C885.2931,-744.601 1162.0193,-721.6387 1368,-803 1400.0588,-815.663 1429.9946,-841.7826 1449.5367,-861.554"/>
<polygon fill="#000000" stroke="#000000" points="1447.0408,-864.0079 1456.5003,-868.7795 1452.081,-859.1503 1447.0408,-864.0079"/>
<text text-anchor="middle" x="1149.5" y="-759" font-family="Times,serif" font-size="10.00" fill="#000000">requires</text>
</g>
<!-- jsp&#45;&gt;servlet -->
<g id="edge39" class="edge">
<title>jsp&#45;&gt;servlet</title>
<path fill="none" stroke="#000000" d="M798.6296,-770.1595C838.0997,-787.8502 911.9365,-820.944 960.5342,-842.7257"/>
<polygon fill="#000000" stroke="#000000" points="959.3427,-846.0271 969.8996,-846.9233 962.2058,-839.6393 959.3427,-846.0271"/>
<text text-anchor="middle" x="866.5" y="-820" font-family="Times,serif" font-size="10.00" fill="#000000">requires</text>
</g>
<!-- jstl&#45;&gt;jsp -->
<g id="edge38" class="edge">
<title>jstl&#45;&gt;jsp</title>
<path fill="none" stroke="#000000" d="M599.3213,-737.2868C634.2934,-741.4939 695.0358,-748.8013 734.2315,-753.5166"/>
<polygon fill="#000000" stroke="#000000" points="733.8428,-756.995 744.1893,-754.7145 734.6789,-750.0451 733.8428,-756.995"/>
<text text-anchor="middle" x="665.5" y="-753" font-family="Times,serif" font-size="10.00" fill="#000000">requires</text>
</g>
<!-- jta&#45;&gt;cdi -->
<g id="edge74" class="edge">
<title>jta&#45;&gt;cdi</title>
<path fill="none" stroke="#000000" stroke-dasharray="5,2" d="M798.5471,-1064.4239C854.8877,-1055.9282 988.3666,-1041.2277 1094,-1072 1140.7688,-1085.6243 1150.8041,-1097.3995 1187,-1130 1200.5026,-1142.1614 1213.1182,-1158.0815 1222.6513,-1171.4601"/>
<polygon fill="#000000" stroke="#000000" points="1219.8741,-1173.5972 1228.4491,-1179.8196 1225.6261,-1169.6078 1219.8741,-1173.5972"/>
<text text-anchor="middle" x="1008" y="-1075" font-family="Times,serif" font-size="10.00" fill="#000000">integrates with</text>
</g>
<!-- servlet&#45;&gt;jaspic -->
<g id="edge75" class="edge">
<title>servlet&#45;&gt;jaspic</title>
<path fill="none" stroke="#000000" stroke-dasharray="5,2" d="M1046.3441,-861.6701C1083.0248,-860.4322 1139.6131,-861.1273 1187,-873 1190.4093,-873.8542 1193.8636,-874.9331 1197.2888,-876.1606"/>
<polygon fill="#000000" stroke="#000000" points="1196.2172,-879.5011 1206.8025,-879.9498 1198.8073,-872.9979 1196.2172,-879.5011"/>
<text text-anchor="middle" x="1149.5" y="-876" font-family="Times,serif" font-size="10.00" fill="#000000">integrates with</text>
</g>
<!-- websocket&#45;&gt;servlet -->
<g id="edge76" class="edge">
<title>websocket&#45;&gt;servlet</title>
<path fill="none" stroke="#000000" stroke-dasharray="5,2" d="M714.2082,-860.5689C779.3751,-861.3299 894.2586,-862.6716 959.3804,-863.4322"/>
<polygon fill="#000000" stroke="#000000" points="959.7364,-866.9365 969.7766,-863.5536 959.8182,-859.937 959.7364,-866.9365"/>
<text text-anchor="middle" x="771.5" y="-864" font-family="Times,serif" font-size="10.00" fill="#000000">integrates with</text>
</g>
<!-- saaj&#45;&gt;jaf -->
<g id="edge56" class="edge">
<title>saaj&#45;&gt;jaf</title>
<path fill="none" stroke="#000000" d="M599.0137,-396.0404C703.5022,-396.1969 1081.3497,-396.7625 1202.4056,-396.9437"/>
<polygon fill="#000000" stroke="#000000" points="1202.6449,-400.444 1212.6501,-396.9591 1202.6554,-393.444 1202.6449,-400.444"/>
<text text-anchor="middle" x="866.5" y="-399" font-family="Times,serif" font-size="10.00" fill="#000000">requires</text>
</g>
<!-- cdi&#45;&gt;ca -->
<g id="edge49" class="edge">
<title>cdi&#45;&gt;ca</title>
<path fill="none" stroke="#000000" d="M1256.8141,-1216.2225C1266.6296,-1226.0488 1279.677,-1237.8048 1293,-1246 1325.741,-1266.1395 1365.3394,-1282.1204 1399.0045,-1293.6097"/>
<polygon fill="#000000" stroke="#000000" points="1398.1944,-1297.0292 1408.7882,-1296.8805 1400.4139,-1290.3904 1398.1944,-1297.0292"/>
<text text-anchor="middle" x="1330.5" y="-1283" font-family="Times,serif" font-size="10.00" fill="#000000">requires</text>
</g>
<!-- cdi&#45;&gt;ejb -->
<g id="edge57" class="edge">
<title>cdi&#45;&gt;ejb</title>
<path fill="none" stroke="#000000" stroke-dasharray="5,2" d="M1203.9253,-1177.5277C1198.3855,-1175.0036 1192.6328,-1172.7139 1187,-1171 1065.8037,-1134.1239 1030.4559,-1144.5691 904,-1137 870.7262,-1135.0084 856.5318,-1118.2087 829,-1137 810.8671,-1149.3763 828.4736,-1169.7091 811,-1183 776.5051,-1209.2378 757.2824,-1190.7748 714,-1193 670.9457,-1195.2134 659.8017,-1198.1554 617,-1193 614.4848,-1192.697 611.9072,-1192.3021 609.3207,-1191.8424"/>
<polygon fill="#000000" stroke="#000000" points="1202.4651,-1180.7095 1212.9887,-1181.9365 1205.5272,-1174.4147 1202.4651,-1180.7095"/>
<polygon fill="#000000" stroke="#000000" points="609.9136,-1188.3911 599.4136,-1189.8059 608.5041,-1195.2478 609.9136,-1188.3911"/>
<text text-anchor="middle" x="866.5" y="-1140" font-family="Times,serif" font-size="10.00" fill="#000000">integrates with</text>
</g>
<!-- cdi&#45;&gt;el -->
<g id="edge48" class="edge">
<title>cdi&#45;&gt;el</title>
<path fill="none" stroke="#000000" d="M1267.0329,-1182.9271C1275.2211,-1178.7191 1284.3421,-1174.3789 1293,-1171 1325.2466,-1158.4152 1342.2702,-1173.156 1368,-1150 1386.4594,-1133.3871 1440.9432,-978.9685 1463.0346,-914.7788"/>
<polygon fill="#000000" stroke="#000000" points="1466.3566,-915.881 1466.2915,-905.2864 1459.7355,-913.6092 1466.3566,-915.881"/>
<text text-anchor="middle" x="1330.5" y="-1174" font-family="Times,serif" font-size="10.00" fill="#000000">requires</text>
</g>
<!-- cdi&#45;&gt;el -->
<g id="edge58" class="edge">
<title>cdi&#45;&gt;el</title>
<path fill="none" stroke="#000000" stroke-dasharray="5,2" d="M1253.5051,-1179.9351C1292.7517,-1127.4375 1406.9108,-974.7344 1452.931,-913.1761"/>
<polygon fill="#000000" stroke="#000000" points="1455.7732,-915.2198 1458.9576,-905.1148 1450.1667,-911.0284 1455.7732,-915.2198"/>
<text text-anchor="middle" x="1330.5" y="-1125" font-family="Times,serif" font-size="10.00" fill="#000000">integrates with</text>
</g>
<!-- cdi&#45;&gt;interceptors -->
<g id="edge47" class="edge">
<title>cdi&#45;&gt;interceptors</title>
<path fill="none" stroke="#000000" d="M1267.2863,-1196.9105C1293.4199,-1195.4239 1333.8181,-1191.9622 1368,-1184 1385.4455,-1179.9363 1403.9733,-1173.8261 1420.5068,-1167.687"/>
<polygon fill="#000000" stroke="#000000" points="1421.8832,-1170.9082 1429.9878,-1164.0842 1419.3966,-1164.3647 1421.8832,-1170.9082"/>
<text text-anchor="middle" x="1330.5" y="-1197" font-family="Times,serif" font-size="10.00" fill="#000000">requires</text>
</g>
<!-- di -->
<g id="node32" class="node">
<title>di</title>
<path fill="none" stroke="#000000" d="M1547,-1258C1547,-1258 1398,-1258 1398,-1258 1392,-1258 1386,-1252 1386,-1246 1386,-1246 1386,-1234 1386,-1234 1386,-1228 1392,-1222 1398,-1222 1398,-1222 1547,-1222 1547,-1222 1553,-1222 1559,-1228 1559,-1234 1559,-1234 1559,-1246 1559,-1246 1559,-1252 1553,-1258 1547,-1258"/>
<text text-anchor="middle" x="1472.5" y="-1236.3" font-family="Times,serif" font-size="14.00" fill="#000000">Dependency Injection</text>
</g>
<!-- cdi&#45;&gt;di -->
<g id="edge46" class="edge">
<title>cdi&#45;&gt;di</title>
<path fill="none" stroke="#000000" d="M1267.1127,-1209.6532C1275.3033,-1212.7839 1284.4054,-1215.884 1293,-1218 1319.4919,-1224.5222 1348.6814,-1229.1515 1375.6845,-1232.4214"/>
<polygon fill="#000000" stroke="#000000" points="1375.5796,-1235.9326 1385.9165,-1233.6091 1376.3868,-1228.9793 1375.5796,-1235.9326"/>
<text text-anchor="middle" x="1330.5" y="-1234" font-family="Times,serif" font-size="10.00" fill="#000000">requires</text>
</g>
<!-- bv&#45;&gt;cdi -->
<g id="edge72" class="edge">
<title>bv&#45;&gt;cdi</title>
<path fill="none" stroke="#000000" stroke-dasharray="5,2" d="M1072.2855,-1387.1936C1109.7612,-1386.2194 1155.6643,-1378.6849 1187,-1352 1206.4155,-1335.4662 1224.7835,-1265.7745 1233.9409,-1226.045"/>
<polygon fill="#000000" stroke="#000000" points="1237.3818,-1226.6965 1236.1693,-1216.1712 1230.5536,-1225.1553 1237.3818,-1226.6965"/>
<text text-anchor="middle" x="1149.5" y="-1385" font-family="Times,serif" font-size="10.00" fill="#000000">integrates with</text>
</g>
</g>
</svg>
