<?xml version="1.0" encoding="UTF-8" standalone="no"?>
<!DOCTYPE svg PUBLIC "-//W3C//DTD SVG 1.1//EN"
 "http://www.w3.org/Graphics/SVG/1.1/DTD/svg11.dtd">
<!-- Generated by graphviz version 2.40.1 (20161225.0304)
 -->
<!-- Title: G Pages: 1 -->
<svg width="1553pt" height="1619pt"
 viewBox="0.00 0.00 1553.00 1619.00" xmlns="http://www.w3.org/2000/svg" xmlns:xlink="http://www.w3.org/1999/xlink">
<g id="graph0" class="graph" transform="scale(1 1) rotate(0) translate(4 1615)">
<title>G</title>
<polygon fill="#ffffff" stroke="transparent" points="-4,4 -4,-1615 1549,-1615 1549,4 -4,4"/>
<!-- jakartaee -->
<g id="node1" class="node">
<title>jakartaee</title>
<path fill="none" stroke="#000000" d="M149,-882C149,-882 12,-882 12,-882 6,-882 0,-876 0,-870 0,-870 0,-858 0,-858 0,-852 6,-846 12,-846 12,-846 149,-846 149,-846 155,-846 161,-852 161,-858 161,-858 161,-870 161,-870 161,-876 155,-882 149,-882"/>
<text text-anchor="middle" x="80.5" y="-860.3" font-family="Times,serif" font-size="14.00" fill="#000000">Jakarta EE Platform</text>
</g>
<!-- ca -->
<g id="node2" class="node">
<title>ca</title>
<path fill="none" stroke="#000000" d="M1532,-1333C1532,-1333 1385,-1333 1385,-1333 1379,-1333 1373,-1327 1373,-1321 1373,-1321 1373,-1309 1373,-1309 1373,-1303 1379,-1297 1385,-1297 1385,-1297 1532,-1297 1532,-1297 1538,-1297 1544,-1303 1544,-1309 1544,-1309 1544,-1321 1544,-1321 1544,-1327 1538,-1333 1532,-1333"/>
<text text-anchor="middle" x="1458.5" y="-1311.3" font-family="Times,serif" font-size="14.00" fill="#000000">Common Annotations</text>
</g>
<!-- jakartaee&#45;&gt;ca -->
<g id="edge1" class="edge">
<title>jakartaee&#45;&gt;ca</title>
<path fill="none" stroke="#000000" d="M81.3434,-882.0328C85.9949,-975.5922 110.832,-1405.651 179,-1517 219.9034,-1583.8136 256.1601,-1600 334.5,-1600 334.5,-1600 334.5,-1600 1226,-1600 1357.7662,-1600 1428.1724,-1414.8258 1450.5254,-1343.0007"/>
<polygon fill="#000000" stroke="#000000" points="1453.9261,-1343.8469 1453.4763,-1333.2616 1447.2269,-1341.817 1453.9261,-1343.8469"/>
<text text-anchor="middle" x="771.5" y="-1603" font-family="Times,serif" font-size="10.00" fill="#000000">requires</text>
</g>
<!-- ejb -->
<g id="node3" class="node">
<title>ejb</title>
<path fill="none" stroke="#000000" d="M587,-1200C587,-1200 557,-1200 557,-1200 551,-1200 545,-1194 545,-1188 545,-1188 545,-1176 545,-1176 545,-1170 551,-1164 557,-1164 557,-1164 587,-1164 587,-1164 593,-1164 599,-1170 599,-1176 599,-1176 599,-1188 599,-1188 599,-1194 593,-1200 587,-1200"/>
<text text-anchor="middle" x="572" y="-1178.3" font-family="Times,serif" font-size="14.00" fill="#000000">EJB</text>
</g>
<!-- jakartaee&#45;&gt;ejb -->
<g id="edge2" class="edge">
<title>jakartaee&#45;&gt;ejb</title>
<path fill="none" stroke="#000000" d="M81.7098,-882.1012C85.8821,-928.9897 103.8973,-1054.983 179,-1116 284.2612,-1201.5192 458.7561,-1194.767 534.7336,-1186.9104"/>
<polygon fill="#000000" stroke="#000000" points="535.2261,-1190.3774 544.783,-1185.8039 534.46,-1183.4194 535.2261,-1190.3774"/>
<text text-anchor="middle" x="334.5" y="-1193" font-family="Times,serif" font-size="10.00" fill="#000000">requires</text>
</g>
<!-- el -->
<g id="node4" class="node">
<title>el</title>
<path fill="none" stroke="#000000" d="M1532,-905C1532,-905 1385,-905 1385,-905 1379,-905 1373,-899 1373,-893 1373,-893 1373,-881 1373,-881 1373,-875 1379,-869 1385,-869 1385,-869 1532,-869 1532,-869 1538,-869 1544,-875 1544,-881 1544,-881 1544,-893 1544,-893 1544,-899 1538,-905 1532,-905"/>
<text text-anchor="middle" x="1458.5" y="-883.3" font-family="Times,serif" font-size="14.00" fill="#000000">Expression Language</text>
</g>
<!-- jakartaee&#45;&gt;el -->
<g id="edge3" class="edge">
<title>jakartaee&#45;&gt;el</title>
<path fill="none" stroke="#000000" d="M161.0245,-856.0005C303.2483,-842.5839 608.304,-817 866.5,-817 866.5,-817 866.5,-817 1226,-817 1293.2971,-817 1367.0769,-844.2224 1413.0828,-864.7148"/>
<polygon fill="#000000" stroke="#000000" points="1411.9135,-868.0276 1422.4661,-868.9733 1414.8065,-861.6534 1411.9135,-868.0276"/>
<text text-anchor="middle" x="771.5" y="-821" font-family="Times,serif" font-size="10.00" fill="#000000">requires</text>
</g>
<!-- es -->
<g id="node5" class="node">
<title>es</title>
<path fill="none" stroke="#000000" d="M1068,-975C1068,-975 934,-975 934,-975 928,-975 922,-969 922,-963 922,-963 922,-951 922,-951 922,-945 928,-939 934,-939 934,-939 1068,-939 1068,-939 1074,-939 1080,-945 1080,-951 1080,-951 1080,-963 1080,-963 1080,-969 1074,-975 1068,-975"/>
<text text-anchor="middle" x="1001" y="-953.3" font-family="Times,serif" font-size="14.00" fill="#000000">Enterprise Security</text>
</g>
<!-- jakartaee&#45;&gt;es -->
<g id="edge4" class="edge">
<title>jakartaee&#45;&gt;es</title>
<path fill="none" stroke="#000000" d="M93.3162,-882.2361C110.0744,-904.317 141.7259,-940.3651 179,-955 429.7042,-1053.434 757.5196,-1007.8178 912.4884,-977.0481"/>
<polygon fill="#000000" stroke="#000000" points="913.3305,-980.4489 922.4433,-975.0445 911.9493,-973.5865 913.3305,-980.4489"/>
<text text-anchor="middle" x="572" y="-1017" font-family="Times,serif" font-size="10.00" fill="#000000">requires</text>
</g>
<!-- jacc -->
<g id="node7" class="node">
<title>jacc</title>
<path fill="none" stroke="#000000" d="M350.5,-306C350.5,-306 318.5,-306 318.5,-306 312.5,-306 306.5,-300 306.5,-294 306.5,-294 306.5,-282 306.5,-282 306.5,-276 312.5,-270 318.5,-270 318.5,-270 350.5,-270 350.5,-270 356.5,-270 362.5,-276 362.5,-282 362.5,-282 362.5,-294 362.5,-294 362.5,-300 356.5,-306 350.5,-306"/>
<text text-anchor="middle" x="334.5" y="-284.3" font-family="Times,serif" font-size="14.00" fill="#000000">JACC</text>
</g>
<!-- jakartaee&#45;&gt;jacc -->
<g id="edge5" class="edge">
<title>jakartaee&#45;&gt;jacc</title>
<path fill="none" stroke="#000000" d="M80.9622,-845.7867C83.566,-758.6599 99.293,-385.4726 179,-309 209.7301,-279.5169 260.9153,-278.211 296.1142,-281.6634"/>
<polygon fill="#000000" stroke="#000000" points="296.1488,-285.1905 306.4845,-282.8616 296.9523,-278.2368 296.1488,-285.1905"/>
<text text-anchor="middle" x="200" y="-312" font-family="Times,serif" font-size="10.00" fill="#000000">requires</text>
</g>
<!-- jaf -->
<g id="node8" class="node">
<title>jaf</title>
<path fill="none" stroke="#000000" d="M1241,-415C1241,-415 1211,-415 1211,-415 1205,-415 1199,-409 1199,-403 1199,-403 1199,-391 1199,-391 1199,-385 1205,-379 1211,-379 1211,-379 1241,-379 1241,-379 1247,-379 1253,-385 1253,-391 1253,-391 1253,-403 1253,-403 1253,-409 1247,-415 1241,-415"/>
<text text-anchor="middle" x="1226" y="-393.3" font-family="Times,serif" font-size="14.00" fill="#000000">JAF</text>
</g>
<!-- jakartaee&#45;&gt;jaf -->
<g id="edge6" class="edge">
<title>jakartaee&#45;&gt;jaf</title>
<path fill="none" stroke="#000000" d="M81.5879,-845.8643C86.7782,-765.4182 111.6224,-441.6762 179,-371 206.3361,-342.3256 234.879,-312 665.5,-312 665.5,-312 665.5,-312 1001,-312 1071.5612,-312 1147.0041,-349.035 1190.1401,-374.2128"/>
<polygon fill="#000000" stroke="#000000" points="1188.4573,-377.2842 1198.8411,-379.3879 1192.0356,-371.2679 1188.4573,-377.2842"/>
<text text-anchor="middle" x="665.5" y="-315" font-family="Times,serif" font-size="10.00" fill="#000000">requires</text>
</g>
<!-- javamail -->
<g id="node9" class="node">
<title>javamail</title>
<path fill="none" stroke="#000000" d="M515,-382C515,-382 460,-382 460,-382 454,-382 448,-376 448,-370 448,-370 448,-358 448,-358 448,-352 454,-346 460,-346 460,-346 515,-346 515,-346 521,-346 527,-352 527,-358 527,-358 527,-370 527,-370 527,-376 521,-382 515,-382"/>
<text text-anchor="middle" x="487.5" y="-360.3" font-family="Times,serif" font-size="14.00" fill="#000000">JavaMail</text>
</g>
<!-- jakartaee&#45;&gt;javamail -->
<g id="edge7" class="edge">
<title>jakartaee&#45;&gt;javamail</title>
<path fill="none" stroke="#000000" d="M81.5095,-845.8975C86.2978,-767.0951 109.4607,-455.1297 179,-393 216.0966,-359.8562 360.6076,-359.4657 437.969,-361.8022"/>
<polygon fill="#000000" stroke="#000000" points="437.8576,-365.3003 447.9672,-362.1307 438.0875,-358.3041 437.8576,-365.3003"/>
<text text-anchor="middle" x="200" y="-396" font-family="Times,serif" font-size="10.00" fill="#000000">requires</text>
</g>
<!-- jaspic -->
<g id="node10" class="node">
<title>jaspic</title>
<path fill="none" stroke="#000000" d="M1249,-916C1249,-916 1203,-916 1203,-916 1197,-916 1191,-910 1191,-904 1191,-904 1191,-892 1191,-892 1191,-886 1197,-880 1203,-880 1203,-880 1249,-880 1249,-880 1255,-880 1261,-886 1261,-892 1261,-892 1261,-904 1261,-904 1261,-910 1255,-916 1249,-916"/>
<text text-anchor="middle" x="1226" y="-894.3" font-family="Times,serif" font-size="14.00" fill="#000000">JASPIC</text>
</g>
<!-- jakartaee&#45;&gt;jaspic -->
<g id="edge8" class="edge">
<title>jakartaee&#45;&gt;jaspic</title>
<path fill="none" stroke="#000000" d="M116.0627,-882.0531C164.2677,-904.812 253.6314,-941 334.5,-941 334.5,-941 334.5,-941 665.5,-941 765.7006,-941 1065.7706,-913.3348 1180.6096,-902.3853"/>
<polygon fill="#000000" stroke="#000000" points="1181.1901,-905.8459 1190.8117,-901.4101 1180.5239,-898.8777 1181.1901,-905.8459"/>
<text text-anchor="middle" x="665.5" y="-944" font-family="Times,serif" font-size="10.00" fill="#000000">requires</text>
</g>
<!-- jaxws -->
<g id="node11" class="node">
<title>jaxws</title>
<path fill="none" stroke="#000000" d="M358,-583C358,-583 311,-583 311,-583 305,-583 299,-577 299,-571 299,-571 299,-559 299,-559 299,-553 305,-547 311,-547 311,-547 358,-547 358,-547 364,-547 370,-553 370,-559 370,-559 370,-571 370,-571 370,-577 364,-583 358,-583"/>
<text text-anchor="middle" x="334.5" y="-561.3" font-family="Times,serif" font-size="14.00" fill="#000000">JAX&#45;WS</text>
</g>
<!-- jakartaee&#45;&gt;jaxws -->
<g id="edge11" class="edge">
<title>jakartaee&#45;&gt;jaxws</title>
<path fill="none" stroke="#000000" d="M87.2393,-845.9047C100.7453,-811.3058 133.7533,-734.5443 179,-682 212.2898,-643.341 260.4116,-609.58 294.2847,-588.3898"/>
<polygon fill="#000000" stroke="#000000" points="296.3272,-591.2424 303.0034,-583.0157 292.6541,-585.2834 296.3272,-591.2424"/>
<text text-anchor="middle" x="200" y="-685" font-family="Times,serif" font-size="10.00" fill="#000000">requires</text>
</g>
<!-- jws -->
<g id="node12" class="node">
<title>jws</title>
<path fill="none" stroke="#000000" d="M349.5,-252C349.5,-252 319.5,-252 319.5,-252 313.5,-252 307.5,-246 307.5,-240 307.5,-240 307.5,-228 307.5,-228 307.5,-222 313.5,-216 319.5,-216 319.5,-216 349.5,-216 349.5,-216 355.5,-216 361.5,-222 361.5,-228 361.5,-228 361.5,-240 361.5,-240 361.5,-246 355.5,-252 349.5,-252"/>
<text text-anchor="middle" x="334.5" y="-230.3" font-family="Times,serif" font-size="14.00" fill="#000000">JWS</text>
</g>
<!-- jakartaee&#45;&gt;jws -->
<g id="edge12" class="edge">
<title>jakartaee&#45;&gt;jws</title>
<path fill="none" stroke="#000000" d="M80.9171,-845.972C83.3625,-756.235 98.6538,-358.5927 179,-272 209.0216,-239.6444 261.6437,-232.8096 297.2684,-232.2829"/>
<polygon fill="#000000" stroke="#000000" points="297.2797,-235.7828 307.2833,-232.2928 297.2868,-228.7828 297.2797,-235.7828"/>
<text text-anchor="middle" x="200" y="-275" font-family="Times,serif" font-size="10.00" fill="#000000">requires</text>
</g>
<!-- jaxb -->
<g id="node13" class="node">
<title>jaxb</title>
<path fill="none" stroke="#000000" d="M1016,-627C1016,-627 986,-627 986,-627 980,-627 974,-621 974,-615 974,-615 974,-603 974,-603 974,-597 980,-591 986,-591 986,-591 1016,-591 1016,-591 1022,-591 1028,-597 1028,-603 1028,-603 1028,-615 1028,-615 1028,-621 1022,-627 1016,-627"/>
<text text-anchor="middle" x="1001" y="-605.3" font-family="Times,serif" font-size="14.00" fill="#000000">JAXB</text>
</g>
<!-- jakartaee&#45;&gt;jaxb -->
<g id="edge9" class="edge">
<title>jakartaee&#45;&gt;jaxb</title>
<path fill="none" stroke="#000000" d="M83.7666,-845.8826C94.7312,-790.5163 135.5209,-622.2136 239,-538 315.4283,-475.8009 350.8835,-480.6854 448,-464 527.6143,-450.3216 858.0986,-441.4777 904,-466 949.8773,-490.5095 978.1059,-547.4153 991.5476,-581.5915"/>
<polygon fill="#000000" stroke="#000000" points="988.2915,-582.8763 995.0987,-590.9949 994.8401,-580.4032 988.2915,-582.8763"/>
<text text-anchor="middle" x="572" y="-458" font-family="Times,serif" font-size="10.00" fill="#000000">requires</text>
</g>
<!-- jaxrs -->
<g id="node14" class="node">
<title>jaxrs</title>
<path fill="none" stroke="#000000" d="M793.5,-1278C793.5,-1278 749.5,-1278 749.5,-1278 743.5,-1278 737.5,-1272 737.5,-1266 737.5,-1266 737.5,-1254 737.5,-1254 737.5,-1248 743.5,-1242 749.5,-1242 749.5,-1242 793.5,-1242 793.5,-1242 799.5,-1242 805.5,-1248 805.5,-1254 805.5,-1254 805.5,-1266 805.5,-1266 805.5,-1272 799.5,-1278 793.5,-1278"/>
<text text-anchor="middle" x="771.5" y="-1256.3" font-family="Times,serif" font-size="14.00" fill="#000000">JAX&#45;RS</text>
</g>
<!-- jakartaee&#45;&gt;jaxrs -->
<g id="edge10" class="edge">
<title>jakartaee&#45;&gt;jaxrs</title>
<path fill="none" stroke="#000000" d="M81.5939,-882.2329C86.8849,-964.6482 112.3488,-1301.6989 179,-1379 248.7849,-1459.9354 345.6232,-1448.2527 527,-1400 570.6356,-1388.3914 678.4985,-1320.7118 735.2543,-1283.8739"/>
<polygon fill="#000000" stroke="#000000" points="737.4366,-1286.6295 743.9067,-1278.2398 733.6169,-1280.7635 737.4366,-1286.6295"/>
<text text-anchor="middle" x="487.5" y="-1422" font-family="Times,serif" font-size="10.00" fill="#000000">requires</text>
</g>
<!-- jca -->
<g id="node15" class="node">
<title>jca</title>
<path fill="none" stroke="#000000" d="M349.5,-1391C349.5,-1391 319.5,-1391 319.5,-1391 313.5,-1391 307.5,-1385 307.5,-1379 307.5,-1379 307.5,-1367 307.5,-1367 307.5,-1361 313.5,-1355 319.5,-1355 319.5,-1355 349.5,-1355 349.5,-1355 355.5,-1355 361.5,-1361 361.5,-1367 361.5,-1367 361.5,-1379 361.5,-1379 361.5,-1385 355.5,-1391 349.5,-1391"/>
<text text-anchor="middle" x="334.5" y="-1369.3" font-family="Times,serif" font-size="14.00" fill="#000000">JCA</text>
</g>
<!-- jakartaee&#45;&gt;jca -->
<g id="edge13" class="edge">
<title>jakartaee&#45;&gt;jca</title>
<path fill="none" stroke="#000000" d="M81.6456,-882.1465C87.0073,-961.1672 112.2336,-1274.2791 179,-1341 209.7429,-1371.7219 261.6116,-1376.7378 296.9163,-1376.0593"/>
<polygon fill="#000000" stroke="#000000" points="297.4308,-1379.5433 307.2994,-1375.6881 297.1807,-1372.5477 297.4308,-1379.5433"/>
<text text-anchor="middle" x="200" y="-1367" font-family="Times,serif" font-size="10.00" fill="#000000">requires</text>
</g>
<!-- jms -->
<g id="node16" class="node">
<title>jms</title>
<path fill="none" stroke="#000000" d="M786.5,-1332C786.5,-1332 756.5,-1332 756.5,-1332 750.5,-1332 744.5,-1326 744.5,-1320 744.5,-1320 744.5,-1308 744.5,-1308 744.5,-1302 750.5,-1296 756.5,-1296 756.5,-1296 786.5,-1296 786.5,-1296 792.5,-1296 798.5,-1302 798.5,-1308 798.5,-1308 798.5,-1320 798.5,-1320 798.5,-1326 792.5,-1332 786.5,-1332"/>
<text text-anchor="middle" x="771.5" y="-1310.3" font-family="Times,serif" font-size="14.00" fill="#000000">JMS</text>
</g>
<!-- jakartaee&#45;&gt;jms -->
<g id="edge14" class="edge">
<title>jakartaee&#45;&gt;jms</title>
<path fill="none" stroke="#000000" d="M81.9493,-882.1992C87.8882,-942.6716 116.2579,-1136.9154 239,-1205 406.6838,-1298.0136 643.674,-1312.0421 734.2925,-1313.8724"/>
<polygon fill="#000000" stroke="#000000" points="734.2987,-1317.3729 744.3545,-1314.0366 734.413,-1310.3738 734.2987,-1317.3729"/>
<text text-anchor="middle" x="487.5" y="-1297" font-family="Times,serif" font-size="10.00" fill="#000000">requires</text>
</g>
<!-- jpa -->
<g id="node17" class="node">
<title>jpa</title>
<path fill="none" stroke="#000000" d="M881.5,-1039C881.5,-1039 851.5,-1039 851.5,-1039 845.5,-1039 839.5,-1033 839.5,-1027 839.5,-1027 839.5,-1015 839.5,-1015 839.5,-1009 845.5,-1003 851.5,-1003 851.5,-1003 881.5,-1003 881.5,-1003 887.5,-1003 893.5,-1009 893.5,-1015 893.5,-1015 893.5,-1027 893.5,-1027 893.5,-1033 887.5,-1039 881.5,-1039"/>
<text text-anchor="middle" x="866.5" y="-1017.3" font-family="Times,serif" font-size="14.00" fill="#000000">JPA</text>
</g>
<!-- jakartaee&#45;&gt;jpa -->
<g id="edge15" class="edge">
<title>jakartaee&#45;&gt;jpa</title>
<path fill="none" stroke="#000000" d="M87.3623,-882.3952C100.0396,-913.3905 130.3624,-975.1656 179,-1001 292.7262,-1061.4069 702.8393,-1034.2221 829.1838,-1024.1623"/>
<polygon fill="#000000" stroke="#000000" points="829.468,-1027.6508 839.1537,-1023.3568 828.9042,-1020.6735 829.468,-1027.6508"/>
<text text-anchor="middle" x="487.5" y="-1042" font-family="Times,serif" font-size="10.00" fill="#000000">requires</text>
</g>
<!-- jsonb -->
<g id="node18" class="node">
<title>jsonb</title>
<path fill="none" stroke="#000000" d="M1025,-1455C1025,-1455 977,-1455 977,-1455 971,-1455 965,-1449 965,-1443 965,-1443 965,-1431 965,-1431 965,-1425 971,-1419 977,-1419 977,-1419 1025,-1419 1025,-1419 1031,-1419 1037,-1425 1037,-1431 1037,-1431 1037,-1443 1037,-1443 1037,-1449 1031,-1455 1025,-1455"/>
<text text-anchor="middle" x="1001" y="-1433.3" font-family="Times,serif" font-size="14.00" fill="#000000">JSON&#45;B</text>
</g>
<!-- jakartaee&#45;&gt;jsonb -->
<g id="edge16" class="edge">
<title>jakartaee&#45;&gt;jsonb</title>
<path fill="none" stroke="#000000" d="M81.4857,-882.1533C86.5583,-969.9269 112.1202,-1349.939 179,-1444 223.0254,-1505.9182 258.5257,-1515 334.5,-1515 334.5,-1515 334.5,-1515 771.5,-1515 840.6461,-1515 915.5761,-1482.8667 960.3795,-1459.8493"/>
<polygon fill="#000000" stroke="#000000" points="962.2334,-1462.8294 969.4698,-1455.0908 958.987,-1456.6277 962.2334,-1462.8294"/>
<text text-anchor="middle" x="572" y="-1518" font-family="Times,serif" font-size="10.00" fill="#000000">requires</text>
</g>
<!-- jsonp -->
<g id="node19" class="node">
<title>jsonp</title>
<path fill="none" stroke="#000000" d="M1024.5,-1309C1024.5,-1309 977.5,-1309 977.5,-1309 971.5,-1309 965.5,-1303 965.5,-1297 965.5,-1297 965.5,-1285 965.5,-1285 965.5,-1279 971.5,-1273 977.5,-1273 977.5,-1273 1024.5,-1273 1024.5,-1273 1030.5,-1273 1036.5,-1279 1036.5,-1285 1036.5,-1285 1036.5,-1297 1036.5,-1297 1036.5,-1303 1030.5,-1309 1024.5,-1309"/>
<text text-anchor="middle" x="1001" y="-1287.3" font-family="Times,serif" font-size="14.00" fill="#000000">JSON&#45;P</text>
</g>
<!-- jakartaee&#45;&gt;jsonp -->
<g id="edge17" class="edge">
<title>jakartaee&#45;&gt;jsonp</title>
<path fill="none" stroke="#000000" d="M83.1211,-882.339C91.048,-933.6097 118.0624,-1081.6385 179,-1188 198.5443,-1222.113 205.3518,-1232.6659 239,-1253 286.734,-1281.8463 705.3017,-1388.8108 829,-1404 862.0848,-1408.0626 876.6025,-1422.9865 904,-1404 922.7268,-1391.0223 908.7516,-1374.5362 922,-1356 933.2232,-1340.2972 949.1537,-1326.2131 963.7726,-1315.203"/>
<polygon fill="#000000" stroke="#000000" points="966.154,-1317.7989 972.1829,-1309.0867 962.0369,-1312.1377 966.154,-1317.7989"/>
<text text-anchor="middle" x="572" y="-1358" font-family="Times,serif" font-size="10.00" fill="#000000">requires</text>
</g>
<!-- jsf -->
<g id="node20" class="node">
<title>jsf</title>
<path fill="none" stroke="#000000" d="M349.5,-703C349.5,-703 319.5,-703 319.5,-703 313.5,-703 307.5,-697 307.5,-691 307.5,-691 307.5,-679 307.5,-679 307.5,-673 313.5,-667 319.5,-667 319.5,-667 349.5,-667 349.5,-667 355.5,-667 361.5,-673 361.5,-679 361.5,-679 361.5,-691 361.5,-691 361.5,-697 355.5,-703 349.5,-703"/>
<text text-anchor="middle" x="334.5" y="-681.3" font-family="Times,serif" font-size="14.00" fill="#000000">JSF</text>
</g>
<!-- jakartaee&#45;&gt;jsf -->
<g id="edge18" class="edge">
<title>jakartaee&#45;&gt;jsf</title>
<path fill="none" stroke="#000000" d="M87.1494,-845.8173C99.7806,-814.0066 130.4049,-748.5495 179,-716 214.2905,-692.3621 263.5312,-685.957 297.0846,-684.5985"/>
<polygon fill="#000000" stroke="#000000" points="297.4883,-688.0889 307.3899,-684.3193 297.2987,-681.0915 297.4883,-688.0889"/>
<text text-anchor="middle" x="200" y="-719" font-family="Times,serif" font-size="10.00" fill="#000000">requires</text>
</g>
<!-- jsp -->
<g id="node21" class="node">
<title>jsp</title>
<path fill="none" stroke="#000000" d="M786.5,-776C786.5,-776 756.5,-776 756.5,-776 750.5,-776 744.5,-770 744.5,-764 744.5,-764 744.5,-752 744.5,-752 744.5,-746 750.5,-740 756.5,-740 756.5,-740 786.5,-740 786.5,-740 792.5,-740 798.5,-746 798.5,-752 798.5,-752 798.5,-764 798.5,-764 798.5,-770 792.5,-776 786.5,-776"/>
<text text-anchor="middle" x="771.5" y="-754.3" font-family="Times,serif" font-size="14.00" fill="#000000">JSP</text>
</g>
<!-- jakartaee&#45;&gt;jsp -->
<g id="edge19" class="edge">
<title>jakartaee&#45;&gt;jsp</title>
<path fill="none" stroke="#000000" d="M103.2318,-845.8001C122.2655,-831.6801 150.7773,-813.0386 179,-804 406.049,-731.2851 476.711,-788.0789 714,-765 720.5028,-764.3675 727.4083,-763.6052 734.0934,-762.8198"/>
<polygon fill="#000000" stroke="#000000" points="734.8202,-766.2574 744.3274,-761.5817 733.9794,-759.3081 734.8202,-766.2574"/>
<text text-anchor="middle" x="487.5" y="-772" font-family="Times,serif" font-size="10.00" fill="#000000">requires</text>
</g>
<!-- jstl -->
<g id="node22" class="node">
<title>jstl</title>
<path fill="none" stroke="#000000" d="M587,-752C587,-752 557,-752 557,-752 551,-752 545,-746 545,-740 545,-740 545,-728 545,-728 545,-722 551,-716 557,-716 557,-716 587,-716 587,-716 593,-716 599,-722 599,-728 599,-728 599,-740 599,-740 599,-746 593,-752 587,-752"/>
<text text-anchor="middle" x="572" y="-730.3" font-family="Times,serif" font-size="14.00" fill="#000000">JSTL</text>
</g>
<!-- jakartaee&#45;&gt;jstl -->
<g id="edge20" class="edge">
<title>jakartaee&#45;&gt;jstl</title>
<path fill="none" stroke="#000000" d="M93.1878,-845.8768C110.0403,-823.3008 142.0239,-785.3483 179,-766 240.2086,-733.9716 449.185,-732.5553 534.8811,-733.3899"/>
<polygon fill="#000000" stroke="#000000" points="534.9018,-736.8902 544.9409,-733.504 534.9813,-729.8907 534.9018,-736.8902"/>
<text text-anchor="middle" x="334.5" y="-751" font-family="Times,serif" font-size="10.00" fill="#000000">requires</text>
</g>
<!-- jta -->
<g id="node23" class="node">
<title>jta</title>
<path fill="none" stroke="#000000" d="M786.5,-1087C786.5,-1087 756.5,-1087 756.5,-1087 750.5,-1087 744.5,-1081 744.5,-1075 744.5,-1075 744.5,-1063 744.5,-1063 744.5,-1057 750.5,-1051 756.5,-1051 756.5,-1051 786.5,-1051 786.5,-1051 792.5,-1051 798.5,-1057 798.5,-1063 798.5,-1063 798.5,-1075 798.5,-1075 798.5,-1081 792.5,-1087 786.5,-1087"/>
<text text-anchor="middle" x="771.5" y="-1065.3" font-family="Times,serif" font-size="14.00" fill="#000000">JTA</text>
</g>
<!-- jakartaee&#45;&gt;jta -->
<g id="edge21" class="edge">
<title>jakartaee&#45;&gt;jta</title>
<path fill="none" stroke="#000000" d="M84.5111,-882.2298C93.7788,-919.4586 120.5129,-1003.759 179,-1040 226.0512,-1069.1549 611.9277,-1069.7941 734.3688,-1069.2505"/>
<polygon fill="#000000" stroke="#000000" points="734.4061,-1072.7504 744.3885,-1069.2006 734.3711,-1065.7505 734.4061,-1072.7504"/>
<text text-anchor="middle" x="487.5" y="-1071" font-family="Times,serif" font-size="10.00" fill="#000000">requires</text>
</g>
<!-- deployment -->
<g id="node24" class="node">
<title>deployment</title>
<path fill="none" stroke="#000000" d="M414.5,-198C414.5,-198 254.5,-198 254.5,-198 248.5,-198 242.5,-192 242.5,-186 242.5,-186 242.5,-174 242.5,-174 242.5,-168 248.5,-162 254.5,-162 254.5,-162 414.5,-162 414.5,-162 420.5,-162 426.5,-168 426.5,-174 426.5,-174 426.5,-186 426.5,-186 426.5,-192 420.5,-198 414.5,-198"/>
<text text-anchor="middle" x="334.5" y="-176.3" font-family="Times,serif" font-size="14.00" fill="#000000">Enterprise Deployment</text>
</g>
<!-- jakartaee&#45;&gt;deployment -->
<g id="edge22" class="edge">
<title>jakartaee&#45;&gt;deployment</title>
<path fill="none" stroke="#000000" d="M80.9609,-845.8909C83.6672,-752.9422 100.2077,-329.9787 179,-231 192.6569,-213.8443 212.2129,-202.3973 232.8697,-194.7764"/>
<polygon fill="#000000" stroke="#000000" points="234.0747,-198.0636 242.4208,-191.5373 231.8265,-191.4344 234.0747,-198.0636"/>
<text text-anchor="middle" x="200" y="-234" font-family="Times,serif" font-size="10.00" fill="#000000">requires</text>
</g>
<!-- management -->
<g id="node25" class="node">
<title>management</title>
<path fill="none" stroke="#000000" d="M418,-144C418,-144 251,-144 251,-144 245,-144 239,-138 239,-132 239,-132 239,-120 239,-120 239,-114 245,-108 251,-108 251,-108 418,-108 418,-108 424,-108 430,-114 430,-120 430,-120 430,-132 430,-132 430,-138 424,-144 418,-144"/>
<text text-anchor="middle" x="334.5" y="-122.3" font-family="Times,serif" font-size="14.00" fill="#000000">Enterprise Management</text>
</g>
<!-- jakartaee&#45;&gt;management -->
<g id="edge23" class="edge">
<title>jakartaee&#45;&gt;management</title>
<path fill="none" stroke="#000000" d="M80.9665,-845.7155C83.7547,-748.8882 100.8511,-296.2326 179,-185 191.3236,-167.4593 209.5776,-155.1304 229.2858,-146.4655"/>
<polygon fill="#000000" stroke="#000000" points="230.7976,-149.6291 238.7411,-142.6182 228.1594,-143.1452 230.7976,-149.6291"/>
<text text-anchor="middle" x="200" y="-188" font-family="Times,serif" font-size="10.00" fill="#000000">requires</text>
</g>
<!-- jaxr -->
<g id="node26" class="node">
<title>jaxr</title>
<path fill="none" stroke="#000000" d="M349.5,-90C349.5,-90 319.5,-90 319.5,-90 313.5,-90 307.5,-84 307.5,-78 307.5,-78 307.5,-66 307.5,-66 307.5,-60 313.5,-54 319.5,-54 319.5,-54 349.5,-54 349.5,-54 355.5,-54 361.5,-60 361.5,-66 361.5,-66 361.5,-78 361.5,-78 361.5,-84 355.5,-90 349.5,-90"/>
<text text-anchor="middle" x="334.5" y="-68.3" font-family="Times,serif" font-size="14.00" fill="#000000">JAXR</text>
</g>
<!-- jakartaee&#45;&gt;jaxr -->
<g id="edge25" class="edge">
<title>jakartaee&#45;&gt;jaxr</title>
<path fill="none" stroke="#000000" d="M80.9192,-845.8704C83.5333,-745.686 100.1608,-259.879 179,-137 204.5639,-97.1561 259.9238,-81.7123 297.2078,-75.7415"/>
<polygon fill="#000000" stroke="#000000" points="297.8084,-79.1912 307.2046,-74.2963 296.8067,-72.2632 297.8084,-79.1912"/>
<text text-anchor="middle" x="200" y="-140" font-family="Times,serif" font-size="10.00" fill="#000000">requires</text>
</g>
<!-- servlet -->
<g id="node27" class="node">
<title>servlet</title>
<path fill="none" stroke="#000000" d="M1027,-882C1027,-882 975,-882 975,-882 969,-882 963,-876 963,-870 963,-870 963,-858 963,-858 963,-852 969,-846 975,-846 975,-846 1027,-846 1027,-846 1033,-846 1039,-852 1039,-858 1039,-858 1039,-870 1039,-870 1039,-876 1033,-882 1027,-882"/>
<text text-anchor="middle" x="1001" y="-860.3" font-family="Times,serif" font-size="14.00" fill="#000000">Servlets</text>
</g>
<!-- jakartaee&#45;&gt;servlet -->
<g id="edge26" class="edge">
<title>jakartaee&#45;&gt;servlet</title>
<path fill="none" stroke="#000000" d="M161.0575,-875.3549C167.1212,-875.988 173.1527,-876.5487 179,-877 416.1142,-895.2997 476.2801,-893.8756 714,-887 798.5505,-884.5545 819.76,-883.641 904,-876 919.9421,-874.554 937.3067,-872.5441 952.8806,-870.5824"/>
<polygon fill="#000000" stroke="#000000" points="953.3502,-874.051 962.8234,-869.3066 952.4592,-867.1079 953.3502,-874.051"/>
<text text-anchor="middle" x="572" y="-894" font-family="Times,serif" font-size="10.00" fill="#000000">requires</text>
</g>
<!-- websocket -->
<g id="node28" class="node">
<title>websocket</title>
<path fill="none" stroke="#000000" d="M702,-878C702,-878 629,-878 629,-878 623,-878 617,-872 617,-866 617,-866 617,-854 617,-854 617,-848 623,-842 629,-842 629,-842 702,-842 702,-842 708,-842 714,-848 714,-854 714,-854 714,-866 714,-866 714,-872 708,-878 702,-878"/>
<text text-anchor="middle" x="665.5" y="-856.3" font-family="Times,serif" font-size="14.00" fill="#000000">WebSocket</text>
</g>
<!-- jakartaee&#45;&gt;websocket -->
<g id="edge27" class="edge">
<title>jakartaee&#45;&gt;websocket</title>
<path fill="none" stroke="#000000" d="M161.2275,-863.448C280.5911,-862.6319 501.3656,-861.1223 606.6606,-860.4023"/>
<polygon fill="#000000" stroke="#000000" points="606.8115,-863.9015 616.7873,-860.3331 606.7636,-856.9016 606.8115,-863.9015"/>
<text text-anchor="middle" x="334.5" y="-865" font-family="Times,serif" font-size="10.00" fill="#000000">requires</text>
</g>
<!-- jaxrpc -->
<g id="node29" class="node">
<title>jaxrpc</title>
<path fill="none" stroke="#000000" d="M799,-1141C799,-1141 744,-1141 744,-1141 738,-1141 732,-1135 732,-1129 732,-1129 732,-1117 732,-1117 732,-1111 738,-1105 744,-1105 744,-1105 799,-1105 799,-1105 805,-1105 811,-1111 811,-1117 811,-1117 811,-1129 811,-1129 811,-1135 805,-1141 799,-1141"/>
<text text-anchor="middle" x="771.5" y="-1119.3" font-family="Times,serif" font-size="14.00" fill="#000000">JAX&#45;RPC</text>
</g>
<!-- jakartaee&#45;&gt;jaxrpc -->
<g id="edge28" class="edge">
<title>jakartaee&#45;&gt;jaxrpc</title>
<path fill="none" stroke="#000000" d="M84.217,-882.0523C93.1888,-920.8604 119.8084,-1012.4756 179,-1059 200.5288,-1075.9215 211.909,-1069.0121 239,-1073 448.2765,-1103.8061 506.6389,-1061.2021 714,-1103 716.676,-1103.5394 719.3974,-1104.1736 722.1276,-1104.8778"/>
<polygon fill="#000000" stroke="#000000" points="721.4117,-1108.3132 731.9882,-1107.691 723.3321,-1101.5817 721.4117,-1108.3132"/>
<text text-anchor="middle" x="487.5" y="-1087" font-family="Times,serif" font-size="10.00" fill="#000000">requires</text>
</g>
<!-- saaj -->
<g id="node30" class="node">
<title>saaj</title>
<path fill="none" stroke="#000000" d="M587,-414C587,-414 557,-414 557,-414 551,-414 545,-408 545,-402 545,-402 545,-390 545,-390 545,-384 551,-378 557,-378 557,-378 587,-378 587,-378 593,-378 599,-384 599,-390 599,-390 599,-402 599,-402 599,-408 593,-414 587,-414"/>
<text text-anchor="middle" x="572" y="-392.3" font-family="Times,serif" font-size="14.00" fill="#000000">SAAJ</text>
</g>
<!-- jakartaee&#45;&gt;saaj -->
<g id="edge24" class="edge">
<title>jakartaee&#45;&gt;saaj</title>
<path fill="none" stroke="#000000" d="M82.1523,-845.752C89.1706,-772.396 118.9431,-500.2118 179,-443 229.4991,-394.8932 447.024,-393.527 534.9315,-395.0234"/>
<polygon fill="#000000" stroke="#000000" points="534.9239,-398.5238 544.9895,-395.2172 535.0588,-391.5251 534.9239,-398.5238"/>
<text text-anchor="middle" x="334.5" y="-418" font-family="Times,serif" font-size="10.00" fill="#000000">requires</text>
</g>
<!-- cdi -->
<g id="node31" class="node">
<title>cdi</title>
<path fill="none" stroke="#000000" d="M1241,-1216C1241,-1216 1211,-1216 1211,-1216 1205,-1216 1199,-1210 1199,-1204 1199,-1204 1199,-1192 1199,-1192 1199,-1186 1205,-1180 1211,-1180 1211,-1180 1241,-1180 1241,-1180 1247,-1180 1253,-1186 1253,-1192 1253,-1192 1253,-1204 1253,-1204 1253,-1210 1247,-1216 1241,-1216"/>
<text text-anchor="middle" x="1226" y="-1194.3" font-family="Times,serif" font-size="14.00" fill="#000000">CDI</text>
</g>
<!-- jakartaee&#45;&gt;cdi -->
<g id="edge29" class="edge">
<title>jakartaee&#45;&gt;cdi</title>
<path fill="none" stroke="#000000" d="M81.4893,-882.226C86.7007,-973.0247 113.262,-1376.291 179,-1480 219.9764,-1544.6449 257.9623,-1554 334.5,-1554 334.5,-1554 334.5,-1554 1001,-1554 1082.8792,-1554 1124.542,-1554.0001 1173,-1488 1203.4949,-1446.4658 1218.8068,-1290.865 1223.9545,-1226.3254"/>
<polygon fill="#000000" stroke="#000000" points="1227.4654,-1226.3184 1224.7468,-1216.0783 1220.4862,-1225.7787 1227.4654,-1226.3184"/>
<text text-anchor="middle" x="665.5" y="-1557" font-family="Times,serif" font-size="10.00" fill="#000000">requires</text>
</g>
<!-- bv -->
<g id="node33" class="node">
<title>bv</title>
<path fill="none" stroke="#000000" d="M1053,-1401C1053,-1401 949,-1401 949,-1401 943,-1401 937,-1395 937,-1389 937,-1389 937,-1377 937,-1377 937,-1371 943,-1365 949,-1365 949,-1365 1053,-1365 1053,-1365 1059,-1365 1065,-1371 1065,-1377 1065,-1377 1065,-1389 1065,-1389 1065,-1395 1059,-1401 1053,-1401"/>
<text text-anchor="middle" x="1001" y="-1379.3" font-family="Times,serif" font-size="14.00" fill="#000000">Bean Validation</text>
</g>
<!-- jakartaee&#45;&gt;bv -->
<g id="edge30" class="edge">
<title>jakartaee&#45;&gt;bv</title>
<path fill="none" stroke="#000000" d="M81.7501,-882.1745C87.8638,-966.7263 116.8694,-1321.2187 179,-1410 221.2923,-1470.4334 260.738,-1468 334.5,-1468 334.5,-1468 334.5,-1468 771.5,-1468 833.8368,-1468 848.1728,-1449.7344 904,-1422 912.6108,-1417.7223 913.3789,-1414.257 922,-1410 925.5536,-1408.2453 929.2494,-1406.5573 933.0164,-1404.942"/>
<polygon fill="#000000" stroke="#000000" points="934.549,-1408.0969 942.4866,-1401.0794 931.9053,-1401.6153 934.549,-1408.0969"/>
<text text-anchor="middle" x="572" y="-1471" font-family="Times,serif" font-size="10.00" fill="#000000">requires</text>
</g>
<!-- batch -->
<g id="node34" class="node">
<title>batch</title>
<path fill="none" stroke="#000000" d="M352,-36C352,-36 317,-36 317,-36 311,-36 305,-30 305,-24 305,-24 305,-12 305,-12 305,-6 311,0 317,0 317,0 352,0 352,0 358,0 364,-6 364,-12 364,-12 364,-24 364,-24 364,-30 358,-36 352,-36"/>
<text text-anchor="middle" x="334.5" y="-14.3" font-family="Times,serif" font-size="14.00" fill="#000000">Batch</text>
</g>
<!-- jakartaee&#45;&gt;batch -->
<g id="edge31" class="edge">
<title>jakartaee&#45;&gt;batch</title>
<path fill="none" stroke="#000000" d="M80.841,-845.7265C83.0774,-741.3795 98.1904,-220.8729 179,-87 203.2056,-46.8999 257.0971,-30.003 294.6047,-22.9502"/>
<polygon fill="#000000" stroke="#000000" points="295.4496,-26.3563 304.7111,-21.2109 294.2623,-19.4577 295.4496,-26.3563"/>
<text text-anchor="middle" x="200" y="-90" font-family="Times,serif" font-size="10.00" fill="#000000">requires</text>
</g>
<!-- interceptors -->
<g id="node6" class="node">
<title>interceptors</title>
<path fill="none" stroke="#000000" d="M1500,-1164C1500,-1164 1417,-1164 1417,-1164 1411,-1164 1405,-1158 1405,-1152 1405,-1152 1405,-1140 1405,-1140 1405,-1134 1411,-1128 1417,-1128 1417,-1128 1500,-1128 1500,-1128 1506,-1128 1512,-1134 1512,-1140 1512,-1140 1512,-1152 1512,-1152 1512,-1158 1506,-1164 1500,-1164"/>
<text text-anchor="middle" x="1458.5" y="-1142.3" font-family="Times,serif" font-size="14.00" fill="#000000">Interceptors</text>
</g>
<!-- ejb&#45;&gt;interceptors -->
<g id="edge32" class="edge">
<title>ejb&#45;&gt;interceptors</title>
<path fill="none" stroke="#000000" d="M599.04,-1180.0235C627.6706,-1177.7698 674.1438,-1173.6523 714,-1168 757.4127,-1161.8434 774.1887,-1173.8222 811,-1150 822.7993,-1142.3641 816.5872,-1130.5919 829,-1124 917.3242,-1077.0951 1178.9954,-1119.5556 1279,-1119 1312.3328,-1118.8148 1320.9327,-1114.7972 1354,-1119 1367.3315,-1120.6944 1381.395,-1123.5586 1394.734,-1126.804"/>
<polygon fill="#000000" stroke="#000000" points="1394.2157,-1130.2832 1404.7691,-1129.3471 1395.9353,-1123.4977 1394.2157,-1130.2832"/>
<text text-anchor="middle" x="1001" y="-1108" font-family="Times,serif" font-size="10.00" fill="#000000">requires</text>
</g>
<!-- ejb&#45;&gt;jaxrs -->
<g id="edge59" class="edge">
<title>ejb&#45;&gt;jaxrs</title>
<path fill="none" stroke="#000000" stroke-dasharray="5,2" d="M598.8082,-1206.5582C604.5107,-1210.8618 610.7166,-1214.9354 617,-1218 656.8225,-1237.4223 671.3701,-1228.9271 714,-1241 718.3861,-1242.2422 722.9359,-1243.6086 727.4682,-1245.0216"/>
<polygon fill="#000000" stroke="#000000" points="600.852,-1203.7107 590.8631,-1200.1792 596.4696,-1209.1691 600.852,-1203.7107"/>
<polygon fill="#000000" stroke="#000000" points="726.7009,-1248.4506 737.2917,-1248.159 728.8306,-1241.7825 726.7009,-1248.4506"/>
<text text-anchor="middle" x="665.5" y="-1244" font-family="Times,serif" font-size="10.00" fill="#000000">integrates with</text>
</g>
<!-- ejb&#45;&gt;jms -->
<g id="edge34" class="edge">
<title>ejb&#45;&gt;jms</title>
<path fill="none" stroke="#000000" d="M578.9524,-1200.0471C586.0827,-1216.1274 598.7244,-1239.0592 617,-1252 653.1593,-1277.6041 673.4437,-1257.1604 714,-1275 714.7385,-1275.3249 724.9091,-1282.1943 736.4963,-1290.0795"/>
<polygon fill="#000000" stroke="#000000" points="734.8347,-1293.1826 745.0693,-1295.9216 738.7766,-1287.398 734.8347,-1293.1826"/>
<text text-anchor="middle" x="665.5" y="-1278" font-family="Times,serif" font-size="10.00" fill="#000000">requires</text>
</g>
<!-- ejb&#45;&gt;jta -->
<g id="edge33" class="edge">
<title>ejb&#45;&gt;jta</title>
<path fill="none" stroke="#000000" d="M581.3471,-1163.8806C589.1915,-1150.318 601.5803,-1132.2412 617,-1121 652.1845,-1095.35 700.8799,-1081.7491 734.1391,-1074.979"/>
<polygon fill="#000000" stroke="#000000" points="735.1992,-1078.3393 744.3585,-1073.0143 733.8775,-1071.4652 735.1992,-1078.3393"/>
<text text-anchor="middle" x="665.5" y="-1124" font-family="Times,serif" font-size="10.00" fill="#000000">requires</text>
</g>
<!-- ejb&#45;&gt;jaxrpc -->
<g id="edge60" class="edge">
<title>ejb&#45;&gt;jaxrpc</title>
<path fill="none" stroke="#000000" stroke-dasharray="5,2" d="M608.4418,-1160.6217C611.2933,-1159.2999 614.166,-1158.0727 617,-1157 626.8774,-1153.2612 680.6627,-1141.7406 722.0259,-1133.1394"/>
<polygon fill="#000000" stroke="#000000" points="606.8659,-1157.4964 599.4804,-1165.0928 609.9911,-1163.7601 606.8659,-1157.4964"/>
<polygon fill="#000000" stroke="#000000" points="722.8912,-1136.5345 731.9725,-1131.0774 721.4702,-1129.6803 722.8912,-1136.5345"/>
<text text-anchor="middle" x="665.5" y="-1160" font-family="Times,serif" font-size="10.00" fill="#000000">integrates with</text>
</g>
<!-- es&#45;&gt;el -->
<g id="edge45" class="edge">
<title>es&#45;&gt;el</title>
<path fill="none" stroke="#000000" d="M1080.4109,-952.4101C1109.6029,-950.2301 1142.8775,-947.1667 1173,-943 1239.1981,-933.8432 1313.2293,-919.1934 1369.3151,-907.1743"/>
<polygon fill="#000000" stroke="#000000" points="1370.18,-910.5683 1379.2179,-905.0395 1368.7048,-903.7255 1370.18,-910.5683"/>
<text text-anchor="middle" x="1226" y="-942" font-family="Times,serif" font-size="10.00" fill="#000000">requires</text>
</g>
<!-- es&#45;&gt;jaspic -->
<g id="edge43" class="edge">
<title>es&#45;&gt;jaspic</title>
<path fill="none" stroke="#000000" d="M1069.73,-938.9775C1105.8805,-929.498 1149.1748,-918.1453 1181.0165,-909.7957"/>
<polygon fill="#000000" stroke="#000000" points="1182.1435,-913.1186 1190.9287,-907.1965 1180.3679,-906.3475 1182.1435,-913.1186"/>
<text text-anchor="middle" x="1135.5" y="-934" font-family="Times,serif" font-size="10.00" fill="#000000">requires</text>
</g>
<!-- es&#45;&gt;cdi -->
<g id="edge44" class="edge">
<title>es&#45;&gt;cdi</title>
<path fill="none" stroke="#000000" d="M1080.2443,-968.7403C1121.9113,-975.6067 1165.8411,-984.2278 1173,-991 1198.7884,-1015.3956 1215.6401,-1119.0095 1222.5039,-1169.7588"/>
<polygon fill="#000000" stroke="#000000" points="1219.0422,-1170.2802 1223.8166,-1179.7383 1225.9825,-1169.3672 1219.0422,-1170.2802"/>
<text text-anchor="middle" x="1135.5" y="-994" font-family="Times,serif" font-size="10.00" fill="#000000">requires</text>
</g>
<!-- javamail&#45;&gt;jaf -->
<g id="edge41" class="edge">
<title>javamail&#45;&gt;jaf</title>
<path fill="none" stroke="#000000" d="M527.3342,-364.8856C632.7802,-367.3907 927.8948,-375.4444 1173,-392 1178.1135,-392.3454 1183.4985,-392.7758 1188.7975,-393.2381"/>
<polygon fill="#000000" stroke="#000000" points="1188.5101,-396.7263 1198.7876,-394.1526 1189.1483,-389.7555 1188.5101,-396.7263"/>
<text text-anchor="middle" x="771.5" y="-376" font-family="Times,serif" font-size="10.00" fill="#000000">requires</text>
</g>
<!-- jaxws&#45;&gt;ca -->
<g id="edge52" class="edge">
<title>jaxws&#45;&gt;ca</title>
<path fill="none" stroke="#000000" d="M370.0919,-549.2473C392.1149,-540.1544 421.2077,-529.3042 448,-523 588.7723,-489.8764 626.8832,-488 771.5,-488 771.5,-488 771.5,-488 1226,-488 1473.0827,-488 1316.1223,-784.8378 1354,-1029 1362.131,-1081.413 1343.3852,-1222.341 1372,-1267 1378.4425,-1277.0548 1387.7664,-1285.1886 1397.9313,-1291.7033"/>
<polygon fill="#000000" stroke="#000000" points="1396.2264,-1294.7608 1406.6229,-1296.8014 1399.768,-1288.7229 1396.2264,-1294.7608"/>
<text text-anchor="middle" x="866.5" y="-491" font-family="Times,serif" font-size="10.00" fill="#000000">requires</text>
</g>
<!-- jaxws&#45;&gt;ejb -->
<g id="edge67" class="edge">
<title>jaxws&#45;&gt;ejb</title>
<path fill="none" stroke="#000000" stroke-dasharray="5,2" d="M370.3446,-575.9045C415.6869,-591.7995 492.0608,-626.052 527,-685 544.988,-715.3486 541.3795,-966.9073 545,-1002 550.5692,-1055.9809 560.8169,-1118.5411 566.9599,-1153.8773"/>
<polygon fill="#000000" stroke="#000000" points="563.5483,-1154.686 568.7248,-1163.9301 570.4428,-1153.4755 563.5483,-1154.686"/>
<text text-anchor="middle" x="487.5" y="-688" font-family="Times,serif" font-size="10.00" fill="#000000">integrates with</text>
</g>
<!-- jaxws&#45;&gt;jaf -->
<g id="edge42" class="edge">
<title>jaxws&#45;&gt;jaf</title>
<path fill="none" stroke="#000000" d="M370.128,-564.6603C460.7523,-563.0406 706.8285,-553.9003 904,-503 1009.0451,-475.8824 1129.7659,-432.8576 1189.1226,-410.8942"/>
<polygon fill="#000000" stroke="#000000" points="1190.6383,-414.0648 1198.7931,-407.3009 1188.2002,-407.5031 1190.6383,-414.0648"/>
<text text-anchor="middle" x="771.5" y="-538" font-family="Times,serif" font-size="10.00" fill="#000000">requires</text>
</g>
<!-- jaxws&#45;&gt;jaxb -->
<g id="edge54" class="edge">
<title>jaxws&#45;&gt;jaxb</title>
<path fill="none" stroke="#000000" d="M370.2165,-570.0423C392.5346,-573.0348 421.8949,-576.6846 448,-579 641.7254,-596.1822 874.5629,-604.9414 963.7553,-607.8611"/>
<polygon fill="#000000" stroke="#000000" points="963.8005,-611.3642 973.9081,-608.1883 964.026,-604.3679 963.8005,-611.3642"/>
<text text-anchor="middle" x="665.5" y="-599" font-family="Times,serif" font-size="10.00" fill="#000000">requires</text>
</g>
<!-- jaxws&#45;&gt;servlet -->
<g id="edge68" class="edge">
<title>jaxws&#45;&gt;servlet</title>
<path fill="none" stroke="#000000" stroke-dasharray="5,2" d="M370.2732,-554.4468C451.9705,-532.3131 657.0748,-487.9879 811,-550 931.334,-598.4791 980.4427,-768.4697 995.5035,-836.0192"/>
<polygon fill="#000000" stroke="#000000" points="992.1136,-836.9037 997.634,-845.9466 998.9577,-835.4348 992.1136,-836.9037"/>
<text text-anchor="middle" x="665.5" y="-527" font-family="Times,serif" font-size="10.00" fill="#000000">integrates with</text>
</g>
<!-- jaxws&#45;&gt;saaj -->
<g id="edge53" class="edge">
<title>jaxws&#45;&gt;saaj</title>
<path fill="none" stroke="#000000" d="M359.5527,-546.7099C382.4244,-530.1106 417.2518,-505.0805 448,-484 482.6693,-460.2313 492.9962,-456.7115 527,-432 531.8737,-428.4581 536.9446,-424.5906 541.8501,-420.7465"/>
<polygon fill="#000000" stroke="#000000" points="544.234,-423.3227 549.8857,-414.3612 539.8791,-417.8423 544.234,-423.3227"/>
<text text-anchor="middle" x="487.5" y="-487" font-family="Times,serif" font-size="10.00" fill="#000000">requires</text>
</g>
<!-- jaxb&#45;&gt;jaf -->
<g id="edge55" class="edge">
<title>jaxb&#45;&gt;jaf</title>
<path fill="none" stroke="#000000" d="M1028.3101,-612.0078C1065.7659,-614.5363 1132.9766,-613.1211 1173,-577 1195.5569,-556.6425 1213.3823,-470.3753 1221.3943,-425.0637"/>
<polygon fill="#000000" stroke="#000000" points="1224.8775,-425.4603 1223.1294,-415.0107 1217.9795,-424.2697 1224.8775,-425.4603"/>
<text text-anchor="middle" x="1135.5" y="-611" font-family="Times,serif" font-size="10.00" fill="#000000">requires</text>
</g>
<!-- jaxrs&#45;&gt;ca -->
<g id="edge50" class="edge">
<title>jaxrs&#45;&gt;ca</title>
<path fill="none" stroke="#000000" d="M800.9782,-1278.1484C809.7818,-1283.0861 819.5966,-1288.1322 829,-1292 868.6918,-1308.3259 879.4798,-1312.1681 922,-1318 1075.0909,-1338.9972 1255.0704,-1331.5205 1362.797,-1323.6564"/>
<polygon fill="#000000" stroke="#000000" points="1363.2817,-1327.13 1372.9933,-1322.8951 1362.7604,-1320.1495 1363.2817,-1327.13"/>
<text text-anchor="middle" x="1135.5" y="-1334" font-family="Times,serif" font-size="10.00" fill="#000000">requires</text>
</g>
<!-- jaxrs&#45;&gt;jaxb -->
<g id="edge51" class="edge">
<title>jaxrs&#45;&gt;jaxb</title>
<path fill="none" stroke="#000000" d="M778.5498,-1241.8169C787.3353,-1221.5464 804.2695,-1189.2253 829,-1171 856.8658,-1150.4642 882.2983,-1176.9678 904,-1150 925.8395,-1122.8609 915.2332,-871.1717 922,-837 936.8037,-762.2432 970.4604,-678.6 988.7005,-636.4495"/>
<polygon fill="#000000" stroke="#000000" points="991.9725,-637.7026 992.7724,-627.138 985.5589,-634.8979 991.9725,-637.7026"/>
<text text-anchor="middle" x="866.5" y="-1174" font-family="Times,serif" font-size="10.00" fill="#000000">requires</text>
</g>
<!-- jaxrs&#45;&gt;jsonb -->
<g id="edge65" class="edge">
<title>jaxrs&#45;&gt;jsonb</title>
<path fill="none" stroke="#000000" stroke-dasharray="5,2" d="M803.3254,-1278.2986C806.2245,-1280.9275 808.8666,-1283.83 811,-1287 832.0752,-1318.3149 804.9997,-1340.8662 829,-1370 845.4809,-1390.006 909.8119,-1411.4812 954.9395,-1424.5806"/>
<polygon fill="#000000" stroke="#000000" points="954.2432,-1428.0217 964.8201,-1427.4047 956.167,-1421.2912 954.2432,-1428.0217"/>
<text text-anchor="middle" x="866.5" y="-1410" font-family="Times,serif" font-size="10.00" fill="#000000">integrates with</text>
</g>
<!-- jaxrs&#45;&gt;jsonp -->
<g id="edge64" class="edge">
<title>jaxrs&#45;&gt;jsonp</title>
<path fill="none" stroke="#000000" stroke-dasharray="5,2" d="M805.5492,-1264.7677C813.2594,-1265.8389 821.4104,-1266.9646 829,-1268 871.742,-1273.8311 920.4801,-1280.3347 955.135,-1284.9342"/>
<polygon fill="#000000" stroke="#000000" points="955.0422,-1288.4525 965.4156,-1286.2977 955.9626,-1281.5132 955.0422,-1288.4525"/>
<text text-anchor="middle" x="866.5" y="-1280" font-family="Times,serif" font-size="10.00" fill="#000000">integrates with</text>
</g>
<!-- jaxrs&#45;&gt;servlet -->
<g id="edge61" class="edge">
<title>jaxrs&#45;&gt;servlet</title>
<path fill="none" stroke="#000000" stroke-dasharray="5,2" d="M787.2408,-1241.7872C797.9838,-1230.3647 813.1048,-1216.1248 829,-1207 859.2374,-1189.6419 882.2946,-1211.2852 904,-1184 939.2274,-1139.7167 896.2328,-980.3788 922,-930 930.5718,-913.2408 945.4633,-899.0998 960.0231,-888.2596"/>
<polygon fill="#000000" stroke="#000000" points="962.3608,-890.8934 968.5071,-882.2636 958.3207,-885.1769 962.3608,-890.8934"/>
<text text-anchor="middle" x="866.5" y="-1210" font-family="Times,serif" font-size="10.00" fill="#000000">integrates with</text>
</g>
<!-- jaxrs&#45;&gt;cdi -->
<g id="edge62" class="edge">
<title>jaxrs&#45;&gt;cdi</title>
<path fill="none" stroke="#000000" stroke-dasharray="5,2" d="M805.5851,-1251.2852C839.076,-1242.3533 887.487,-1228.3457 904,-1218 913.8574,-1211.8242 911.3219,-1203.6138 922,-1199 1011.3527,-1160.3923 1129.7392,-1176.8929 1188.9525,-1189.1373"/>
<polygon fill="#000000" stroke="#000000" points="1188.4475,-1192.6085 1198.9592,-1191.2839 1189.9158,-1185.7642 1188.4475,-1192.6085"/>
<text text-anchor="middle" x="1001" y="-1202" font-family="Times,serif" font-size="10.00" fill="#000000">integrates with</text>
</g>
<!-- jaxrs&#45;&gt;bv -->
<g id="edge63" class="edge">
<title>jaxrs&#45;&gt;bv</title>
<path fill="none" stroke="#000000" stroke-dasharray="5,2" d="M802.5032,-1278.278C805.6305,-1280.9387 808.5503,-1283.8541 811,-1287 825.2544,-1305.3053 811.9101,-1320.309 829,-1336 832.9168,-1339.5962 882.1884,-1352.8741 926.9947,-1364.4036"/>
<polygon fill="#000000" stroke="#000000" points="926.21,-1367.8155 936.7659,-1366.9087 927.9485,-1361.0348 926.21,-1367.8155"/>
<text text-anchor="middle" x="866.5" y="-1361" font-family="Times,serif" font-size="10.00" fill="#000000">integrates with</text>
</g>
<!-- cu -->
<g id="node35" class="node">
<title>cu</title>
<path fill="none" stroke="#000000" d="M1016,-1255C1016,-1255 986,-1255 986,-1255 980,-1255 974,-1249 974,-1243 974,-1243 974,-1231 974,-1231 974,-1225 980,-1219 986,-1219 986,-1219 1016,-1219 1016,-1219 1022,-1219 1028,-1225 1028,-1231 1028,-1231 1028,-1243 1028,-1243 1028,-1249 1022,-1255 1016,-1255"/>
<text text-anchor="middle" x="1001" y="-1233.3" font-family="Times,serif" font-size="14.00" fill="#000000">cu</text>
</g>
<!-- jaxrs&#45;&gt;cu -->
<g id="edge66" class="edge">
<title>jaxrs&#45;&gt;cu</title>
<path fill="none" stroke="#000000" stroke-dasharray="5,2" d="M805.8585,-1256.5567C848.2542,-1252.3079 920.0718,-1245.1105 963.7544,-1240.7327"/>
<polygon fill="#000000" stroke="#000000" points="964.3524,-1244.1904 973.9535,-1239.7105 963.6543,-1237.2253 964.3524,-1244.1904"/>
<text text-anchor="middle" x="866.5" y="-1256" font-family="Times,serif" font-size="10.00" fill="#000000">integrates with</text>
</g>
<!-- jca&#45;&gt;ejb -->
<g id="edge69" class="edge">
<title>jca&#45;&gt;ejb</title>
<path fill="none" stroke="#000000" stroke-dasharray="5,2" d="M371.6749,-1370.4831C414.5699,-1365.6374 484.6239,-1351.463 527,-1310 554.1715,-1283.414 564.9683,-1239.4797 569.2377,-1210.6354"/>
<polygon fill="#000000" stroke="#000000" points="371.2442,-1367.0087 361.6491,-1371.5015 371.9517,-1373.9729 371.2442,-1367.0087"/>
<polygon fill="#000000" stroke="#000000" points="572.7515,-1210.7558 570.5748,-1200.387 565.8104,-1209.85 572.7515,-1210.7558"/>
<text text-anchor="middle" x="487.5" y="-1356" font-family="Times,serif" font-size="10.00" fill="#000000">integrates with</text>
</g>
<!-- jca&#45;&gt;cdi -->
<g id="edge70" class="edge">
<title>jca&#45;&gt;cdi</title>
<path fill="none" stroke="#000000" stroke-dasharray="5,2" d="M361.6239,-1376.6193C398.9165,-1381.6376 468.1048,-1391.0995 527,-1400 811.6064,-1443.0112 967.5073,-1647.5528 1173,-1446 1204.07,-1415.5257 1218.76,-1284.22 1223.8397,-1225.9904"/>
<polygon fill="#000000" stroke="#000000" points="1227.3287,-1226.2667 1224.6781,-1216.0088 1220.3532,-1225.6807 1227.3287,-1226.2667"/>
<text text-anchor="middle" x="771.5" y="-1492" font-family="Times,serif" font-size="10.00" fill="#000000">integrates with</text>
</g>
<!-- jpa&#45;&gt;cdi -->
<g id="edge71" class="edge">
<title>jpa&#45;&gt;cdi</title>
<path fill="none" stroke="#000000" stroke-dasharray="5,2" d="M893.8943,-1013.3839C952.9637,-998.7812 1093.3971,-974.1219 1173,-1044 1192.1649,-1060.8236 1210.6355,-1130.3967 1219.8753,-1170.0308"/>
<polygon fill="#000000" stroke="#000000" points="1216.486,-1170.9105 1222.1251,-1179.8799 1223.3102,-1169.3516 1216.486,-1170.9105"/>
<text text-anchor="middle" x="1001" y="-1009" font-family="Times,serif" font-size="10.00" fill="#000000">integrates with</text>
</g>
<!-- jsonb&#45;&gt;cdi -->
<g id="edge73" class="edge">
<title>jsonb&#45;&gt;cdi</title>
<path fill="none" stroke="#000000" stroke-dasharray="5,2" d="M1037.3292,-1438.771C1076.086,-1438.5999 1136.7766,-1432.0897 1173,-1397 1197.4028,-1373.3609 1214.7837,-1275.1405 1222.119,-1226.1061"/>
<polygon fill="#000000" stroke="#000000" points="1225.5903,-1226.5562 1223.5703,-1216.1558 1218.6636,-1225.5459 1225.5903,-1226.5562"/>
<text text-anchor="middle" x="1135.5" y="-1434" font-family="Times,serif" font-size="10.00" fill="#000000">integrates with</text>
</g>
<!-- jsf&#45;&gt;el -->
<g id="edge36" class="edge">
<title>jsf&#45;&gt;el</title>
<path fill="none" stroke="#000000" d="M361.601,-682.6844C398.8673,-679.8039 468.0255,-675.547 527,-678 854.7756,-691.6337 937.0154,-704.4567 1261,-756 1302.5775,-762.6146 1317.2124,-753.5276 1354,-774 1391.5499,-794.8966 1423.1617,-834.1329 1441.4774,-860.4201"/>
<polygon fill="#000000" stroke="#000000" points="1438.6525,-862.4903 1447.1685,-868.7933 1444.4418,-858.5553 1438.6525,-862.4903"/>
<text text-anchor="middle" x="866.5" y="-706" font-family="Times,serif" font-size="10.00" fill="#000000">requires</text>
</g>
<!-- jsf&#45;&gt;jsp -->
<g id="edge35" class="edge">
<title>jsf&#45;&gt;jsp</title>
<path fill="none" stroke="#000000" d="M361.8213,-683.5956C410.1336,-681.6737 513.6064,-680.0847 599,-696 652.0567,-705.8885 663.3712,-716.3046 714,-735 720.7087,-737.4773 727.8131,-740.22 734.6545,-742.9229"/>
<polygon fill="#000000" stroke="#000000" points="733.8283,-746.3616 744.4133,-746.819 736.4238,-739.8606 733.8283,-746.3616"/>
<text text-anchor="middle" x="572" y="-699" font-family="Times,serif" font-size="10.00" fill="#000000">requires</text>
</g>
<!-- jsf&#45;&gt;jstl -->
<g id="edge37" class="edge">
<title>jsf&#45;&gt;jstl</title>
<path fill="none" stroke="#000000" d="M361.6386,-687.808C399.2392,-692.0821 469.096,-701.4123 527,-717 529.631,-717.7083 532.3222,-718.5121 535.0156,-719.3756"/>
<polygon fill="#000000" stroke="#000000" points="534.0804,-722.7552 544.6751,-722.7002 536.3585,-716.1363 534.0804,-722.7552"/>
<text text-anchor="middle" x="487.5" y="-720" font-family="Times,serif" font-size="10.00" fill="#000000">requires</text>
</g>
<!-- jsp&#45;&gt;el -->
<g id="edge40" class="edge">
<title>jsp&#45;&gt;el</title>
<path fill="none" stroke="#000000" d="M798.5808,-754.6155C883.904,-745.0728 1153.3693,-723.5428 1354,-803 1386.0473,-815.6919 1415.985,-841.807 1435.5307,-861.5694"/>
<polygon fill="#000000" stroke="#000000" points="1433.0344,-864.023 1442.4956,-868.7913 1438.073,-859.1636 1433.0344,-864.023"/>
<text text-anchor="middle" x="1135.5" y="-759" font-family="Times,serif" font-size="10.00" fill="#000000">requires</text>
</g>
<!-- jsp&#45;&gt;servlet -->
<g id="edge39" class="edge">
<title>jsp&#45;&gt;servlet</title>
<path fill="none" stroke="#000000" d="M798.7279,-770.5758C836.829,-788.1737 906.6248,-820.4106 953.42,-842.0241"/>
<polygon fill="#000000" stroke="#000000" points="952.2003,-845.3159 962.7463,-846.3316 955.1355,-838.961 952.2003,-845.3159"/>
<text text-anchor="middle" x="866.5" y="-820" font-family="Times,serif" font-size="10.00" fill="#000000">requires</text>
</g>
<!-- jstl&#45;&gt;jsp -->
<g id="edge38" class="edge">
<title>jstl&#45;&gt;jsp</title>
<path fill="none" stroke="#000000" d="M599.3213,-737.2868C634.2934,-741.4939 695.0358,-748.8013 734.2315,-753.5166"/>
<polygon fill="#000000" stroke="#000000" points="733.8428,-756.995 744.1893,-754.7145 734.6789,-750.0451 733.8428,-756.995"/>
<text text-anchor="middle" x="665.5" y="-753" font-family="Times,serif" font-size="10.00" fill="#000000">requires</text>
</g>
<!-- jta&#45;&gt;cdi -->
<g id="edge74" class="edge">
<title>jta&#45;&gt;cdi</title>
<path fill="none" stroke="#000000" stroke-dasharray="5,2" d="M798.621,-1064.4505C853.2183,-1056.328 979.7294,-1042.767 1080,-1072 1126.7659,-1085.6342 1136.8041,-1097.3995 1173,-1130 1186.5026,-1142.1614 1199.1182,-1158.0815 1208.6513,-1171.4601"/>
<polygon fill="#000000" stroke="#000000" points="1205.8741,-1173.5972 1214.4491,-1179.8196 1211.6261,-1169.6078 1205.8741,-1173.5972"/>
<text text-anchor="middle" x="1001" y="-1075" font-family="Times,serif" font-size="10.00" fill="#000000">integrates with</text>
</g>
<!-- servlet&#45;&gt;jaspic -->
<g id="edge75" class="edge">
<title>servlet&#45;&gt;jaspic</title>
<path fill="none" stroke="#000000" stroke-dasharray="5,2" d="M1039.204,-861.8159C1074.4802,-860.7763 1128.0531,-861.6899 1173,-873 1176.4084,-873.8577 1179.8621,-874.9391 1183.2868,-876.1684"/>
<polygon fill="#000000" stroke="#000000" points="1182.2145,-879.5087 1192.7997,-879.9608 1184.8068,-873.0064 1182.2145,-879.5087"/>
<text text-anchor="middle" x="1135.5" y="-876" font-family="Times,serif" font-size="10.00" fill="#000000">integrates with</text>
</g>
<!-- websocket&#45;&gt;servlet -->
<g id="edge76" class="edge">
<title>websocket&#45;&gt;servlet</title>
<path fill="none" stroke="#000000" stroke-dasharray="5,2" d="M714.2846,-860.5816C777.9818,-861.3411 888.8278,-862.6626 952.4226,-863.4208"/>
<polygon fill="#000000" stroke="#000000" points="952.5469,-866.9225 962.588,-863.542 952.6305,-859.923 952.5469,-866.9225"/>
<text text-anchor="middle" x="771.5" y="-864" font-family="Times,serif" font-size="10.00" fill="#000000">integrates with</text>
</g>
<!-- saaj&#45;&gt;jaf -->
<g id="edge56" class="edge">
<title>saaj&#45;&gt;jaf</title>
<path fill="none" stroke="#000000" d="M599.2689,-396.0417C702.6387,-396.1998 1070.4761,-396.7622 1188.9458,-396.9433"/>
<polygon fill="#000000" stroke="#000000" points="1188.9715,-400.4433 1198.9769,-396.9587 1188.9823,-393.4433 1188.9715,-400.4433"/>
<text text-anchor="middle" x="866.5" y="-399" font-family="Times,serif" font-size="10.00" fill="#000000">requires</text>
</g>
<!-- cdi&#45;&gt;ca -->
<g id="edge49" class="edge">
<title>cdi&#45;&gt;ca</title>
<path fill="none" stroke="#000000" d="M1242.8141,-1216.2225C1252.6296,-1226.0488 1265.677,-1237.8048 1279,-1246 1311.741,-1266.1395 1351.3394,-1282.1204 1385.0045,-1293.6097"/>
<polygon fill="#000000" stroke="#000000" points="1384.1944,-1297.0292 1394.7882,-1296.8805 1386.4139,-1290.3904 1384.1944,-1297.0292"/>
<text text-anchor="middle" x="1316.5" y="-1283" font-family="Times,serif" font-size="10.00" fill="#000000">requires</text>
</g>
<!-- cdi&#45;&gt;ejb -->
<g id="edge57" class="edge">
<title>cdi&#45;&gt;ejb</title>
<path fill="none" stroke="#000000" stroke-dasharray="5,2" d="M1189.8567,-1178.3509C1184.3266,-1175.911 1178.5949,-1173.6862 1173,-1172 1057.5655,-1137.2096 1024.3111,-1144.7941 904,-1137 870.7364,-1134.8451 856.5318,-1118.2087 829,-1137 810.8671,-1149.3763 828.4736,-1169.7091 811,-1183 776.5051,-1209.2378 757.2824,-1190.7748 714,-1193 670.9457,-1195.2134 659.8017,-1198.1554 617,-1193 614.4848,-1192.697 611.9072,-1192.3021 609.3207,-1191.8424"/>
<polygon fill="#000000" stroke="#000000" points="1188.3737,-1181.5211 1198.9132,-1182.6028 1191.3486,-1175.1847 1188.3737,-1181.5211"/>
<polygon fill="#000000" stroke="#000000" points="609.9136,-1188.3911 599.4136,-1189.8059 608.5041,-1195.2478 609.9136,-1188.3911"/>
<text text-anchor="middle" x="866.5" y="-1140" font-family="Times,serif" font-size="10.00" fill="#000000">integrates with</text>
</g>
<!-- cdi&#45;&gt;el -->
<g id="edge48" class="edge">
<title>cdi&#45;&gt;el</title>
<path fill="none" stroke="#000000" d="M1253.0329,-1182.9271C1261.2211,-1178.7191 1270.3421,-1174.3789 1279,-1171 1311.2466,-1158.4152 1328.2702,-1173.156 1354,-1150 1372.4594,-1133.3871 1426.9432,-978.9685 1449.0346,-914.7788"/>
<polygon fill="#000000" stroke="#000000" points="1452.3566,-915.881 1452.2915,-905.2864 1445.7355,-913.6092 1452.3566,-915.881"/>
<text text-anchor="middle" x="1316.5" y="-1174" font-family="Times,serif" font-size="10.00" fill="#000000">requires</text>
</g>
<!-- cdi&#45;&gt;el -->
<g id="edge58" class="edge">
<title>cdi&#45;&gt;el</title>
<path fill="none" stroke="#000000" stroke-dasharray="5,2" d="M1239.5051,-1179.9351C1278.7517,-1127.4375 1392.9108,-974.7344 1438.931,-913.1761"/>
<polygon fill="#000000" stroke="#000000" points="1441.7732,-915.2198 1444.9576,-905.1148 1436.1667,-911.0284 1441.7732,-915.2198"/>
<text text-anchor="middle" x="1316.5" y="-1125" font-family="Times,serif" font-size="10.00" fill="#000000">integrates with</text>
</g>
<!-- cdi&#45;&gt;interceptors -->
<g id="edge47" class="edge">
<title>cdi&#45;&gt;interceptors</title>
<path fill="none" stroke="#000000" d="M1253.2863,-1196.9105C1279.4199,-1195.4239 1319.8181,-1191.9622 1354,-1184 1371.4455,-1179.9363 1389.9733,-1173.8261 1406.5068,-1167.687"/>
<polygon fill="#000000" stroke="#000000" points="1407.8832,-1170.9082 1415.9878,-1164.0842 1405.3966,-1164.3647 1407.8832,-1170.9082"/>
<text text-anchor="middle" x="1316.5" y="-1197" font-family="Times,serif" font-size="10.00" fill="#000000">requires</text>
</g>
<!-- di -->
<g id="node32" class="node">
<title>di</title>
<path fill="none" stroke="#000000" d="M1533,-1258C1533,-1258 1384,-1258 1384,-1258 1378,-1258 1372,-1252 1372,-1246 1372,-1246 1372,-1234 1372,-1234 1372,-1228 1378,-1222 1384,-1222 1384,-1222 1533,-1222 1533,-1222 1539,-1222 1545,-1228 1545,-1234 1545,-1234 1545,-1246 1545,-1246 1545,-1252 1539,-1258 1533,-1258"/>
<text text-anchor="middle" x="1458.5" y="-1236.3" font-family="Times,serif" font-size="14.00" fill="#000000">Dependency Injection</text>
</g>
<!-- cdi&#45;&gt;di -->
<g id="edge46" class="edge">
<title>cdi&#45;&gt;di</title>
<path fill="none" stroke="#000000" d="M1253.1127,-1209.6532C1261.3033,-1212.7839 1270.4054,-1215.884 1279,-1218 1305.4919,-1224.5222 1334.6814,-1229.1515 1361.6845,-1232.4214"/>
<polygon fill="#000000" stroke="#000000" points="1361.5796,-1235.9326 1371.9165,-1233.6091 1362.3868,-1228.9793 1361.5796,-1235.9326"/>
<text text-anchor="middle" x="1316.5" y="-1234" font-family="Times,serif" font-size="10.00" fill="#000000">requires</text>
</g>
<!-- bv&#45;&gt;cdi -->
<g id="edge72" class="edge">
<title>bv&#45;&gt;cdi</title>
<path fill="none" stroke="#000000" stroke-dasharray="5,2" d="M1065.3056,-1386.444C1100.8528,-1384.9706 1143.6322,-1377.1827 1173,-1352 1192.3588,-1335.3999 1210.7501,-1265.7353 1219.9261,-1226.0277"/>
<polygon fill="#000000" stroke="#000000" points="1223.3656,-1226.6855 1222.1593,-1216.1595 1216.5383,-1225.1403 1223.3656,-1226.6855"/>
<text text-anchor="middle" x="1135.5" y="-1385" font-family="Times,serif" font-size="10.00" fill="#000000">integrates with</text>
</g>
</g>
</svg>
