<?xml version="1.0" encoding="UTF-8" standalone="no"?>
<!DOCTYPE svg PUBLIC "-//W3C//DTD SVG 1.1//EN"
 "http://www.w3.org/Graphics/SVG/1.1/DTD/svg11.dtd">
<!-- Generated by graphviz version 2.40.1 (20161225.0304)
 -->
<!-- Title: G Pages: 1 -->
<svg width="1320pt" height="1252pt"
 viewBox="0.00 0.00 1320.00 1252.00" xmlns="http://www.w3.org/2000/svg" xmlns:xlink="http://www.w3.org/1999/xlink">
<g id="graph0" class="graph" transform="scale(1 1) rotate(0) translate(4 1248)">
<title>G</title>
<polygon fill="#ffffff" stroke="transparent" points="-4,4 -4,-1248 1316,-1248 1316,4 -4,4"/>
<!-- ca -->
<g id="node1" class="node">
<title>ca</title>
<path fill="none" stroke="#000000" d="M1299,-354C1299,-354 1152,-354 1152,-354 1146,-354 1140,-348 1140,-342 1140,-342 1140,-330 1140,-330 1140,-324 1146,-318 1152,-318 1152,-318 1299,-318 1299,-318 1305,-318 1311,-324 1311,-330 1311,-330 1311,-342 1311,-342 1311,-348 1305,-354 1299,-354"/>
<text text-anchor="middle" x="1225.5" y="-332.3" font-family="Times,serif" font-size="14.00" fill="#000000">Common Annotations</text>
</g>
<!-- ejb -->
<g id="node2" class="node">
<title>ejb</title>
<path fill="none" stroke="#000000" d="M344,-422C344,-422 314,-422 314,-422 308,-422 302,-416 302,-410 302,-410 302,-398 302,-398 302,-392 308,-386 314,-386 314,-386 344,-386 344,-386 350,-386 356,-392 356,-398 356,-398 356,-410 356,-410 356,-416 350,-422 344,-422"/>
<text text-anchor="middle" x="329" y="-400.3" font-family="Times,serif" font-size="14.00" fill="#000000">EJB</text>
</g>
<!-- interceptors -->
<g id="node5" class="node">
<title>interceptors</title>
<path fill="none" stroke="#000000" d="M1267,-501C1267,-501 1184,-501 1184,-501 1178,-501 1172,-495 1172,-489 1172,-489 1172,-477 1172,-477 1172,-471 1178,-465 1184,-465 1184,-465 1267,-465 1267,-465 1273,-465 1279,-471 1279,-477 1279,-477 1279,-489 1279,-489 1279,-495 1273,-501 1267,-501"/>
<text text-anchor="middle" x="1225.5" y="-479.3" font-family="Times,serif" font-size="14.00" fill="#000000">Interceptors</text>
</g>
<!-- ejb&#45;&gt;interceptors -->
<g id="edge1" class="edge">
<title>ejb&#45;&gt;interceptors</title>
<path fill="none" stroke="#000000" d="M341.1971,-385.8456C349.3067,-375.103 360.8602,-362.0614 374,-354 410.4821,-331.6178 425.5461,-339.6525 467,-329 671.2981,-276.5013 742.6889,-215.42 940,-290 1045.4964,-329.8757 1150.4298,-415.6735 1198.4278,-458.1426"/>
<polygon fill="#000000" stroke="#000000" points="1196.114,-460.7688 1205.9049,-464.8172 1200.7756,-455.5467 1196.114,-460.7688"/>
<text text-anchor="middle" x="761" y="-271" font-family="Times,serif" font-size="10.00" fill="#000000">requires</text>
</g>
<!-- jaxrs -->
<g id="node13" class="node">
<title>jaxrs</title>
<path fill="none" stroke="#000000" d="M537.5,-454C537.5,-454 493.5,-454 493.5,-454 487.5,-454 481.5,-448 481.5,-442 481.5,-442 481.5,-430 481.5,-430 481.5,-424 487.5,-418 493.5,-418 493.5,-418 537.5,-418 537.5,-418 543.5,-418 549.5,-424 549.5,-430 549.5,-430 549.5,-442 549.5,-442 549.5,-448 543.5,-454 537.5,-454"/>
<text text-anchor="middle" x="515.5" y="-432.3" font-family="Times,serif" font-size="14.00" fill="#000000">JAX&#45;RS</text>
</g>
<!-- ejb&#45;&gt;jaxrs -->
<g id="edge28" class="edge">
<title>ejb&#45;&gt;jaxrs</title>
<path fill="none" stroke="#000000" stroke-dasharray="5,2" d="M366.0081,-410.3499C396.3159,-415.5502 439.2769,-422.9215 471.3722,-428.4285"/>
<polygon fill="#000000" stroke="#000000" points="366.5666,-406.8947 356.1187,-408.6531 365.3828,-413.7939 366.5666,-406.8947"/>
<polygon fill="#000000" stroke="#000000" points="470.9333,-431.9042 481.3812,-430.1458 472.1171,-425.0051 470.9333,-431.9042"/>
<text text-anchor="middle" x="411.5" y="-426" font-family="Times,serif" font-size="10.00" fill="#000000">integrates with</text>
</g>
<!-- jms -->
<g id="node15" class="node">
<title>jms</title>
<path fill="none" stroke="#000000" d="M530.5,-400C530.5,-400 500.5,-400 500.5,-400 494.5,-400 488.5,-394 488.5,-388 488.5,-388 488.5,-376 488.5,-376 488.5,-370 494.5,-364 500.5,-364 500.5,-364 530.5,-364 530.5,-364 536.5,-364 542.5,-370 542.5,-376 542.5,-376 542.5,-388 542.5,-388 542.5,-394 536.5,-400 530.5,-400"/>
<text text-anchor="middle" x="515.5" y="-378.3" font-family="Times,serif" font-size="14.00" fill="#000000">JMS</text>
</g>
<!-- ejb&#45;&gt;jms -->
<g id="edge3" class="edge">
<title>ejb&#45;&gt;jms</title>
<path fill="none" stroke="#000000" d="M356.4619,-396.5388C362.221,-395.1853 368.2821,-393.9149 374,-393 409.0584,-387.3904 449.4795,-384.6107 478.1196,-383.2524"/>
<polygon fill="#000000" stroke="#000000" points="478.6464,-386.7328 488.4837,-382.7985 478.3401,-379.7395 478.6464,-386.7328"/>
<text text-anchor="middle" x="411.5" y="-396" font-family="Times,serif" font-size="10.00" fill="#000000">requires</text>
</g>
<!-- jta -->
<g id="node22" class="node">
<title>jta</title>
<path fill="none" stroke="#000000" d="M634.5,-640C634.5,-640 604.5,-640 604.5,-640 598.5,-640 592.5,-634 592.5,-628 592.5,-628 592.5,-616 592.5,-616 592.5,-610 598.5,-604 604.5,-604 604.5,-604 634.5,-604 634.5,-604 640.5,-604 646.5,-610 646.5,-616 646.5,-616 646.5,-628 646.5,-628 646.5,-634 640.5,-640 634.5,-640"/>
<text text-anchor="middle" x="619.5" y="-618.3" font-family="Times,serif" font-size="14.00" fill="#000000">JTA</text>
</g>
<!-- ejb&#45;&gt;jta -->
<g id="edge2" class="edge">
<title>ejb&#45;&gt;jta</title>
<path fill="none" stroke="#000000" d="M350.0093,-422.1201C357.2693,-427.7552 365.6779,-433.6292 374,-438 413.3816,-458.6835 534.7042,-467.5265 564,-501 592.3018,-533.3377 558.5969,-559.9582 582,-596 582.8359,-597.2873 583.7601,-598.5287 584.7544,-599.7238"/>
<polygon fill="#000000" stroke="#000000" points="582.5405,-602.4538 592.1417,-606.9336 587.4297,-597.4442 582.5405,-602.4538"/>
<text text-anchor="middle" x="411.5" y="-461" font-family="Times,serif" font-size="10.00" fill="#000000">requires</text>
</g>
<!-- jaxrpc -->
<g id="node28" class="node">
<title>jaxrpc</title>
<path fill="none" stroke="#000000" d="M543,-546C543,-546 488,-546 488,-546 482,-546 476,-540 476,-534 476,-534 476,-522 476,-522 476,-516 482,-510 488,-510 488,-510 543,-510 543,-510 549,-510 555,-516 555,-522 555,-522 555,-534 555,-534 555,-540 549,-546 543,-546"/>
<text text-anchor="middle" x="515.5" y="-524.3" font-family="Times,serif" font-size="14.00" fill="#000000">JAX&#45;RPC</text>
</g>
<!-- ejb&#45;&gt;jaxrpc -->
<g id="edge29" class="edge">
<title>ejb&#45;&gt;jaxrpc</title>
<path fill="none" stroke="#000000" stroke-dasharray="5,2" d="M335.3848,-431.7319C341.6793,-452.777 353.4264,-480.7706 374,-497 399.8752,-517.4116 436.3391,-525.049 465.7702,-527.6418"/>
<polygon fill="#000000" stroke="#000000" points="338.7458,-430.7538 332.718,-422.0409 331.9967,-432.6111 338.7458,-430.7538"/>
<polygon fill="#000000" stroke="#000000" points="465.6345,-531.1409 475.8582,-528.3612 466.1325,-524.1587 465.6345,-531.1409"/>
<text text-anchor="middle" x="411.5" y="-528" font-family="Times,serif" font-size="10.00" fill="#000000">integrates with</text>
</g>
<!-- el -->
<g id="node3" class="node">
<title>el</title>
<path fill="none" stroke="#000000" d="M1299,-882C1299,-882 1152,-882 1152,-882 1146,-882 1140,-876 1140,-870 1140,-870 1140,-858 1140,-858 1140,-852 1146,-846 1152,-846 1152,-846 1299,-846 1299,-846 1305,-846 1311,-852 1311,-858 1311,-858 1311,-870 1311,-870 1311,-876 1305,-882 1299,-882"/>
<text text-anchor="middle" x="1225.5" y="-860.3" font-family="Times,serif" font-size="14.00" fill="#000000">Expression Language</text>
</g>
<!-- es -->
<g id="node4" class="node">
<title>es</title>
<path fill="none" stroke="#000000" d="M828,-856C828,-856 694,-856 694,-856 688,-856 682,-850 682,-844 682,-844 682,-832 682,-832 682,-826 688,-820 694,-820 694,-820 828,-820 828,-820 834,-820 840,-826 840,-832 840,-832 840,-844 840,-844 840,-850 834,-856 828,-856"/>
<text text-anchor="middle" x="761" y="-834.3" font-family="Times,serif" font-size="14.00" fill="#000000">Enterprise Security</text>
</g>
<!-- es&#45;&gt;el -->
<g id="edge14" class="edge">
<title>es&#45;&gt;el</title>
<path fill="none" stroke="#000000" d="M840.2049,-843.4513C848.5752,-843.9915 856.9616,-844.5177 865,-845 954.7756,-850.3868 1057.1784,-855.7046 1129.8434,-859.3381"/>
<polygon fill="#000000" stroke="#000000" points="1129.7329,-862.8368 1139.8949,-859.8394 1130.0817,-855.8455 1129.7329,-862.8368"/>
<text text-anchor="middle" x="993" y="-856" font-family="Times,serif" font-size="10.00" fill="#000000">requires</text>
</g>
<!-- jaspic -->
<g id="node9" class="node">
<title>jaspic</title>
<path fill="none" stroke="#000000" d="M1016,-808C1016,-808 970,-808 970,-808 964,-808 958,-802 958,-796 958,-796 958,-784 958,-784 958,-778 964,-772 970,-772 970,-772 1016,-772 1016,-772 1022,-772 1028,-778 1028,-784 1028,-784 1028,-796 1028,-796 1028,-802 1022,-808 1016,-808"/>
<text text-anchor="middle" x="993" y="-786.3" font-family="Times,serif" font-size="14.00" fill="#000000">JASPIC</text>
</g>
<!-- es&#45;&gt;jaspic -->
<g id="edge12" class="edge">
<title>es&#45;&gt;jaspic</title>
<path fill="none" stroke="#000000" d="M840.1382,-833.9834C871.6914,-830.9138 908.0392,-825.509 940,-816 943.6009,-814.9287 947.2572,-813.631 950.8793,-812.1939"/>
<polygon fill="#000000" stroke="#000000" points="952.5268,-815.2952 960.3255,-808.1236 949.7567,-808.8666 952.5268,-815.2952"/>
<text text-anchor="middle" x="902.5" y="-833" font-family="Times,serif" font-size="10.00" fill="#000000">requires</text>
</g>
<!-- cdi -->
<g id="node30" class="node">
<title>cdi</title>
<path fill="none" stroke="#000000" d="M1008,-649C1008,-649 978,-649 978,-649 972,-649 966,-643 966,-637 966,-637 966,-625 966,-625 966,-619 972,-613 978,-613 978,-613 1008,-613 1008,-613 1014,-613 1020,-619 1020,-625 1020,-625 1020,-637 1020,-637 1020,-643 1014,-649 1008,-649"/>
<text text-anchor="middle" x="993" y="-627.3" font-family="Times,serif" font-size="14.00" fill="#000000">CDI</text>
</g>
<!-- es&#45;&gt;cdi -->
<g id="edge13" class="edge">
<title>es&#45;&gt;cdi</title>
<path fill="none" stroke="#000000" d="M821.4438,-819.9817C830.0754,-817.1313 838.802,-814.0971 847,-811 855.1896,-807.906 856.7631,-805.9658 865,-803 897.5684,-791.2731 914.7461,-805.6741 940,-782 974.5681,-749.5943 986.6002,-693.351 990.7812,-659.4122"/>
<polygon fill="#000000" stroke="#000000" points="994.2862,-659.5537 991.8814,-649.2354 987.3268,-658.8012 994.2862,-659.5537"/>
<text text-anchor="middle" x="902.5" y="-806" font-family="Times,serif" font-size="10.00" fill="#000000">requires</text>
</g>
<!-- jacc -->
<g id="node6" class="node">
<title>jacc</title>
<path fill="none" stroke="#000000" d="M111.5,-974C111.5,-974 79.5,-974 79.5,-974 73.5,-974 67.5,-968 67.5,-962 67.5,-962 67.5,-950 67.5,-950 67.5,-944 73.5,-938 79.5,-938 79.5,-938 111.5,-938 111.5,-938 117.5,-938 123.5,-944 123.5,-950 123.5,-950 123.5,-962 123.5,-962 123.5,-968 117.5,-974 111.5,-974"/>
<text text-anchor="middle" x="95.5" y="-952.3" font-family="Times,serif" font-size="14.00" fill="#000000">JACC</text>
</g>
<!-- jaf -->
<g id="node7" class="node">
<title>jaf</title>
<path fill="none" stroke="#000000" d="M1008,-103C1008,-103 978,-103 978,-103 972,-103 966,-97 966,-91 966,-91 966,-79 966,-79 966,-73 972,-67 978,-67 978,-67 1008,-67 1008,-67 1014,-67 1020,-73 1020,-79 1020,-79 1020,-91 1020,-91 1020,-97 1014,-103 1008,-103"/>
<text text-anchor="middle" x="993" y="-81.3" font-family="Times,serif" font-size="14.00" fill="#000000">JAF</text>
</g>
<!-- javamail -->
<g id="node8" class="node">
<title>javamail</title>
<path fill="none" stroke="#000000" d="M788.5,-126C788.5,-126 733.5,-126 733.5,-126 727.5,-126 721.5,-120 721.5,-114 721.5,-114 721.5,-102 721.5,-102 721.5,-96 727.5,-90 733.5,-90 733.5,-90 788.5,-90 788.5,-90 794.5,-90 800.5,-96 800.5,-102 800.5,-102 800.5,-114 800.5,-114 800.5,-120 794.5,-126 788.5,-126"/>
<text text-anchor="middle" x="761" y="-104.3" font-family="Times,serif" font-size="14.00" fill="#000000">JavaMail</text>
</g>
<!-- javamail&#45;&gt;jaf -->
<g id="edge10" class="edge">
<title>javamail&#45;&gt;jaf</title>
<path fill="none" stroke="#000000" d="M800.6186,-104.0723C844.0464,-99.767 913.1856,-92.9126 955.6798,-88.6999"/>
<polygon fill="#000000" stroke="#000000" points="956.2715,-92.1584 965.8774,-87.6889 955.5809,-85.1926 956.2715,-92.1584"/>
<text text-anchor="middle" x="902.5" y="-101" font-family="Times,serif" font-size="10.00" fill="#000000">requires</text>
</g>
<!-- jaxws -->
<g id="node10" class="node">
<title>jaxws</title>
<path fill="none" stroke="#000000" d="M119,-199C119,-199 72,-199 72,-199 66,-199 60,-193 60,-187 60,-187 60,-175 60,-175 60,-169 66,-163 72,-163 72,-163 119,-163 119,-163 125,-163 131,-169 131,-175 131,-175 131,-187 131,-187 131,-193 125,-199 119,-199"/>
<text text-anchor="middle" x="95.5" y="-177.3" font-family="Times,serif" font-size="14.00" fill="#000000">JAX&#45;WS</text>
</g>
<!-- jaxws&#45;&gt;ca -->
<g id="edge21" class="edge">
<title>jaxws&#45;&gt;ca</title>
<path fill="none" stroke="#000000" d="M131.0271,-182.6207C153.4005,-183.6276 182.8877,-184.9294 209,-186 408.0872,-194.1624 459.2201,-178.8042 657,-203 784.5313,-218.6018 814.8888,-232.7621 940,-262 1011.5254,-278.7151 1092.5381,-299.9333 1149.9467,-315.3594"/>
<polygon fill="#000000" stroke="#000000" points="1149.1007,-318.7562 1159.6668,-317.9765 1150.9206,-311.9969 1149.1007,-318.7562"/>
<text text-anchor="middle" x="619.5" y="-206" font-family="Times,serif" font-size="10.00" fill="#000000">requires</text>
</g>
<!-- jaxws&#45;&gt;ejb -->
<g id="edge36" class="edge">
<title>jaxws&#45;&gt;ejb</title>
<path fill="none" stroke="#000000" stroke-dasharray="5,2" d="M114.6083,-199.249C156.188,-238.959 254.9489,-333.2788 302.5072,-378.6985"/>
<polygon fill="#000000" stroke="#000000" points="300.306,-381.4361 309.9552,-385.8116 305.1407,-376.3738 300.306,-381.4361"/>
<text text-anchor="middle" x="246.5" y="-358" font-family="Times,serif" font-size="10.00" fill="#000000">integrates with</text>
</g>
<!-- jaxws&#45;&gt;jaf -->
<g id="edge11" class="edge">
<title>jaxws&#45;&gt;jaf</title>
<path fill="none" stroke="#000000" d="M115.0091,-162.9265C153.0639,-129.6366 241.1867,-62 329,-62 329,-62 329,-62 761,-62 830.0925,-62 910.1971,-72.2266 955.9071,-79.0414"/>
<polygon fill="#000000" stroke="#000000" points="955.529,-82.524 965.9412,-80.5654 956.5801,-75.6034 955.529,-82.524"/>
<text text-anchor="middle" x="515.5" y="-65" font-family="Times,serif" font-size="10.00" fill="#000000">requires</text>
</g>
<!-- jaxb -->
<g id="node12" class="node">
<title>jaxb</title>
<path fill="none" stroke="#000000" d="M776,-180C776,-180 746,-180 746,-180 740,-180 734,-174 734,-168 734,-168 734,-156 734,-156 734,-150 740,-144 746,-144 746,-144 776,-144 776,-144 782,-144 788,-150 788,-156 788,-156 788,-168 788,-168 788,-174 782,-180 776,-180"/>
<text text-anchor="middle" x="761" y="-158.3" font-family="Times,serif" font-size="14.00" fill="#000000">JAXB</text>
</g>
<!-- jaxws&#45;&gt;jaxb -->
<g id="edge23" class="edge">
<title>jaxws&#45;&gt;jaxb</title>
<path fill="none" stroke="#000000" d="M131.2802,-179.9785C246.3454,-176.6934 606.1861,-166.4199 723.5645,-163.0688"/>
<polygon fill="#000000" stroke="#000000" points="723.9379,-166.5596 733.8339,-162.7756 723.7381,-159.5625 723.9379,-166.5596"/>
<text text-anchor="middle" x="411.5" y="-177" font-family="Times,serif" font-size="10.00" fill="#000000">requires</text>
</g>
<!-- servlet -->
<g id="node26" class="node">
<title>servlet</title>
<path fill="none" stroke="#000000" d="M787,-802C787,-802 735,-802 735,-802 729,-802 723,-796 723,-790 723,-790 723,-778 723,-778 723,-772 729,-766 735,-766 735,-766 787,-766 787,-766 793,-766 799,-772 799,-778 799,-778 799,-790 799,-790 799,-796 793,-802 787,-802"/>
<text text-anchor="middle" x="761" y="-780.3" font-family="Times,serif" font-size="14.00" fill="#000000">Servlets</text>
</g>
<!-- jaxws&#45;&gt;servlet -->
<g id="edge37" class="edge">
<title>jaxws&#45;&gt;servlet</title>
<path fill="none" stroke="#000000" stroke-dasharray="5,2" d="M96.8091,-199.0184C101.6639,-253.4784 123.0946,-418.5934 209,-516 281.3068,-597.9875 592.4462,-720.7611 713.0118,-766.233"/>
<polygon fill="#000000" stroke="#000000" points="712.1265,-769.6393 722.7186,-769.8821 714.5898,-763.087 712.1265,-769.6393"/>
<text text-anchor="middle" x="411.5" y="-660" font-family="Times,serif" font-size="10.00" fill="#000000">integrates with</text>
</g>
<!-- saaj -->
<g id="node29" class="node">
<title>saaj</title>
<path fill="none" stroke="#000000" d="M426.5,-36C426.5,-36 396.5,-36 396.5,-36 390.5,-36 384.5,-30 384.5,-24 384.5,-24 384.5,-12 384.5,-12 384.5,-6 390.5,0 396.5,0 396.5,0 426.5,0 426.5,0 432.5,0 438.5,-6 438.5,-12 438.5,-12 438.5,-24 438.5,-24 438.5,-30 432.5,-36 426.5,-36"/>
<text text-anchor="middle" x="411.5" y="-14.3" font-family="Times,serif" font-size="14.00" fill="#000000">SAAJ</text>
</g>
<!-- jaxws&#45;&gt;saaj -->
<g id="edge22" class="edge">
<title>jaxws&#45;&gt;saaj</title>
<path fill="none" stroke="#000000" d="M103.6495,-162.9865C119.088,-131.2293 155.8773,-65.9125 209,-37 260.8938,-8.7564 331.4578,-9.316 374.1182,-13.0928"/>
<polygon fill="#000000" stroke="#000000" points="374.0377,-16.6019 384.3345,-14.1068 374.7291,-9.6362 374.0377,-16.6019"/>
<text text-anchor="middle" x="246.5" y="-40" font-family="Times,serif" font-size="10.00" fill="#000000">requires</text>
</g>
<!-- jws -->
<g id="node11" class="node">
<title>jws</title>
<path fill="none" stroke="#000000" d="M110.5,-1028C110.5,-1028 80.5,-1028 80.5,-1028 74.5,-1028 68.5,-1022 68.5,-1016 68.5,-1016 68.5,-1004 68.5,-1004 68.5,-998 74.5,-992 80.5,-992 80.5,-992 110.5,-992 110.5,-992 116.5,-992 122.5,-998 122.5,-1004 122.5,-1004 122.5,-1016 122.5,-1016 122.5,-1022 116.5,-1028 110.5,-1028"/>
<text text-anchor="middle" x="95.5" y="-1006.3" font-family="Times,serif" font-size="14.00" fill="#000000">JWS</text>
</g>
<!-- jaxb&#45;&gt;jaf -->
<g id="edge24" class="edge">
<title>jaxb&#45;&gt;jaf</title>
<path fill="none" stroke="#000000" d="M788.2843,-156.4848C823.9086,-148.8454 887.8668,-133.6183 940,-113 945.5175,-110.8179 951.2063,-108.2188 956.7164,-105.4969"/>
<polygon fill="#000000" stroke="#000000" points="958.4631,-108.5344 965.7589,-100.8518 955.2646,-102.3079 958.4631,-108.5344"/>
<text text-anchor="middle" x="902.5" y="-140" font-family="Times,serif" font-size="10.00" fill="#000000">requires</text>
</g>
<!-- jaxrs&#45;&gt;ca -->
<g id="edge19" class="edge">
<title>jaxrs&#45;&gt;ca</title>
<path fill="none" stroke="#000000" d="M548.1524,-417.9405C558.8803,-412.11 570.8998,-405.6864 582,-400 622.8675,-379.0645 630.4266,-366.0299 675,-355 830.5089,-316.5187 1018.2237,-320.2639 1129.4047,-327.4496"/>
<polygon fill="#000000" stroke="#000000" points="1129.3789,-330.9557 1139.5904,-328.1315 1129.8465,-323.9713 1129.3789,-330.9557"/>
<text text-anchor="middle" x="902.5" y="-329" font-family="Times,serif" font-size="10.00" fill="#000000">requires</text>
</g>
<!-- jaxrs&#45;&gt;jaxb -->
<g id="edge20" class="edge">
<title>jaxrs&#45;&gt;jaxb</title>
<path fill="none" stroke="#000000" d="M549.6216,-422.4918C555.1944,-418.8835 560.3346,-414.4322 564,-409 600.0763,-355.5351 546.3035,-318.7193 582,-265 590.8782,-251.6393 674.8241,-206.6209 724.5413,-180.7374"/>
<polygon fill="#000000" stroke="#000000" points="726.4347,-183.6981 733.6982,-175.9849 723.21,-177.485 726.4347,-183.6981"/>
<text text-anchor="middle" x="619.5" y="-268" font-family="Times,serif" font-size="10.00" fill="#000000">requires</text>
</g>
<!-- jsonb -->
<g id="node17" class="node">
<title>jsonb</title>
<path fill="none" stroke="#000000" d="M785,-508C785,-508 737,-508 737,-508 731,-508 725,-502 725,-496 725,-496 725,-484 725,-484 725,-478 731,-472 737,-472 737,-472 785,-472 785,-472 791,-472 797,-478 797,-484 797,-484 797,-496 797,-496 797,-502 791,-508 785,-508"/>
<text text-anchor="middle" x="761" y="-486.3" font-family="Times,serif" font-size="14.00" fill="#000000">JSON&#45;B</text>
</g>
<!-- jaxrs&#45;&gt;jsonb -->
<g id="edge34" class="edge">
<title>jaxrs&#45;&gt;jsonb</title>
<path fill="none" stroke="#000000" stroke-dasharray="5,2" d="M549.6614,-443.756C560.0431,-446.0995 571.4853,-448.6687 582,-451 627.0773,-460.9944 678.5913,-472.1949 714.7466,-480.0198"/>
<polygon fill="#000000" stroke="#000000" points="714.4696,-483.5407 724.9835,-482.2339 715.9495,-476.6989 714.4696,-483.5407"/>
<text text-anchor="middle" x="619.5" y="-470" font-family="Times,serif" font-size="10.00" fill="#000000">integrates with</text>
</g>
<!-- jsonp -->
<g id="node18" class="node">
<title>jsonp</title>
<path fill="none" stroke="#000000" d="M784.5,-454C784.5,-454 737.5,-454 737.5,-454 731.5,-454 725.5,-448 725.5,-442 725.5,-442 725.5,-430 725.5,-430 725.5,-424 731.5,-418 737.5,-418 737.5,-418 784.5,-418 784.5,-418 790.5,-418 796.5,-424 796.5,-430 796.5,-430 796.5,-442 796.5,-442 796.5,-448 790.5,-454 784.5,-454"/>
<text text-anchor="middle" x="761" y="-432.3" font-family="Times,serif" font-size="14.00" fill="#000000">JSON&#45;P</text>
</g>
<!-- jaxrs&#45;&gt;jsonp -->
<g id="edge33" class="edge">
<title>jaxrs&#45;&gt;jsonp</title>
<path fill="none" stroke="#000000" stroke-dasharray="5,2" d="M549.6357,-436C592.7192,-436 666.9882,-436 715.033,-436"/>
<polygon fill="#000000" stroke="#000000" points="715.1626,-439.5001 725.1626,-436 715.1626,-432.5001 715.1626,-439.5001"/>
<text text-anchor="middle" x="619.5" y="-439" font-family="Times,serif" font-size="10.00" fill="#000000">integrates with</text>
</g>
<!-- jaxrs&#45;&gt;servlet -->
<g id="edge30" class="edge">
<title>jaxrs&#45;&gt;servlet</title>
<path fill="none" stroke="#000000" stroke-dasharray="5,2" d="M532.9848,-454.0273C543.7735,-466.2673 556.8711,-483.3796 564,-501 587.5286,-559.155 541.5589,-593.0404 582,-641 604.4757,-667.6542 632.1166,-639.5782 657,-664 675.3564,-682.0159 660.057,-698.0659 675,-719 686.6514,-735.3229 703.6167,-749.3695 719.4059,-760.1855"/>
<polygon fill="#000000" stroke="#000000" points="717.7389,-763.2785 728.0154,-765.856 721.5892,-757.4325 717.7389,-763.2785"/>
<text text-anchor="middle" x="619.5" y="-667" font-family="Times,serif" font-size="10.00" fill="#000000">integrates with</text>
</g>
<!-- jaxrs&#45;&gt;cdi -->
<g id="edge31" class="edge">
<title>jaxrs&#45;&gt;cdi</title>
<path fill="none" stroke="#000000" stroke-dasharray="5,2" d="M549.5785,-449.6592C554.6504,-452.3878 559.634,-455.5069 564,-459 574.1357,-467.1093 571.5371,-474.3175 582,-482 680.2831,-554.1651 732.3979,-511.3622 847,-553 886.3616,-567.3011 928.2209,-590.596 956.9791,-608.0111"/>
<polygon fill="#000000" stroke="#000000" points="955.4812,-611.1981 965.8361,-613.4399 959.1393,-605.2299 955.4812,-611.1981"/>
<text text-anchor="middle" x="761" y="-556" font-family="Times,serif" font-size="10.00" fill="#000000">integrates with</text>
</g>
<!-- bv -->
<g id="node32" class="node">
<title>bv</title>
<path fill="none" stroke="#000000" d="M813,-609C813,-609 709,-609 709,-609 703,-609 697,-603 697,-597 697,-597 697,-585 697,-585 697,-579 703,-573 709,-573 709,-573 813,-573 813,-573 819,-573 825,-579 825,-585 825,-585 825,-597 825,-597 825,-603 819,-609 813,-609"/>
<text text-anchor="middle" x="761" y="-587.3" font-family="Times,serif" font-size="14.00" fill="#000000">Bean Validation</text>
</g>
<!-- jaxrs&#45;&gt;bv -->
<g id="edge32" class="edge">
<title>jaxrs&#45;&gt;bv</title>
<path fill="none" stroke="#000000" stroke-dasharray="5,2" d="M549.8472,-453.5887C555.2575,-457.6746 560.2821,-462.4769 564,-468 586.7792,-501.8394 552.9389,-529.374 582,-558 596.9018,-572.6787 644.2609,-581.0008 686.5225,-585.6152"/>
<polygon fill="#000000" stroke="#000000" points="686.2619,-589.1069 696.5691,-586.6549 686.9825,-582.1441 686.2619,-589.1069"/>
<text text-anchor="middle" x="619.5" y="-584" font-family="Times,serif" font-size="10.00" fill="#000000">integrates with</text>
</g>
<!-- cu -->
<g id="node34" class="node">
<title>cu</title>
<path fill="none" stroke="#000000" d="M835,-400C835,-400 687,-400 687,-400 681,-400 675,-394 675,-388 675,-388 675,-376 675,-376 675,-370 681,-364 687,-364 687,-364 835,-364 835,-364 841,-364 847,-370 847,-376 847,-376 847,-388 847,-388 847,-394 841,-400 835,-400"/>
<text text-anchor="middle" x="761" y="-378.3" font-family="Times,serif" font-size="14.00" fill="#000000">Concurrency Utilities</text>
</g>
<!-- jaxrs&#45;&gt;cu -->
<g id="edge35" class="edge">
<title>jaxrs&#45;&gt;cu</title>
<path fill="none" stroke="#000000" stroke-dasharray="5,2" d="M549.6614,-428.244C560.0431,-425.9005 571.4853,-423.3313 582,-421 609.7934,-414.8377 640.0338,-408.2169 667.6125,-402.2116"/>
<polygon fill="#000000" stroke="#000000" points="668.616,-405.5752 677.6431,-400.0289 667.1276,-398.7352 668.616,-405.5752"/>
<text text-anchor="middle" x="619.5" y="-424" font-family="Times,serif" font-size="10.00" fill="#000000">integrates with</text>
</g>
<!-- jca -->
<g id="node14" class="node">
<title>jca</title>
<path fill="none" stroke="#000000" d="M110.5,-617C110.5,-617 80.5,-617 80.5,-617 74.5,-617 68.5,-611 68.5,-605 68.5,-605 68.5,-593 68.5,-593 68.5,-587 74.5,-581 80.5,-581 80.5,-581 110.5,-581 110.5,-581 116.5,-581 122.5,-587 122.5,-593 122.5,-593 122.5,-605 122.5,-605 122.5,-611 116.5,-617 110.5,-617"/>
<text text-anchor="middle" x="95.5" y="-595.3" font-family="Times,serif" font-size="14.00" fill="#000000">JCA</text>
</g>
<!-- jca&#45;&gt;ejb -->
<g id="edge38" class="edge">
<title>jca&#45;&gt;ejb</title>
<path fill="none" stroke="#000000" stroke-dasharray="5,2" d="M125.2723,-574.1366C170.1425,-536.6647 254.5998,-466.1329 299.3801,-428.7361"/>
<polygon fill="#000000" stroke="#000000" points="122.8991,-571.5585 117.4671,-580.6549 127.3861,-576.9313 122.8991,-571.5585"/>
<polygon fill="#000000" stroke="#000000" points="301.8294,-431.2507 307.2614,-422.1543 297.3424,-425.8779 301.8294,-431.2507"/>
<text text-anchor="middle" x="246.5" y="-504" font-family="Times,serif" font-size="10.00" fill="#000000">integrates with</text>
</g>
<!-- jca&#45;&gt;cdi -->
<g id="edge39" class="edge">
<title>jca&#45;&gt;cdi</title>
<path fill="none" stroke="#000000" stroke-dasharray="5,2" d="M111.6415,-617.1718C146.9921,-654.8494 235.589,-738 329,-738 329,-738 329,-738 619.5,-738 763.4041,-738 818.7699,-769.5349 940,-692 953.7901,-683.1803 966.0196,-669.7284 975.2465,-657.6991"/>
<polygon fill="#000000" stroke="#000000" points="978.3291,-659.4136 981.4138,-649.2778 972.6816,-655.2777 978.3291,-659.4136"/>
<text text-anchor="middle" x="515.5" y="-741" font-family="Times,serif" font-size="10.00" fill="#000000">integrates with</text>
</g>
<!-- jpa -->
<g id="node16" class="node">
<title>jpa</title>
<path fill="none" stroke="#000000" d="M776,-710C776,-710 746,-710 746,-710 740,-710 734,-704 734,-698 734,-698 734,-686 734,-686 734,-680 740,-674 746,-674 746,-674 776,-674 776,-674 782,-674 788,-680 788,-686 788,-686 788,-698 788,-698 788,-704 782,-710 776,-710"/>
<text text-anchor="middle" x="761" y="-688.3" font-family="Times,serif" font-size="14.00" fill="#000000">JPA</text>
</g>
<!-- jpa&#45;&gt;cdi -->
<g id="edge40" class="edge">
<title>jpa&#45;&gt;cdi</title>
<path fill="none" stroke="#000000" stroke-dasharray="5,2" d="M788.036,-689.5948C823.6627,-685.8485 887.9082,-677.0859 940,-659 945.6051,-657.0539 951.3425,-654.5858 956.8752,-651.9248"/>
<polygon fill="#000000" stroke="#000000" points="958.6037,-654.9724 965.9335,-647.3223 955.4329,-648.7318 958.6037,-654.9724"/>
<text text-anchor="middle" x="902.5" y="-680" font-family="Times,serif" font-size="10.00" fill="#000000">integrates with</text>
</g>
<!-- jsonb&#45;&gt;cdi -->
<g id="edge42" class="edge">
<title>jsonb&#45;&gt;cdi</title>
<path fill="none" stroke="#000000" stroke-dasharray="5,2" d="M797.0358,-486.5544C836.123,-484.7595 898.482,-487.783 940,-519 967.0499,-539.3386 980.8693,-576.978 987.5039,-602.9727"/>
<polygon fill="#000000" stroke="#000000" points="984.1599,-604.0429 989.8528,-612.9783 990.9746,-602.443 984.1599,-604.0429"/>
<text text-anchor="middle" x="902.5" y="-522" font-family="Times,serif" font-size="10.00" fill="#000000">integrates with</text>
</g>
<!-- jsf -->
<g id="node19" class="node">
<title>jsf</title>
<path fill="none" stroke="#000000" d="M110.5,-920C110.5,-920 80.5,-920 80.5,-920 74.5,-920 68.5,-914 68.5,-908 68.5,-908 68.5,-896 68.5,-896 68.5,-890 74.5,-884 80.5,-884 80.5,-884 110.5,-884 110.5,-884 116.5,-884 122.5,-890 122.5,-896 122.5,-896 122.5,-908 122.5,-908 122.5,-914 116.5,-920 110.5,-920"/>
<text text-anchor="middle" x="95.5" y="-898.3" font-family="Times,serif" font-size="14.00" fill="#000000">JSF</text>
</g>
<!-- jsf&#45;&gt;el -->
<g id="edge5" class="edge">
<title>jsf&#45;&gt;el</title>
<path fill="none" stroke="#000000" d="M122.5753,-909.5196C165.8353,-920.8525 253.3765,-941 329,-941 329,-941 329,-941 993,-941 1062.814,-941 1138.7135,-909.3265 1184.175,-886.6078"/>
<polygon fill="#000000" stroke="#000000" points="1185.8006,-889.7078 1193.1256,-882.0531 1182.6258,-883.4691 1185.8006,-889.7078"/>
<text text-anchor="middle" x="619.5" y="-944" font-family="Times,serif" font-size="10.00" fill="#000000">requires</text>
</g>
<!-- jsp -->
<g id="node20" class="node">
<title>jsp</title>
<path fill="none" stroke="#000000" d="M530.5,-904C530.5,-904 500.5,-904 500.5,-904 494.5,-904 488.5,-898 488.5,-892 488.5,-892 488.5,-880 488.5,-880 488.5,-874 494.5,-868 500.5,-868 500.5,-868 530.5,-868 530.5,-868 536.5,-868 542.5,-874 542.5,-880 542.5,-880 542.5,-892 542.5,-892 542.5,-898 536.5,-904 530.5,-904"/>
<text text-anchor="middle" x="515.5" y="-882.3" font-family="Times,serif" font-size="14.00" fill="#000000">JSP</text>
</g>
<!-- jsf&#45;&gt;jsp -->
<g id="edge4" class="edge">
<title>jsf&#45;&gt;jsp</title>
<path fill="none" stroke="#000000" d="M122.7338,-900.9625C195.6,-898.1867 395.1212,-890.5859 478.3113,-887.4167"/>
<polygon fill="#000000" stroke="#000000" points="478.4685,-890.9134 488.328,-887.0351 478.202,-883.9184 478.4685,-890.9134"/>
<text text-anchor="middle" x="329" y="-897" font-family="Times,serif" font-size="10.00" fill="#000000">requires</text>
</g>
<!-- jstl -->
<g id="node21" class="node">
<title>jstl</title>
<path fill="none" stroke="#000000" d="M344,-866C344,-866 314,-866 314,-866 308,-866 302,-860 302,-854 302,-854 302,-842 302,-842 302,-836 308,-830 314,-830 314,-830 344,-830 344,-830 350,-830 356,-836 356,-842 356,-842 356,-854 356,-854 356,-860 350,-866 344,-866"/>
<text text-anchor="middle" x="329" y="-844.3" font-family="Times,serif" font-size="14.00" fill="#000000">JSTL</text>
</g>
<!-- jsf&#45;&gt;jstl -->
<g id="edge6" class="edge">
<title>jsf&#45;&gt;jstl</title>
<path fill="none" stroke="#000000" d="M122.7424,-895.6998C164.6597,-886.0059 245.0482,-867.415 292.1328,-856.526"/>
<polygon fill="#000000" stroke="#000000" points="292.9769,-859.9233 301.9311,-854.26 291.3996,-853.1033 292.9769,-859.9233"/>
<text text-anchor="middle" x="246.5" y="-878" font-family="Times,serif" font-size="10.00" fill="#000000">requires</text>
</g>
<!-- jsp&#45;&gt;el -->
<g id="edge9" class="edge">
<title>jsp&#45;&gt;el</title>
<path fill="none" stroke="#000000" d="M542.672,-885.7346C627.9336,-884.8143 897.7828,-881.2365 1121,-871 1123.8949,-870.8672 1126.8343,-870.7239 1129.8016,-870.5718"/>
<polygon fill="#000000" stroke="#000000" points="1130.1759,-874.0568 1139.973,-870.0234 1129.799,-867.0669 1130.1759,-874.0568"/>
<text text-anchor="middle" x="902.5" y="-882" font-family="Times,serif" font-size="10.00" fill="#000000">requires</text>
</g>
<!-- jsp&#45;&gt;servlet -->
<g id="edge8" class="edge">
<title>jsp&#45;&gt;servlet</title>
<path fill="none" stroke="#000000" d="M542.6671,-871.8411C574.0217,-855.8272 627.3916,-829.5683 675,-811 687.1943,-806.2439 700.6006,-801.7135 713.1252,-797.769"/>
<polygon fill="#000000" stroke="#000000" points="714.4184,-801.0328 722.9406,-794.7381 712.3531,-794.3444 714.4184,-801.0328"/>
<text text-anchor="middle" x="619.5" y="-854" font-family="Times,serif" font-size="10.00" fill="#000000">requires</text>
</g>
<!-- jstl&#45;&gt;jsp -->
<g id="edge7" class="edge">
<title>jstl&#45;&gt;jsp</title>
<path fill="none" stroke="#000000" d="M356.1187,-853.5255C388.301,-860.0828 442.1343,-871.0515 478.2192,-878.4039"/>
<polygon fill="#000000" stroke="#000000" points="477.8511,-881.9008 488.3486,-880.4678 479.2487,-875.0417 477.8511,-881.9008"/>
<text text-anchor="middle" x="411.5" y="-874" font-family="Times,serif" font-size="10.00" fill="#000000">requires</text>
</g>
<!-- jta&#45;&gt;cdi -->
<g id="edge43" class="edge">
<title>jta&#45;&gt;cdi</title>
<path fill="none" stroke="#000000" stroke-dasharray="5,2" d="M646.7376,-623.3247C692.0263,-625.4542 785.684,-629.5466 865,-631 895.3282,-631.5557 929.7054,-631.5188 955.1911,-631.3633"/>
<polygon fill="#000000" stroke="#000000" points="955.5564,-634.8609 965.5315,-631.2907 955.5072,-627.8611 955.5564,-634.8609"/>
<text text-anchor="middle" x="761" y="-633" font-family="Times,serif" font-size="10.00" fill="#000000">integrates with</text>
</g>
<!-- deployment -->
<g id="node23" class="node">
<title>deployment</title>
<path fill="none" stroke="#000000" d="M175.5,-1082C175.5,-1082 15.5,-1082 15.5,-1082 9.5,-1082 3.5,-1076 3.5,-1070 3.5,-1070 3.5,-1058 3.5,-1058 3.5,-1052 9.5,-1046 15.5,-1046 15.5,-1046 175.5,-1046 175.5,-1046 181.5,-1046 187.5,-1052 187.5,-1058 187.5,-1058 187.5,-1070 187.5,-1070 187.5,-1076 181.5,-1082 175.5,-1082"/>
<text text-anchor="middle" x="95.5" y="-1060.3" font-family="Times,serif" font-size="14.00" fill="#000000">Enterprise Deployment</text>
</g>
<!-- management -->
<g id="node24" class="node">
<title>management</title>
<path fill="none" stroke="#000000" d="M179,-1136C179,-1136 12,-1136 12,-1136 6,-1136 0,-1130 0,-1124 0,-1124 0,-1112 0,-1112 0,-1106 6,-1100 12,-1100 12,-1100 179,-1100 179,-1100 185,-1100 191,-1106 191,-1112 191,-1112 191,-1124 191,-1124 191,-1130 185,-1136 179,-1136"/>
<text text-anchor="middle" x="95.5" y="-1114.3" font-family="Times,serif" font-size="14.00" fill="#000000">Enterprise Management</text>
</g>
<!-- jaxr -->
<g id="node25" class="node">
<title>jaxr</title>
<path fill="none" stroke="#000000" d="M110.5,-1190C110.5,-1190 80.5,-1190 80.5,-1190 74.5,-1190 68.5,-1184 68.5,-1178 68.5,-1178 68.5,-1166 68.5,-1166 68.5,-1160 74.5,-1154 80.5,-1154 80.5,-1154 110.5,-1154 110.5,-1154 116.5,-1154 122.5,-1160 122.5,-1166 122.5,-1166 122.5,-1178 122.5,-1178 122.5,-1184 116.5,-1190 110.5,-1190"/>
<text text-anchor="middle" x="95.5" y="-1168.3" font-family="Times,serif" font-size="14.00" fill="#000000">JAXR</text>
</g>
<!-- servlet&#45;&gt;jaspic -->
<g id="edge44" class="edge">
<title>servlet&#45;&gt;jaspic</title>
<path fill="none" stroke="#000000" stroke-dasharray="5,2" d="M799.3298,-775.8503C835.7584,-769.3667 891.9578,-762.6489 940,-771 942.6619,-771.4627 945.3668,-772.047 948.0745,-772.7212"/>
<polygon fill="#000000" stroke="#000000" points="947.2426,-776.1235 957.8191,-775.4997 949.1621,-769.3918 947.2426,-776.1235"/>
<text text-anchor="middle" x="902.5" y="-774" font-family="Times,serif" font-size="10.00" fill="#000000">integrates with</text>
</g>
<!-- websocket -->
<g id="node27" class="node">
<title>websocket</title>
<path fill="none" stroke="#000000" d="M552,-803C552,-803 479,-803 479,-803 473,-803 467,-797 467,-791 467,-791 467,-779 467,-779 467,-773 473,-767 479,-767 479,-767 552,-767 552,-767 558,-767 564,-773 564,-779 564,-779 564,-791 564,-791 564,-797 558,-803 552,-803"/>
<text text-anchor="middle" x="515.5" y="-781.3" font-family="Times,serif" font-size="14.00" fill="#000000">WebSocket</text>
</g>
<!-- websocket&#45;&gt;servlet -->
<g id="edge45" class="edge">
<title>websocket&#45;&gt;servlet</title>
<path fill="none" stroke="#000000" stroke-dasharray="5,2" d="M564.0029,-784.8024C606.9914,-784.6273 669.4405,-784.373 712.4448,-784.1978"/>
<polygon fill="#000000" stroke="#000000" points="712.6782,-787.697 722.6638,-784.1562 712.6496,-780.697 712.6782,-787.697"/>
<text text-anchor="middle" x="619.5" y="-787" font-family="Times,serif" font-size="10.00" fill="#000000">integrates with</text>
</g>
<!-- saaj&#45;&gt;jaf -->
<g id="edge25" class="edge">
<title>saaj&#45;&gt;jaf</title>
<path fill="none" stroke="#000000" d="M438.6085,-14.4789C518.2523,-5.1843 757.3974,15.1752 940,-48 948.537,-50.9536 956.9458,-55.7082 964.4627,-60.8392"/>
<polygon fill="#000000" stroke="#000000" points="962.6914,-63.8795 972.8316,-66.95 966.8194,-58.2262 962.6914,-63.8795"/>
<text text-anchor="middle" x="619.5" y="-8" font-family="Times,serif" font-size="10.00" fill="#000000">requires</text>
</g>
<!-- cdi&#45;&gt;ca -->
<g id="edge18" class="edge">
<title>cdi&#45;&gt;ca</title>
<path fill="none" stroke="#000000" d="M1001.6868,-612.9859C1011.3963,-593.5359 1028.1183,-561.9854 1046,-537 1094.5532,-469.1586 1162.5568,-398.3057 1199.3576,-361.5519"/>
<polygon fill="#000000" stroke="#000000" points="1202.0905,-363.7705 1206.7186,-354.24 1197.1573,-358.8042 1202.0905,-363.7705"/>
<text text-anchor="middle" x="1083.5" y="-540" font-family="Times,serif" font-size="10.00" fill="#000000">requires</text>
</g>
<!-- cdi&#45;&gt;ejb -->
<g id="edge26" class="edge">
<title>cdi&#45;&gt;ejb</title>
<path fill="none" stroke="#000000" stroke-dasharray="5,2" d="M990.242,-602.4664C982.8464,-528.908 961.6609,-337.2916 940,-319 859.4601,-250.9878 570.6853,-335.9815 467,-355 424.786,-362.7431 413.9741,-365.378 374,-381 371.15,-382.1138 368.2414,-383.3509 365.3431,-384.6572"/>
<polygon fill="#000000" stroke="#000000" points="986.7992,-603.2167 991.2702,-612.822 993.765,-602.5251 986.7992,-603.2167"/>
<polygon fill="#000000" stroke="#000000" points="363.7356,-381.5459 356.2048,-388.9983 366.7393,-387.8687 363.7356,-381.5459"/>
<text text-anchor="middle" x="619.5" y="-332" font-family="Times,serif" font-size="10.00" fill="#000000">integrates with</text>
</g>
<!-- cdi&#45;&gt;el -->
<g id="edge17" class="edge">
<title>cdi&#45;&gt;el</title>
<path fill="none" stroke="#000000" d="M1017.8128,-649.0062C1044.5399,-668.923 1087.7077,-702.6297 1121,-736 1153.5433,-768.6195 1186.3864,-810.6938 1206.3426,-837.5184"/>
<polygon fill="#000000" stroke="#000000" points="1203.5977,-839.6933 1212.3524,-845.6605 1209.2297,-835.5362 1203.5977,-839.6933"/>
<text text-anchor="middle" x="1083.5" y="-739" font-family="Times,serif" font-size="10.00" fill="#000000">requires</text>
</g>
<!-- cdi&#45;&gt;el -->
<g id="edge27" class="edge">
<title>cdi&#45;&gt;el</title>
<path fill="none" stroke="#000000" stroke-dasharray="5,2" d="M997.8433,-649.2528C1005.0576,-673.7153 1020.5734,-717.4694 1046,-747 1081.8401,-788.6247 1136.055,-821.1571 1175.5233,-841.2375"/>
<polygon fill="#000000" stroke="#000000" points="1174.2038,-844.4906 1184.7143,-845.8251 1177.3301,-838.2275 1174.2038,-844.4906"/>
<text text-anchor="middle" x="1083.5" y="-810" font-family="Times,serif" font-size="10.00" fill="#000000">integrates with</text>
</g>
<!-- cdi&#45;&gt;interceptors -->
<g id="edge16" class="edge">
<title>cdi&#45;&gt;interceptors</title>
<path fill="none" stroke="#000000" d="M1020.1257,-613.7329C1061.7634,-587.228 1141.5238,-536.4558 1188.4527,-506.5828"/>
<polygon fill="#000000" stroke="#000000" points="1190.5418,-509.402 1197.0982,-501.0794 1186.7828,-503.4969 1190.5418,-509.402"/>
<text text-anchor="middle" x="1083.5" y="-598" font-family="Times,serif" font-size="10.00" fill="#000000">requires</text>
</g>
<!-- di -->
<g id="node31" class="node">
<title>di</title>
<path fill="none" stroke="#000000" d="M1300,-649C1300,-649 1151,-649 1151,-649 1145,-649 1139,-643 1139,-637 1139,-637 1139,-625 1139,-625 1139,-619 1145,-613 1151,-613 1151,-613 1300,-613 1300,-613 1306,-613 1312,-619 1312,-625 1312,-625 1312,-637 1312,-637 1312,-643 1306,-649 1300,-649"/>
<text text-anchor="middle" x="1225.5" y="-627.3" font-family="Times,serif" font-size="14.00" fill="#000000">Dependency Injection</text>
</g>
<!-- cdi&#45;&gt;di -->
<g id="edge15" class="edge">
<title>cdi&#45;&gt;di</title>
<path fill="none" stroke="#000000" d="M1020.1257,-631C1046.8479,-631 1089.2722,-631 1128.6426,-631"/>
<polygon fill="#000000" stroke="#000000" points="1128.8423,-634.5001 1138.8423,-631 1128.8423,-627.5001 1128.8423,-634.5001"/>
<text text-anchor="middle" x="1083.5" y="-634" font-family="Times,serif" font-size="10.00" fill="#000000">requires</text>
</g>
<!-- bv&#45;&gt;cdi -->
<g id="edge41" class="edge">
<title>bv&#45;&gt;cdi</title>
<path fill="none" stroke="#000000" stroke-dasharray="5,2" d="M825.3255,-600.7199C859.46,-606.0547 902.0764,-612.996 940,-620 945.1245,-620.9464 950.5158,-621.999 955.8178,-623.0673"/>
<polygon fill="#000000" stroke="#000000" points="955.3108,-626.5361 965.8102,-625.1172 956.7177,-619.6789 955.3108,-626.5361"/>
<text text-anchor="middle" x="902.5" y="-623" font-family="Times,serif" font-size="10.00" fill="#000000">integrates with</text>
</g>
<!-- batch -->
<g id="node33" class="node">
<title>batch</title>
<path fill="none" stroke="#000000" d="M113,-1244C113,-1244 78,-1244 78,-1244 72,-1244 66,-1238 66,-1232 66,-1232 66,-1220 66,-1220 66,-1214 72,-1208 78,-1208 78,-1208 113,-1208 113,-1208 119,-1208 125,-1214 125,-1220 125,-1220 125,-1232 125,-1232 125,-1238 119,-1244 113,-1244"/>
<text text-anchor="middle" x="95.5" y="-1222.3" font-family="Times,serif" font-size="14.00" fill="#000000">Batch</text>
</g>
</g>
</svg>
