<?xml version="1.0" encoding="UTF-8" standalone="no"?>
<!DOCTYPE svg PUBLIC "-//W3C//DTD SVG 1.1//EN"
 "http://www.w3.org/Graphics/SVG/1.1/DTD/svg11.dtd">
<!-- Generated by graphviz version 2.40.1 (20161225.0304)
 -->
<!-- Title: G Pages: 1 -->
<svg width="1324pt" height="1127pt"
 viewBox="0.00 0.00 1324.00 1127.00" xmlns="http://www.w3.org/2000/svg" xmlns:xlink="http://www.w3.org/1999/xlink">
<g id="graph0" class="graph" transform="scale(1 1) rotate(0) translate(4 1123)">
<title>G</title>
<polygon fill="#ffffff" stroke="transparent" points="-4,4 -4,-1123 1320,-1123 1320,4 -4,4"/>
<!-- ca -->
<g id="node1" class="node">
<title>ca</title>
<path fill="none" stroke="#000000" d="M1303,-817C1303,-817 1156,-817 1156,-817 1150,-817 1144,-811 1144,-805 1144,-805 1144,-793 1144,-793 1144,-787 1150,-781 1156,-781 1156,-781 1303,-781 1303,-781 1309,-781 1315,-787 1315,-793 1315,-793 1315,-805 1315,-805 1315,-811 1309,-817 1303,-817"/>
<text text-anchor="middle" x="1229.5" y="-795.3" font-family="Times,serif" font-size="14.00" fill="#000000">Common Annotations</text>
</g>
<!-- ejb -->
<g id="node2" class="node">
<title>ejb</title>
<path fill="none" stroke="#000000" d="M344,-648C344,-648 314,-648 314,-648 308,-648 302,-642 302,-636 302,-636 302,-624 302,-624 302,-618 308,-612 314,-612 314,-612 344,-612 344,-612 350,-612 356,-618 356,-624 356,-624 356,-636 356,-636 356,-642 350,-648 344,-648"/>
<text text-anchor="middle" x="329" y="-626.3" font-family="Times,serif" font-size="14.00" fill="#000000">EJB</text>
</g>
<!-- interceptors -->
<g id="node5" class="node">
<title>interceptors</title>
<path fill="none" stroke="#000000" d="M1271,-716C1271,-716 1188,-716 1188,-716 1182,-716 1176,-710 1176,-704 1176,-704 1176,-692 1176,-692 1176,-686 1182,-680 1188,-680 1188,-680 1271,-680 1271,-680 1277,-680 1283,-686 1283,-692 1283,-692 1283,-704 1283,-704 1283,-710 1277,-716 1271,-716"/>
<text text-anchor="middle" x="1229.5" y="-694.3" font-family="Times,serif" font-size="14.00" fill="#000000">Interceptors</text>
</g>
<!-- ejb&#45;&gt;interceptors -->
<g id="edge1" class="edge">
<title>ejb&#45;&gt;interceptors</title>
<path fill="none" stroke="#000000" d="M330.4528,-648.2192C334.4569,-693.7074 347.1782,-810.5122 374,-837 378.3945,-841.3398 566.3452,-876.516 582,-878 743.0053,-893.2621 794.0092,-901.4847 944,-841 1033.9125,-804.7423 1134.2157,-751.288 1188.7532,-721.0528"/>
<polygon fill="#000000" stroke="#000000" points="1190.7125,-723.968 1197.748,-716.0464 1187.3081,-717.8516 1190.7125,-723.968"/>
<text text-anchor="middle" x="765" y="-891" font-family="Times,serif" font-size="10.00" fill="#000000">requires</text>
</g>
<!-- jacc -->
<g id="node6" class="node">
<title>jacc</title>
<path fill="none" stroke="#000000" d="M1013,-357C1013,-357 981,-357 981,-357 975,-357 969,-351 969,-345 969,-345 969,-333 969,-333 969,-327 975,-321 981,-321 981,-321 1013,-321 1013,-321 1019,-321 1025,-327 1025,-333 1025,-333 1025,-345 1025,-345 1025,-351 1019,-357 1013,-357"/>
<text text-anchor="middle" x="997" y="-335.3" font-family="Times,serif" font-size="14.00" fill="#000000">JACC</text>
</g>
<!-- ejb&#45;&gt;jacc -->
<g id="edge30" class="edge">
<title>ejb&#45;&gt;jacc</title>
<path fill="none" stroke="#000000" stroke-dasharray="5,2" d="M330.8979,-611.944C335.9466,-566.799 350.917,-450.4599 374,-420 402.2176,-382.7645 422.0058,-383.5792 467,-371 559.5887,-345.1147 853.155,-340.1673 958.7214,-339.2226"/>
<polygon fill="#000000" stroke="#000000" points="958.9462,-342.721 968.917,-339.1388 958.8885,-335.7213 958.9462,-342.721"/>
<text text-anchor="middle" x="621.5" y="-356" font-family="Times,serif" font-size="10.00" fill="#000000">integrates with</text>
</g>
<!-- jaxrs -->
<g id="node13" class="node">
<title>jaxrs</title>
<path fill="none" stroke="#000000" d="M537.5,-648C537.5,-648 493.5,-648 493.5,-648 487.5,-648 481.5,-642 481.5,-636 481.5,-636 481.5,-624 481.5,-624 481.5,-618 487.5,-612 493.5,-612 493.5,-612 537.5,-612 537.5,-612 543.5,-612 549.5,-618 549.5,-624 549.5,-624 549.5,-636 549.5,-636 549.5,-642 543.5,-648 537.5,-648"/>
<text text-anchor="middle" x="515.5" y="-626.3" font-family="Times,serif" font-size="14.00" fill="#000000">JAX&#45;RS</text>
</g>
<!-- ejb&#45;&gt;jaxrs -->
<g id="edge28" class="edge">
<title>ejb&#45;&gt;jaxrs</title>
<path fill="none" stroke="#000000" stroke-dasharray="5,2" d="M366.4433,-630C396.6091,-630 439.1006,-630 471.0017,-630"/>
<polygon fill="#000000" stroke="#000000" points="366.1187,-626.5001 356.1187,-630 366.1187,-633.5001 366.1187,-626.5001"/>
<polygon fill="#000000" stroke="#000000" points="471.3812,-633.5001 481.3812,-630 471.3811,-626.5001 471.3812,-633.5001"/>
<text text-anchor="middle" x="411.5" y="-633" font-family="Times,serif" font-size="10.00" fill="#000000">integrates with</text>
</g>
<!-- jms -->
<g id="node15" class="node">
<title>jms</title>
<path fill="none" stroke="#000000" d="M530.5,-416C530.5,-416 500.5,-416 500.5,-416 494.5,-416 488.5,-410 488.5,-404 488.5,-404 488.5,-392 488.5,-392 488.5,-386 494.5,-380 500.5,-380 500.5,-380 530.5,-380 530.5,-380 536.5,-380 542.5,-386 542.5,-392 542.5,-392 542.5,-404 542.5,-404 542.5,-410 536.5,-416 530.5,-416"/>
<text text-anchor="middle" x="515.5" y="-394.3" font-family="Times,serif" font-size="14.00" fill="#000000">JMS</text>
</g>
<!-- ejb&#45;&gt;jms -->
<g id="edge3" class="edge">
<title>ejb&#45;&gt;jms</title>
<path fill="none" stroke="#000000" d="M330.3322,-611.57C333.3696,-581.3525 343.1424,-520.6734 374,-481 400.9384,-446.3654 446.7006,-423.3573 478.8737,-410.5255"/>
<polygon fill="#000000" stroke="#000000" points="480.3084,-413.7237 488.3863,-406.8683 477.7964,-407.19 480.3084,-413.7237"/>
<text text-anchor="middle" x="411.5" y="-484" font-family="Times,serif" font-size="10.00" fill="#000000">requires</text>
</g>
<!-- jta -->
<g id="node22" class="node">
<title>jta</title>
<path fill="none" stroke="#000000" d="M636.5,-877C636.5,-877 606.5,-877 606.5,-877 600.5,-877 594.5,-871 594.5,-865 594.5,-865 594.5,-853 594.5,-853 594.5,-847 600.5,-841 606.5,-841 606.5,-841 636.5,-841 636.5,-841 642.5,-841 648.5,-847 648.5,-853 648.5,-853 648.5,-865 648.5,-865 648.5,-871 642.5,-877 636.5,-877"/>
<text text-anchor="middle" x="621.5" y="-855.3" font-family="Times,serif" font-size="14.00" fill="#000000">JTA</text>
</g>
<!-- ejb&#45;&gt;jta -->
<g id="edge2" class="edge">
<title>ejb&#45;&gt;jta</title>
<path fill="none" stroke="#000000" d="M332.5007,-648.1725C339.5163,-682.8582 356.1603,-756.6853 374,-775 430.9906,-833.508 530.1984,-851.2675 584.0802,-856.6555"/>
<polygon fill="#000000" stroke="#000000" points="583.9507,-860.1581 594.2262,-857.5766 584.5837,-853.1868 583.9507,-860.1581"/>
<text text-anchor="middle" x="411.5" y="-825" font-family="Times,serif" font-size="10.00" fill="#000000">requires</text>
</g>
<!-- jaxrpc -->
<g id="node28" class="node">
<title>jaxrpc</title>
<path fill="none" stroke="#000000" d="M649,-207C649,-207 594,-207 594,-207 588,-207 582,-201 582,-195 582,-195 582,-183 582,-183 582,-177 588,-171 594,-171 594,-171 649,-171 649,-171 655,-171 661,-177 661,-183 661,-183 661,-195 661,-195 661,-201 655,-207 649,-207"/>
<text text-anchor="middle" x="621.5" y="-185.3" font-family="Times,serif" font-size="14.00" fill="#000000">JAX&#45;RPC</text>
</g>
<!-- ejb&#45;&gt;jaxrpc -->
<g id="edge29" class="edge">
<title>ejb&#45;&gt;jaxrpc</title>
<path fill="none" stroke="#000000" stroke-dasharray="5,2" d="M330.0537,-601.8461C333.0246,-535.4503 343.351,-371.3416 374,-327 421.4655,-258.3289 514.7447,-220.0631 572.251,-202.0656"/>
<polygon fill="#000000" stroke="#000000" points="326.5505,-601.8496 329.6236,-611.9889 333.5442,-602.1461 326.5505,-601.8496"/>
<polygon fill="#000000" stroke="#000000" points="573.3079,-205.4025 581.8564,-199.1436 571.2707,-198.7055 573.3079,-205.4025"/>
<text text-anchor="middle" x="411.5" y="-330" font-family="Times,serif" font-size="10.00" fill="#000000">integrates with</text>
</g>
<!-- el -->
<g id="node3" class="node">
<title>el</title>
<path fill="none" stroke="#000000" d="M1303,-136C1303,-136 1156,-136 1156,-136 1150,-136 1144,-130 1144,-124 1144,-124 1144,-112 1144,-112 1144,-106 1150,-100 1156,-100 1156,-100 1303,-100 1303,-100 1309,-100 1315,-106 1315,-112 1315,-112 1315,-124 1315,-124 1315,-130 1309,-136 1303,-136"/>
<text text-anchor="middle" x="1229.5" y="-114.3" font-family="Times,serif" font-size="14.00" fill="#000000">Expression Language</text>
</g>
<!-- es -->
<g id="node4" class="node">
<title>es</title>
<path fill="none" stroke="#000000" d="M832,-203C832,-203 698,-203 698,-203 692,-203 686,-197 686,-191 686,-191 686,-179 686,-179 686,-173 692,-167 698,-167 698,-167 832,-167 832,-167 838,-167 844,-173 844,-179 844,-179 844,-191 844,-191 844,-197 838,-203 832,-203"/>
<text text-anchor="middle" x="765" y="-181.3" font-family="Times,serif" font-size="14.00" fill="#000000">Enterprise Security</text>
</g>
<!-- es&#45;&gt;el -->
<g id="edge14" class="edge">
<title>es&#45;&gt;el</title>
<path fill="none" stroke="#000000" d="M844.0592,-173.5964C924.1488,-162.0442 1048.1096,-144.164 1133.7245,-131.8148"/>
<polygon fill="#000000" stroke="#000000" points="1134.3106,-135.2665 1143.7085,-130.3747 1133.3112,-128.3382 1134.3106,-135.2665"/>
<text text-anchor="middle" x="997" y="-158" font-family="Times,serif" font-size="10.00" fill="#000000">requires</text>
</g>
<!-- jaspic -->
<g id="node9" class="node">
<title>jaspic</title>
<path fill="none" stroke="#000000" d="M1020,-230C1020,-230 974,-230 974,-230 968,-230 962,-224 962,-218 962,-218 962,-206 962,-206 962,-200 968,-194 974,-194 974,-194 1020,-194 1020,-194 1026,-194 1032,-200 1032,-206 1032,-206 1032,-218 1032,-218 1032,-224 1026,-230 1020,-230"/>
<text text-anchor="middle" x="997" y="-208.3" font-family="Times,serif" font-size="14.00" fill="#000000">JASPIC</text>
</g>
<!-- es&#45;&gt;jaspic -->
<g id="edge12" class="edge">
<title>es&#45;&gt;jaspic</title>
<path fill="none" stroke="#000000" d="M844.142,-189.2538C875.3686,-191.5519 911.4845,-194.9815 944,-200 946.5291,-200.3903 949.1173,-200.8327 951.7236,-201.3116"/>
<polygon fill="#000000" stroke="#000000" points="951.2896,-204.7937 961.7797,-203.3078 952.6526,-197.9277 951.2896,-204.7937"/>
<text text-anchor="middle" x="906.5" y="-203" font-family="Times,serif" font-size="10.00" fill="#000000">requires</text>
</g>
<!-- cdi -->
<g id="node30" class="node">
<title>cdi</title>
<path fill="none" stroke="#000000" d="M1012,-548C1012,-548 982,-548 982,-548 976,-548 970,-542 970,-536 970,-536 970,-524 970,-524 970,-518 976,-512 982,-512 982,-512 1012,-512 1012,-512 1018,-512 1024,-518 1024,-524 1024,-524 1024,-536 1024,-536 1024,-542 1018,-548 1012,-548"/>
<text text-anchor="middle" x="997" y="-526.3" font-family="Times,serif" font-size="14.00" fill="#000000">CDI</text>
</g>
<!-- es&#45;&gt;cdi -->
<g id="edge13" class="edge">
<title>es&#45;&gt;cdi</title>
<path fill="none" stroke="#000000" d="M832.5104,-203.1852C839.3176,-206.9629 845.6714,-211.5156 851,-217 868.3354,-234.8423 851.8826,-251.9485 869,-270 893.703,-296.051 920.6424,-272.7362 944,-300 950.6333,-307.7426 978.993,-442.4937 991.2829,-502.0655"/>
<polygon fill="#000000" stroke="#000000" points="987.8708,-502.8496 993.3146,-511.9389 994.7272,-501.4387 987.8708,-502.8496"/>
<text text-anchor="middle" x="906.5" y="-303" font-family="Times,serif" font-size="10.00" fill="#000000">requires</text>
</g>
<!-- jaf -->
<g id="node7" class="node">
<title>jaf</title>
<path fill="none" stroke="#000000" d="M1012,-1031C1012,-1031 982,-1031 982,-1031 976,-1031 970,-1025 970,-1019 970,-1019 970,-1007 970,-1007 970,-1001 976,-995 982,-995 982,-995 1012,-995 1012,-995 1018,-995 1024,-1001 1024,-1007 1024,-1007 1024,-1019 1024,-1019 1024,-1025 1018,-1031 1012,-1031"/>
<text text-anchor="middle" x="997" y="-1009.3" font-family="Times,serif" font-size="14.00" fill="#000000">JAF</text>
</g>
<!-- javamail -->
<g id="node8" class="node">
<title>javamail</title>
<path fill="none" stroke="#000000" d="M543,-940C543,-940 488,-940 488,-940 482,-940 476,-934 476,-928 476,-928 476,-916 476,-916 476,-910 482,-904 488,-904 488,-904 543,-904 543,-904 549,-904 555,-910 555,-916 555,-916 555,-928 555,-928 555,-934 549,-940 543,-940"/>
<text text-anchor="middle" x="515.5" y="-918.3" font-family="Times,serif" font-size="14.00" fill="#000000">JavaMail</text>
</g>
<!-- javamail&#45;&gt;jaf -->
<g id="edge10" class="edge">
<title>javamail&#45;&gt;jaf</title>
<path fill="none" stroke="#000000" d="M555.1693,-934.0635C588.0891,-943.7383 636.2603,-957.122 679,-966 779.5161,-986.8795 899.7747,-1002.0205 959.5014,-1008.8889"/>
<polygon fill="#000000" stroke="#000000" points="959.2561,-1012.3835 969.5876,-1010.0361 960.0472,-1005.4283 959.2561,-1012.3835"/>
<text text-anchor="middle" x="765" y="-997" font-family="Times,serif" font-size="10.00" fill="#000000">requires</text>
</g>
<!-- jca -->
<g id="node14" class="node">
<title>jca</title>
<path fill="none" stroke="#000000" d="M780,-416C780,-416 750,-416 750,-416 744,-416 738,-410 738,-404 738,-404 738,-392 738,-392 738,-386 744,-380 750,-380 750,-380 780,-380 780,-380 786,-380 792,-386 792,-392 792,-392 792,-404 792,-404 792,-410 786,-416 780,-416"/>
<text text-anchor="middle" x="765" y="-394.3" font-family="Times,serif" font-size="14.00" fill="#000000">JCA</text>
</g>
<!-- javamail&#45;&gt;jca -->
<g id="edge52" class="edge">
<title>javamail&#45;&gt;jca</title>
<path fill="none" stroke="#000000" stroke-dasharray="5,2" d="M518.1322,-903.7661C525.8052,-853.0701 549.6697,-712.0611 582,-680 607.7967,-654.4181 637.7659,-686.9298 661,-659 694.3534,-618.9057 646.5447,-465.8247 679,-425 690.6413,-410.3568 710.1624,-403.5017 727.666,-400.3543"/>
<polygon fill="#000000" stroke="#000000" points="728.2726,-403.803 737.664,-398.8987 727.2641,-396.876 728.2726,-403.803"/>
<text text-anchor="middle" x="621.5" y="-683" font-family="Times,serif" font-size="10.00" fill="#000000">integrates with</text>
</g>
<!-- jaxws -->
<g id="node10" class="node">
<title>jaxws</title>
<path fill="none" stroke="#000000" d="M119,-907C119,-907 72,-907 72,-907 66,-907 60,-901 60,-895 60,-895 60,-883 60,-883 60,-877 66,-871 72,-871 72,-871 119,-871 119,-871 125,-871 131,-877 131,-883 131,-883 131,-895 131,-895 131,-901 125,-907 119,-907"/>
<text text-anchor="middle" x="95.5" y="-885.3" font-family="Times,serif" font-size="14.00" fill="#000000">JAX&#45;WS</text>
</g>
<!-- jaxws&#45;&gt;ca -->
<g id="edge21" class="edge">
<title>jaxws&#45;&gt;ca</title>
<path fill="none" stroke="#000000" d="M131.1923,-889.6602C151.8215,-892.0472 176.4886,-898.7122 191,-916 216.4186,-946.2821 181.3671,-1064.7239 209,-1093 246.5661,-1131.4406 275.2516,-1108 329,-1108 329,-1108 329,-1108 997,-1108 1136.7808,-1108 1202.9837,-903.6054 1222.8309,-827.2881"/>
<polygon fill="#000000" stroke="#000000" points="1226.2719,-827.9566 1225.3266,-817.404 1219.4849,-826.2428 1226.2719,-827.9566"/>
<text text-anchor="middle" x="621.5" y="-1111" font-family="Times,serif" font-size="10.00" fill="#000000">requires</text>
</g>
<!-- jaxws&#45;&gt;ejb -->
<g id="edge37" class="edge">
<title>jaxws&#45;&gt;ejb</title>
<path fill="none" stroke="#000000" stroke-dasharray="5,2" d="M111.9193,-870.7876C152.6985,-825.555 258.6924,-707.9857 305.8228,-655.7084"/>
<polygon fill="#000000" stroke="#000000" points="308.5024,-657.9631 312.5989,-648.1923 303.3033,-653.2759 308.5024,-657.9631"/>
<text text-anchor="middle" x="246.5" y="-762" font-family="Times,serif" font-size="10.00" fill="#000000">integrates with</text>
</g>
<!-- jaxws&#45;&gt;jaf -->
<g id="edge11" class="edge">
<title>jaxws&#45;&gt;jaf</title>
<path fill="none" stroke="#000000" d="M131.4512,-895.1486C150.0105,-899.2969 172.5639,-905.9023 191,-916 200.3877,-921.1418 199.3771,-927.313 209,-932 474.8427,-1061.4832 573.3506,-1010.5557 869,-1016 902.3277,-1016.6137 910.68,-1016.9423 944,-1016 949.1086,-1015.8555 954.4908,-1015.6329 959.7885,-1015.3727"/>
<polygon fill="#000000" stroke="#000000" points="959.9795,-1018.8676 969.7776,-1014.8368 959.6044,-1011.8776 959.9795,-1018.8676"/>
<text text-anchor="middle" x="515.5" y="-1024" font-family="Times,serif" font-size="10.00" fill="#000000">requires</text>
</g>
<!-- jaxws&#45;&gt;jaspic -->
<g id="edge39" class="edge">
<title>jaxws&#45;&gt;jaspic</title>
<path fill="none" stroke="#000000" stroke-dasharray="5,2" d="M95.8914,-870.8632C98.4104,-770.6949 115.3564,-285.7055 209,-177 245.5125,-134.6147 273.0565,-139 329,-139 329,-139 329,-139 621.5,-139 766.4122,-139 808.9737,-134.3933 944,-187 946.8468,-188.1091 949.7551,-189.3021 952.6713,-190.5439"/>
<polygon fill="#000000" stroke="#000000" points="951.384,-193.8014 961.9461,-194.6339 954.2084,-187.3965 951.384,-193.8014"/>
<text text-anchor="middle" x="515.5" y="-142" font-family="Times,serif" font-size="10.00" fill="#000000">integrates with</text>
</g>
<!-- jws -->
<g id="node11" class="node">
<title>jws</title>
<path fill="none" stroke="#000000" d="M344,-203C344,-203 314,-203 314,-203 308,-203 302,-197 302,-191 302,-191 302,-179 302,-179 302,-173 308,-167 314,-167 314,-167 344,-167 344,-167 350,-167 356,-173 356,-179 356,-179 356,-191 356,-191 356,-197 350,-203 344,-203"/>
<text text-anchor="middle" x="329" y="-181.3" font-family="Times,serif" font-size="14.00" fill="#000000">JWS</text>
</g>
<!-- jaxws&#45;&gt;jws -->
<g id="edge41" class="edge">
<title>jaxws&#45;&gt;jws</title>
<path fill="none" stroke="#000000" stroke-dasharray="5,2" d="M95.794,-870.7497C97.77,-772.119 112.2034,-303.6299 209,-206 230.2308,-184.5865 265.034,-180.511 291.7067,-181.1033"/>
<polygon fill="#000000" stroke="#000000" points="291.7017,-184.6065 301.848,-181.5563 292.0142,-177.6135 291.7017,-184.6065"/>
<text text-anchor="middle" x="246.5" y="-209" font-family="Times,serif" font-size="10.00" fill="#000000">integrates with</text>
</g>
<!-- jaxb -->
<g id="node12" class="node">
<title>jaxb</title>
<path fill="none" stroke="#000000" d="M780,-957C780,-957 750,-957 750,-957 744,-957 738,-951 738,-945 738,-945 738,-933 738,-933 738,-927 744,-921 750,-921 750,-921 780,-921 780,-921 786,-921 792,-927 792,-933 792,-933 792,-945 792,-945 792,-951 786,-957 780,-957"/>
<text text-anchor="middle" x="765" y="-935.3" font-family="Times,serif" font-size="14.00" fill="#000000">JAXB</text>
</g>
<!-- jaxws&#45;&gt;jaxb -->
<g id="edge23" class="edge">
<title>jaxws&#45;&gt;jaxb</title>
<path fill="none" stroke="#000000" d="M131.1312,-896.7099C197.0381,-910.5327 342.615,-939.0201 467,-949 509.973,-952.4479 520.9022,-950.0714 564,-949 621.0721,-947.5812 687.1752,-943.8996 727.5299,-941.4218"/>
<polygon fill="#000000" stroke="#000000" points="727.9433,-944.903 737.7068,-940.7889 727.5087,-937.9165 727.9433,-944.903"/>
<text text-anchor="middle" x="411.5" y="-950" font-family="Times,serif" font-size="10.00" fill="#000000">requires</text>
</g>
<!-- servlet -->
<g id="node26" class="node">
<title>servlet</title>
<path fill="none" stroke="#000000" d="M791,-321C791,-321 739,-321 739,-321 733,-321 727,-315 727,-309 727,-309 727,-297 727,-297 727,-291 733,-285 739,-285 739,-285 791,-285 791,-285 797,-285 803,-291 803,-297 803,-297 803,-309 803,-309 803,-315 797,-321 791,-321"/>
<text text-anchor="middle" x="765" y="-299.3" font-family="Times,serif" font-size="14.00" fill="#000000">Servlets</text>
</g>
<!-- jaxws&#45;&gt;servlet -->
<g id="edge38" class="edge">
<title>jaxws&#45;&gt;servlet</title>
<path fill="none" stroke="#000000" stroke-dasharray="5,2" d="M96.5986,-870.7689C103.0247,-782.3373 143.9236,-396.1715 374,-245 483.8628,-172.8147 648.2356,-241.1323 724.0289,-280.1017"/>
<polygon fill="#000000" stroke="#000000" points="722.7732,-283.3947 733.2566,-284.9275 726.0172,-277.1917 722.7732,-283.3947"/>
<text text-anchor="middle" x="411.5" y="-248" font-family="Times,serif" font-size="10.00" fill="#000000">integrates with</text>
</g>
<!-- saaj -->
<g id="node29" class="node">
<title>saaj</title>
<path fill="none" stroke="#000000" d="M426.5,-1088C426.5,-1088 396.5,-1088 396.5,-1088 390.5,-1088 384.5,-1082 384.5,-1076 384.5,-1076 384.5,-1064 384.5,-1064 384.5,-1058 390.5,-1052 396.5,-1052 396.5,-1052 426.5,-1052 426.5,-1052 432.5,-1052 438.5,-1058 438.5,-1064 438.5,-1064 438.5,-1076 438.5,-1076 438.5,-1082 432.5,-1088 426.5,-1088"/>
<text text-anchor="middle" x="411.5" y="-1066.3" font-family="Times,serif" font-size="14.00" fill="#000000">SAAJ</text>
</g>
<!-- jaxws&#45;&gt;saaj -->
<g id="edge22" class="edge">
<title>jaxws&#45;&gt;saaj</title>
<path fill="none" stroke="#000000" d="M131.4347,-889.913C151.8851,-892.4168 176.282,-899.1156 191,-916 229.0382,-959.6373 167.7443,-1004.3912 209,-1045 252.3284,-1087.649 328.579,-1084.3484 374.1323,-1077.5406"/>
<polygon fill="#000000" stroke="#000000" points="374.8797,-1080.9651 384.1885,-1075.9059 373.7565,-1074.0558 374.8797,-1080.9651"/>
<text text-anchor="middle" x="246.5" y="-1081" font-family="Times,serif" font-size="10.00" fill="#000000">requires</text>
</g>
<!-- jaxb&#45;&gt;jaf -->
<g id="edge24" class="edge">
<title>jaxb&#45;&gt;jaf</title>
<path fill="none" stroke="#000000" d="M792.0856,-938.9329C828.3237,-939.8136 893.8321,-944.8533 944,-968 954.5733,-972.8783 964.704,-980.4701 973.2242,-988.0376"/>
<polygon fill="#000000" stroke="#000000" points="970.8686,-990.6268 980.5626,-994.902 975.6505,-985.5147 970.8686,-990.6268"/>
<text text-anchor="middle" x="906.5" y="-971" font-family="Times,serif" font-size="10.00" fill="#000000">requires</text>
</g>
<!-- jaxrs&#45;&gt;ca -->
<g id="edge19" class="edge">
<title>jaxrs&#45;&gt;ca</title>
<path fill="none" stroke="#000000" d="M517.578,-648.2407C522.3655,-680.7575 537.4239,-748.1239 582,-778 669.5362,-836.669 975.8465,-820.701 1133.7555,-807.9268"/>
<polygon fill="#000000" stroke="#000000" points="1134.2581,-811.3974 1143.9382,-807.0908 1133.6853,-804.4208 1134.2581,-811.3974"/>
<text text-anchor="middle" x="906.5" y="-822" font-family="Times,serif" font-size="10.00" fill="#000000">requires</text>
</g>
<!-- jaxrs&#45;&gt;jaxb -->
<g id="edge20" class="edge">
<title>jaxrs&#45;&gt;jaxb</title>
<path fill="none" stroke="#000000" d="M517.1403,-648.1868C521.3155,-683.4449 535.559,-761.2871 582,-803 609.0285,-827.2768 635.9114,-797.7233 661,-824 687.0664,-851.3008 654.2794,-878.4749 679,-907 691.3845,-921.2905 710.7743,-929.2085 728.0102,-933.5912"/>
<polygon fill="#000000" stroke="#000000" points="727.318,-937.0228 737.8402,-935.7846 728.8425,-930.1908 727.318,-937.0228"/>
<text text-anchor="middle" x="621.5" y="-827" font-family="Times,serif" font-size="10.00" fill="#000000">requires</text>
</g>
<!-- jsonb -->
<g id="node17" class="node">
<title>jsonb</title>
<path fill="none" stroke="#000000" d="M789,-625C789,-625 741,-625 741,-625 735,-625 729,-619 729,-613 729,-613 729,-601 729,-601 729,-595 735,-589 741,-589 741,-589 789,-589 789,-589 795,-589 801,-595 801,-601 801,-601 801,-613 801,-613 801,-619 795,-625 789,-625"/>
<text text-anchor="middle" x="765" y="-603.3" font-family="Times,serif" font-size="14.00" fill="#000000">JSON&#45;B</text>
</g>
<!-- jaxrs&#45;&gt;jsonb -->
<g id="edge35" class="edge">
<title>jaxrs&#45;&gt;jsonb</title>
<path fill="none" stroke="#000000" stroke-dasharray="5,2" d="M549.7674,-620.3856C560.0512,-617.8728 571.4132,-615.4614 582,-614 628.206,-607.6217 681.5528,-606.255 718.6814,-606.2506"/>
<polygon fill="#000000" stroke="#000000" points="718.6929,-609.7505 728.704,-606.2824 718.7152,-602.7506 718.6929,-609.7505"/>
<text text-anchor="middle" x="621.5" y="-617" font-family="Times,serif" font-size="10.00" fill="#000000">integrates with</text>
</g>
<!-- jsonp -->
<g id="node18" class="node">
<title>jsonp</title>
<path fill="none" stroke="#000000" d="M788.5,-679C788.5,-679 741.5,-679 741.5,-679 735.5,-679 729.5,-673 729.5,-667 729.5,-667 729.5,-655 729.5,-655 729.5,-649 735.5,-643 741.5,-643 741.5,-643 788.5,-643 788.5,-643 794.5,-643 800.5,-649 800.5,-655 800.5,-655 800.5,-667 800.5,-667 800.5,-673 794.5,-679 788.5,-679"/>
<text text-anchor="middle" x="765" y="-657.3" font-family="Times,serif" font-size="14.00" fill="#000000">JSON&#45;P</text>
</g>
<!-- jaxrs&#45;&gt;jsonp -->
<g id="edge34" class="edge">
<title>jaxrs&#45;&gt;jsonp</title>
<path fill="none" stroke="#000000" stroke-dasharray="5,2" d="M549.6039,-634.2066C579.0914,-637.8468 622.8598,-643.257 661,-648 680.108,-650.3762 701.1891,-653.0092 719.3473,-655.2807"/>
<polygon fill="#000000" stroke="#000000" points="719.0254,-658.7676 729.3826,-656.5365 719.8946,-651.8218 719.0254,-658.7676"/>
<text text-anchor="middle" x="621.5" y="-651" font-family="Times,serif" font-size="10.00" fill="#000000">integrates with</text>
</g>
<!-- jaxrs&#45;&gt;servlet -->
<g id="edge31" class="edge">
<title>jaxrs&#45;&gt;servlet</title>
<path fill="none" stroke="#000000" stroke-dasharray="5,2" d="M521.5416,-611.633C531.0207,-584.9943 551.5113,-535.2009 582,-502 610.1054,-471.3944 637.1075,-485.9965 661,-452 682.2048,-421.8279 659.4042,-402.2411 679,-371 690.1104,-353.287 707.5211,-338.2545 723.7794,-326.8636"/>
<polygon fill="#000000" stroke="#000000" points="725.7914,-329.7284 732.1369,-321.2439 721.8854,-323.9195 725.7914,-329.7284"/>
<text text-anchor="middle" x="621.5" y="-505" font-family="Times,serif" font-size="10.00" fill="#000000">integrates with</text>
</g>
<!-- jaxrs&#45;&gt;cdi -->
<g id="edge32" class="edge">
<title>jaxrs&#45;&gt;cdi</title>
<path fill="none" stroke="#000000" stroke-dasharray="5,2" d="M549.6446,-614.4089C587.1421,-596.7864 644.2678,-568.307 661,-551 673.4337,-538.1391 663.7831,-524.4046 679,-515 724.9317,-486.6127 885.9976,-510.2964 959.6895,-523.1021"/>
<polygon fill="#000000" stroke="#000000" points="959.4478,-526.6135 969.9039,-524.9051 960.6646,-519.7201 959.4478,-526.6135"/>
<text text-anchor="middle" x="765" y="-518" font-family="Times,serif" font-size="10.00" fill="#000000">integrates with</text>
</g>
<!-- bv -->
<g id="node32" class="node">
<title>bv</title>
<path fill="none" stroke="#000000" d="M817,-470C817,-470 713,-470 713,-470 707,-470 701,-464 701,-458 701,-458 701,-446 701,-446 701,-440 707,-434 713,-434 713,-434 817,-434 817,-434 823,-434 829,-440 829,-446 829,-446 829,-458 829,-458 829,-464 823,-470 817,-470"/>
<text text-anchor="middle" x="765" y="-448.3" font-family="Times,serif" font-size="14.00" fill="#000000">Bean Validation</text>
</g>
<!-- jaxrs&#45;&gt;bv -->
<g id="edge33" class="edge">
<title>jaxrs&#45;&gt;bv</title>
<path fill="none" stroke="#000000" stroke-dasharray="5,2" d="M524.374,-611.6584C535.196,-591.2021 555.3864,-558.5562 582,-540 611.9971,-519.0846 632.5049,-539.9197 661,-517 674.0181,-506.5291 666.3722,-494.9384 679,-484 682.889,-480.6313 687.1655,-477.6033 691.6698,-474.8836"/>
<polygon fill="#000000" stroke="#000000" points="693.4703,-477.8883 700.5709,-470.025 690.1164,-471.7441 693.4703,-477.8883"/>
<text text-anchor="middle" x="621.5" y="-543" font-family="Times,serif" font-size="10.00" fill="#000000">integrates with</text>
</g>
<!-- cu -->
<g id="node34" class="node">
<title>cu</title>
<path fill="none" stroke="#000000" d="M839,-733C839,-733 691,-733 691,-733 685,-733 679,-727 679,-721 679,-721 679,-709 679,-709 679,-703 685,-697 691,-697 691,-697 839,-697 839,-697 845,-697 851,-703 851,-709 851,-709 851,-721 851,-721 851,-727 845,-733 839,-733"/>
<text text-anchor="middle" x="765" y="-711.3" font-family="Times,serif" font-size="14.00" fill="#000000">Concurrency Utilities</text>
</g>
<!-- jaxrs&#45;&gt;cu -->
<g id="edge36" class="edge">
<title>jaxrs&#45;&gt;cu</title>
<path fill="none" stroke="#000000" stroke-dasharray="5,2" d="M529.1559,-648.2437C541.2873,-662.9739 560.407,-682.8605 582,-693 608.558,-705.4709 639.5671,-711.8308 668.432,-714.8573"/>
<polygon fill="#000000" stroke="#000000" points="668.2615,-718.3564 678.5416,-715.7934 668.9069,-711.3862 668.2615,-718.3564"/>
<text text-anchor="middle" x="621.5" y="-716" font-family="Times,serif" font-size="10.00" fill="#000000">integrates with</text>
</g>
<!-- jca&#45;&gt;ejb -->
<g id="edge42" class="edge">
<title>jca&#45;&gt;ejb</title>
<path fill="none" stroke="#000000" stroke-dasharray="5,2" d="M727.5779,-401.5696C710.65,-405.0377 691.6483,-411.8123 679,-425 657.6571,-447.253 681.9343,-469.3621 661,-492 635.7086,-519.3496 616.6575,-506.343 582,-520 503.8795,-550.7838 414.1055,-590.992 365.2752,-613.28"/>
<polygon fill="#000000" stroke="#000000" points="728.5157,-404.9596 737.7747,-399.8097 727.325,-398.0616 728.5157,-404.9596"/>
<polygon fill="#000000" stroke="#000000" points="363.7084,-610.1478 356.0706,-617.4905 366.6203,-616.5134 363.7084,-610.1478"/>
<text text-anchor="middle" x="515.5" y="-569" font-family="Times,serif" font-size="10.00" fill="#000000">integrates with</text>
</g>
<!-- jca&#45;&gt;cdi -->
<g id="edge43" class="edge">
<title>jca&#45;&gt;cdi</title>
<path fill="none" stroke="#000000" stroke-dasharray="5,2" d="M792.2373,-398.7933C829.8269,-401.1666 898.1494,-410.2161 944,-444 963.959,-458.7063 978.036,-483.3935 986.6413,-502.5549"/>
<polygon fill="#000000" stroke="#000000" points="983.5164,-504.151 990.6447,-511.9893 989.9602,-501.4166 983.5164,-504.151"/>
<text text-anchor="middle" x="906.5" y="-447" font-family="Times,serif" font-size="10.00" fill="#000000">integrates with</text>
</g>
<!-- jms&#45;&gt;jca -->
<g id="edge51" class="edge">
<title>jms&#45;&gt;jca</title>
<path fill="none" stroke="#000000" stroke-dasharray="5,2" d="M542.6758,-398C587.4823,-398 676.9364,-398 727.6532,-398"/>
<polygon fill="#000000" stroke="#000000" points="727.8577,-401.5001 737.8577,-398 727.8576,-394.5001 727.8577,-401.5001"/>
<text text-anchor="middle" x="621.5" y="-401" font-family="Times,serif" font-size="10.00" fill="#000000">integrates with</text>
</g>
<!-- jpa -->
<g id="node16" class="node">
<title>jpa</title>
<path fill="none" stroke="#000000" d="M780,-571C780,-571 750,-571 750,-571 744,-571 738,-565 738,-559 738,-559 738,-547 738,-547 738,-541 744,-535 750,-535 750,-535 780,-535 780,-535 786,-535 792,-541 792,-547 792,-547 792,-559 792,-559 792,-565 786,-571 780,-571"/>
<text text-anchor="middle" x="765" y="-549.3" font-family="Times,serif" font-size="14.00" fill="#000000">JPA</text>
</g>
<!-- jpa&#45;&gt;cdi -->
<g id="edge44" class="edge">
<title>jpa&#45;&gt;cdi</title>
<path fill="none" stroke="#000000" stroke-dasharray="5,2" d="M792.0674,-550.3166C833.517,-546.2074 912.8272,-538.3447 959.6987,-533.698"/>
<polygon fill="#000000" stroke="#000000" points="960.1405,-537.1714 969.7464,-532.7019 959.4498,-530.2056 960.1405,-537.1714"/>
<text text-anchor="middle" x="906.5" y="-545" font-family="Times,serif" font-size="10.00" fill="#000000">integrates with</text>
</g>
<!-- jsonb&#45;&gt;cdi -->
<g id="edge46" class="edge">
<title>jsonb&#45;&gt;cdi</title>
<path fill="none" stroke="#000000" stroke-dasharray="5,2" d="M801.002,-599.171C837.6421,-590.6895 895.751,-575.8127 944,-557 949.5472,-554.8371 955.284,-552.2789 960.8438,-549.6132"/>
<polygon fill="#000000" stroke="#000000" points="962.5725,-552.6625 969.9685,-545.0763 959.456,-546.3945 962.5725,-552.6625"/>
<text text-anchor="middle" x="906.5" y="-584" font-family="Times,serif" font-size="10.00" fill="#000000">integrates with</text>
</g>
<!-- jsf -->
<g id="node19" class="node">
<title>jsf</title>
<path fill="none" stroke="#000000" d="M110.5,-64C110.5,-64 80.5,-64 80.5,-64 74.5,-64 68.5,-58 68.5,-52 68.5,-52 68.5,-40 68.5,-40 68.5,-34 74.5,-28 80.5,-28 80.5,-28 110.5,-28 110.5,-28 116.5,-28 122.5,-34 122.5,-40 122.5,-40 122.5,-52 122.5,-52 122.5,-58 116.5,-64 110.5,-64"/>
<text text-anchor="middle" x="95.5" y="-42.3" font-family="Times,serif" font-size="14.00" fill="#000000">JSF</text>
</g>
<!-- jsf&#45;&gt;el -->
<g id="edge5" class="edge">
<title>jsf&#45;&gt;el</title>
<path fill="none" stroke="#000000" d="M122.8329,-37.0215C166.0848,-23.6347 253.1827,0 329,0 329,0 329,0 997,0 1078.6904,0 1160.7484,-58.6416 1202.0586,-93.2454"/>
<polygon fill="#000000" stroke="#000000" points="1199.8862,-95.9927 1209.7652,-99.8211 1204.4299,-90.6677 1199.8862,-95.9927"/>
<text text-anchor="middle" x="621.5" y="-3" font-family="Times,serif" font-size="10.00" fill="#000000">requires</text>
</g>
<!-- jsp -->
<g id="node20" class="node">
<title>jsp</title>
<path fill="none" stroke="#000000" d="M530.5,-98C530.5,-98 500.5,-98 500.5,-98 494.5,-98 488.5,-92 488.5,-86 488.5,-86 488.5,-74 488.5,-74 488.5,-68 494.5,-62 500.5,-62 500.5,-62 530.5,-62 530.5,-62 536.5,-62 542.5,-68 542.5,-74 542.5,-74 542.5,-86 542.5,-86 542.5,-92 536.5,-98 530.5,-98"/>
<text text-anchor="middle" x="515.5" y="-76.3" font-family="Times,serif" font-size="14.00" fill="#000000">JSP</text>
</g>
<!-- jsf&#45;&gt;jsp -->
<g id="edge4" class="edge">
<title>jsf&#45;&gt;jsp</title>
<path fill="none" stroke="#000000" d="M122.5706,-45.8594C169.9821,-45.8532 271.0834,-46.9081 356,-55 398.1728,-59.0187 446.1453,-67.0065 478.3689,-72.8758"/>
<polygon fill="#000000" stroke="#000000" points="477.7813,-76.3264 488.2504,-74.6992 479.0516,-69.4426 477.7813,-76.3264"/>
<text text-anchor="middle" x="329" y="-58" font-family="Times,serif" font-size="10.00" fill="#000000">requires</text>
</g>
<!-- jstl -->
<g id="node21" class="node">
<title>jstl</title>
<path fill="none" stroke="#000000" d="M344,-111C344,-111 314,-111 314,-111 308,-111 302,-105 302,-99 302,-99 302,-87 302,-87 302,-81 308,-75 314,-75 314,-75 344,-75 344,-75 350,-75 356,-81 356,-87 356,-87 356,-99 356,-99 356,-105 350,-111 344,-111"/>
<text text-anchor="middle" x="329" y="-89.3" font-family="Times,serif" font-size="14.00" fill="#000000">JSTL</text>
</g>
<!-- jsf&#45;&gt;jstl -->
<g id="edge6" class="edge">
<title>jsf&#45;&gt;jstl</title>
<path fill="none" stroke="#000000" d="M122.7424,-51.4835C164.5719,-59.9031 244.7113,-76.034 291.8363,-85.5195"/>
<polygon fill="#000000" stroke="#000000" points="291.4371,-89.0093 301.9311,-87.5514 292.8184,-82.1469 291.4371,-89.0093"/>
<text text-anchor="middle" x="246.5" y="-85" font-family="Times,serif" font-size="10.00" fill="#000000">requires</text>
</g>
<!-- jsp&#45;&gt;el -->
<g id="edge9" class="edge">
<title>jsp&#45;&gt;el</title>
<path fill="none" stroke="#000000" d="M542.6178,-81.4432C639.1134,-86.5789 968.8335,-104.127 1133.8378,-112.9087"/>
<polygon fill="#000000" stroke="#000000" points="1133.8098,-116.4121 1143.9818,-113.4486 1134.1819,-109.422 1133.8098,-116.4121"/>
<text text-anchor="middle" x="906.5" y="-105" font-family="Times,serif" font-size="10.00" fill="#000000">requires</text>
</g>
<!-- jsp&#45;&gt;servlet -->
<g id="edge8" class="edge">
<title>jsp&#45;&gt;servlet</title>
<path fill="none" stroke="#000000" d="M542.5381,-85.3664C575.9234,-93.4864 631.854,-112.2529 661,-151 688.9354,-188.1378 652.2655,-215.9886 679,-254 688.488,-267.4901 702.9496,-277.7524 717.3219,-285.311"/>
<polygon fill="#000000" stroke="#000000" points="716.1792,-288.6481 726.7005,-289.8944 719.2528,-282.359 716.1792,-288.6481"/>
<text text-anchor="middle" x="621.5" y="-154" font-family="Times,serif" font-size="10.00" fill="#000000">requires</text>
</g>
<!-- jstl&#45;&gt;jsp -->
<g id="edge7" class="edge">
<title>jstl&#45;&gt;jsp</title>
<path fill="none" stroke="#000000" d="M356.1187,-91.1097C388.301,-88.8664 442.1343,-85.114 478.2192,-82.5987"/>
<polygon fill="#000000" stroke="#000000" points="478.6162,-86.0796 488.3486,-81.8926 478.1294,-79.0965 478.6162,-86.0796"/>
<text text-anchor="middle" x="411.5" y="-92" font-family="Times,serif" font-size="10.00" fill="#000000">requires</text>
</g>
<!-- jta&#45;&gt;cdi -->
<g id="edge47" class="edge">
<title>jta&#45;&gt;cdi</title>
<path fill="none" stroke="#000000" stroke-dasharray="5,2" d="M648.5287,-859.1243C718.2815,-858.8601 901.8424,-854.2674 944,-814 980.5151,-779.1221 992.3771,-623.4187 995.7775,-558.5318"/>
<polygon fill="#000000" stroke="#000000" points="999.289,-558.3836 996.2858,-548.2233 992.2975,-558.0387 999.289,-558.3836"/>
<text text-anchor="middle" x="765" y="-861" font-family="Times,serif" font-size="10.00" fill="#000000">integrates with</text>
</g>
<!-- deployment -->
<g id="node23" class="node">
<title>deployment</title>
<path fill="none" stroke="#000000" d="M175.5,-961C175.5,-961 15.5,-961 15.5,-961 9.5,-961 3.5,-955 3.5,-949 3.5,-949 3.5,-937 3.5,-937 3.5,-931 9.5,-925 15.5,-925 15.5,-925 175.5,-925 175.5,-925 181.5,-925 187.5,-931 187.5,-937 187.5,-937 187.5,-949 187.5,-949 187.5,-955 181.5,-961 175.5,-961"/>
<text text-anchor="middle" x="95.5" y="-939.3" font-family="Times,serif" font-size="14.00" fill="#000000">Enterprise Deployment</text>
</g>
<!-- management -->
<g id="node24" class="node">
<title>management</title>
<path fill="none" stroke="#000000" d="M179,-1015C179,-1015 12,-1015 12,-1015 6,-1015 0,-1009 0,-1003 0,-1003 0,-991 0,-991 0,-985 6,-979 12,-979 12,-979 179,-979 179,-979 185,-979 191,-985 191,-991 191,-991 191,-1003 191,-1003 191,-1009 185,-1015 179,-1015"/>
<text text-anchor="middle" x="95.5" y="-993.3" font-family="Times,serif" font-size="14.00" fill="#000000">Enterprise Management</text>
</g>
<!-- jaxr -->
<g id="node25" class="node">
<title>jaxr</title>
<path fill="none" stroke="#000000" d="M530.5,-470C530.5,-470 500.5,-470 500.5,-470 494.5,-470 488.5,-464 488.5,-458 488.5,-458 488.5,-446 488.5,-446 488.5,-440 494.5,-434 500.5,-434 500.5,-434 530.5,-434 530.5,-434 536.5,-434 542.5,-440 542.5,-446 542.5,-446 542.5,-458 542.5,-458 542.5,-464 536.5,-470 530.5,-470"/>
<text text-anchor="middle" x="515.5" y="-448.3" font-family="Times,serif" font-size="14.00" fill="#000000">JAXR</text>
</g>
<!-- jaxr&#45;&gt;jca -->
<g id="edge53" class="edge">
<title>jaxr&#45;&gt;jca</title>
<path fill="none" stroke="#000000" stroke-dasharray="5,2" d="M542.6758,-446.1183C587.576,-436.4004 677.3109,-416.9788 727.971,-406.0143"/>
<polygon fill="#000000" stroke="#000000" points="728.8244,-409.4107 737.8577,-403.8745 727.3436,-402.5691 728.8244,-409.4107"/>
<text text-anchor="middle" x="621.5" y="-440" font-family="Times,serif" font-size="10.00" fill="#000000">integrates with</text>
</g>
<!-- servlet&#45;&gt;jacc -->
<g id="edge49" class="edge">
<title>servlet&#45;&gt;jacc</title>
<path fill="none" stroke="#000000" stroke-dasharray="5,2" d="M803.2153,-307.1215C839.5622,-311.2779 895.7053,-318.313 944,-327 948.7964,-327.8628 953.8151,-328.8659 958.7711,-329.9177"/>
<polygon fill="#000000" stroke="#000000" points="958.2462,-333.3859 968.7646,-332.1155 959.7498,-326.5492 958.2462,-333.3859"/>
<text text-anchor="middle" x="906.5" y="-330" font-family="Times,serif" font-size="10.00" fill="#000000">integrates with</text>
</g>
<!-- servlet&#45;&gt;jaspic -->
<g id="edge48" class="edge">
<title>servlet&#45;&gt;jaspic</title>
<path fill="none" stroke="#000000" stroke-dasharray="5,2" d="M803.1498,-285.7498C822.6581,-277.2134 846.8915,-267.0427 869,-259 901.7648,-247.0807 911.3865,-248.3274 944,-236 946.8375,-234.9275 949.7386,-233.7763 952.6493,-232.5797"/>
<polygon fill="#000000" stroke="#000000" points="954.0777,-235.7757 961.9127,-228.644 951.3403,-229.3331 954.0777,-235.7757"/>
<text text-anchor="middle" x="906.5" y="-262" font-family="Times,serif" font-size="10.00" fill="#000000">integrates with</text>
</g>
<!-- websocket -->
<g id="node27" class="node">
<title>websocket</title>
<path fill="none" stroke="#000000" d="M552,-324C552,-324 479,-324 479,-324 473,-324 467,-318 467,-312 467,-312 467,-300 467,-300 467,-294 473,-288 479,-288 479,-288 552,-288 552,-288 558,-288 564,-294 564,-300 564,-300 564,-312 564,-312 564,-318 558,-324 552,-324"/>
<text text-anchor="middle" x="515.5" y="-302.3" font-family="Times,serif" font-size="14.00" fill="#000000">WebSocket</text>
</g>
<!-- websocket&#45;&gt;servlet -->
<g id="edge50" class="edge">
<title>websocket&#45;&gt;servlet</title>
<path fill="none" stroke="#000000" stroke-dasharray="5,2" d="M564.1984,-305.4144C608.1803,-304.8856 672.5567,-304.1115 716.4825,-303.5834"/>
<polygon fill="#000000" stroke="#000000" points="716.6745,-307.0814 726.6316,-303.4613 716.5902,-300.0819 716.6745,-307.0814"/>
<text text-anchor="middle" x="621.5" y="-308" font-family="Times,serif" font-size="10.00" fill="#000000">integrates with</text>
</g>
<!-- jaxrpc&#45;&gt;jaspic -->
<g id="edge40" class="edge">
<title>jaxrpc&#45;&gt;jaspic</title>
<path fill="none" stroke="#000000" stroke-dasharray="5,2" d="M661.1237,-207.0949C667.0106,-209.1204 673.0877,-210.8614 679,-212 774.5765,-230.4063 889.3296,-223.4607 951.517,-217.352"/>
<polygon fill="#000000" stroke="#000000" points="952.1755,-220.8031 961.7682,-216.3053 951.4644,-213.8393 952.1755,-220.8031"/>
<text text-anchor="middle" x="765" y="-226" font-family="Times,serif" font-size="10.00" fill="#000000">integrates with</text>
</g>
<!-- saaj&#45;&gt;jaf -->
<g id="edge25" class="edge">
<title>saaj&#45;&gt;jaf</title>
<path fill="none" stroke="#000000" d="M438.7871,-1070.5832C533.6244,-1072.3295 848.3266,-1075.6971 944,-1046 951.1882,-1043.7688 958.3762,-1040.3201 965.0353,-1036.4786"/>
<polygon fill="#000000" stroke="#000000" points="967.0895,-1039.3229 973.7383,-1031.0741 963.3966,-1033.3762 967.0895,-1039.3229"/>
<text text-anchor="middle" x="621.5" y="-1074" font-family="Times,serif" font-size="10.00" fill="#000000">requires</text>
</g>
<!-- cdi&#45;&gt;ca -->
<g id="edge18" class="edge">
<title>cdi&#45;&gt;ca</title>
<path fill="none" stroke="#000000" d="M1004.1758,-548.3084C1013.1171,-569.9191 1029.7184,-606.4035 1050,-634 1092.298,-691.5534 1156.821,-744.9215 1195.8939,-774.6171"/>
<polygon fill="#000000" stroke="#000000" points="1194.2059,-777.727 1204.3018,-780.9402 1198.4132,-772.1325 1194.2059,-777.727"/>
<text text-anchor="middle" x="1087.5" y="-715" font-family="Times,serif" font-size="10.00" fill="#000000">requires</text>
</g>
<!-- cdi&#45;&gt;ejb -->
<g id="edge26" class="edge">
<title>cdi&#45;&gt;ejb</title>
<path fill="none" stroke="#000000" stroke-dasharray="5,2" d="M987.7439,-557.4942C969.9559,-605.348 925.9726,-702.6004 851,-742 684.0239,-829.7492 452.6407,-707.2032 364.7765,-653.2615"/>
<polygon fill="#000000" stroke="#000000" points="991.0421,-558.6655 991.1437,-548.0711 984.4575,-556.2897 991.0421,-558.6655"/>
<polygon fill="#000000" stroke="#000000" points="366.5813,-650.2623 356.2401,-647.9579 362.8871,-656.2082 366.5813,-650.2623"/>
<text text-anchor="middle" x="621.5" y="-771" font-family="Times,serif" font-size="10.00" fill="#000000">integrates with</text>
</g>
<!-- cdi&#45;&gt;el -->
<g id="edge17" class="edge">
<title>cdi&#45;&gt;el</title>
<path fill="none" stroke="#000000" d="M1001.9478,-511.6198C1010.0041,-483.0174 1027.3583,-426.5179 1050,-382 1097.3069,-288.9856 1172.1233,-189.9872 1208.3948,-144.1205"/>
<polygon fill="#000000" stroke="#000000" points="1211.2184,-146.1931 1214.7036,-136.1879 1205.7397,-141.8359 1211.2184,-146.1931"/>
<text text-anchor="middle" x="1087.5" y="-385" font-family="Times,serif" font-size="10.00" fill="#000000">requires</text>
</g>
<!-- cdi&#45;&gt;el -->
<g id="edge27" class="edge">
<title>cdi&#45;&gt;el</title>
<path fill="none" stroke="#000000" stroke-dasharray="5,2" d="M1018.7649,-511.6315C1046.6769,-487.0841 1095.0444,-441.068 1125,-393 1176.6806,-310.0711 1209.4803,-197.5019 1222.7555,-145.9126"/>
<polygon fill="#000000" stroke="#000000" points="1226.1663,-146.7006 1225.221,-136.148 1219.3793,-144.9868 1226.1663,-146.7006"/>
<text text-anchor="middle" x="1087.5" y="-484" font-family="Times,serif" font-size="10.00" fill="#000000">integrates with</text>
</g>
<!-- cdi&#45;&gt;interceptors -->
<g id="edge16" class="edge">
<title>cdi&#45;&gt;interceptors</title>
<path fill="none" stroke="#000000" d="M1022.3242,-548.2988C1064.5379,-578.8015 1149.2794,-640.0341 1196.2474,-673.9723"/>
<polygon fill="#000000" stroke="#000000" points="1194.4036,-676.9581 1204.559,-679.9781 1198.5034,-671.2843 1194.4036,-676.9581"/>
<text text-anchor="middle" x="1087.5" y="-622" font-family="Times,serif" font-size="10.00" fill="#000000">requires</text>
</g>
<!-- di -->
<g id="node31" class="node">
<title>di</title>
<path fill="none" stroke="#000000" d="M1304,-548C1304,-548 1155,-548 1155,-548 1149,-548 1143,-542 1143,-536 1143,-536 1143,-524 1143,-524 1143,-518 1149,-512 1155,-512 1155,-512 1304,-512 1304,-512 1310,-512 1316,-518 1316,-524 1316,-524 1316,-536 1316,-536 1316,-542 1310,-548 1304,-548"/>
<text text-anchor="middle" x="1229.5" y="-526.3" font-family="Times,serif" font-size="14.00" fill="#000000">Dependency Injection</text>
</g>
<!-- cdi&#45;&gt;di -->
<g id="edge15" class="edge">
<title>cdi&#45;&gt;di</title>
<path fill="none" stroke="#000000" d="M1024.1257,-530C1050.8479,-530 1093.2722,-530 1132.6426,-530"/>
<polygon fill="#000000" stroke="#000000" points="1132.8423,-533.5001 1142.8423,-530 1132.8423,-526.5001 1132.8423,-533.5001"/>
<text text-anchor="middle" x="1087.5" y="-533" font-family="Times,serif" font-size="10.00" fill="#000000">requires</text>
</g>
<!-- bv&#45;&gt;cdi -->
<g id="edge45" class="edge">
<title>bv&#45;&gt;cdi</title>
<path fill="none" stroke="#000000" stroke-dasharray="5,2" d="M829.0111,-453.3979C864.4215,-456.3279 908.3412,-463.6246 944,-481 955.6172,-486.6607 966.4753,-495.7121 975.3008,-504.504"/>
<polygon fill="#000000" stroke="#000000" points="972.7741,-506.926 982.2081,-511.748 977.8402,-502.0954 972.7741,-506.926"/>
<text text-anchor="middle" x="906.5" y="-484" font-family="Times,serif" font-size="10.00" fill="#000000">integrates with</text>
</g>
<!-- batch -->
<g id="node33" class="node">
<title>batch</title>
<path fill="none" stroke="#000000" d="M113,-1069C113,-1069 78,-1069 78,-1069 72,-1069 66,-1063 66,-1057 66,-1057 66,-1045 66,-1045 66,-1039 72,-1033 78,-1033 78,-1033 113,-1033 113,-1033 119,-1033 125,-1039 125,-1045 125,-1045 125,-1057 125,-1057 125,-1063 119,-1069 113,-1069"/>
<text text-anchor="middle" x="95.5" y="-1047.3" font-family="Times,serif" font-size="14.00" fill="#000000">Batch</text>
</g>
</g>
</svg>
