<?xml version="1.0" encoding="UTF-8" standalone="no"?>
<!DOCTYPE svg PUBLIC "-//W3C//DTD SVG 1.1//EN"
 "http://www.w3.org/Graphics/SVG/1.1/DTD/svg11.dtd">
<!-- Generated by graphviz version 2.40.1 (20161225.0304)
 -->
<!-- Title: G Pages: 1 -->
<svg width="1553pt" height="1601pt"
 viewBox="0.00 0.00 1553.00 1601.00" xmlns="http://www.w3.org/2000/svg" xmlns:xlink="http://www.w3.org/1999/xlink">
<g id="graph0" class="graph" transform="scale(1 1) rotate(0) translate(4 1597)">
<title>G</title>
<polygon fill="#ffffff" stroke="transparent" points="-4,4 -4,-1597 1549,-1597 1549,4 -4,4"/>
<!-- jakartaee -->
<g id="node1" class="node">
<title>jakartaee</title>
<path fill="none" stroke="#000000" d="M149,-888C149,-888 12,-888 12,-888 6,-888 0,-882 0,-876 0,-876 0,-864 0,-864 0,-858 6,-852 12,-852 12,-852 149,-852 149,-852 155,-852 161,-858 161,-864 161,-864 161,-876 161,-876 161,-882 155,-888 149,-888"/>
<text text-anchor="middle" x="80.5" y="-866.3" font-family="Times,serif" font-size="14.00" fill="#000000">Jakarta EE Platform</text>
</g>
<!-- ca -->
<g id="node2" class="node">
<title>ca</title>
<path fill="none" stroke="#000000" d="M1532,-1379C1532,-1379 1385,-1379 1385,-1379 1379,-1379 1373,-1373 1373,-1367 1373,-1367 1373,-1355 1373,-1355 1373,-1349 1379,-1343 1385,-1343 1385,-1343 1532,-1343 1532,-1343 1538,-1343 1544,-1349 1544,-1355 1544,-1355 1544,-1367 1544,-1367 1544,-1373 1538,-1379 1532,-1379"/>
<text text-anchor="middle" x="1458.5" y="-1357.3" font-family="Times,serif" font-size="14.00" fill="#000000">Common Annotations</text>
</g>
<!-- jakartaee&#45;&gt;ca -->
<g id="edge1" class="edge">
<title>jakartaee&#45;&gt;ca</title>
<path fill="none" stroke="#000000" d="M80.9789,-888.1055C83.7928,-982.0027 100.8543,-1413.1247 179,-1516 193.2044,-1534.6994 324.7074,-1577 334.5,-1577 334.5,-1577 334.5,-1577 665.5,-1577 849.9365,-1577 901.906,-1604.9519 1080,-1557 1216.831,-1520.1582 1360.741,-1428.7645 1424.5779,-1385.045"/>
<polygon fill="#000000" stroke="#000000" points="1426.8017,-1387.7629 1433.0451,-1379.2031 1422.8264,-1382.0013 1426.8017,-1387.7629"/>
<text text-anchor="middle" x="771.5" y="-1585" font-family="Times,serif" font-size="10.00" fill="#000000">requires</text>
</g>
<!-- ejb -->
<g id="node3" class="node">
<title>ejb</title>
<path fill="none" stroke="#000000" d="M587,-1327C587,-1327 557,-1327 557,-1327 551,-1327 545,-1321 545,-1315 545,-1315 545,-1303 545,-1303 545,-1297 551,-1291 557,-1291 557,-1291 587,-1291 587,-1291 593,-1291 599,-1297 599,-1303 599,-1303 599,-1315 599,-1315 599,-1321 593,-1327 587,-1327"/>
<text text-anchor="middle" x="572" y="-1305.3" font-family="Times,serif" font-size="14.00" fill="#000000">EJB</text>
</g>
<!-- jakartaee&#45;&gt;ejb -->
<g id="edge2" class="edge">
<title>jakartaee&#45;&gt;ejb</title>
<path fill="none" stroke="#000000" d="M82.7687,-888.1661C91.7753,-957.5974 127.0626,-1205.1362 179,-1262 270.8052,-1362.5131 455.8689,-1335.6078 534.8781,-1318.2979"/>
<polygon fill="#000000" stroke="#000000" points="535.881,-1321.6594 544.8608,-1316.0367 534.3346,-1314.8324 535.881,-1321.6594"/>
<text text-anchor="middle" x="334.5" y="-1338" font-family="Times,serif" font-size="10.00" fill="#000000">requires</text>
</g>
<!-- el -->
<g id="node4" class="node">
<title>el</title>
<path fill="none" stroke="#000000" d="M1532,-897C1532,-897 1385,-897 1385,-897 1379,-897 1373,-891 1373,-885 1373,-885 1373,-873 1373,-873 1373,-867 1379,-861 1385,-861 1385,-861 1532,-861 1532,-861 1538,-861 1544,-867 1544,-873 1544,-873 1544,-885 1544,-885 1544,-891 1538,-897 1532,-897"/>
<text text-anchor="middle" x="1458.5" y="-875.3" font-family="Times,serif" font-size="14.00" fill="#000000">Expression Language</text>
</g>
<!-- jakartaee&#45;&gt;el -->
<g id="edge3" class="edge">
<title>jakartaee&#45;&gt;el</title>
<path fill="none" stroke="#000000" d="M83.1686,-851.8217C92.4117,-796.8118 128.7732,-633.7139 239,-598 504.3441,-512.0275 587.5757,-588 866.5,-588 866.5,-588 866.5,-588 1226,-588 1359.7469,-588 1429.1413,-777.9469 1450.8651,-850.916"/>
<polygon fill="#000000" stroke="#000000" points="1447.5828,-852.1648 1453.7263,-860.7966 1454.3066,-850.2177 1447.5828,-852.1648"/>
<text text-anchor="middle" x="771.5" y="-589" font-family="Times,serif" font-size="10.00" fill="#000000">requires</text>
</g>
<!-- es -->
<g id="node5" class="node">
<title>es</title>
<path fill="none" stroke="#000000" d="M1068,-1006C1068,-1006 934,-1006 934,-1006 928,-1006 922,-1000 922,-994 922,-994 922,-982 922,-982 922,-976 928,-970 934,-970 934,-970 1068,-970 1068,-970 1074,-970 1080,-976 1080,-982 1080,-982 1080,-994 1080,-994 1080,-1000 1074,-1006 1068,-1006"/>
<text text-anchor="middle" x="1001" y="-984.3" font-family="Times,serif" font-size="14.00" fill="#000000">Enterprise Security</text>
</g>
<!-- jakartaee&#45;&gt;es -->
<g id="edge4" class="edge">
<title>jakartaee&#45;&gt;es</title>
<path fill="none" stroke="#000000" d="M93.2114,-888.1833C110.0889,-910.8579 142.0988,-949.0586 179,-969 241.0752,-1002.5454 263.9407,-1001 334.5,-1001 334.5,-1001 334.5,-1001 771.5,-1001 817.8669,-1001 869.4189,-998.3223 911.8989,-995.3974"/>
<polygon fill="#000000" stroke="#000000" points="912.204,-998.8846 921.9333,-994.6904 911.712,-991.902 912.204,-998.8846"/>
<text text-anchor="middle" x="572" y="-1004" font-family="Times,serif" font-size="10.00" fill="#000000">requires</text>
</g>
<!-- jacc -->
<g id="node7" class="node">
<title>jacc</title>
<path fill="none" stroke="#000000" d="M350.5,-306C350.5,-306 318.5,-306 318.5,-306 312.5,-306 306.5,-300 306.5,-294 306.5,-294 306.5,-282 306.5,-282 306.5,-276 312.5,-270 318.5,-270 318.5,-270 350.5,-270 350.5,-270 356.5,-270 362.5,-276 362.5,-282 362.5,-282 362.5,-294 362.5,-294 362.5,-300 356.5,-306 350.5,-306"/>
<text text-anchor="middle" x="334.5" y="-284.3" font-family="Times,serif" font-size="14.00" fill="#000000">JACC</text>
</g>
<!-- jakartaee&#45;&gt;jacc -->
<g id="edge5" class="edge">
<title>jakartaee&#45;&gt;jacc</title>
<path fill="none" stroke="#000000" d="M80.7927,-851.836C82.6225,-763.2373 95.3554,-377.5894 179,-301 210.2782,-272.36 261.4511,-273.8861 296.4906,-279.3942"/>
<polygon fill="#000000" stroke="#000000" points="295.908,-282.8454 306.3609,-281.1166 297.1114,-275.9496 295.908,-282.8454"/>
<text text-anchor="middle" x="200" y="-304" font-family="Times,serif" font-size="10.00" fill="#000000">requires</text>
</g>
<!-- jaf -->
<g id="node8" class="node">
<title>jaf</title>
<path fill="none" stroke="#000000" d="M1241,-462C1241,-462 1211,-462 1211,-462 1205,-462 1199,-456 1199,-450 1199,-450 1199,-438 1199,-438 1199,-432 1205,-426 1211,-426 1211,-426 1241,-426 1241,-426 1247,-426 1253,-432 1253,-438 1253,-438 1253,-450 1253,-450 1253,-456 1247,-462 1241,-462"/>
<text text-anchor="middle" x="1226" y="-440.3" font-family="Times,serif" font-size="14.00" fill="#000000">JAF</text>
</g>
<!-- jakartaee&#45;&gt;jaf -->
<g id="edge6" class="edge">
<title>jakartaee&#45;&gt;jaf</title>
<path fill="none" stroke="#000000" d="M83.1797,-851.6695C93.8531,-780.3512 134.9035,-521.9285 179,-453 197.2548,-424.4654 207.559,-418.6064 239,-406 415.7911,-335.1151 475.0276,-364 665.5,-364 665.5,-364 665.5,-364 1001,-364 1071.0562,-364 1146.6608,-398.8564 1189.9651,-422.5533"/>
<polygon fill="#000000" stroke="#000000" points="1188.2632,-425.6116 1198.7019,-427.4239 1191.6718,-419.4975 1188.2632,-425.6116"/>
<text text-anchor="middle" x="665.5" y="-367" font-family="Times,serif" font-size="10.00" fill="#000000">requires</text>
</g>
<!-- javamail -->
<g id="node9" class="node">
<title>javamail</title>
<path fill="none" stroke="#000000" d="M515,-346C515,-346 460,-346 460,-346 454,-346 448,-340 448,-334 448,-334 448,-322 448,-322 448,-316 454,-310 460,-310 460,-310 515,-310 515,-310 521,-310 527,-316 527,-322 527,-322 527,-334 527,-334 527,-340 521,-346 515,-346"/>
<text text-anchor="middle" x="487.5" y="-324.3" font-family="Times,serif" font-size="14.00" fill="#000000">JavaMail</text>
</g>
<!-- jakartaee&#45;&gt;javamail -->
<g id="edge7" class="edge">
<title>jakartaee&#45;&gt;javamail</title>
<path fill="none" stroke="#000000" d="M81.0549,-851.8757C84.0363,-767.6625 101.0653,-415.7793 179,-347 216.205,-314.1657 360.6678,-318.8568 437.994,-323.9903"/>
<polygon fill="#000000" stroke="#000000" points="437.77,-327.4831 447.9876,-324.6811 438.2528,-320.4997 437.77,-327.4831"/>
<text text-anchor="middle" x="200" y="-350" font-family="Times,serif" font-size="10.00" fill="#000000">requires</text>
</g>
<!-- jaspic -->
<g id="node10" class="node">
<title>jaspic</title>
<path fill="none" stroke="#000000" d="M1249,-940C1249,-940 1203,-940 1203,-940 1197,-940 1191,-934 1191,-928 1191,-928 1191,-916 1191,-916 1191,-910 1197,-904 1203,-904 1203,-904 1249,-904 1249,-904 1255,-904 1261,-910 1261,-916 1261,-916 1261,-928 1261,-928 1261,-934 1255,-940 1249,-940"/>
<text text-anchor="middle" x="1226" y="-918.3" font-family="Times,serif" font-size="14.00" fill="#000000">JASPIC</text>
</g>
<!-- jakartaee&#45;&gt;jaspic -->
<g id="edge8" class="edge">
<title>jakartaee&#45;&gt;jaspic</title>
<path fill="none" stroke="#000000" d="M112.2358,-888.0263C159.2284,-912.9773 250.7984,-955 334.5,-955 334.5,-955 334.5,-955 771.5,-955 850.3134,-955 1081.7498,-935.0111 1180.5026,-926.1474"/>
<polygon fill="#000000" stroke="#000000" points="1181.1094,-929.607 1190.7552,-925.2243 1180.4816,-922.6352 1181.1094,-929.607"/>
<text text-anchor="middle" x="665.5" y="-958" font-family="Times,serif" font-size="10.00" fill="#000000">requires</text>
</g>
<!-- jaxws -->
<g id="node11" class="node">
<title>jaxws</title>
<path fill="none" stroke="#000000" d="M358,-643C358,-643 311,-643 311,-643 305,-643 299,-637 299,-631 299,-631 299,-619 299,-619 299,-613 305,-607 311,-607 311,-607 358,-607 358,-607 364,-607 370,-613 370,-619 370,-619 370,-631 370,-631 370,-637 364,-643 358,-643"/>
<text text-anchor="middle" x="334.5" y="-621.3" font-family="Times,serif" font-size="14.00" fill="#000000">JAX&#45;WS</text>
</g>
<!-- jakartaee&#45;&gt;jaxws -->
<g id="edge11" class="edge">
<title>jakartaee&#45;&gt;jaxws</title>
<path fill="none" stroke="#000000" d="M84.0944,-851.7977C92.8898,-812.1614 119.2885,-717.6286 179,-668 209.9414,-642.2834 255.1165,-631.8881 288.8111,-627.717"/>
<polygon fill="#000000" stroke="#000000" points="289.3129,-631.183 298.871,-626.6123 288.5487,-624.2249 289.3129,-631.183"/>
<text text-anchor="middle" x="200" y="-671" font-family="Times,serif" font-size="10.00" fill="#000000">requires</text>
</g>
<!-- jws -->
<g id="node12" class="node">
<title>jws</title>
<path fill="none" stroke="#000000" d="M349.5,-252C349.5,-252 319.5,-252 319.5,-252 313.5,-252 307.5,-246 307.5,-240 307.5,-240 307.5,-228 307.5,-228 307.5,-222 313.5,-216 319.5,-216 319.5,-216 349.5,-216 349.5,-216 355.5,-216 361.5,-222 361.5,-228 361.5,-228 361.5,-240 361.5,-240 361.5,-246 355.5,-252 349.5,-252"/>
<text text-anchor="middle" x="334.5" y="-230.3" font-family="Times,serif" font-size="14.00" fill="#000000">JWS</text>
</g>
<!-- jakartaee&#45;&gt;jws -->
<g id="edge12" class="edge">
<title>jakartaee&#45;&gt;jws</title>
<path fill="none" stroke="#000000" d="M80.7763,-851.8134C82.5477,-760.3828 95.117,-351.9048 179,-265 209.2328,-233.6781 261.4524,-229.224 296.9579,-230.3957"/>
<polygon fill="#000000" stroke="#000000" points="297.2354,-233.9138 307.3974,-230.9164 297.5842,-226.9225 297.2354,-233.9138"/>
<text text-anchor="middle" x="200" y="-268" font-family="Times,serif" font-size="10.00" fill="#000000">requires</text>
</g>
<!-- jaxb -->
<g id="node13" class="node">
<title>jaxb</title>
<path fill="none" stroke="#000000" d="M1016,-511C1016,-511 986,-511 986,-511 980,-511 974,-505 974,-499 974,-499 974,-487 974,-487 974,-481 980,-475 986,-475 986,-475 1016,-475 1016,-475 1022,-475 1028,-481 1028,-487 1028,-487 1028,-499 1028,-499 1028,-505 1022,-511 1016,-511"/>
<text text-anchor="middle" x="1001" y="-489.3" font-family="Times,serif" font-size="14.00" fill="#000000">JAXB</text>
</g>
<!-- jakartaee&#45;&gt;jaxb -->
<g id="edge9" class="edge">
<title>jakartaee&#45;&gt;jaxb</title>
<path fill="none" stroke="#000000" d="M81.697,-851.9675C88.3996,-766.9201 128.7832,-410 334.5,-410 334.5,-410 334.5,-410 665.5,-410 740.9879,-410 755.7312,-437.8312 829,-456 875.0768,-467.4259 928.6032,-478.6159 963.5502,-485.645"/>
<polygon fill="#000000" stroke="#000000" points="963.2783,-489.1599 973.7705,-487.6885 964.6509,-482.2957 963.2783,-489.1599"/>
<text text-anchor="middle" x="572" y="-413" font-family="Times,serif" font-size="10.00" fill="#000000">requires</text>
</g>
<!-- jaxrs -->
<g id="node14" class="node">
<title>jaxrs</title>
<path fill="none" stroke="#000000" d="M793.5,-1180C793.5,-1180 749.5,-1180 749.5,-1180 743.5,-1180 737.5,-1174 737.5,-1168 737.5,-1168 737.5,-1156 737.5,-1156 737.5,-1150 743.5,-1144 749.5,-1144 749.5,-1144 793.5,-1144 793.5,-1144 799.5,-1144 805.5,-1150 805.5,-1156 805.5,-1156 805.5,-1168 805.5,-1168 805.5,-1174 799.5,-1180 793.5,-1180"/>
<text text-anchor="middle" x="771.5" y="-1158.3" font-family="Times,serif" font-size="14.00" fill="#000000">JAX&#45;RS</text>
</g>
<!-- jakartaee&#45;&gt;jaxrs -->
<g id="edge10" class="edge">
<title>jakartaee&#45;&gt;jaxrs</title>
<path fill="none" stroke="#000000" d="M84.1784,-888.1198C96.0258,-944.5222 134.9887,-1115.0972 179,-1147 222.9542,-1178.8614 597.0808,-1168.386 727.1516,-1163.7231"/>
<polygon fill="#000000" stroke="#000000" points="727.3048,-1167.22 737.1706,-1163.3581 727.0498,-1160.2246 727.3048,-1167.22"/>
<text text-anchor="middle" x="487.5" y="-1172" font-family="Times,serif" font-size="10.00" fill="#000000">requires</text>
</g>
<!-- jca -->
<g id="node15" class="node">
<title>jca</title>
<path fill="none" stroke="#000000" d="M349.5,-1274C349.5,-1274 319.5,-1274 319.5,-1274 313.5,-1274 307.5,-1268 307.5,-1262 307.5,-1262 307.5,-1250 307.5,-1250 307.5,-1244 313.5,-1238 319.5,-1238 319.5,-1238 349.5,-1238 349.5,-1238 355.5,-1238 361.5,-1244 361.5,-1250 361.5,-1250 361.5,-1262 361.5,-1262 361.5,-1268 355.5,-1274 349.5,-1274"/>
<text text-anchor="middle" x="334.5" y="-1252.3" font-family="Times,serif" font-size="14.00" fill="#000000">JCA</text>
</g>
<!-- jakartaee&#45;&gt;jca -->
<g id="edge13" class="edge">
<title>jakartaee&#45;&gt;jca</title>
<path fill="none" stroke="#000000" d="M83.0729,-888.3987C92.6481,-954.2284 128.2951,-1176.6513 179,-1224 210.6744,-1253.5779 262.1007,-1258.8941 297.0669,-1258.5936"/>
<polygon fill="#000000" stroke="#000000" points="297.4391,-1262.0856 307.35,-1258.3407 297.2669,-1255.0877 297.4391,-1262.0856"/>
<text text-anchor="middle" x="200" y="-1250" font-family="Times,serif" font-size="10.00" fill="#000000">requires</text>
</g>
<!-- jms -->
<g id="node16" class="node">
<title>jms</title>
<path fill="none" stroke="#000000" d="M786.5,-1411C786.5,-1411 756.5,-1411 756.5,-1411 750.5,-1411 744.5,-1405 744.5,-1399 744.5,-1399 744.5,-1387 744.5,-1387 744.5,-1381 750.5,-1375 756.5,-1375 756.5,-1375 786.5,-1375 786.5,-1375 792.5,-1375 798.5,-1381 798.5,-1387 798.5,-1387 798.5,-1399 798.5,-1399 798.5,-1405 792.5,-1411 786.5,-1411"/>
<text text-anchor="middle" x="771.5" y="-1389.3" font-family="Times,serif" font-size="14.00" fill="#000000">JMS</text>
</g>
<!-- jakartaee&#45;&gt;jms -->
<g id="edge14" class="edge">
<title>jakartaee&#45;&gt;jms</title>
<path fill="none" stroke="#000000" d="M81.1309,-888.1785C83.9683,-949.278 99.2155,-1151.2949 179,-1292 197.2944,-1324.2633 205.2029,-1334.7238 239,-1350 327.5534,-1390.0259 627.9359,-1393.3363 734.0193,-1393.2199"/>
<polygon fill="#000000" stroke="#000000" points="734.253,-1396.7195 744.2451,-1393.1972 734.2373,-1389.7195 734.253,-1396.7195"/>
<text text-anchor="middle" x="487.5" y="-1391" font-family="Times,serif" font-size="10.00" fill="#000000">requires</text>
</g>
<!-- jpa -->
<g id="node17" class="node">
<title>jpa</title>
<path fill="none" stroke="#000000" d="M881.5,-1550C881.5,-1550 851.5,-1550 851.5,-1550 845.5,-1550 839.5,-1544 839.5,-1538 839.5,-1538 839.5,-1526 839.5,-1526 839.5,-1520 845.5,-1514 851.5,-1514 851.5,-1514 881.5,-1514 881.5,-1514 887.5,-1514 893.5,-1520 893.5,-1526 893.5,-1526 893.5,-1538 893.5,-1538 893.5,-1544 887.5,-1550 881.5,-1550"/>
<text text-anchor="middle" x="866.5" y="-1528.3" font-family="Times,serif" font-size="14.00" fill="#000000">JPA</text>
</g>
<!-- jakartaee&#45;&gt;jpa -->
<g id="edge15" class="edge">
<title>jakartaee&#45;&gt;jpa</title>
<path fill="none" stroke="#000000" d="M80.8643,-888.0738C83.0766,-979.88 97.5027,-1393.7949 179,-1486 226.6475,-1539.9079 262.5532,-1531 334.5,-1531 334.5,-1531 334.5,-1531 665.5,-1531 722.52,-1531 788.6375,-1531.4074 829.0094,-1531.7021"/>
<polygon fill="#000000" stroke="#000000" points="829.1651,-1535.2033 839.1909,-1531.7781 829.2173,-1528.2035 829.1651,-1535.2033"/>
<text text-anchor="middle" x="487.5" y="-1534" font-family="Times,serif" font-size="10.00" fill="#000000">requires</text>
</g>
<!-- jsonb -->
<g id="node18" class="node">
<title>jsonb</title>
<path fill="none" stroke="#000000" d="M1025,-1106C1025,-1106 977,-1106 977,-1106 971,-1106 965,-1100 965,-1094 965,-1094 965,-1082 965,-1082 965,-1076 971,-1070 977,-1070 977,-1070 1025,-1070 1025,-1070 1031,-1070 1037,-1076 1037,-1082 1037,-1082 1037,-1094 1037,-1094 1037,-1100 1031,-1106 1025,-1106"/>
<text text-anchor="middle" x="1001" y="-1084.3" font-family="Times,serif" font-size="14.00" fill="#000000">JSON&#45;B</text>
</g>
<!-- jakartaee&#45;&gt;jsonb -->
<g id="edge16" class="edge">
<title>jakartaee&#45;&gt;jsonb</title>
<path fill="none" stroke="#000000" d="M84.0187,-888.1834C92.5392,-926.6535 118.2276,-1015.8722 179,-1054 244.7067,-1095.2236 790.7813,-1090.9677 954.6732,-1088.7332"/>
<polygon fill="#000000" stroke="#000000" points="954.9568,-1092.2297 964.9066,-1088.5895 954.8584,-1085.2304 954.9568,-1092.2297"/>
<text text-anchor="middle" x="572" y="-1091" font-family="Times,serif" font-size="10.00" fill="#000000">requires</text>
</g>
<!-- jsonp -->
<g id="node19" class="node">
<title>jsonp</title>
<path fill="none" stroke="#000000" d="M1024.5,-1404C1024.5,-1404 977.5,-1404 977.5,-1404 971.5,-1404 965.5,-1398 965.5,-1392 965.5,-1392 965.5,-1380 965.5,-1380 965.5,-1374 971.5,-1368 977.5,-1368 977.5,-1368 1024.5,-1368 1024.5,-1368 1030.5,-1368 1036.5,-1374 1036.5,-1380 1036.5,-1380 1036.5,-1392 1036.5,-1392 1036.5,-1398 1030.5,-1404 1024.5,-1404"/>
<text text-anchor="middle" x="1001" y="-1382.3" font-family="Times,serif" font-size="14.00" fill="#000000">JSON&#45;P</text>
</g>
<!-- jakartaee&#45;&gt;jsonp -->
<g id="edge17" class="edge">
<title>jakartaee&#45;&gt;jsonp</title>
<path fill="none" stroke="#000000" d="M82.77,-888.0808C92.4738,-963.4631 132.1189,-1252.4078 179,-1330 196.9509,-1359.7103 207.3543,-1365.735 239,-1380 432.8906,-1467.4003 502.1744,-1457.0348 714,-1438 800.1749,-1430.2563 899.1688,-1409.6846 955.4807,-1396.8585"/>
<polygon fill="#000000" stroke="#000000" points="956.5242,-1400.21 965.4859,-1394.5585 954.956,-1393.3879 956.5242,-1400.21"/>
<text text-anchor="middle" x="572" y="-1453" font-family="Times,serif" font-size="10.00" fill="#000000">requires</text>
</g>
<!-- jsf -->
<g id="node20" class="node">
<title>jsf</title>
<path fill="none" stroke="#000000" d="M349.5,-793C349.5,-793 319.5,-793 319.5,-793 313.5,-793 307.5,-787 307.5,-781 307.5,-781 307.5,-769 307.5,-769 307.5,-763 313.5,-757 319.5,-757 319.5,-757 349.5,-757 349.5,-757 355.5,-757 361.5,-763 361.5,-769 361.5,-769 361.5,-781 361.5,-781 361.5,-787 355.5,-793 349.5,-793"/>
<text text-anchor="middle" x="334.5" y="-771.3" font-family="Times,serif" font-size="14.00" fill="#000000">JSF</text>
</g>
<!-- jakartaee&#45;&gt;jsf -->
<g id="edge18" class="edge">
<title>jakartaee&#45;&gt;jsf</title>
<path fill="none" stroke="#000000" d="M102.9881,-851.8071C122.1048,-837.2552 150.8552,-817.4537 179,-806 217.5995,-790.2918 264.9254,-782.3211 297.1586,-778.4299"/>
<polygon fill="#000000" stroke="#000000" points="297.9343,-781.8645 307.4769,-777.2614 297.1465,-774.909 297.9343,-781.8645"/>
<text text-anchor="middle" x="200" y="-809" font-family="Times,serif" font-size="10.00" fill="#000000">requires</text>
</g>
<!-- jsp -->
<g id="node21" class="node">
<title>jsp</title>
<path fill="none" stroke="#000000" d="M786.5,-797C786.5,-797 756.5,-797 756.5,-797 750.5,-797 744.5,-791 744.5,-785 744.5,-785 744.5,-773 744.5,-773 744.5,-767 750.5,-761 756.5,-761 756.5,-761 786.5,-761 786.5,-761 792.5,-761 798.5,-767 798.5,-773 798.5,-773 798.5,-785 798.5,-785 798.5,-791 792.5,-797 786.5,-797"/>
<text text-anchor="middle" x="771.5" y="-775.3" font-family="Times,serif" font-size="14.00" fill="#000000">JSP</text>
</g>
<!-- jakartaee&#45;&gt;jsp -->
<g id="edge19" class="edge">
<title>jakartaee&#45;&gt;jsp</title>
<path fill="none" stroke="#000000" d="M95.7055,-851.8216C121.5228,-822.6386 177.183,-766.7167 239,-748 418.2494,-693.7276 646.6226,-744.5542 734.6308,-768.2936"/>
<polygon fill="#000000" stroke="#000000" points="733.8429,-771.7067 744.4127,-770.9778 735.6954,-764.9563 733.8429,-771.7067"/>
<text text-anchor="middle" x="487.5" y="-732" font-family="Times,serif" font-size="10.00" fill="#000000">requires</text>
</g>
<!-- jstl -->
<g id="node22" class="node">
<title>jstl</title>
<path fill="none" stroke="#000000" d="M587,-842C587,-842 557,-842 557,-842 551,-842 545,-836 545,-830 545,-830 545,-818 545,-818 545,-812 551,-806 557,-806 557,-806 587,-806 587,-806 593,-806 599,-812 599,-818 599,-818 599,-830 599,-830 599,-836 593,-842 587,-842"/>
<text text-anchor="middle" x="572" y="-820.3" font-family="Times,serif" font-size="14.00" fill="#000000">JSTL</text>
</g>
<!-- jakartaee&#45;&gt;jstl -->
<g id="edge20" class="edge">
<title>jakartaee&#45;&gt;jstl</title>
<path fill="none" stroke="#000000" d="M161.3444,-855.7553C186.1903,-851.7804 213.6636,-847.7909 239,-845 345.9554,-833.2186 473.0204,-827.478 534.7002,-825.2146"/>
<polygon fill="#000000" stroke="#000000" points="534.8633,-828.7111 544.7319,-824.8562 534.6133,-821.7156 534.8633,-828.7111"/>
<text text-anchor="middle" x="334.5" y="-848" font-family="Times,serif" font-size="10.00" fill="#000000">requires</text>
</g>
<!-- jta -->
<g id="node23" class="node">
<title>jta</title>
<path fill="none" stroke="#000000" d="M786.5,-1503C786.5,-1503 756.5,-1503 756.5,-1503 750.5,-1503 744.5,-1497 744.5,-1491 744.5,-1491 744.5,-1479 744.5,-1479 744.5,-1473 750.5,-1467 756.5,-1467 756.5,-1467 786.5,-1467 786.5,-1467 792.5,-1467 798.5,-1473 798.5,-1479 798.5,-1479 798.5,-1491 798.5,-1491 798.5,-1497 792.5,-1503 786.5,-1503"/>
<text text-anchor="middle" x="771.5" y="-1481.3" font-family="Times,serif" font-size="14.00" fill="#000000">JTA</text>
</g>
<!-- jakartaee&#45;&gt;jta -->
<g id="edge21" class="edge">
<title>jakartaee&#45;&gt;jta</title>
<path fill="none" stroke="#000000" d="M82.1346,-888.1009C90.9391,-983.6574 133.9899,-1426.5603 179,-1466 220.6495,-1502.495 611.0626,-1491.0548 734.3678,-1486.4849"/>
<polygon fill="#000000" stroke="#000000" points="734.5924,-1489.979 744.4533,-1486.1042 734.3283,-1482.984 734.5924,-1489.979"/>
<text text-anchor="middle" x="487.5" y="-1494" font-family="Times,serif" font-size="10.00" fill="#000000">requires</text>
</g>
<!-- deployment -->
<g id="node24" class="node">
<title>deployment</title>
<path fill="none" stroke="#000000" d="M414.5,-198C414.5,-198 254.5,-198 254.5,-198 248.5,-198 242.5,-192 242.5,-186 242.5,-186 242.5,-174 242.5,-174 242.5,-168 248.5,-162 254.5,-162 254.5,-162 414.5,-162 414.5,-162 420.5,-162 426.5,-168 426.5,-174 426.5,-174 426.5,-186 426.5,-186 426.5,-192 420.5,-198 414.5,-198"/>
<text text-anchor="middle" x="334.5" y="-176.3" font-family="Times,serif" font-size="14.00" fill="#000000">Enterprise Deployment</text>
</g>
<!-- jakartaee&#45;&gt;deployment -->
<g id="edge22" class="edge">
<title>jakartaee&#45;&gt;deployment</title>
<path fill="none" stroke="#000000" d="M80.7426,-851.7271C82.3652,-756.9899 94.3859,-322.3657 179,-225 193.0048,-208.8846 212.3914,-198.371 232.7323,-191.5536"/>
<polygon fill="#000000" stroke="#000000" points="233.9094,-194.8538 242.4508,-188.5852 231.8645,-188.1591 233.9094,-194.8538"/>
<text text-anchor="middle" x="200" y="-228" font-family="Times,serif" font-size="10.00" fill="#000000">requires</text>
</g>
<!-- management -->
<g id="node25" class="node">
<title>management</title>
<path fill="none" stroke="#000000" d="M418,-144C418,-144 251,-144 251,-144 245,-144 239,-138 239,-132 239,-132 239,-120 239,-120 239,-114 245,-108 251,-108 251,-108 418,-108 418,-108 424,-108 430,-114 430,-120 430,-120 430,-132 430,-132 430,-138 424,-144 418,-144"/>
<text text-anchor="middle" x="334.5" y="-122.3" font-family="Times,serif" font-size="14.00" fill="#000000">Enterprise Management</text>
</g>
<!-- jakartaee&#45;&gt;management -->
<g id="edge23" class="edge">
<title>jakartaee&#45;&gt;management</title>
<path fill="none" stroke="#000000" d="M80.8487,-851.7405C83.0432,-754.0343 97.628,-293.2793 179,-182 191.5012,-164.9041 209.7204,-153.0111 229.321,-144.7421"/>
<polygon fill="#000000" stroke="#000000" points="230.6733,-147.9716 238.7203,-141.0798 228.1319,-141.4492 230.6733,-147.9716"/>
<text text-anchor="middle" x="200" y="-185" font-family="Times,serif" font-size="10.00" fill="#000000">requires</text>
</g>
<!-- jaxr -->
<g id="node26" class="node">
<title>jaxr</title>
<path fill="none" stroke="#000000" d="M349.5,-90C349.5,-90 319.5,-90 319.5,-90 313.5,-90 307.5,-84 307.5,-78 307.5,-78 307.5,-66 307.5,-66 307.5,-60 313.5,-54 319.5,-54 319.5,-54 349.5,-54 349.5,-54 355.5,-54 361.5,-60 361.5,-66 361.5,-66 361.5,-78 361.5,-78 361.5,-84 355.5,-90 349.5,-90"/>
<text text-anchor="middle" x="334.5" y="-68.3" font-family="Times,serif" font-size="14.00" fill="#000000">JAXR</text>
</g>
<!-- jakartaee&#45;&gt;jaxr -->
<g id="edge25" class="edge">
<title>jakartaee&#45;&gt;jaxr</title>
<path fill="none" stroke="#000000" d="M80.8105,-851.9301C82.8516,-750.9965 96.9569,-257.097 179,-134 205.0779,-94.8728 260.3021,-80.4381 297.4166,-75.1129"/>
<polygon fill="#000000" stroke="#000000" points="297.8906,-78.5809 307.3653,-73.8396 297.0018,-71.6375 297.8906,-78.5809"/>
<text text-anchor="middle" x="200" y="-137" font-family="Times,serif" font-size="10.00" fill="#000000">requires</text>
</g>
<!-- servlet -->
<g id="node27" class="node">
<title>servlet</title>
<path fill="none" stroke="#000000" d="M1027,-893C1027,-893 975,-893 975,-893 969,-893 963,-887 963,-881 963,-881 963,-869 963,-869 963,-863 969,-857 975,-857 975,-857 1027,-857 1027,-857 1033,-857 1039,-863 1039,-869 1039,-869 1039,-881 1039,-881 1039,-887 1033,-893 1027,-893"/>
<text text-anchor="middle" x="1001" y="-871.3" font-family="Times,serif" font-size="14.00" fill="#000000">Servlets</text>
</g>
<!-- jakartaee&#45;&gt;servlet -->
<g id="edge26" class="edge">
<title>jakartaee&#45;&gt;servlet</title>
<path fill="none" stroke="#000000" d="M161.3815,-870.4393C347.7471,-871.4516 802.8493,-873.9237 952.455,-874.7363"/>
<polygon fill="#000000" stroke="#000000" points="952.6719,-878.2374 962.6908,-874.7919 952.71,-871.2375 952.6719,-878.2374"/>
<text text-anchor="middle" x="572" y="-875" font-family="Times,serif" font-size="10.00" fill="#000000">requires</text>
</g>
<!-- websocket -->
<g id="node28" class="node">
<title>websocket</title>
<path fill="none" stroke="#000000" d="M702,-932C702,-932 629,-932 629,-932 623,-932 617,-926 617,-920 617,-920 617,-908 617,-908 617,-902 623,-896 629,-896 629,-896 702,-896 702,-896 708,-896 714,-902 714,-908 714,-908 714,-920 714,-920 714,-926 708,-932 702,-932"/>
<text text-anchor="middle" x="665.5" y="-910.3" font-family="Times,serif" font-size="14.00" fill="#000000">WebSocket</text>
</g>
<!-- jakartaee&#45;&gt;websocket -->
<g id="edge27" class="edge">
<title>jakartaee&#45;&gt;websocket</title>
<path fill="none" stroke="#000000" d="M161.0935,-881.7549C167.1489,-882.5462 173.1687,-883.3041 179,-884 298.2665,-898.2323 328.0849,-903.1127 448,-910 501.5811,-913.0774 562.697,-913.9708 606.4718,-914.1566"/>
<polygon fill="#000000" stroke="#000000" points="606.6418,-917.6571 616.6527,-914.1885 606.6637,-910.6571 606.6418,-917.6571"/>
<text text-anchor="middle" x="334.5" y="-911" font-family="Times,serif" font-size="10.00" fill="#000000">requires</text>
</g>
<!-- jaxrpc -->
<g id="node29" class="node">
<title>jaxrpc</title>
<path fill="none" stroke="#000000" d="M799,-1281C799,-1281 744,-1281 744,-1281 738,-1281 732,-1275 732,-1269 732,-1269 732,-1257 732,-1257 732,-1251 738,-1245 744,-1245 744,-1245 799,-1245 799,-1245 805,-1245 811,-1251 811,-1257 811,-1257 811,-1269 811,-1269 811,-1275 805,-1281 799,-1281"/>
<text text-anchor="middle" x="771.5" y="-1259.3" font-family="Times,serif" font-size="14.00" fill="#000000">JAX&#45;RPC</text>
</g>
<!-- jakartaee&#45;&gt;jaxrpc -->
<g id="edge28" class="edge">
<title>jakartaee&#45;&gt;jaxrpc</title>
<path fill="none" stroke="#000000" d="M84.1014,-888.1619C96.018,-946.4565 135.8731,-1127.2914 179,-1166 268.1079,-1245.9789 600.1174,-1193.0189 714,-1230 721.6202,-1232.4745 729.3477,-1236.0432 736.5607,-1239.9281"/>
<polygon fill="#000000" stroke="#000000" points="734.9554,-1243.0418 745.3752,-1244.9595 738.4256,-1236.9625 734.9554,-1243.0418"/>
<text text-anchor="middle" x="487.5" y="-1217" font-family="Times,serif" font-size="10.00" fill="#000000">requires</text>
</g>
<!-- saaj -->
<g id="node30" class="node">
<title>saaj</title>
<path fill="none" stroke="#000000" d="M587,-475C587,-475 557,-475 557,-475 551,-475 545,-469 545,-463 545,-463 545,-451 545,-451 545,-445 551,-439 557,-439 557,-439 587,-439 587,-439 593,-439 599,-445 599,-451 599,-451 599,-463 599,-463 599,-469 593,-475 587,-475"/>
<text text-anchor="middle" x="572" y="-453.3" font-family="Times,serif" font-size="14.00" fill="#000000">SAAJ</text>
</g>
<!-- jakartaee&#45;&gt;saaj -->
<g id="edge24" class="edge">
<title>jakartaee&#45;&gt;saaj</title>
<path fill="none" stroke="#000000" d="M84.1448,-851.9247C96.352,-792.9944 137.3768,-607.7672 179,-565 276.2142,-465.1139 456.5115,-455.0015 534.4723,-455.6474"/>
<polygon fill="#000000" stroke="#000000" points="534.7231,-459.1514 544.7745,-455.8017 534.828,-452.1522 534.7231,-459.1514"/>
<text text-anchor="middle" x="334.5" y="-520" font-family="Times,serif" font-size="10.00" fill="#000000">requires</text>
</g>
<!-- cdi -->
<g id="node31" class="node">
<title>cdi</title>
<path fill="none" stroke="#000000" d="M1241,-1214C1241,-1214 1211,-1214 1211,-1214 1205,-1214 1199,-1208 1199,-1202 1199,-1202 1199,-1190 1199,-1190 1199,-1184 1205,-1178 1211,-1178 1211,-1178 1241,-1178 1241,-1178 1247,-1178 1253,-1184 1253,-1190 1253,-1190 1253,-1202 1253,-1202 1253,-1208 1247,-1214 1241,-1214"/>
<text text-anchor="middle" x="1226" y="-1192.3" font-family="Times,serif" font-size="14.00" fill="#000000">CDI</text>
</g>
<!-- jakartaee&#45;&gt;cdi -->
<g id="edge29" class="edge">
<title>jakartaee&#45;&gt;cdi</title>
<path fill="none" stroke="#000000" d="M90.4318,-888.1239C105.9185,-914.7324 138.3095,-964.2144 179,-992 192.4976,-1001.2168 316.075,-1040 334.5,-1040 334.5,-1040 334.5,-1040 1001,-1040 1082.411,-1040 1112.7983,-1048.1957 1173,-1103 1192.7222,-1120.9541 1206.9885,-1148.0059 1215.7178,-1168.3123"/>
<polygon fill="#000000" stroke="#000000" points="1212.5233,-1169.7472 1219.5579,-1177.6696 1218.9992,-1167.0895 1212.5233,-1169.7472"/>
<text text-anchor="middle" x="665.5" y="-1043" font-family="Times,serif" font-size="10.00" fill="#000000">requires</text>
</g>
<!-- bv -->
<g id="node33" class="node">
<title>bv</title>
<path fill="none" stroke="#000000" d="M1053,-1160C1053,-1160 949,-1160 949,-1160 943,-1160 937,-1154 937,-1148 937,-1148 937,-1136 937,-1136 937,-1130 943,-1124 949,-1124 949,-1124 1053,-1124 1053,-1124 1059,-1124 1065,-1130 1065,-1136 1065,-1136 1065,-1148 1065,-1148 1065,-1154 1059,-1160 1053,-1160"/>
<text text-anchor="middle" x="1001" y="-1138.3" font-family="Times,serif" font-size="14.00" fill="#000000">Bean Validation</text>
</g>
<!-- jakartaee&#45;&gt;bv -->
<g id="edge30" class="edge">
<title>jakartaee&#45;&gt;bv</title>
<path fill="none" stroke="#000000" d="M83.9958,-888.0508C92.6588,-927.8375 118.9153,-1023.5419 179,-1074 200.2248,-1091.8243 211.6357,-1086.5961 239,-1091 385.0119,-1114.4984 757.656,-1095.6671 904,-1117 912.2871,-1118.208 920.8888,-1119.8462 929.3935,-1121.71"/>
<polygon fill="#000000" stroke="#000000" points="928.7781,-1125.1597 939.3081,-1123.9892 930.3465,-1118.3377 928.7781,-1125.1597"/>
<text text-anchor="middle" x="572" y="-1108" font-family="Times,serif" font-size="10.00" fill="#000000">requires</text>
</g>
<!-- batch -->
<g id="node34" class="node">
<title>batch</title>
<path fill="none" stroke="#000000" d="M352,-36C352,-36 317,-36 317,-36 311,-36 305,-30 305,-24 305,-24 305,-12 305,-12 305,-6 311,0 317,0 317,0 352,0 352,0 358,0 364,-6 364,-12 364,-12 364,-24 364,-24 364,-30 358,-36 352,-36"/>
<text text-anchor="middle" x="334.5" y="-14.3" font-family="Times,serif" font-size="14.00" fill="#000000">Batch</text>
</g>
<!-- jakartaee&#45;&gt;batch -->
<g id="edge31" class="edge">
<title>jakartaee&#45;&gt;batch</title>
<path fill="none" stroke="#000000" d="M80.7384,-851.8154C82.4124,-746.8248 94.9603,-218.1812 179,-84 203.6878,-44.5825 257.464,-28.6738 294.8142,-22.2741"/>
<polygon fill="#000000" stroke="#000000" points="295.532,-25.7047 304.8755,-20.7096 294.4564,-18.7878 295.532,-25.7047"/>
<text text-anchor="middle" x="200" y="-87" font-family="Times,serif" font-size="10.00" fill="#000000">requires</text>
</g>
<!-- interceptors -->
<g id="node6" class="node">
<title>interceptors</title>
<path fill="none" stroke="#000000" d="M1500,-1469C1500,-1469 1417,-1469 1417,-1469 1411,-1469 1405,-1463 1405,-1457 1405,-1457 1405,-1445 1405,-1445 1405,-1439 1411,-1433 1417,-1433 1417,-1433 1500,-1433 1500,-1433 1506,-1433 1512,-1439 1512,-1445 1512,-1445 1512,-1457 1512,-1457 1512,-1463 1506,-1469 1500,-1469"/>
<text text-anchor="middle" x="1458.5" y="-1447.3" font-family="Times,serif" font-size="14.00" fill="#000000">Interceptors</text>
</g>
<!-- ejb&#45;&gt;interceptors -->
<g id="edge32" class="edge">
<title>ejb&#45;&gt;interceptors</title>
<path fill="none" stroke="#000000" d="M599.1201,-1315.6615C605.0128,-1317.1 611.2139,-1318.6068 617,-1320 660.0754,-1330.3715 776.4212,-1338.2986 811,-1366 825.2721,-1377.4335 816.9722,-1389.225 829,-1403 861.6731,-1440.4195 874.455,-1450.6045 922,-1465 1008.5209,-1491.1964 1272.122,-1469.6361 1394.6438,-1457.666"/>
<polygon fill="#000000" stroke="#000000" points="1395.0272,-1461.1453 1404.6354,-1456.6805 1394.3401,-1454.1791 1395.0272,-1461.1453"/>
<text text-anchor="middle" x="1001" y="-1480" font-family="Times,serif" font-size="10.00" fill="#000000">requires</text>
</g>
<!-- ejb&#45;&gt;jaxrs -->
<g id="edge59" class="edge">
<title>ejb&#45;&gt;jaxrs</title>
<path fill="none" stroke="#000000" stroke-dasharray="5,2" d="M588.707,-1282.5591C596.4401,-1271.6367 606.2868,-1259.3674 617,-1250 650.5234,-1220.6877 695.3262,-1196.467 728.0509,-1180.9075"/>
<polygon fill="#000000" stroke="#000000" points="585.7276,-1280.7158 582.9822,-1290.9488 591.5097,-1284.6614 585.7276,-1280.7158"/>
<polygon fill="#000000" stroke="#000000" points="729.7872,-1183.9595 737.3664,-1176.5564 726.8248,-1177.6173 729.7872,-1183.9595"/>
<text text-anchor="middle" x="665.5" y="-1253" font-family="Times,serif" font-size="10.00" fill="#000000">integrates with</text>
</g>
<!-- ejb&#45;&gt;jms -->
<g id="edge34" class="edge">
<title>ejb&#45;&gt;jms</title>
<path fill="none" stroke="#000000" d="M590.8631,-1327.1792C598.4677,-1333.6422 607.6479,-1340.4388 617,-1345 656.8225,-1364.4223 671.9633,-1354.0008 714,-1368 720.9583,-1370.3173 728.2368,-1373.1464 735.1849,-1376.0576"/>
<polygon fill="#000000" stroke="#000000" points="733.8258,-1379.283 744.3937,-1380.0377 736.603,-1372.8575 733.8258,-1379.283"/>
<text text-anchor="middle" x="665.5" y="-1371" font-family="Times,serif" font-size="10.00" fill="#000000">requires</text>
</g>
<!-- ejb&#45;&gt;jta -->
<g id="edge33" class="edge">
<title>ejb&#45;&gt;jta</title>
<path fill="none" stroke="#000000" d="M580.2401,-1327.2526C588.0817,-1343.2368 601.0377,-1366.4334 617,-1383 651.8578,-1419.1774 701.7457,-1449.202 735.3154,-1467.1007"/>
<polygon fill="#000000" stroke="#000000" points="733.8429,-1470.2805 744.325,-1471.8225 737.0924,-1464.0804 733.8429,-1470.2805"/>
<text text-anchor="middle" x="665.5" y="-1457" font-family="Times,serif" font-size="10.00" fill="#000000">requires</text>
</g>
<!-- ejb&#45;&gt;jaxrpc -->
<g id="edge60" class="edge">
<title>ejb&#45;&gt;jaxrpc</title>
<path fill="none" stroke="#000000" stroke-dasharray="5,2" d="M608.3485,-1287.3589C611.2215,-1286.098 614.1246,-1284.9564 617,-1284 650.9236,-1272.7168 690.9654,-1267.4864 721.7838,-1265.0666"/>
<polygon fill="#000000" stroke="#000000" points="606.8244,-1284.2081 599.3451,-1291.7123 609.8716,-1290.5101 606.8244,-1284.2081"/>
<polygon fill="#000000" stroke="#000000" points="722.1335,-1268.5506 731.8595,-1264.349 721.6361,-1261.5683 722.1335,-1268.5506"/>
<text text-anchor="middle" x="665.5" y="-1287" font-family="Times,serif" font-size="10.00" fill="#000000">integrates with</text>
</g>
<!-- es&#45;&gt;el -->
<g id="edge45" class="edge">
<title>es&#45;&gt;el</title>
<path fill="none" stroke="#000000" d="M1080.3959,-979.655C1109.5864,-976.2322 1142.8639,-971.9137 1173,-967 1212.4006,-960.5758 1222.5381,-959.6939 1261,-949 1309.9504,-935.3899 1364.2734,-915.7954 1403.5373,-900.7972"/>
<polygon fill="#000000" stroke="#000000" points="1405.1044,-903.9445 1413.1827,-897.0895 1402.5928,-897.4106 1405.1044,-903.9445"/>
<text text-anchor="middle" x="1226" y="-967" font-family="Times,serif" font-size="10.00" fill="#000000">requires</text>
</g>
<!-- es&#45;&gt;jaspic -->
<g id="edge43" class="edge">
<title>es&#45;&gt;jaspic</title>
<path fill="none" stroke="#000000" d="M1053.6816,-969.9936C1068.0055,-965.2694 1083.5527,-960.2978 1098,-956 1125.4081,-947.8467 1156.3948,-939.591 1181.0147,-933.2567"/>
<polygon fill="#000000" stroke="#000000" points="1181.9816,-936.6222 1190.8024,-930.7532 1180.2469,-929.8405 1181.9816,-936.6222"/>
<text text-anchor="middle" x="1135.5" y="-959" font-family="Times,serif" font-size="10.00" fill="#000000">requires</text>
</g>
<!-- es&#45;&gt;cdi -->
<g id="edge44" class="edge">
<title>es&#45;&gt;cdi</title>
<path fill="none" stroke="#000000" d="M1080.2641,-992.3113C1118.455,-995.9642 1158.9777,-1002.681 1173,-1015 1195.9438,-1035.1567 1213.5922,-1122.0467 1221.4797,-1167.7111"/>
<polygon fill="#000000" stroke="#000000" points="1218.0739,-1168.5633 1223.1862,-1177.8431 1224.9766,-1167.4007 1218.0739,-1168.5633"/>
<text text-anchor="middle" x="1135.5" y="-1018" font-family="Times,serif" font-size="10.00" fill="#000000">requires</text>
</g>
<!-- javamail&#45;&gt;jaf -->
<g id="edge41" class="edge">
<title>javamail&#45;&gt;jaf</title>
<path fill="none" stroke="#000000" d="M527.0873,-326.9507C563.1569,-326.0856 617.903,-325 665.5,-325 665.5,-325 665.5,-325 1001,-325 1078.2477,-325 1109.2826,-306.3274 1173,-350 1195.8123,-365.6358 1209.9389,-394.4958 1217.8114,-416.1295"/>
<polygon fill="#000000" stroke="#000000" points="1214.5602,-417.4402 1221.0909,-425.7829 1221.1882,-415.1885 1214.5602,-417.4402"/>
<text text-anchor="middle" x="771.5" y="-328" font-family="Times,serif" font-size="10.00" fill="#000000">requires</text>
</g>
<!-- jaxws&#45;&gt;ca -->
<g id="edge52" class="edge">
<title>jaxws&#45;&gt;ca</title>
<path fill="none" stroke="#000000" d="M370.1059,-626.5742C408.8386,-628.566 472.5175,-632.6567 527,-640 610.8787,-651.3054 631.1156,-658.8643 714,-676 756.346,-684.7547 863.3621,-703.2221 904,-718 995.3546,-751.2208 1010.8173,-776.0063 1098,-819 1169.6889,-854.353 1193.1702,-852.7122 1261,-895 1306.0598,-923.0921 1329.4054,-922.9398 1354,-970 1380.1068,-1019.9537 1354.5125,-1169.4171 1372,-1223 1385.9323,-1265.6896 1415.8678,-1308.5223 1436.5892,-1334.8915"/>
<polygon fill="#000000" stroke="#000000" points="1433.9801,-1337.2329 1442.9612,-1342.8534 1439.4454,-1332.8589 1433.9801,-1337.2329"/>
<text text-anchor="middle" x="866.5" y="-721" font-family="Times,serif" font-size="10.00" fill="#000000">requires</text>
</g>
<!-- jaxws&#45;&gt;ejb -->
<g id="edge66" class="edge">
<title>jaxws&#45;&gt;ejb</title>
<path fill="none" stroke="#000000" stroke-dasharray="5,2" d="M352.8532,-643.2913C374.5144,-665.9261 410.0973,-706.5734 430,-748 444.8448,-778.8989 439.7624,-789.7246 448,-823 491.1796,-997.4216 545.3154,-1206.4251 564.6895,-1280.9326"/>
<polygon fill="#000000" stroke="#000000" points="561.3852,-1282.1329 567.2903,-1290.9295 568.1597,-1280.3704 561.3852,-1282.1329"/>
<text text-anchor="middle" x="487.5" y="-1126" font-family="Times,serif" font-size="10.00" fill="#000000">integrates with</text>
</g>
<!-- jaxws&#45;&gt;jaf -->
<g id="edge42" class="edge">
<title>jaxws&#45;&gt;jaf</title>
<path fill="none" stroke="#000000" d="M364.4185,-606.9799C408.3158,-582.2979 493.4946,-541 572,-541 572,-541 572,-541 1001,-541 1080.9914,-541 1103.2716,-527.1991 1173,-488 1182.3822,-482.7256 1191.7181,-475.7216 1199.8807,-468.8559"/>
<polygon fill="#000000" stroke="#000000" points="1202.3806,-471.3196 1207.6105,-462.1055 1197.7761,-466.0471 1202.3806,-471.3196"/>
<text text-anchor="middle" x="771.5" y="-544" font-family="Times,serif" font-size="10.00" fill="#000000">requires</text>
</g>
<!-- jaxws&#45;&gt;jaxb -->
<g id="edge54" class="edge">
<title>jaxws&#45;&gt;jaxb</title>
<path fill="none" stroke="#000000" d="M349.5304,-606.6151C369.3829,-583.8327 406.6947,-545.9505 448,-529 541.6758,-490.5581 855.1674,-490.9941 963.6662,-492.364"/>
<polygon fill="#000000" stroke="#000000" points="963.7607,-495.8655 973.8076,-492.5026 963.8563,-488.8662 963.7607,-495.8655"/>
<text text-anchor="middle" x="665.5" y="-503" font-family="Times,serif" font-size="10.00" fill="#000000">requires</text>
</g>
<!-- jaxws&#45;&gt;servlet -->
<g id="edge67" class="edge">
<title>jaxws&#45;&gt;servlet</title>
<path fill="none" stroke="#000000" stroke-dasharray="5,2" d="M370.1881,-630.5378C468.8162,-646.4447 742.3357,-694.8137 811,-752 825.3599,-763.9595 815.2358,-777.3595 829,-790 855.2063,-814.0667 873.5185,-799.6465 904,-818 913.1697,-823.5213 913.1821,-827.9326 922,-834 931.9453,-840.8432 943.1779,-847.328 953.9859,-853.0359"/>
<polygon fill="#000000" stroke="#000000" points="952.4341,-856.1736 962.9271,-857.6386 955.6379,-849.9498 952.4341,-856.1736"/>
<text text-anchor="middle" x="665.5" y="-709" font-family="Times,serif" font-size="10.00" fill="#000000">integrates with</text>
</g>
<!-- jaxws&#45;&gt;saaj -->
<g id="edge53" class="edge">
<title>jaxws&#45;&gt;saaj</title>
<path fill="none" stroke="#000000" d="M344.8144,-606.6164C362.2035,-577.3489 400.1836,-520.373 448,-490 455.4343,-485.2777 501.0019,-473.7969 534.7533,-465.7096"/>
<polygon fill="#000000" stroke="#000000" points="535.8754,-469.0404 544.7932,-463.3199 534.2545,-462.2306 535.8754,-469.0404"/>
<text text-anchor="middle" x="487.5" y="-493" font-family="Times,serif" font-size="10.00" fill="#000000">requires</text>
</g>
<!-- jaxb&#45;&gt;jaf -->
<g id="edge55" class="edge">
<title>jaxb&#45;&gt;jaf</title>
<path fill="none" stroke="#000000" d="M1028.2139,-487.9634C1062.2112,-481.5564 1122.1089,-469.889 1173,-458 1178.1391,-456.7994 1183.5386,-455.4621 1188.8447,-454.1035"/>
<polygon fill="#000000" stroke="#000000" points="1190.0478,-457.4069 1198.84,-451.4953 1188.2803,-450.6337 1190.0478,-457.4069"/>
<text text-anchor="middle" x="1135.5" y="-476" font-family="Times,serif" font-size="10.00" fill="#000000">requires</text>
</g>
<!-- jaxrs&#45;&gt;ca -->
<g id="edge50" class="edge">
<title>jaxrs&#45;&gt;ca</title>
<path fill="none" stroke="#000000" d="M799.7554,-1180.3278C804.1331,-1184.3385 808.1426,-1188.9241 811,-1194 840.0452,-1245.5961 785.492,-1285.8399 829,-1326 848.2713,-1343.7884 1191.604,-1354.5607 1362.9079,-1358.8508"/>
<polygon fill="#000000" stroke="#000000" points="1362.8527,-1362.3504 1372.9364,-1359.0995 1363.0263,-1355.3526 1362.8527,-1362.3504"/>
<text text-anchor="middle" x="1135.5" y="-1355" font-family="Times,serif" font-size="10.00" fill="#000000">requires</text>
</g>
<!-- jaxrs&#45;&gt;jaxb -->
<g id="edge51" class="edge">
<title>jaxrs&#45;&gt;jaxb</title>
<path fill="none" stroke="#000000" d="M774.7442,-1143.9788C781.722,-1105.0026 798.5336,-1009.9313 811,-930 819.7851,-873.6724 803.0141,-853.7416 829,-803 850.0624,-761.8723 878.0466,-769.23 904,-731 950.7152,-662.1872 980.828,-567.4016 993.7484,-520.9497"/>
<polygon fill="#000000" stroke="#000000" points="997.1333,-521.8401 996.3847,-511.2717 990.3794,-520.0003 997.1333,-521.8401"/>
<text text-anchor="middle" x="866.5" y="-806" font-family="Times,serif" font-size="10.00" fill="#000000">requires</text>
</g>
<!-- jaxrs&#45;&gt;jsonb -->
<g id="edge65" class="edge">
<title>jaxrs&#45;&gt;jsonb</title>
<path fill="none" stroke="#000000" stroke-dasharray="5,2" d="M805.752,-1144.7404C813.3065,-1141.2663 821.3418,-1137.8204 829,-1135 870.7731,-1119.6154 919.8895,-1106.6842 954.9178,-1098.3047"/>
<polygon fill="#000000" stroke="#000000" points="955.9301,-1101.662 964.8586,-1095.9583 954.322,-1094.8492 955.9301,-1101.662"/>
<text text-anchor="middle" x="866.5" y="-1138" font-family="Times,serif" font-size="10.00" fill="#000000">integrates with</text>
</g>
<!-- jaxrs&#45;&gt;jsonp -->
<g id="edge64" class="edge">
<title>jaxrs&#45;&gt;jsonp</title>
<path fill="none" stroke="#000000" stroke-dasharray="5,2" d="M799.8543,-1180.2729C804.2219,-1184.2892 808.2024,-1188.8909 811,-1194 828.1842,-1225.3831 804.6257,-1327.8067 829,-1354 860.625,-1387.9852 915.7975,-1392.796 955.1272,-1391.1547"/>
<polygon fill="#000000" stroke="#000000" points="955.4789,-1394.6404 965.2632,-1390.5763 955.08,-1387.6518 955.4789,-1394.6404"/>
<text text-anchor="middle" x="866.5" y="-1391" font-family="Times,serif" font-size="10.00" fill="#000000">integrates with</text>
</g>
<!-- jaxrs&#45;&gt;servlet -->
<g id="edge61" class="edge">
<title>jaxrs&#45;&gt;servlet</title>
<path fill="none" stroke="#000000" stroke-dasharray="5,2" d="M784.2014,-1143.7921C809.4055,-1107.9495 867.981,-1026.0719 922,-961 939.4061,-940.0324 960.3128,-917.3743 976.2456,-900.5814"/>
<polygon fill="#000000" stroke="#000000" points="978.8161,-902.9575 983.1856,-893.3056 973.7508,-898.126 978.8161,-902.9575"/>
<text text-anchor="middle" x="866.5" y="-1082" font-family="Times,serif" font-size="10.00" fill="#000000">integrates with</text>
</g>
<!-- jaxrs&#45;&gt;cdi -->
<g id="edge62" class="edge">
<title>jaxrs&#45;&gt;cdi</title>
<path fill="none" stroke="#000000" stroke-dasharray="5,2" d="M805.7887,-1167.898C813.4125,-1169.061 821.4669,-1170.175 829,-1171 960.9013,-1185.4445 1118.4404,-1192.2894 1188.833,-1194.8056"/>
<polygon fill="#000000" stroke="#000000" points="1188.8536,-1198.3083 1198.9696,-1195.1593 1189.0978,-1191.3126 1188.8536,-1198.3083"/>
<text text-anchor="middle" x="1001" y="-1192" font-family="Times,serif" font-size="10.00" fill="#000000">integrates with</text>
</g>
<!-- jaxrs&#45;&gt;bv -->
<g id="edge63" class="edge">
<title>jaxrs&#45;&gt;bv</title>
<path fill="none" stroke="#000000" stroke-dasharray="5,2" d="M805.8585,-1159.0058C837.6745,-1156.2332 886.0604,-1152.0165 926.6901,-1148.4758"/>
<polygon fill="#000000" stroke="#000000" points="927.1795,-1151.9465 936.8378,-1147.5915 926.5717,-1144.9729 927.1795,-1151.9465"/>
<text text-anchor="middle" x="866.5" y="-1159" font-family="Times,serif" font-size="10.00" fill="#000000">integrates with</text>
</g>
<!-- jca&#45;&gt;ejb -->
<g id="edge68" class="edge">
<title>jca&#45;&gt;ejb</title>
<path fill="none" stroke="#000000" stroke-dasharray="5,2" d="M371.8466,-1257.8665C411.2795,-1260.6972 474.8333,-1267.7275 527,-1285 529.758,-1285.9132 532.5483,-1286.9866 535.3173,-1288.1641"/>
<polygon fill="#000000" stroke="#000000" points="371.8459,-1254.3588 361.6361,-1257.1891 371.3825,-1261.3435 371.8459,-1254.3588"/>
<polygon fill="#000000" stroke="#000000" points="534.0302,-1291.4258 544.5717,-1292.4872 536.9929,-1285.0837 534.0302,-1291.4258"/>
<text text-anchor="middle" x="487.5" y="-1288" font-family="Times,serif" font-size="10.00" fill="#000000">integrates with</text>
</g>
<!-- jca&#45;&gt;cdi -->
<g id="edge69" class="edge">
<title>jca&#45;&gt;cdi</title>
<path fill="none" stroke="#000000" stroke-dasharray="5,2" d="M361.7739,-1253.2289C399.2384,-1249.1832 468.6231,-1240.8322 527,-1229 567.5728,-1220.7765 575.9531,-1210.3789 617,-1205 659.7456,-1199.3985 670.8889,-1204.9439 714,-1205 884.6671,-1205.2222 927.3329,-1205.7778 1098,-1206 1131.3333,-1206.0434 1139.8115,-1209.1036 1173,-1206 1178.1699,-1205.5165 1183.5869,-1204.7733 1188.9014,-1203.9055"/>
<polygon fill="#000000" stroke="#000000" points="1189.6744,-1207.3229 1198.9031,-1202.1188 1188.4434,-1200.432 1189.6744,-1207.3229"/>
<text text-anchor="middle" x="771.5" y="-1208" font-family="Times,serif" font-size="10.00" fill="#000000">integrates with</text>
</g>
<!-- jpa&#45;&gt;cdi -->
<g id="edge70" class="edge">
<title>jpa&#45;&gt;cdi</title>
<path fill="none" stroke="#000000" stroke-dasharray="5,2" d="M893.535,-1537.3812C938.9527,-1544.6913 1030.45,-1551.7014 1080,-1502 1121.4927,-1460.3805 1061.2744,-1416.8809 1098,-1371 1120.2347,-1343.2224 1147.9829,-1368.3006 1173,-1343 1205.0469,-1310.5899 1217.8576,-1257.4065 1222.8781,-1224.6752"/>
<polygon fill="#000000" stroke="#000000" points="1226.3935,-1224.8043 1224.2985,-1214.4187 1219.4597,-1223.8439 1226.3935,-1224.8043"/>
<text text-anchor="middle" x="1001" y="-1545" font-family="Times,serif" font-size="10.00" fill="#000000">integrates with</text>
</g>
<!-- jsonb&#45;&gt;cdi -->
<g id="edge72" class="edge">
<title>jsonb&#45;&gt;cdi</title>
<path fill="none" stroke="#000000" stroke-dasharray="5,2" d="M1037.2584,-1092.6736C1073.7756,-1098.6716 1130.6242,-1111.6295 1173,-1138 1186.2331,-1146.235 1198.2121,-1158.6739 1207.4202,-1169.9231"/>
<polygon fill="#000000" stroke="#000000" points="1204.6907,-1172.1145 1213.6136,-1177.827 1210.2006,-1167.7969 1204.6907,-1172.1145"/>
<text text-anchor="middle" x="1135.5" y="-1141" font-family="Times,serif" font-size="10.00" fill="#000000">integrates with</text>
</g>
<!-- jsf&#45;&gt;el -->
<g id="edge36" class="edge">
<title>jsf&#45;&gt;el</title>
<path fill="none" stroke="#000000" d="M361.6301,-767.6351C431.1257,-748.7782 610.5548,-700.1501 617,-699 684.8758,-686.8879 702.552,-685 771.5,-685 771.5,-685 771.5,-685 1226,-685 1329.1187,-685 1410.7133,-798.8961 1443.228,-852.1493"/>
<polygon fill="#000000" stroke="#000000" points="1440.2353,-853.9644 1448.3729,-860.749 1446.2423,-850.3705 1440.2353,-853.9644"/>
<text text-anchor="middle" x="866.5" y="-688" font-family="Times,serif" font-size="10.00" fill="#000000">requires</text>
</g>
<!-- jsf&#45;&gt;jsp -->
<g id="edge35" class="edge">
<title>jsf&#45;&gt;jsp</title>
<path fill="none" stroke="#000000" d="M361.5065,-775.2472C436.6225,-775.9348 648.1398,-777.8708 734.2885,-778.6594"/>
<polygon fill="#000000" stroke="#000000" points="734.3631,-782.1601 744.3948,-778.7519 734.4273,-775.1604 734.3631,-782.1601"/>
<text text-anchor="middle" x="572" y="-780" font-family="Times,serif" font-size="10.00" fill="#000000">requires</text>
</g>
<!-- jsf&#45;&gt;jstl -->
<g id="edge37" class="edge">
<title>jsf&#45;&gt;jstl</title>
<path fill="none" stroke="#000000" d="M361.5926,-778.1516C399.1397,-782.8561 468.9348,-792.8206 527,-808 529.6172,-808.6842 532.2982,-809.4538 534.9842,-810.2761"/>
<polygon fill="#000000" stroke="#000000" points="534.0354,-813.6481 544.6279,-813.425 536.2083,-806.9939 534.0354,-813.6481"/>
<text text-anchor="middle" x="487.5" y="-811" font-family="Times,serif" font-size="10.00" fill="#000000">requires</text>
</g>
<!-- jsp&#45;&gt;el -->
<g id="edge40" class="edge">
<title>jsp&#45;&gt;el</title>
<path fill="none" stroke="#000000" d="M798.6131,-782.3033C872.7646,-791.4136 1085.1237,-818.0136 1261,-845 1294.1918,-850.0929 1330.4286,-856.1784 1362.6966,-861.7841"/>
<polygon fill="#000000" stroke="#000000" points="1362.123,-865.2368 1372.5756,-863.5068 1363.3255,-858.3409 1362.123,-865.2368"/>
<text text-anchor="middle" x="1135.5" y="-834" font-family="Times,serif" font-size="10.00" fill="#000000">requires</text>
</g>
<!-- jsp&#45;&gt;servlet -->
<g id="edge39" class="edge">
<title>jsp&#45;&gt;servlet</title>
<path fill="none" stroke="#000000" d="M794.9391,-797.0595C805.0325,-804.2535 817.2072,-812.1867 829,-818 834.8074,-820.8628 904.2992,-843.6234 953.1508,-859.5014"/>
<polygon fill="#000000" stroke="#000000" points="952.3339,-862.916 962.926,-862.6763 954.4963,-856.2583 952.3339,-862.916"/>
<text text-anchor="middle" x="866.5" y="-846" font-family="Times,serif" font-size="10.00" fill="#000000">requires</text>
</g>
<!-- jstl&#45;&gt;jsp -->
<g id="edge38" class="edge">
<title>jstl&#45;&gt;jsp</title>
<path fill="none" stroke="#000000" d="M599.3213,-817.8373C634.2934,-809.9489 695.0358,-796.2476 734.2315,-787.4064"/>
<polygon fill="#000000" stroke="#000000" points="735.2045,-790.775 744.1893,-785.1603 733.6642,-783.9465 735.2045,-790.775"/>
<text text-anchor="middle" x="665.5" y="-816" font-family="Times,serif" font-size="10.00" fill="#000000">requires</text>
</g>
<!-- jta&#45;&gt;cdi -->
<g id="edge73" class="edge">
<title>jta&#45;&gt;cdi</title>
<path fill="none" stroke="#000000" stroke-dasharray="5,2" d="M798.6211,-1479.4586C872.0133,-1464.3589 1069.71,-1422.9542 1080,-1413 1102.1614,-1391.5619 1077.5214,-1369.0509 1098,-1346 1121.8442,-1319.1608 1147.1688,-1340.9327 1173,-1316 1198.8949,-1291.0059 1213.0158,-1251.1444 1220.0316,-1224.2938"/>
<polygon fill="#000000" stroke="#000000" points="1223.4866,-1224.8992 1222.4608,-1214.3541 1216.6867,-1223.2373 1223.4866,-1224.8992"/>
<text text-anchor="middle" x="1001" y="-1455" font-family="Times,serif" font-size="10.00" fill="#000000">integrates with</text>
</g>
<!-- servlet&#45;&gt;jaspic -->
<g id="edge74" class="edge">
<title>servlet&#45;&gt;jaspic</title>
<path fill="none" stroke="#000000" stroke-dasharray="5,2" d="M1039.276,-876.4662C1074.6017,-878.6189 1128.2071,-883.9262 1173,-897 1176.1252,-897.9122 1179.2972,-898.9869 1182.4555,-900.1693"/>
<polygon fill="#000000" stroke="#000000" points="1181.2471,-903.4562 1191.8287,-903.9848 1183.8863,-896.9728 1181.2471,-903.4562"/>
<text text-anchor="middle" x="1135.5" y="-900" font-family="Times,serif" font-size="10.00" fill="#000000">integrates with</text>
</g>
<!-- websocket&#45;&gt;servlet -->
<g id="edge75" class="edge">
<title>websocket&#45;&gt;servlet</title>
<path fill="none" stroke="#000000" stroke-dasharray="5,2" d="M714.2846,-908.3291C777.9818,-900.9246 888.8278,-888.0394 952.4226,-880.6469"/>
<polygon fill="#000000" stroke="#000000" points="953.059,-884.0965 962.588,-879.4652 952.2507,-877.1433 953.059,-884.0965"/>
<text text-anchor="middle" x="771.5" y="-909" font-family="Times,serif" font-size="10.00" fill="#000000">integrates with</text>
</g>
<!-- saaj&#45;&gt;jaf -->
<g id="edge56" class="edge">
<title>saaj&#45;&gt;jaf</title>
<path fill="none" stroke="#000000" d="M599.2689,-456.458C702.6387,-454.4032 1070.4761,-447.0915 1188.9458,-444.7366"/>
<polygon fill="#000000" stroke="#000000" points="1189.0485,-448.2353 1198.9769,-444.5372 1188.9093,-441.2367 1189.0485,-448.2353"/>
<text text-anchor="middle" x="866.5" y="-454" font-family="Times,serif" font-size="10.00" fill="#000000">requires</text>
</g>
<!-- cdi&#45;&gt;ca -->
<g id="edge49" class="edge">
<title>cdi&#45;&gt;ca</title>
<path fill="none" stroke="#000000" d="M1251.7699,-1214.2883C1293.9539,-1244.2253 1377.7365,-1303.6839 1424.6555,-1336.9813"/>
<polygon fill="#000000" stroke="#000000" points="1422.7883,-1339.948 1432.969,-1342.8812 1426.8396,-1334.2394 1422.7883,-1339.948"/>
<text text-anchor="middle" x="1316.5" y="-1286" font-family="Times,serif" font-size="10.00" fill="#000000">requires</text>
</g>
<!-- cdi&#45;&gt;ejb -->
<g id="edge57" class="edge">
<title>cdi&#45;&gt;ejb</title>
<path fill="none" stroke="#000000" stroke-dasharray="5,2" d="M1206.4502,-1222.0778C1197.4259,-1232.1883 1185.8571,-1242.8037 1173,-1249 978.1871,-1342.8865 707.209,-1324.4419 609.2181,-1313.7231"/>
<polygon fill="#000000" stroke="#000000" points="1209.3465,-1224.0725 1213.1181,-1214.1717 1203.9955,-1219.5595 1209.3465,-1224.0725"/>
<polygon fill="#000000" stroke="#000000" points="609.5383,-1310.237 599.2076,-1312.588 608.7496,-1317.1925 609.5383,-1310.237"/>
<text text-anchor="middle" x="866.5" y="-1324" font-family="Times,serif" font-size="10.00" fill="#000000">integrates with</text>
</g>
<!-- cdi&#45;&gt;el -->
<g id="edge48" class="edge">
<title>cdi&#45;&gt;el</title>
<path fill="none" stroke="#000000" d="M1249.4414,-1177.8109C1276.9125,-1155.6604 1322.6557,-1116.0893 1354,-1075 1395.9363,-1020.0256 1430.3923,-945.9081 1447.2738,-906.4324"/>
<polygon fill="#000000" stroke="#000000" points="1450.5169,-907.7493 1451.1809,-897.1753 1444.0678,-905.0273 1450.5169,-907.7493"/>
<text text-anchor="middle" x="1316.5" y="-1153" font-family="Times,serif" font-size="10.00" fill="#000000">requires</text>
</g>
<!-- cdi&#45;&gt;el -->
<g id="edge58" class="edge">
<title>cdi&#45;&gt;el</title>
<path fill="none" stroke="#000000" stroke-dasharray="5,2" d="M1230.5447,-1177.7227C1237.8581,-1150.518 1254.0015,-1098.4555 1279,-1060 1320.6598,-995.9141 1387.8107,-935.9146 1427.0941,-903.658"/>
<polygon fill="#000000" stroke="#000000" points="1429.4819,-906.2276 1435.0346,-897.2044 1425.0669,-900.7955 1429.4819,-906.2276"/>
<text text-anchor="middle" x="1316.5" y="-1063" font-family="Times,serif" font-size="10.00" fill="#000000">integrates with</text>
</g>
<!-- cdi&#45;&gt;interceptors -->
<g id="edge47" class="edge">
<title>cdi&#45;&gt;interceptors</title>
<path fill="none" stroke="#000000" d="M1233.3801,-1214.3427C1242.4005,-1235.5913 1258.9647,-1271.1186 1279,-1298 1319.2668,-1352.0261 1381.9333,-1399.8139 1421.5653,-1427.0606"/>
<polygon fill="#000000" stroke="#000000" points="1419.9032,-1430.1626 1430.1426,-1432.884 1423.8352,-1424.3712 1419.9032,-1430.1626"/>
<text text-anchor="middle" x="1316.5" y="-1375" font-family="Times,serif" font-size="10.00" fill="#000000">requires</text>
</g>
<!-- di -->
<g id="node32" class="node">
<title>di</title>
<path fill="none" stroke="#000000" d="M1533,-1214C1533,-1214 1384,-1214 1384,-1214 1378,-1214 1372,-1208 1372,-1202 1372,-1202 1372,-1190 1372,-1190 1372,-1184 1378,-1178 1384,-1178 1384,-1178 1533,-1178 1533,-1178 1539,-1178 1545,-1184 1545,-1190 1545,-1190 1545,-1202 1545,-1202 1545,-1208 1539,-1214 1533,-1214"/>
<text text-anchor="middle" x="1458.5" y="-1192.3" font-family="Times,serif" font-size="14.00" fill="#000000">Dependency Injection</text>
</g>
<!-- cdi&#45;&gt;di -->
<g id="edge46" class="edge">
<title>cdi&#45;&gt;di</title>
<path fill="none" stroke="#000000" d="M1253.1257,-1196C1279.8479,-1196 1322.2722,-1196 1361.6426,-1196"/>
<polygon fill="#000000" stroke="#000000" points="1361.8423,-1199.5001 1371.8423,-1196 1361.8423,-1192.5001 1361.8423,-1199.5001"/>
<text text-anchor="middle" x="1316.5" y="-1199" font-family="Times,serif" font-size="10.00" fill="#000000">requires</text>
</g>
<!-- bv&#45;&gt;cdi -->
<g id="edge71" class="edge">
<title>bv&#45;&gt;cdi</title>
<path fill="none" stroke="#000000" stroke-dasharray="5,2" d="M1065.2862,-1148.5957C1098.0328,-1153.0156 1138.1815,-1160.0807 1173,-1171 1178.3998,-1172.6934 1183.9553,-1174.8312 1189.3439,-1177.1404"/>
<polygon fill="#000000" stroke="#000000" points="1188.2403,-1180.4829 1198.7934,-1181.4229 1191.1299,-1174.1071 1188.2403,-1180.4829"/>
<text text-anchor="middle" x="1135.5" y="-1174" font-family="Times,serif" font-size="10.00" fill="#000000">integrates with</text>
</g>
</g>
</svg>
